M48
; DRILL file {KiCad (5.1.6)-1} date 06/19/20 12:40:49
; FORMAT={3:3/ absolute / metric / suppress leading zeros}
; #@! TF.CreationDate,2020-06-19T12:40:49+02:00
; #@! TF.GenerationSoftware,Kicad,Pcbnew,(5.1.6)-1
; #@! TF.FileFunction,Plated,1,4,PTH
FMAT,2
METRIC,TZ
T1C0.300
T2C0.400
T3C0.500
T4C0.550
T5C0.700
T6C0.800
T7C1.000
T8C1.520
%
G90
G05
T1
X41000Y-45000
X41000Y-55000
X41000Y-65000
X41000Y-75000
X41000Y-84000
X41000Y-105000
X41000Y-115000
X41000Y-125000
X41000Y-135000
X42600Y-104100
X42600Y-105700
X43162Y-77038
X43162Y-81538
X43162Y-89738
X43250Y-59750
X43825Y-74700
X44100Y-107100
X44345Y-95355
X44700Y-81800
X45000Y-41000
X45000Y-64500
X45000Y-124000
X45000Y-139000
X45700Y-116900
X45700Y-119100
X46000Y-95250
X46000Y-102250
X46200Y-67500
X46200Y-77200
X46250Y-87000
X47000Y-82000
X47400Y-98700
X47400Y-100900
X47400Y-123900
X47500Y-79400
X47700Y-83900
X47700Y-116800
X48000Y-119100
X48200Y-99700
X48500Y-59500
X48700Y-80000
X48700Y-100800
X49200Y-81800
X49500Y-65300
X49800Y-100100
X49900Y-70200
X49900Y-75100
X50000Y-41000
X50000Y-55500
X50000Y-116000
X50250Y-52500
X50500Y-87000
X50500Y-123650
X50900Y-74100
X50900Y-95400
X51000Y-91250
X51100Y-69200
X52100Y-101600
X52300Y-119600
X52750Y-97000
X52800Y-80300
X53000Y-100250
X53000Y-123600
X53750Y-112250
X53900Y-68200
X54000Y-80250
X55000Y-139000
X55200Y-121300
X55750Y-124000
X55900Y-122700
X56200Y-71200
X56250Y-65500
X56250Y-112000
X56425Y-77750
X56750Y-83250
X57000Y-115000
X57000Y-118000
X57100Y-120100
X57100Y-127600
X57400Y-124100
X57500Y-67250
X57500Y-68500
X57500Y-99000
X57500Y-105500
X57713Y-79538
X58000Y-108250
X58200Y-71200
X58250Y-85500
X58500Y-94750
X58750Y-55750
X59200Y-83900
X59300Y-97200
X59300Y-100600
X59750Y-67250
X59800Y-71200
X60000Y-41000
X60000Y-75400
X60000Y-76750
X60000Y-132200
X60000Y-134100
X60250Y-81750
X60500Y-110750
X60575Y-74500
X61000Y-72200
X61750Y-81750
X61750Y-108500
X61800Y-57200
X61800Y-58200
X61800Y-63900
X62000Y-59900
X62000Y-61600
X62500Y-94750
X62500Y-122700
X62898Y-68904
X63000Y-51500
X63000Y-84250
X63121Y-69672
X63200Y-63900
X63250Y-45500
X63250Y-47500
X63300Y-60700
X63300Y-62500
X63400Y-65500
X63400Y-67300
X63750Y-73250
X63750Y-77000
X64000Y-57200
X64000Y-58200
X64000Y-111000
X64250Y-108500
X64500Y-100300
X64770Y-78480
X64874Y-73212
X65000Y-83750
X65000Y-139000
X65100Y-91800
X65250Y-51500
X65400Y-60600
X65500Y-85250
X65500Y-125500
X65600Y-64600
X65600Y-66100
X65600Y-67700
X66000Y-77000
X66100Y-57200
X66100Y-58200
X66100Y-82800
X66250Y-79000
X66400Y-43200
X66500Y-86000
X66500Y-111000
X66750Y-84250
X66750Y-95500
X67000Y-102800
X67100Y-122700
X67100Y-127500
X67200Y-73200
X67300Y-60600
X67375Y-78875
X67600Y-100000
X67800Y-75900
X68093Y-81657
X68250Y-60000
X68250Y-72250
X68250Y-77500
X68250Y-97000
X68300Y-55200
X68500Y-52500
X69200Y-101600
X69250Y-44250
X69250Y-45750
X69250Y-47250
X69250Y-49750
X69250Y-50750
X69250Y-79250
X69250Y-80750
X69250Y-90750
X69250Y-77750
X69300Y-105100
X69400Y-55200
X69500Y-53600
X69500Y-60000
X70000Y-46500
X70000Y-131900
X70000Y-134100
X70200Y-81400
X70250Y-45000
X70300Y-93000
X70500Y-96100
X70700Y-77750
X70750Y-60000
X71000Y-41000
X71000Y-45750
X71000Y-47250
X71000Y-55400
X71000Y-72500
X71750Y-72500
X72000Y-77750
X72000Y-81500
X72250Y-69250
X72750Y-70500
X72800Y-81900
X72800Y-124900
X73100Y-73800
X73250Y-68250
X73492Y-92465
X73500Y-57800
X73500Y-72700
X73600Y-48200
X73600Y-103800
X73800Y-122700
X74192Y-93708
X74200Y-102800
X74500Y-63500
X74500Y-80500
X74750Y-73750
X74800Y-94800
X74800Y-103500
X75000Y-60100
X75000Y-70000
X75000Y-75400
X75000Y-139000
X75100Y-86600
X75250Y-64250
X75400Y-102800
X75408Y-98283
X75600Y-116800
X75600Y-120000
X75820Y-104284
X76000Y-126600
X76000Y-127600
X76092Y-99783
X76400Y-48100
X76500Y-59100
X76500Y-60900
X76750Y-61750
X77000Y-76400
X77063Y-73962
X77100Y-69200
X77100Y-126600
X77100Y-127600
X77250Y-68000
X77250Y-72750
X77250Y-80500
X77300Y-77600
X77400Y-117300
X77500Y-66250
X77600Y-49100
X77600Y-119600
X77750Y-43000
X77900Y-114600
X78000Y-53250
X78250Y-72750
X78407Y-86893
X78500Y-109000
X78500Y-110375
X78600Y-121200
X78750Y-66500
X78750Y-70250
X78750Y-105750
X79000Y-50500
X79000Y-51900
X79000Y-72750
X79000Y-104250
X79000Y-107000
X79100Y-92500
X79200Y-75900
X79425Y-56400
X79500Y-67750
X79500Y-71750
X79500Y-94900
X79500Y-100700
X79500Y-102700
X79600Y-54400
X79600Y-98800
X79700Y-77900
X79700Y-97300
X79800Y-57500
X79800Y-132000
X79900Y-134100
X79918Y-88832
X80000Y-41000
X80000Y-129500
X80250Y-43625
X80250Y-44600
X80250Y-59250
X80500Y-46750
X80500Y-73250
X80500Y-85750
X80500Y-107100
X81000Y-54700
X81000Y-66500
X81500Y-69250
X81800Y-113000
X82000Y-72750
X82000Y-73750
X82000Y-94000
X82000Y-88750
X82050Y-54350
X82250Y-104000
X83000Y-54800
X83100Y-89600
X83125Y-43625
X83125Y-44600
X83250Y-59750
X83250Y-73750
X83300Y-77200
X83496Y-65746
X83500Y-72750
X83750Y-55600
X83750Y-70250
X83750Y-131500
X83900Y-113100
X84000Y-68250
X84000Y-73750
X84000Y-97000
X84000Y-100750
X84000Y-110800
X84220Y-81830
X84250Y-77900
X84500Y-56450
X84500Y-62450
X84500Y-88750
X84700Y-114800
X85000Y-67200
X85000Y-117000
X85000Y-122000
X85000Y-123900
X85000Y-139000
X85440Y-83200
X85550Y-80800
X85750Y-94000
X85910Y-91510
X86000Y-73200
X86000Y-101500
X86100Y-131800
X86100Y-132800
X86200Y-88800
X86250Y-98250
X86250Y-106750
X86750Y-56157
X86750Y-57000
X86750Y-59250
X87000Y-48500
X87100Y-73200
X87200Y-131800
X87200Y-132800
X87250Y-47500
X87250Y-66750
X87350Y-61250
X87500Y-106750
X87550Y-80800
X87600Y-128000
X87900Y-59400
X88000Y-55175
X88000Y-56500
X88000Y-73750
X88100Y-60850
X88100Y-110200
X88250Y-96250
X88500Y-73000
X88700Y-93500
X89000Y-106750
X89100Y-90208
X89300Y-94100
X89580Y-65150
X89800Y-91000
X89900Y-131600
X89900Y-133700
X90000Y-52250
X90100Y-93700
X90200Y-102200
X90200Y-104200
X90500Y-91600
X90500Y-106750
X90500Y-110200
X90875Y-59875
X90900Y-92500
X90900Y-94100
X91000Y-55250
X91000Y-57250
X91000Y-60750
X91000Y-95250
X91250Y-62250
X91250Y-105250
X91283Y-59154
X91500Y-106500
X91500Y-110100
X91590Y-45940
X91750Y-73000
X91750Y-74000
X91750Y-111000
X91750Y-113000
X91800Y-93700
X91945Y-68875
X91951Y-69675
X92040Y-67710
X92250Y-117250
X92250Y-119750
X92300Y-88800
X92360Y-70363
X92400Y-71300
X92500Y-106425
X92700Y-102200
X92720Y-45931
X92750Y-72250
X92750Y-73250
X92750Y-74000
X93434Y-103500
X93495Y-105925
X93500Y-99750
X93675Y-83938
X93750Y-102750
X93750Y-131500
X94000Y-105250
X94100Y-88600
X94241Y-99133
X94500Y-75500
X94500Y-76250
X94500Y-77000
X94500Y-78250
X94500Y-79250
X95000Y-55250
X95000Y-57250
X95000Y-61900
X95000Y-65600
X95000Y-102750
X95000Y-124500
X95000Y-139000
X95246Y-98750
X95400Y-92600
X95700Y-88900
X95750Y-102250
X96000Y-62100
X96000Y-65750
X96000Y-98175
X96000Y-132000
X96000Y-133000
X96499Y-123562
X96500Y-88600
X96500Y-101675
X96750Y-66500
X96750Y-97600
X96925Y-93700
X97000Y-47100
X97000Y-48400
X97000Y-49800
X97000Y-51100
X97200Y-132000
X97200Y-133000
X97250Y-101000
X97298Y-97017
X97500Y-46100
X97500Y-59250
X97500Y-61000
X97500Y-67500
X97500Y-124250
X97550Y-127950
X98750Y-56750
X98750Y-82250
X99500Y-56750
X99500Y-82250
X99500Y-83000
X99668Y-74770
X99750Y-71750
X99750Y-72500
X99900Y-132100
X99900Y-134000
X100000Y-128500
X100073Y-77610
X100109Y-76811
X100189Y-78401
X100221Y-80053
X100225Y-79248
X100600Y-108500
X100710Y-63680
X100750Y-45500
X100900Y-105300
X101250Y-46250
X101300Y-95000
X101700Y-96700
X101750Y-45500
X101750Y-47000
X101900Y-90100
X102250Y-46250
X102750Y-45500
X102750Y-47000
X103250Y-46250
X103500Y-111100
X103675Y-52925
X103675Y-57075
X103689Y-55503
X103750Y-45500
X103750Y-47000
X103750Y-54500
X104000Y-114500
X104700Y-84100
X104800Y-78400
X105000Y-41000
X105000Y-139000
X105500Y-129500
X105750Y-118750
X106250Y-44000
X106250Y-45250
X106250Y-77250
X107300Y-76400
X107500Y-130250
X108500Y-76900
X109500Y-79250
X109900Y-75700
X110500Y-79250
X111300Y-77000
X111469Y-79281
X112000Y-69750
X112200Y-73800
X112300Y-75900
X112750Y-68500
X113500Y-67250
X113700Y-74900
X113700Y-76800
X114250Y-66000
X115000Y-41000
X115000Y-64750
X115000Y-139000
X115750Y-63500
X116250Y-130250
X116500Y-62250
X119000Y-45000
X119000Y-53000
X119000Y-125000
X119000Y-135000
T2
X62700Y-97400
X70200Y-98800
X100176Y-75963
T3
X97600Y-64800
T5
X42700Y-100100
X66000Y-98600
X79250Y-83475
X88000Y-70450
X111800Y-48200
T6
X51500Y-113400
X56000Y-137000
X104750Y-137500
T7
X107493Y-106510
X107493Y-109050
X107493Y-111590
X107493Y-114130
X107493Y-116670
X107493Y-119210
X110033Y-106510
X110033Y-109050
X110033Y-111590
X110033Y-114130
X110033Y-116670
X110033Y-119210
X55067Y-73965
X55067Y-76505
X55067Y-79045
X55067Y-81585
X55067Y-84125
X55067Y-86665
X55067Y-89205
X55067Y-91745
X107493Y-60790
X107493Y-63330
X107493Y-65870
X107493Y-68410
X107493Y-70950
X107493Y-73490
X110033Y-60790
X110033Y-63330
X110033Y-65870
X110033Y-68410
X110033Y-70950
X110033Y-73490
X107493Y-83650
X107493Y-86190
X107493Y-88730
X107493Y-91270
X107493Y-93810
X107493Y-96350
X110033Y-83650
X110033Y-86190
X110033Y-88730
X110033Y-91270
X110033Y-93810
X110033Y-96350
X103327Y-64821
X103327Y-67361
X103327Y-69901
X103327Y-72441
X103327Y-74981
X103327Y-77521
X103327Y-80061
X103327Y-82601
X103327Y-85141
X103327Y-87681
X55067Y-96825
X55067Y-99365
X55067Y-101905
X55067Y-104445
X55067Y-106985
X55067Y-109525
X103327Y-91745
X103327Y-94285
X103327Y-96825
X103327Y-99365
X103327Y-101905
X103327Y-104445
X103327Y-106985
X103327Y-109525
X72210Y-42250
X74750Y-42250
T8
X44000Y-51420
X44000Y-56500
T3
G00X88500Y-41825
M15
G01X88500Y-41175
M16
G05
G00X95500Y-41825
M15
G01X95500Y-41175
M16
G05
T4
G00X89650Y-44200
M15
G01X89350Y-44200
M16
G05
G00X94650Y-44200
M15
G01X94350Y-44200
M16
G05
T0
M30
