%TF.GenerationSoftware,KiCad,Pcbnew,(5.1.6)-1*%
%TF.CreationDate,2020-06-19T12:40:56+02:00*%
%TF.ProjectId,iceduino,69636564-7569-46e6-9f2e-6b696361645f,rev?*%
%TF.SameCoordinates,Original*%
%TF.FileFunction,Soldermask,Bot*%
%TF.FilePolarity,Negative*%
%FSLAX46Y46*%
G04 Gerber Fmt 4.6, Leading zero omitted, Abs format (unit mm)*
G04 Created by KiCad (PCBNEW (5.1.6)-1) date 2020-06-19 12:40:56*
%MOMM*%
%LPD*%
G01*
G04 APERTURE LIST*
%ADD10C,0.100000*%
G04 APERTURE END LIST*
D10*
G36*
X115302390Y-133479782D02*
G01*
X115452118Y-133509565D01*
X115568960Y-133557963D01*
X115734199Y-133626407D01*
X115734200Y-133626408D01*
X115988068Y-133796036D01*
X116203964Y-134011932D01*
X116203965Y-134011934D01*
X116373593Y-134265801D01*
X116490435Y-134547883D01*
X116550000Y-134847337D01*
X116550000Y-135152663D01*
X116490435Y-135452117D01*
X116373593Y-135734199D01*
X116373592Y-135734200D01*
X116203964Y-135988068D01*
X115988068Y-136203964D01*
X115860273Y-136289353D01*
X115734199Y-136373593D01*
X115568960Y-136442037D01*
X115452118Y-136490435D01*
X115302390Y-136520218D01*
X115152663Y-136550000D01*
X114847337Y-136550000D01*
X114697610Y-136520218D01*
X114547882Y-136490435D01*
X114431040Y-136442037D01*
X114265801Y-136373593D01*
X114139727Y-136289353D01*
X114011932Y-136203964D01*
X113796036Y-135988068D01*
X113626408Y-135734200D01*
X113626407Y-135734199D01*
X113509565Y-135452117D01*
X113450000Y-135152663D01*
X113450000Y-134847337D01*
X113509565Y-134547883D01*
X113626407Y-134265801D01*
X113796035Y-134011934D01*
X113796036Y-134011932D01*
X114011932Y-133796036D01*
X114265800Y-133626408D01*
X114265801Y-133626407D01*
X114431040Y-133557963D01*
X114547882Y-133509565D01*
X114697610Y-133479782D01*
X114847337Y-133450000D01*
X115152663Y-133450000D01*
X115302390Y-133479782D01*
G37*
G36*
X45302390Y-133479782D02*
G01*
X45452118Y-133509565D01*
X45568960Y-133557963D01*
X45734199Y-133626407D01*
X45734200Y-133626408D01*
X45988068Y-133796036D01*
X46203964Y-134011932D01*
X46203965Y-134011934D01*
X46373593Y-134265801D01*
X46490435Y-134547883D01*
X46550000Y-134847337D01*
X46550000Y-135152663D01*
X46490435Y-135452117D01*
X46373593Y-135734199D01*
X46373592Y-135734200D01*
X46203964Y-135988068D01*
X45988068Y-136203964D01*
X45860273Y-136289353D01*
X45734199Y-136373593D01*
X45568960Y-136442037D01*
X45452118Y-136490435D01*
X45302390Y-136520218D01*
X45152663Y-136550000D01*
X44847337Y-136550000D01*
X44697610Y-136520218D01*
X44547882Y-136490435D01*
X44431040Y-136442037D01*
X44265801Y-136373593D01*
X44139727Y-136289353D01*
X44011932Y-136203964D01*
X43796036Y-135988068D01*
X43626408Y-135734200D01*
X43626407Y-135734199D01*
X43509565Y-135452117D01*
X43450000Y-135152663D01*
X43450000Y-134847337D01*
X43509565Y-134547883D01*
X43626407Y-134265801D01*
X43796035Y-134011934D01*
X43796036Y-134011932D01*
X44011932Y-133796036D01*
X44265800Y-133626408D01*
X44265801Y-133626407D01*
X44431040Y-133557963D01*
X44547882Y-133509565D01*
X44697610Y-133479782D01*
X44847337Y-133450000D01*
X45152663Y-133450000D01*
X45302390Y-133479782D01*
G37*
G36*
X110237361Y-118332877D02*
G01*
X110295320Y-118344406D01*
X110459110Y-118412250D01*
X110606517Y-118510744D01*
X110731876Y-118636103D01*
X110830370Y-118783510D01*
X110898214Y-118947300D01*
X110932800Y-119121178D01*
X110932800Y-119298462D01*
X110898214Y-119472340D01*
X110830370Y-119636130D01*
X110731876Y-119783537D01*
X110606517Y-119908896D01*
X110459110Y-120007390D01*
X110295320Y-120075234D01*
X110237361Y-120086763D01*
X110121444Y-120109820D01*
X109944156Y-120109820D01*
X109828239Y-120086763D01*
X109770280Y-120075234D01*
X109606490Y-120007390D01*
X109459083Y-119908896D01*
X109333724Y-119783537D01*
X109235230Y-119636130D01*
X109167386Y-119472340D01*
X109132800Y-119298462D01*
X109132800Y-119121178D01*
X109167386Y-118947300D01*
X109235230Y-118783510D01*
X109333724Y-118636103D01*
X109459083Y-118510744D01*
X109606490Y-118412250D01*
X109770280Y-118344406D01*
X109828239Y-118332877D01*
X109944156Y-118309820D01*
X110121444Y-118309820D01*
X110237361Y-118332877D01*
G37*
G36*
X108392800Y-120109820D02*
G01*
X106592800Y-120109820D01*
X106592800Y-118309820D01*
X108392800Y-118309820D01*
X108392800Y-120109820D01*
G37*
G36*
X107697361Y-115792877D02*
G01*
X107755320Y-115804406D01*
X107919110Y-115872250D01*
X108066517Y-115970744D01*
X108191876Y-116096103D01*
X108290370Y-116243510D01*
X108358214Y-116407300D01*
X108392800Y-116581178D01*
X108392800Y-116758462D01*
X108358214Y-116932340D01*
X108290370Y-117096130D01*
X108191876Y-117243537D01*
X108066517Y-117368896D01*
X107919110Y-117467390D01*
X107755320Y-117535234D01*
X107697361Y-117546763D01*
X107581444Y-117569820D01*
X107404156Y-117569820D01*
X107288239Y-117546763D01*
X107230280Y-117535234D01*
X107066490Y-117467390D01*
X106919083Y-117368896D01*
X106793724Y-117243537D01*
X106695230Y-117096130D01*
X106627386Y-116932340D01*
X106592800Y-116758462D01*
X106592800Y-116581178D01*
X106627386Y-116407300D01*
X106695230Y-116243510D01*
X106793724Y-116096103D01*
X106919083Y-115970744D01*
X107066490Y-115872250D01*
X107230280Y-115804406D01*
X107288239Y-115792877D01*
X107404156Y-115769820D01*
X107581444Y-115769820D01*
X107697361Y-115792877D01*
G37*
G36*
X110237361Y-115792877D02*
G01*
X110295320Y-115804406D01*
X110459110Y-115872250D01*
X110606517Y-115970744D01*
X110731876Y-116096103D01*
X110830370Y-116243510D01*
X110898214Y-116407300D01*
X110932800Y-116581178D01*
X110932800Y-116758462D01*
X110898214Y-116932340D01*
X110830370Y-117096130D01*
X110731876Y-117243537D01*
X110606517Y-117368896D01*
X110459110Y-117467390D01*
X110295320Y-117535234D01*
X110237361Y-117546763D01*
X110121444Y-117569820D01*
X109944156Y-117569820D01*
X109828239Y-117546763D01*
X109770280Y-117535234D01*
X109606490Y-117467390D01*
X109459083Y-117368896D01*
X109333724Y-117243537D01*
X109235230Y-117096130D01*
X109167386Y-116932340D01*
X109132800Y-116758462D01*
X109132800Y-116581178D01*
X109167386Y-116407300D01*
X109235230Y-116243510D01*
X109333724Y-116096103D01*
X109459083Y-115970744D01*
X109606490Y-115872250D01*
X109770280Y-115804406D01*
X109828239Y-115792877D01*
X109944156Y-115769820D01*
X110121444Y-115769820D01*
X110237361Y-115792877D01*
G37*
G36*
X110237361Y-113252877D02*
G01*
X110295320Y-113264406D01*
X110390416Y-113303796D01*
X110450789Y-113328803D01*
X110459110Y-113332250D01*
X110606517Y-113430744D01*
X110731876Y-113556103D01*
X110830370Y-113703510D01*
X110898214Y-113867300D01*
X110932800Y-114041178D01*
X110932800Y-114218462D01*
X110898214Y-114392340D01*
X110830370Y-114556130D01*
X110731876Y-114703537D01*
X110606517Y-114828896D01*
X110459110Y-114927390D01*
X110295320Y-114995234D01*
X110237361Y-115006763D01*
X110121444Y-115029820D01*
X109944156Y-115029820D01*
X109828239Y-115006763D01*
X109770280Y-114995234D01*
X109606490Y-114927390D01*
X109459083Y-114828896D01*
X109333724Y-114703537D01*
X109235230Y-114556130D01*
X109167386Y-114392340D01*
X109132800Y-114218462D01*
X109132800Y-114041178D01*
X109167386Y-113867300D01*
X109235230Y-113703510D01*
X109333724Y-113556103D01*
X109459083Y-113430744D01*
X109606490Y-113332250D01*
X109614812Y-113328803D01*
X109675184Y-113303796D01*
X109770280Y-113264406D01*
X109828239Y-113252877D01*
X109944156Y-113229820D01*
X110121444Y-113229820D01*
X110237361Y-113252877D01*
G37*
G36*
X107697361Y-113252877D02*
G01*
X107755320Y-113264406D01*
X107850416Y-113303796D01*
X107910789Y-113328803D01*
X107919110Y-113332250D01*
X108066517Y-113430744D01*
X108191876Y-113556103D01*
X108290370Y-113703510D01*
X108358214Y-113867300D01*
X108392800Y-114041178D01*
X108392800Y-114218462D01*
X108358214Y-114392340D01*
X108290370Y-114556130D01*
X108191876Y-114703537D01*
X108066517Y-114828896D01*
X107919110Y-114927390D01*
X107755320Y-114995234D01*
X107697361Y-115006763D01*
X107581444Y-115029820D01*
X107404156Y-115029820D01*
X107288239Y-115006763D01*
X107230280Y-114995234D01*
X107066490Y-114927390D01*
X106919083Y-114828896D01*
X106793724Y-114703537D01*
X106695230Y-114556130D01*
X106627386Y-114392340D01*
X106592800Y-114218462D01*
X106592800Y-114041178D01*
X106627386Y-113867300D01*
X106695230Y-113703510D01*
X106793724Y-113556103D01*
X106919083Y-113430744D01*
X107066490Y-113332250D01*
X107074812Y-113328803D01*
X107135184Y-113303796D01*
X107230280Y-113264406D01*
X107288239Y-113252877D01*
X107404156Y-113229820D01*
X107581444Y-113229820D01*
X107697361Y-113252877D01*
G37*
G36*
X90848879Y-112554440D02*
G01*
X90889870Y-112566874D01*
X90927645Y-112587065D01*
X90960758Y-112614242D01*
X90987935Y-112647355D01*
X91008126Y-112685130D01*
X91020560Y-112726121D01*
X91025000Y-112771204D01*
X91025000Y-113303796D01*
X91020560Y-113348879D01*
X91008126Y-113389870D01*
X90987935Y-113427645D01*
X90960758Y-113460758D01*
X90927645Y-113487935D01*
X90889870Y-113508126D01*
X90848879Y-113520560D01*
X90803796Y-113525000D01*
X90196204Y-113525000D01*
X90151121Y-113520560D01*
X90110130Y-113508126D01*
X90072355Y-113487935D01*
X90039242Y-113460758D01*
X90012065Y-113427645D01*
X89991874Y-113389870D01*
X89979440Y-113348879D01*
X89975000Y-113303796D01*
X89975000Y-112771204D01*
X89979440Y-112726121D01*
X89991874Y-112685130D01*
X90012065Y-112647355D01*
X90039242Y-112614242D01*
X90072355Y-112587065D01*
X90110130Y-112566874D01*
X90151121Y-112554440D01*
X90196204Y-112550000D01*
X90803796Y-112550000D01*
X90848879Y-112554440D01*
G37*
G36*
X86598879Y-112554440D02*
G01*
X86639870Y-112566874D01*
X86677645Y-112587065D01*
X86710758Y-112614242D01*
X86737935Y-112647355D01*
X86758126Y-112685130D01*
X86770560Y-112726121D01*
X86775000Y-112771204D01*
X86775000Y-113303796D01*
X86770560Y-113348879D01*
X86758126Y-113389870D01*
X86737935Y-113427645D01*
X86710758Y-113460758D01*
X86677645Y-113487935D01*
X86639870Y-113508126D01*
X86598879Y-113520560D01*
X86553796Y-113525000D01*
X85946204Y-113525000D01*
X85901121Y-113520560D01*
X85860130Y-113508126D01*
X85822355Y-113487935D01*
X85789242Y-113460758D01*
X85762065Y-113427645D01*
X85741874Y-113389870D01*
X85729440Y-113348879D01*
X85725000Y-113303796D01*
X85725000Y-112771204D01*
X85729440Y-112726121D01*
X85741874Y-112685130D01*
X85762065Y-112647355D01*
X85789242Y-112614242D01*
X85822355Y-112587065D01*
X85860130Y-112566874D01*
X85901121Y-112554440D01*
X85946204Y-112550000D01*
X86553796Y-112550000D01*
X86598879Y-112554440D01*
G37*
G36*
X107697361Y-110712877D02*
G01*
X107755320Y-110724406D01*
X107919110Y-110792250D01*
X108066517Y-110890744D01*
X108191876Y-111016103D01*
X108290370Y-111163510D01*
X108358214Y-111327300D01*
X108392800Y-111501178D01*
X108392800Y-111678462D01*
X108358214Y-111852340D01*
X108290370Y-112016130D01*
X108191876Y-112163537D01*
X108066517Y-112288896D01*
X107919110Y-112387390D01*
X107755320Y-112455234D01*
X107697361Y-112466763D01*
X107581444Y-112489820D01*
X107404156Y-112489820D01*
X107288239Y-112466763D01*
X107230280Y-112455234D01*
X107066490Y-112387390D01*
X106919083Y-112288896D01*
X106793724Y-112163537D01*
X106695230Y-112016130D01*
X106627386Y-111852340D01*
X106592800Y-111678462D01*
X106592800Y-111501178D01*
X106627386Y-111327300D01*
X106695230Y-111163510D01*
X106793724Y-111016103D01*
X106919083Y-110890744D01*
X107066490Y-110792250D01*
X107230280Y-110724406D01*
X107288239Y-110712877D01*
X107404156Y-110689820D01*
X107581444Y-110689820D01*
X107697361Y-110712877D01*
G37*
G36*
X110237361Y-110712877D02*
G01*
X110295320Y-110724406D01*
X110459110Y-110792250D01*
X110606517Y-110890744D01*
X110731876Y-111016103D01*
X110830370Y-111163510D01*
X110898214Y-111327300D01*
X110932800Y-111501178D01*
X110932800Y-111678462D01*
X110898214Y-111852340D01*
X110830370Y-112016130D01*
X110731876Y-112163537D01*
X110606517Y-112288896D01*
X110459110Y-112387390D01*
X110295320Y-112455234D01*
X110237361Y-112466763D01*
X110121444Y-112489820D01*
X109944156Y-112489820D01*
X109828239Y-112466763D01*
X109770280Y-112455234D01*
X109606490Y-112387390D01*
X109459083Y-112288896D01*
X109333724Y-112163537D01*
X109235230Y-112016130D01*
X109167386Y-111852340D01*
X109132800Y-111678462D01*
X109132800Y-111501178D01*
X109167386Y-111327300D01*
X109235230Y-111163510D01*
X109333724Y-111016103D01*
X109459083Y-110890744D01*
X109606490Y-110792250D01*
X109770280Y-110724406D01*
X109828239Y-110712877D01*
X109944156Y-110689820D01*
X110121444Y-110689820D01*
X110237361Y-110712877D01*
G37*
G36*
X90848879Y-110979440D02*
G01*
X90889870Y-110991874D01*
X90927645Y-111012065D01*
X90960758Y-111039242D01*
X90987935Y-111072355D01*
X91008126Y-111110130D01*
X91020560Y-111151121D01*
X91025000Y-111196204D01*
X91025000Y-111728796D01*
X91020560Y-111773879D01*
X91008126Y-111814870D01*
X90987935Y-111852645D01*
X90960758Y-111885758D01*
X90927645Y-111912935D01*
X90889870Y-111933126D01*
X90848879Y-111945560D01*
X90803796Y-111950000D01*
X90196204Y-111950000D01*
X90151121Y-111945560D01*
X90110130Y-111933126D01*
X90072355Y-111912935D01*
X90039242Y-111885758D01*
X90012065Y-111852645D01*
X89991874Y-111814870D01*
X89979440Y-111773879D01*
X89975000Y-111728796D01*
X89975000Y-111196204D01*
X89979440Y-111151121D01*
X89991874Y-111110130D01*
X90012065Y-111072355D01*
X90039242Y-111039242D01*
X90072355Y-111012065D01*
X90110130Y-110991874D01*
X90151121Y-110979440D01*
X90196204Y-110975000D01*
X90803796Y-110975000D01*
X90848879Y-110979440D01*
G37*
G36*
X86598879Y-110979440D02*
G01*
X86639870Y-110991874D01*
X86677645Y-111012065D01*
X86710758Y-111039242D01*
X86737935Y-111072355D01*
X86758126Y-111110130D01*
X86770560Y-111151121D01*
X86775000Y-111196204D01*
X86775000Y-111728796D01*
X86770560Y-111773879D01*
X86758126Y-111814870D01*
X86737935Y-111852645D01*
X86710758Y-111885758D01*
X86677645Y-111912935D01*
X86639870Y-111933126D01*
X86598879Y-111945560D01*
X86553796Y-111950000D01*
X85946204Y-111950000D01*
X85901121Y-111945560D01*
X85860130Y-111933126D01*
X85822355Y-111912935D01*
X85789242Y-111885758D01*
X85762065Y-111852645D01*
X85741874Y-111814870D01*
X85729440Y-111773879D01*
X85725000Y-111728796D01*
X85725000Y-111196204D01*
X85729440Y-111151121D01*
X85741874Y-111110130D01*
X85762065Y-111072355D01*
X85789242Y-111039242D01*
X85822355Y-111012065D01*
X85860130Y-110991874D01*
X85901121Y-110979440D01*
X85946204Y-110975000D01*
X86553796Y-110975000D01*
X86598879Y-110979440D01*
G37*
G36*
X103531761Y-108647857D02*
G01*
X103589720Y-108659386D01*
X103753510Y-108727230D01*
X103900917Y-108825724D01*
X104026276Y-108951083D01*
X104026277Y-108951085D01*
X104124771Y-109098492D01*
X104192614Y-109262281D01*
X104227200Y-109436156D01*
X104227200Y-109613444D01*
X104192614Y-109787319D01*
X104125305Y-109949820D01*
X104124770Y-109951110D01*
X104026276Y-110098517D01*
X103900917Y-110223876D01*
X103753510Y-110322370D01*
X103589720Y-110390214D01*
X103531761Y-110401743D01*
X103415844Y-110424800D01*
X103238556Y-110424800D01*
X103122639Y-110401743D01*
X103064680Y-110390214D01*
X102900890Y-110322370D01*
X102753483Y-110223876D01*
X102628124Y-110098517D01*
X102529630Y-109951110D01*
X102529096Y-109949820D01*
X102461786Y-109787319D01*
X102427200Y-109613444D01*
X102427200Y-109436156D01*
X102461786Y-109262281D01*
X102529629Y-109098492D01*
X102628123Y-108951085D01*
X102628124Y-108951083D01*
X102753483Y-108825724D01*
X102900890Y-108727230D01*
X103064680Y-108659386D01*
X103122639Y-108647857D01*
X103238556Y-108624800D01*
X103415844Y-108624800D01*
X103531761Y-108647857D01*
G37*
G36*
X55271761Y-108647857D02*
G01*
X55329720Y-108659386D01*
X55493510Y-108727230D01*
X55640917Y-108825724D01*
X55766276Y-108951083D01*
X55766277Y-108951085D01*
X55864771Y-109098492D01*
X55932614Y-109262281D01*
X55967200Y-109436156D01*
X55967200Y-109613444D01*
X55932614Y-109787319D01*
X55865305Y-109949820D01*
X55864770Y-109951110D01*
X55766276Y-110098517D01*
X55640917Y-110223876D01*
X55493510Y-110322370D01*
X55329720Y-110390214D01*
X55271761Y-110401743D01*
X55155844Y-110424800D01*
X54978556Y-110424800D01*
X54862639Y-110401743D01*
X54804680Y-110390214D01*
X54640890Y-110322370D01*
X54493483Y-110223876D01*
X54368124Y-110098517D01*
X54269630Y-109951110D01*
X54269096Y-109949820D01*
X54201786Y-109787319D01*
X54167200Y-109613444D01*
X54167200Y-109436156D01*
X54201786Y-109262281D01*
X54269629Y-109098492D01*
X54368123Y-108951085D01*
X54368124Y-108951083D01*
X54493483Y-108825724D01*
X54640890Y-108727230D01*
X54804680Y-108659386D01*
X54862639Y-108647857D01*
X54978556Y-108624800D01*
X55155844Y-108624800D01*
X55271761Y-108647857D01*
G37*
G36*
X110237361Y-108172877D02*
G01*
X110295320Y-108184406D01*
X110459110Y-108252250D01*
X110606517Y-108350744D01*
X110731876Y-108476103D01*
X110731877Y-108476105D01*
X110830371Y-108623512D01*
X110898214Y-108787301D01*
X110930793Y-108951085D01*
X110932800Y-108961178D01*
X110932800Y-109138462D01*
X110898214Y-109312340D01*
X110830370Y-109476130D01*
X110731876Y-109623537D01*
X110606517Y-109748896D01*
X110459110Y-109847390D01*
X110295320Y-109915234D01*
X110237361Y-109926763D01*
X110121444Y-109949820D01*
X109944156Y-109949820D01*
X109828239Y-109926763D01*
X109770280Y-109915234D01*
X109606490Y-109847390D01*
X109459083Y-109748896D01*
X109333724Y-109623537D01*
X109235230Y-109476130D01*
X109167386Y-109312340D01*
X109132800Y-109138462D01*
X109132800Y-108961178D01*
X109134808Y-108951085D01*
X109167386Y-108787301D01*
X109235229Y-108623512D01*
X109333723Y-108476105D01*
X109333724Y-108476103D01*
X109459083Y-108350744D01*
X109606490Y-108252250D01*
X109770280Y-108184406D01*
X109828239Y-108172877D01*
X109944156Y-108149820D01*
X110121444Y-108149820D01*
X110237361Y-108172877D01*
G37*
G36*
X107697361Y-108172877D02*
G01*
X107755320Y-108184406D01*
X107919110Y-108252250D01*
X108066517Y-108350744D01*
X108191876Y-108476103D01*
X108191877Y-108476105D01*
X108290371Y-108623512D01*
X108358214Y-108787301D01*
X108390793Y-108951085D01*
X108392800Y-108961178D01*
X108392800Y-109138462D01*
X108358214Y-109312340D01*
X108290370Y-109476130D01*
X108191876Y-109623537D01*
X108066517Y-109748896D01*
X107919110Y-109847390D01*
X107755320Y-109915234D01*
X107697361Y-109926763D01*
X107581444Y-109949820D01*
X107404156Y-109949820D01*
X107288239Y-109926763D01*
X107230280Y-109915234D01*
X107066490Y-109847390D01*
X106919083Y-109748896D01*
X106793724Y-109623537D01*
X106695230Y-109476130D01*
X106627386Y-109312340D01*
X106592800Y-109138462D01*
X106592800Y-108961178D01*
X106594808Y-108951085D01*
X106627386Y-108787301D01*
X106695229Y-108623512D01*
X106793723Y-108476105D01*
X106793724Y-108476103D01*
X106919083Y-108350744D01*
X107066490Y-108252250D01*
X107230280Y-108184406D01*
X107288239Y-108172877D01*
X107404156Y-108149820D01*
X107581444Y-108149820D01*
X107697361Y-108172877D01*
G37*
G36*
X103531761Y-106107857D02*
G01*
X103589720Y-106119386D01*
X103753510Y-106187230D01*
X103900917Y-106285724D01*
X104026276Y-106411083D01*
X104026277Y-106411085D01*
X104124771Y-106558492D01*
X104192614Y-106722281D01*
X104227200Y-106896156D01*
X104227200Y-107073444D01*
X104192614Y-107247319D01*
X104125305Y-107409820D01*
X104124770Y-107411110D01*
X104026276Y-107558517D01*
X103900917Y-107683876D01*
X103753510Y-107782370D01*
X103589720Y-107850214D01*
X103531761Y-107861743D01*
X103415844Y-107884800D01*
X103238556Y-107884800D01*
X103122639Y-107861743D01*
X103064680Y-107850214D01*
X102900890Y-107782370D01*
X102753483Y-107683876D01*
X102628124Y-107558517D01*
X102529630Y-107411110D01*
X102529096Y-107409820D01*
X102461786Y-107247319D01*
X102427200Y-107073444D01*
X102427200Y-106896156D01*
X102461786Y-106722281D01*
X102529629Y-106558492D01*
X102628123Y-106411085D01*
X102628124Y-106411083D01*
X102753483Y-106285724D01*
X102900890Y-106187230D01*
X103064680Y-106119386D01*
X103122639Y-106107857D01*
X103238556Y-106084800D01*
X103415844Y-106084800D01*
X103531761Y-106107857D01*
G37*
G36*
X55271761Y-106107857D02*
G01*
X55329720Y-106119386D01*
X55493510Y-106187230D01*
X55640917Y-106285724D01*
X55766276Y-106411083D01*
X55766277Y-106411085D01*
X55864771Y-106558492D01*
X55932614Y-106722281D01*
X55967200Y-106896156D01*
X55967200Y-107073444D01*
X55932614Y-107247319D01*
X55865305Y-107409820D01*
X55864770Y-107411110D01*
X55766276Y-107558517D01*
X55640917Y-107683876D01*
X55493510Y-107782370D01*
X55329720Y-107850214D01*
X55271761Y-107861743D01*
X55155844Y-107884800D01*
X54978556Y-107884800D01*
X54862639Y-107861743D01*
X54804680Y-107850214D01*
X54640890Y-107782370D01*
X54493483Y-107683876D01*
X54368124Y-107558517D01*
X54269630Y-107411110D01*
X54269096Y-107409820D01*
X54201786Y-107247319D01*
X54167200Y-107073444D01*
X54167200Y-106896156D01*
X54201786Y-106722281D01*
X54269629Y-106558492D01*
X54368123Y-106411085D01*
X54368124Y-106411083D01*
X54493483Y-106285724D01*
X54640890Y-106187230D01*
X54804680Y-106119386D01*
X54862639Y-106107857D01*
X54978556Y-106084800D01*
X55155844Y-106084800D01*
X55271761Y-106107857D01*
G37*
G36*
X110237361Y-105632877D02*
G01*
X110295320Y-105644406D01*
X110459110Y-105712250D01*
X110606517Y-105810744D01*
X110731876Y-105936103D01*
X110780000Y-106008126D01*
X110830371Y-106083512D01*
X110898214Y-106247301D01*
X110930793Y-106411085D01*
X110932800Y-106421178D01*
X110932800Y-106598462D01*
X110898214Y-106772340D01*
X110830370Y-106936130D01*
X110731876Y-107083537D01*
X110606517Y-107208896D01*
X110459110Y-107307390D01*
X110295320Y-107375234D01*
X110237361Y-107386763D01*
X110121444Y-107409820D01*
X109944156Y-107409820D01*
X109828239Y-107386763D01*
X109770280Y-107375234D01*
X109606490Y-107307390D01*
X109459083Y-107208896D01*
X109333724Y-107083537D01*
X109235230Y-106936130D01*
X109167386Y-106772340D01*
X109132800Y-106598462D01*
X109132800Y-106421178D01*
X109134808Y-106411085D01*
X109167386Y-106247301D01*
X109235229Y-106083512D01*
X109285600Y-106008126D01*
X109333724Y-105936103D01*
X109459083Y-105810744D01*
X109606490Y-105712250D01*
X109770280Y-105644406D01*
X109828239Y-105632877D01*
X109944156Y-105609820D01*
X110121444Y-105609820D01*
X110237361Y-105632877D01*
G37*
G36*
X107697361Y-105632877D02*
G01*
X107755320Y-105644406D01*
X107919110Y-105712250D01*
X108066517Y-105810744D01*
X108191876Y-105936103D01*
X108240000Y-106008126D01*
X108290371Y-106083512D01*
X108358214Y-106247301D01*
X108390793Y-106411085D01*
X108392800Y-106421178D01*
X108392800Y-106598462D01*
X108358214Y-106772340D01*
X108290370Y-106936130D01*
X108191876Y-107083537D01*
X108066517Y-107208896D01*
X107919110Y-107307390D01*
X107755320Y-107375234D01*
X107697361Y-107386763D01*
X107581444Y-107409820D01*
X107404156Y-107409820D01*
X107288239Y-107386763D01*
X107230280Y-107375234D01*
X107066490Y-107307390D01*
X106919083Y-107208896D01*
X106793724Y-107083537D01*
X106695230Y-106936130D01*
X106627386Y-106772340D01*
X106592800Y-106598462D01*
X106592800Y-106421178D01*
X106594808Y-106411085D01*
X106627386Y-106247301D01*
X106695229Y-106083512D01*
X106745600Y-106008126D01*
X106793724Y-105936103D01*
X106919083Y-105810744D01*
X107066490Y-105712250D01*
X107230280Y-105644406D01*
X107288239Y-105632877D01*
X107404156Y-105609820D01*
X107581444Y-105609820D01*
X107697361Y-105632877D01*
G37*
G36*
X89348879Y-104979440D02*
G01*
X89389870Y-104991874D01*
X89427645Y-105012065D01*
X89460758Y-105039242D01*
X89487935Y-105072355D01*
X89508126Y-105110130D01*
X89520560Y-105151121D01*
X89525000Y-105196204D01*
X89525000Y-105803796D01*
X89520560Y-105848879D01*
X89508126Y-105889870D01*
X89487935Y-105927645D01*
X89460758Y-105960758D01*
X89427645Y-105987935D01*
X89389870Y-106008126D01*
X89348879Y-106020560D01*
X89303796Y-106025000D01*
X88771204Y-106025000D01*
X88726121Y-106020560D01*
X88685130Y-106008126D01*
X88647355Y-105987935D01*
X88614242Y-105960758D01*
X88587065Y-105927645D01*
X88566874Y-105889870D01*
X88554440Y-105848879D01*
X88550000Y-105803796D01*
X88550000Y-105196204D01*
X88554440Y-105151121D01*
X88566874Y-105110130D01*
X88587065Y-105072355D01*
X88614242Y-105039242D01*
X88647355Y-105012065D01*
X88685130Y-104991874D01*
X88726121Y-104979440D01*
X88771204Y-104975000D01*
X89303796Y-104975000D01*
X89348879Y-104979440D01*
G37*
G36*
X87773879Y-104979440D02*
G01*
X87814870Y-104991874D01*
X87852645Y-105012065D01*
X87885758Y-105039242D01*
X87912935Y-105072355D01*
X87933126Y-105110130D01*
X87945560Y-105151121D01*
X87950000Y-105196204D01*
X87950000Y-105803796D01*
X87945560Y-105848879D01*
X87933126Y-105889870D01*
X87912935Y-105927645D01*
X87885758Y-105960758D01*
X87852645Y-105987935D01*
X87814870Y-106008126D01*
X87773879Y-106020560D01*
X87728796Y-106025000D01*
X87196204Y-106025000D01*
X87151121Y-106020560D01*
X87110130Y-106008126D01*
X87072355Y-105987935D01*
X87039242Y-105960758D01*
X87012065Y-105927645D01*
X86991874Y-105889870D01*
X86979440Y-105848879D01*
X86975000Y-105803796D01*
X86975000Y-105196204D01*
X86979440Y-105151121D01*
X86991874Y-105110130D01*
X87012065Y-105072355D01*
X87039242Y-105039242D01*
X87072355Y-105012065D01*
X87110130Y-104991874D01*
X87151121Y-104979440D01*
X87196204Y-104975000D01*
X87728796Y-104975000D01*
X87773879Y-104979440D01*
G37*
G36*
X86348879Y-105054440D02*
G01*
X86389870Y-105066874D01*
X86427645Y-105087065D01*
X86460758Y-105114242D01*
X86487935Y-105147355D01*
X86508126Y-105185130D01*
X86520560Y-105226121D01*
X86525000Y-105271204D01*
X86525000Y-105803796D01*
X86520560Y-105848879D01*
X86508126Y-105889870D01*
X86487935Y-105927645D01*
X86460758Y-105960758D01*
X86427645Y-105987935D01*
X86389870Y-106008126D01*
X86348879Y-106020560D01*
X86303796Y-106025000D01*
X85696204Y-106025000D01*
X85651121Y-106020560D01*
X85610130Y-106008126D01*
X85572355Y-105987935D01*
X85539242Y-105960758D01*
X85512065Y-105927645D01*
X85491874Y-105889870D01*
X85479440Y-105848879D01*
X85475000Y-105803796D01*
X85475000Y-105271204D01*
X85479440Y-105226121D01*
X85491874Y-105185130D01*
X85512065Y-105147355D01*
X85539242Y-105114242D01*
X85572355Y-105087065D01*
X85610130Y-105066874D01*
X85651121Y-105054440D01*
X85696204Y-105050000D01*
X86303796Y-105050000D01*
X86348879Y-105054440D01*
G37*
G36*
X82348879Y-104979440D02*
G01*
X82389870Y-104991874D01*
X82427645Y-105012065D01*
X82460758Y-105039242D01*
X82487935Y-105072355D01*
X82508126Y-105110130D01*
X82520560Y-105151121D01*
X82525000Y-105196204D01*
X82525000Y-105803796D01*
X82520560Y-105848879D01*
X82508126Y-105889870D01*
X82487935Y-105927645D01*
X82460758Y-105960758D01*
X82427645Y-105987935D01*
X82389870Y-106008126D01*
X82348879Y-106020560D01*
X82303796Y-106025000D01*
X81771204Y-106025000D01*
X81726121Y-106020560D01*
X81685130Y-106008126D01*
X81647355Y-105987935D01*
X81614242Y-105960758D01*
X81587065Y-105927645D01*
X81566874Y-105889870D01*
X81554440Y-105848879D01*
X81550000Y-105803796D01*
X81550000Y-105196204D01*
X81554440Y-105151121D01*
X81566874Y-105110130D01*
X81587065Y-105072355D01*
X81614242Y-105039242D01*
X81647355Y-105012065D01*
X81685130Y-104991874D01*
X81726121Y-104979440D01*
X81771204Y-104975000D01*
X82303796Y-104975000D01*
X82348879Y-104979440D01*
G37*
G36*
X80773879Y-104979440D02*
G01*
X80814870Y-104991874D01*
X80852645Y-105012065D01*
X80885758Y-105039242D01*
X80912935Y-105072355D01*
X80933126Y-105110130D01*
X80945560Y-105151121D01*
X80950000Y-105196204D01*
X80950000Y-105803796D01*
X80945560Y-105848879D01*
X80933126Y-105889870D01*
X80912935Y-105927645D01*
X80885758Y-105960758D01*
X80852645Y-105987935D01*
X80814870Y-106008126D01*
X80773879Y-106020560D01*
X80728796Y-106025000D01*
X80196204Y-106025000D01*
X80151121Y-106020560D01*
X80110130Y-106008126D01*
X80072355Y-105987935D01*
X80039242Y-105960758D01*
X80012065Y-105927645D01*
X79991874Y-105889870D01*
X79979440Y-105848879D01*
X79975000Y-105803796D01*
X79975000Y-105196204D01*
X79979440Y-105151121D01*
X79991874Y-105110130D01*
X80012065Y-105072355D01*
X80039242Y-105039242D01*
X80072355Y-105012065D01*
X80110130Y-104991874D01*
X80151121Y-104979440D01*
X80196204Y-104975000D01*
X80728796Y-104975000D01*
X80773879Y-104979440D01*
G37*
G36*
X92598879Y-104804440D02*
G01*
X92639870Y-104816874D01*
X92677645Y-104837065D01*
X92710758Y-104864242D01*
X92737935Y-104897355D01*
X92758126Y-104935130D01*
X92770560Y-104976121D01*
X92775000Y-105021204D01*
X92775000Y-105553796D01*
X92770560Y-105598879D01*
X92758126Y-105639870D01*
X92737935Y-105677645D01*
X92710758Y-105710758D01*
X92677645Y-105737935D01*
X92639870Y-105758126D01*
X92598879Y-105770560D01*
X92553796Y-105775000D01*
X91946204Y-105775000D01*
X91901121Y-105770560D01*
X91860130Y-105758126D01*
X91822355Y-105737935D01*
X91789242Y-105710758D01*
X91762065Y-105677645D01*
X91741874Y-105639870D01*
X91729440Y-105598879D01*
X91725000Y-105553796D01*
X91725000Y-105021204D01*
X91729440Y-104976121D01*
X91741874Y-104935130D01*
X91762065Y-104897355D01*
X91789242Y-104864242D01*
X91822355Y-104837065D01*
X91860130Y-104816874D01*
X91901121Y-104804440D01*
X91946204Y-104800000D01*
X92553796Y-104800000D01*
X92598879Y-104804440D01*
G37*
G36*
X103531761Y-103567857D02*
G01*
X103589720Y-103579386D01*
X103753510Y-103647230D01*
X103900917Y-103745724D01*
X104026276Y-103871083D01*
X104124770Y-104018490D01*
X104192614Y-104182280D01*
X104196139Y-104200000D01*
X104226502Y-104352645D01*
X104227200Y-104356158D01*
X104227200Y-104533442D01*
X104192614Y-104707320D01*
X104124770Y-104871110D01*
X104026276Y-105018517D01*
X103900917Y-105143876D01*
X103753510Y-105242370D01*
X103589720Y-105310214D01*
X103531761Y-105321743D01*
X103415844Y-105344800D01*
X103238556Y-105344800D01*
X103122639Y-105321743D01*
X103064680Y-105310214D01*
X102900890Y-105242370D01*
X102753483Y-105143876D01*
X102628124Y-105018517D01*
X102529630Y-104871110D01*
X102461786Y-104707320D01*
X102427200Y-104533442D01*
X102427200Y-104356158D01*
X102427899Y-104352645D01*
X102458261Y-104200000D01*
X102461786Y-104182280D01*
X102529630Y-104018490D01*
X102628124Y-103871083D01*
X102753483Y-103745724D01*
X102900890Y-103647230D01*
X103064680Y-103579386D01*
X103122639Y-103567857D01*
X103238556Y-103544800D01*
X103415844Y-103544800D01*
X103531761Y-103567857D01*
G37*
G36*
X55271761Y-103567857D02*
G01*
X55329720Y-103579386D01*
X55493510Y-103647230D01*
X55640917Y-103745724D01*
X55766276Y-103871083D01*
X55864770Y-104018490D01*
X55932614Y-104182280D01*
X55936139Y-104200000D01*
X55966502Y-104352645D01*
X55967200Y-104356158D01*
X55967200Y-104533442D01*
X55932614Y-104707320D01*
X55864770Y-104871110D01*
X55766276Y-105018517D01*
X55640917Y-105143876D01*
X55493510Y-105242370D01*
X55329720Y-105310214D01*
X55271761Y-105321743D01*
X55155844Y-105344800D01*
X54978556Y-105344800D01*
X54862639Y-105321743D01*
X54804680Y-105310214D01*
X54640890Y-105242370D01*
X54493483Y-105143876D01*
X54368124Y-105018517D01*
X54269630Y-104871110D01*
X54201786Y-104707320D01*
X54167200Y-104533442D01*
X54167200Y-104356158D01*
X54167899Y-104352645D01*
X54198261Y-104200000D01*
X54201786Y-104182280D01*
X54269630Y-104018490D01*
X54368124Y-103871083D01*
X54493483Y-103745724D01*
X54640890Y-103647230D01*
X54804680Y-103579386D01*
X54862639Y-103567857D01*
X54978556Y-103544800D01*
X55155844Y-103544800D01*
X55271761Y-103567857D01*
G37*
G36*
X87773879Y-103479440D02*
G01*
X87814870Y-103491874D01*
X87852645Y-103512065D01*
X87885758Y-103539242D01*
X87912935Y-103572355D01*
X87933126Y-103610130D01*
X87945560Y-103651121D01*
X87950000Y-103696204D01*
X87950000Y-104303796D01*
X87945560Y-104348879D01*
X87933126Y-104389870D01*
X87912935Y-104427645D01*
X87885758Y-104460758D01*
X87852645Y-104487935D01*
X87814870Y-104508126D01*
X87773879Y-104520560D01*
X87728796Y-104525000D01*
X87196204Y-104525000D01*
X87151121Y-104520560D01*
X87110130Y-104508126D01*
X87072355Y-104487935D01*
X87039242Y-104460758D01*
X87012065Y-104427645D01*
X86991874Y-104389870D01*
X86979440Y-104348879D01*
X86975000Y-104303796D01*
X86975000Y-103696204D01*
X86979440Y-103651121D01*
X86991874Y-103610130D01*
X87012065Y-103572355D01*
X87039242Y-103539242D01*
X87072355Y-103512065D01*
X87110130Y-103491874D01*
X87151121Y-103479440D01*
X87196204Y-103475000D01*
X87728796Y-103475000D01*
X87773879Y-103479440D01*
G37*
G36*
X89348879Y-103479440D02*
G01*
X89389870Y-103491874D01*
X89427645Y-103512065D01*
X89460758Y-103539242D01*
X89487935Y-103572355D01*
X89508126Y-103610130D01*
X89520560Y-103651121D01*
X89525000Y-103696204D01*
X89525000Y-104303796D01*
X89520560Y-104348879D01*
X89508126Y-104389870D01*
X89487935Y-104427645D01*
X89460758Y-104460758D01*
X89427645Y-104487935D01*
X89389870Y-104508126D01*
X89348879Y-104520560D01*
X89303796Y-104525000D01*
X88771204Y-104525000D01*
X88726121Y-104520560D01*
X88685130Y-104508126D01*
X88647355Y-104487935D01*
X88614242Y-104460758D01*
X88587065Y-104427645D01*
X88566874Y-104389870D01*
X88554440Y-104348879D01*
X88550000Y-104303796D01*
X88550000Y-103696204D01*
X88554440Y-103651121D01*
X88566874Y-103610130D01*
X88587065Y-103572355D01*
X88614242Y-103539242D01*
X88647355Y-103512065D01*
X88685130Y-103491874D01*
X88726121Y-103479440D01*
X88771204Y-103475000D01*
X89303796Y-103475000D01*
X89348879Y-103479440D01*
G37*
G36*
X86348879Y-103479440D02*
G01*
X86389870Y-103491874D01*
X86427645Y-103512065D01*
X86460758Y-103539242D01*
X86487935Y-103572355D01*
X86508126Y-103610130D01*
X86520560Y-103651121D01*
X86525000Y-103696204D01*
X86525000Y-104228796D01*
X86520560Y-104273879D01*
X86508126Y-104314870D01*
X86487935Y-104352645D01*
X86460758Y-104385758D01*
X86427645Y-104412935D01*
X86389870Y-104433126D01*
X86348879Y-104445560D01*
X86303796Y-104450000D01*
X85696204Y-104450000D01*
X85651121Y-104445560D01*
X85610130Y-104433126D01*
X85572355Y-104412935D01*
X85539242Y-104385758D01*
X85512065Y-104352645D01*
X85491874Y-104314870D01*
X85479440Y-104273879D01*
X85475000Y-104228796D01*
X85475000Y-103696204D01*
X85479440Y-103651121D01*
X85491874Y-103610130D01*
X85512065Y-103572355D01*
X85539242Y-103539242D01*
X85572355Y-103512065D01*
X85610130Y-103491874D01*
X85651121Y-103479440D01*
X85696204Y-103475000D01*
X86303796Y-103475000D01*
X86348879Y-103479440D01*
G37*
G36*
X92598879Y-103229440D02*
G01*
X92639870Y-103241874D01*
X92677645Y-103262065D01*
X92710758Y-103289242D01*
X92737935Y-103322355D01*
X92758126Y-103360130D01*
X92770560Y-103401121D01*
X92775000Y-103446204D01*
X92775000Y-103978796D01*
X92770560Y-104023879D01*
X92758126Y-104064870D01*
X92737935Y-104102645D01*
X92710758Y-104135758D01*
X92677645Y-104162935D01*
X92639870Y-104183126D01*
X92598879Y-104195560D01*
X92553796Y-104200000D01*
X91946204Y-104200000D01*
X91901121Y-104195560D01*
X91860130Y-104183126D01*
X91822355Y-104162935D01*
X91789242Y-104135758D01*
X91762065Y-104102645D01*
X91741874Y-104064870D01*
X91729440Y-104023879D01*
X91725000Y-103978796D01*
X91725000Y-103446204D01*
X91729440Y-103401121D01*
X91741874Y-103360130D01*
X91762065Y-103322355D01*
X91789242Y-103289242D01*
X91822355Y-103262065D01*
X91860130Y-103241874D01*
X91901121Y-103229440D01*
X91946204Y-103225000D01*
X92553796Y-103225000D01*
X92598879Y-103229440D01*
G37*
G36*
X103531761Y-101027857D02*
G01*
X103589720Y-101039386D01*
X103753510Y-101107230D01*
X103900917Y-101205724D01*
X104026276Y-101331083D01*
X104026277Y-101331085D01*
X104124771Y-101478492D01*
X104192614Y-101642281D01*
X104216441Y-101762065D01*
X104227200Y-101816158D01*
X104227200Y-101993442D01*
X104192614Y-102167320D01*
X104124770Y-102331110D01*
X104026276Y-102478517D01*
X103900917Y-102603876D01*
X103753510Y-102702370D01*
X103589720Y-102770214D01*
X103531761Y-102781743D01*
X103415844Y-102804800D01*
X103238556Y-102804800D01*
X103122639Y-102781743D01*
X103064680Y-102770214D01*
X102900890Y-102702370D01*
X102753483Y-102603876D01*
X102628124Y-102478517D01*
X102529630Y-102331110D01*
X102461786Y-102167320D01*
X102427200Y-101993442D01*
X102427200Y-101816158D01*
X102437960Y-101762065D01*
X102461786Y-101642281D01*
X102529629Y-101478492D01*
X102628123Y-101331085D01*
X102628124Y-101331083D01*
X102753483Y-101205724D01*
X102900890Y-101107230D01*
X103064680Y-101039386D01*
X103122639Y-101027857D01*
X103238556Y-101004800D01*
X103415844Y-101004800D01*
X103531761Y-101027857D01*
G37*
G36*
X55271761Y-101027857D02*
G01*
X55329720Y-101039386D01*
X55493510Y-101107230D01*
X55640917Y-101205724D01*
X55766276Y-101331083D01*
X55766277Y-101331085D01*
X55864771Y-101478492D01*
X55932614Y-101642281D01*
X55956441Y-101762065D01*
X55967200Y-101816158D01*
X55967200Y-101993442D01*
X55932614Y-102167320D01*
X55864770Y-102331110D01*
X55766276Y-102478517D01*
X55640917Y-102603876D01*
X55493510Y-102702370D01*
X55329720Y-102770214D01*
X55271761Y-102781743D01*
X55155844Y-102804800D01*
X54978556Y-102804800D01*
X54862639Y-102781743D01*
X54804680Y-102770214D01*
X54640890Y-102702370D01*
X54493483Y-102603876D01*
X54368124Y-102478517D01*
X54269630Y-102331110D01*
X54201786Y-102167320D01*
X54167200Y-101993442D01*
X54167200Y-101816158D01*
X54177960Y-101762065D01*
X54201786Y-101642281D01*
X54269629Y-101478492D01*
X54368123Y-101331085D01*
X54368124Y-101331083D01*
X54493483Y-101205724D01*
X54640890Y-101107230D01*
X54804680Y-101039386D01*
X54862639Y-101027857D01*
X54978556Y-101004800D01*
X55155844Y-101004800D01*
X55271761Y-101027857D01*
G37*
G36*
X82598879Y-101729440D02*
G01*
X82639870Y-101741874D01*
X82677645Y-101762065D01*
X82710758Y-101789242D01*
X82737935Y-101822355D01*
X82758126Y-101860130D01*
X82770560Y-101901121D01*
X82775000Y-101946204D01*
X82775000Y-102553796D01*
X82770560Y-102598879D01*
X82758126Y-102639870D01*
X82737935Y-102677645D01*
X82710758Y-102710758D01*
X82677645Y-102737935D01*
X82639870Y-102758126D01*
X82598879Y-102770560D01*
X82553796Y-102775000D01*
X82021204Y-102775000D01*
X81976121Y-102770560D01*
X81935130Y-102758126D01*
X81897355Y-102737935D01*
X81864242Y-102710758D01*
X81837065Y-102677645D01*
X81816874Y-102639870D01*
X81804440Y-102598879D01*
X81800000Y-102553796D01*
X81800000Y-101946204D01*
X81804440Y-101901121D01*
X81816874Y-101860130D01*
X81837065Y-101822355D01*
X81864242Y-101789242D01*
X81897355Y-101762065D01*
X81935130Y-101741874D01*
X81976121Y-101729440D01*
X82021204Y-101725000D01*
X82553796Y-101725000D01*
X82598879Y-101729440D01*
G37*
G36*
X81023879Y-101729440D02*
G01*
X81064870Y-101741874D01*
X81102645Y-101762065D01*
X81135758Y-101789242D01*
X81162935Y-101822355D01*
X81183126Y-101860130D01*
X81195560Y-101901121D01*
X81200000Y-101946204D01*
X81200000Y-102553796D01*
X81195560Y-102598879D01*
X81183126Y-102639870D01*
X81162935Y-102677645D01*
X81135758Y-102710758D01*
X81102645Y-102737935D01*
X81064870Y-102758126D01*
X81023879Y-102770560D01*
X80978796Y-102775000D01*
X80446204Y-102775000D01*
X80401121Y-102770560D01*
X80360130Y-102758126D01*
X80322355Y-102737935D01*
X80289242Y-102710758D01*
X80262065Y-102677645D01*
X80241874Y-102639870D01*
X80229440Y-102598879D01*
X80225000Y-102553796D01*
X80225000Y-101946204D01*
X80229440Y-101901121D01*
X80241874Y-101860130D01*
X80262065Y-101822355D01*
X80289242Y-101789242D01*
X80322355Y-101762065D01*
X80360130Y-101741874D01*
X80401121Y-101729440D01*
X80446204Y-101725000D01*
X80978796Y-101725000D01*
X81023879Y-101729440D01*
G37*
G36*
X81023879Y-100229440D02*
G01*
X81064870Y-100241874D01*
X81102645Y-100262065D01*
X81135758Y-100289242D01*
X81162935Y-100322355D01*
X81183126Y-100360130D01*
X81195560Y-100401121D01*
X81200000Y-100446204D01*
X81200000Y-101053796D01*
X81195560Y-101098879D01*
X81183126Y-101139870D01*
X81162935Y-101177645D01*
X81135758Y-101210758D01*
X81102645Y-101237935D01*
X81064870Y-101258126D01*
X81023879Y-101270560D01*
X80978796Y-101275000D01*
X80446204Y-101275000D01*
X80401121Y-101270560D01*
X80360130Y-101258126D01*
X80322355Y-101237935D01*
X80289242Y-101210758D01*
X80262065Y-101177645D01*
X80241874Y-101139870D01*
X80229440Y-101098879D01*
X80225000Y-101053796D01*
X80225000Y-100446204D01*
X80229440Y-100401121D01*
X80241874Y-100360130D01*
X80262065Y-100322355D01*
X80289242Y-100289242D01*
X80322355Y-100262065D01*
X80360130Y-100241874D01*
X80401121Y-100229440D01*
X80446204Y-100225000D01*
X80978796Y-100225000D01*
X81023879Y-100229440D01*
G37*
G36*
X82598879Y-100229440D02*
G01*
X82639870Y-100241874D01*
X82677645Y-100262065D01*
X82710758Y-100289242D01*
X82737935Y-100322355D01*
X82758126Y-100360130D01*
X82770560Y-100401121D01*
X82775000Y-100446204D01*
X82775000Y-101053796D01*
X82770560Y-101098879D01*
X82758126Y-101139870D01*
X82737935Y-101177645D01*
X82710758Y-101210758D01*
X82677645Y-101237935D01*
X82639870Y-101258126D01*
X82598879Y-101270560D01*
X82553796Y-101275000D01*
X82021204Y-101275000D01*
X81976121Y-101270560D01*
X81935130Y-101258126D01*
X81897355Y-101237935D01*
X81864242Y-101210758D01*
X81837065Y-101177645D01*
X81816874Y-101139870D01*
X81804440Y-101098879D01*
X81800000Y-101053796D01*
X81800000Y-100446204D01*
X81804440Y-100401121D01*
X81816874Y-100360130D01*
X81837065Y-100322355D01*
X81864242Y-100289242D01*
X81897355Y-100262065D01*
X81935130Y-100241874D01*
X81976121Y-100229440D01*
X82021204Y-100225000D01*
X82553796Y-100225000D01*
X82598879Y-100229440D01*
G37*
G36*
X103531761Y-98487857D02*
G01*
X103589720Y-98499386D01*
X103696824Y-98543750D01*
X103721078Y-98553796D01*
X103753510Y-98567230D01*
X103900917Y-98665724D01*
X104026276Y-98791083D01*
X104124770Y-98938490D01*
X104192614Y-99102280D01*
X104200091Y-99139870D01*
X104223614Y-99258126D01*
X104227200Y-99276158D01*
X104227200Y-99453442D01*
X104192614Y-99627320D01*
X104124770Y-99791110D01*
X104026276Y-99938517D01*
X103900917Y-100063876D01*
X103753510Y-100162370D01*
X103589720Y-100230214D01*
X103531761Y-100241743D01*
X103415844Y-100264800D01*
X103238556Y-100264800D01*
X103122639Y-100241743D01*
X103064680Y-100230214D01*
X102900890Y-100162370D01*
X102753483Y-100063876D01*
X102628124Y-99938517D01*
X102529630Y-99791110D01*
X102461786Y-99627320D01*
X102427200Y-99453442D01*
X102427200Y-99276158D01*
X102430787Y-99258126D01*
X102454309Y-99139870D01*
X102461786Y-99102280D01*
X102529630Y-98938490D01*
X102628124Y-98791083D01*
X102753483Y-98665724D01*
X102900890Y-98567230D01*
X102933323Y-98553796D01*
X102957576Y-98543750D01*
X103064680Y-98499386D01*
X103122639Y-98487857D01*
X103238556Y-98464800D01*
X103415844Y-98464800D01*
X103531761Y-98487857D01*
G37*
G36*
X55271761Y-98487857D02*
G01*
X55329720Y-98499386D01*
X55436824Y-98543750D01*
X55461078Y-98553796D01*
X55493510Y-98567230D01*
X55640917Y-98665724D01*
X55766276Y-98791083D01*
X55864770Y-98938490D01*
X55932614Y-99102280D01*
X55940091Y-99139870D01*
X55963614Y-99258126D01*
X55967200Y-99276158D01*
X55967200Y-99453442D01*
X55932614Y-99627320D01*
X55864770Y-99791110D01*
X55766276Y-99938517D01*
X55640917Y-100063876D01*
X55493510Y-100162370D01*
X55329720Y-100230214D01*
X55271761Y-100241743D01*
X55155844Y-100264800D01*
X54978556Y-100264800D01*
X54862639Y-100241743D01*
X54804680Y-100230214D01*
X54640890Y-100162370D01*
X54493483Y-100063876D01*
X54368124Y-99938517D01*
X54269630Y-99791110D01*
X54201786Y-99627320D01*
X54167200Y-99453442D01*
X54167200Y-99276158D01*
X54170787Y-99258126D01*
X54194309Y-99139870D01*
X54201786Y-99102280D01*
X54269630Y-98938490D01*
X54368124Y-98791083D01*
X54493483Y-98665724D01*
X54640890Y-98567230D01*
X54673323Y-98553796D01*
X54697576Y-98543750D01*
X54804680Y-98499386D01*
X54862639Y-98487857D01*
X54978556Y-98464800D01*
X55155844Y-98464800D01*
X55271761Y-98487857D01*
G37*
G36*
X82598879Y-98229440D02*
G01*
X82639870Y-98241874D01*
X82677645Y-98262065D01*
X82710758Y-98289242D01*
X82737935Y-98322355D01*
X82758126Y-98360130D01*
X82770560Y-98401121D01*
X82775000Y-98446204D01*
X82775000Y-99053796D01*
X82770560Y-99098879D01*
X82758126Y-99139870D01*
X82737935Y-99177645D01*
X82710758Y-99210758D01*
X82677645Y-99237935D01*
X82639870Y-99258126D01*
X82598879Y-99270560D01*
X82553796Y-99275000D01*
X82021204Y-99275000D01*
X81976121Y-99270560D01*
X81935130Y-99258126D01*
X81897355Y-99237935D01*
X81864242Y-99210758D01*
X81837065Y-99177645D01*
X81816874Y-99139870D01*
X81804440Y-99098879D01*
X81800000Y-99053796D01*
X81800000Y-98446204D01*
X81804440Y-98401121D01*
X81816874Y-98360130D01*
X81837065Y-98322355D01*
X81864242Y-98289242D01*
X81897355Y-98262065D01*
X81935130Y-98241874D01*
X81976121Y-98229440D01*
X82021204Y-98225000D01*
X82553796Y-98225000D01*
X82598879Y-98229440D01*
G37*
G36*
X81023879Y-98229440D02*
G01*
X81064870Y-98241874D01*
X81102645Y-98262065D01*
X81135758Y-98289242D01*
X81162935Y-98322355D01*
X81183126Y-98360130D01*
X81195560Y-98401121D01*
X81200000Y-98446204D01*
X81200000Y-99053796D01*
X81195560Y-99098879D01*
X81183126Y-99139870D01*
X81162935Y-99177645D01*
X81135758Y-99210758D01*
X81102645Y-99237935D01*
X81064870Y-99258126D01*
X81023879Y-99270560D01*
X80978796Y-99275000D01*
X80446204Y-99275000D01*
X80401121Y-99270560D01*
X80360130Y-99258126D01*
X80322355Y-99237935D01*
X80289242Y-99210758D01*
X80262065Y-99177645D01*
X80241874Y-99139870D01*
X80229440Y-99098879D01*
X80225000Y-99053796D01*
X80225000Y-98446204D01*
X80229440Y-98401121D01*
X80241874Y-98360130D01*
X80262065Y-98322355D01*
X80289242Y-98289242D01*
X80322355Y-98262065D01*
X80360130Y-98241874D01*
X80401121Y-98229440D01*
X80446204Y-98225000D01*
X80978796Y-98225000D01*
X81023879Y-98229440D01*
G37*
G36*
X64598879Y-98304440D02*
G01*
X64639870Y-98316874D01*
X64677645Y-98337065D01*
X64710758Y-98364242D01*
X64737935Y-98397355D01*
X64758126Y-98435130D01*
X64770560Y-98476121D01*
X64775000Y-98521204D01*
X64775000Y-99053796D01*
X64770560Y-99098879D01*
X64758126Y-99139870D01*
X64737935Y-99177645D01*
X64710758Y-99210758D01*
X64677645Y-99237935D01*
X64639870Y-99258126D01*
X64598879Y-99270560D01*
X64553796Y-99275000D01*
X63946204Y-99275000D01*
X63901121Y-99270560D01*
X63860130Y-99258126D01*
X63822355Y-99237935D01*
X63789242Y-99210758D01*
X63762065Y-99177645D01*
X63741874Y-99139870D01*
X63729440Y-99098879D01*
X63725000Y-99053796D01*
X63725000Y-98521204D01*
X63729440Y-98476121D01*
X63741874Y-98435130D01*
X63762065Y-98397355D01*
X63789242Y-98364242D01*
X63822355Y-98337065D01*
X63860130Y-98316874D01*
X63901121Y-98304440D01*
X63946204Y-98300000D01*
X64553796Y-98300000D01*
X64598879Y-98304440D01*
G37*
G36*
X69098879Y-98304440D02*
G01*
X69139870Y-98316874D01*
X69177645Y-98337065D01*
X69210758Y-98364242D01*
X69237935Y-98397355D01*
X69258126Y-98435130D01*
X69270560Y-98476121D01*
X69275000Y-98521204D01*
X69275000Y-99053796D01*
X69270560Y-99098879D01*
X69258126Y-99139870D01*
X69237935Y-99177645D01*
X69210758Y-99210758D01*
X69177645Y-99237935D01*
X69139870Y-99258126D01*
X69098879Y-99270560D01*
X69053796Y-99275000D01*
X68446204Y-99275000D01*
X68401121Y-99270560D01*
X68360130Y-99258126D01*
X68322355Y-99237935D01*
X68289242Y-99210758D01*
X68262065Y-99177645D01*
X68241874Y-99139870D01*
X68229440Y-99098879D01*
X68225000Y-99053796D01*
X68225000Y-98521204D01*
X68229440Y-98476121D01*
X68241874Y-98435130D01*
X68262065Y-98397355D01*
X68289242Y-98364242D01*
X68322355Y-98337065D01*
X68360130Y-98316874D01*
X68401121Y-98304440D01*
X68446204Y-98300000D01*
X69053796Y-98300000D01*
X69098879Y-98304440D01*
G37*
G36*
X89848879Y-97729440D02*
G01*
X89889870Y-97741874D01*
X89927645Y-97762065D01*
X89960758Y-97789242D01*
X89987935Y-97822355D01*
X90008126Y-97860130D01*
X90020560Y-97901121D01*
X90025000Y-97946204D01*
X90025000Y-98553796D01*
X90020560Y-98598879D01*
X90008126Y-98639870D01*
X89987935Y-98677645D01*
X89960758Y-98710758D01*
X89927645Y-98737935D01*
X89889870Y-98758126D01*
X89848879Y-98770560D01*
X89803796Y-98775000D01*
X89271204Y-98775000D01*
X89226121Y-98770560D01*
X89185130Y-98758126D01*
X89147355Y-98737935D01*
X89114242Y-98710758D01*
X89087065Y-98677645D01*
X89066874Y-98639870D01*
X89054440Y-98598879D01*
X89050000Y-98553796D01*
X89050000Y-97946204D01*
X89054440Y-97901121D01*
X89066874Y-97860130D01*
X89087065Y-97822355D01*
X89114242Y-97789242D01*
X89147355Y-97762065D01*
X89185130Y-97741874D01*
X89226121Y-97729440D01*
X89271204Y-97725000D01*
X89803796Y-97725000D01*
X89848879Y-97729440D01*
G37*
G36*
X88273879Y-97729440D02*
G01*
X88314870Y-97741874D01*
X88352645Y-97762065D01*
X88385758Y-97789242D01*
X88412935Y-97822355D01*
X88433126Y-97860130D01*
X88445560Y-97901121D01*
X88450000Y-97946204D01*
X88450000Y-98553796D01*
X88445560Y-98598879D01*
X88433126Y-98639870D01*
X88412935Y-98677645D01*
X88385758Y-98710758D01*
X88352645Y-98737935D01*
X88314870Y-98758126D01*
X88273879Y-98770560D01*
X88228796Y-98775000D01*
X87696204Y-98775000D01*
X87651121Y-98770560D01*
X87610130Y-98758126D01*
X87572355Y-98737935D01*
X87539242Y-98710758D01*
X87512065Y-98677645D01*
X87491874Y-98639870D01*
X87479440Y-98598879D01*
X87475000Y-98553796D01*
X87475000Y-97946204D01*
X87479440Y-97901121D01*
X87491874Y-97860130D01*
X87512065Y-97822355D01*
X87539242Y-97789242D01*
X87572355Y-97762065D01*
X87610130Y-97741874D01*
X87651121Y-97729440D01*
X87696204Y-97725000D01*
X88228796Y-97725000D01*
X88273879Y-97729440D01*
G37*
G36*
X55967200Y-97724800D02*
G01*
X54167200Y-97724800D01*
X54167200Y-95924800D01*
X55967200Y-95924800D01*
X55967200Y-97724800D01*
G37*
G36*
X103531761Y-95947857D02*
G01*
X103589720Y-95959386D01*
X103753510Y-96027230D01*
X103900917Y-96125724D01*
X104026276Y-96251083D01*
X104124770Y-96398490D01*
X104158301Y-96479440D01*
X104192614Y-96562281D01*
X104227200Y-96736156D01*
X104227200Y-96913444D01*
X104192614Y-97087319D01*
X104125305Y-97249820D01*
X104124770Y-97251110D01*
X104026276Y-97398517D01*
X103900917Y-97523876D01*
X103753510Y-97622370D01*
X103753509Y-97622371D01*
X103753508Y-97622371D01*
X103705535Y-97642242D01*
X103589720Y-97690214D01*
X103564070Y-97695316D01*
X103415844Y-97724800D01*
X103238556Y-97724800D01*
X103090330Y-97695316D01*
X103064680Y-97690214D01*
X102948865Y-97642242D01*
X102900892Y-97622371D01*
X102900891Y-97622371D01*
X102900890Y-97622370D01*
X102753483Y-97523876D01*
X102628124Y-97398517D01*
X102529630Y-97251110D01*
X102529096Y-97249820D01*
X102461786Y-97087319D01*
X102427200Y-96913444D01*
X102427200Y-96736156D01*
X102461786Y-96562281D01*
X102496100Y-96479440D01*
X102529630Y-96398490D01*
X102628124Y-96251083D01*
X102753483Y-96125724D01*
X102900890Y-96027230D01*
X103064680Y-95959386D01*
X103122639Y-95947857D01*
X103238556Y-95924800D01*
X103415844Y-95924800D01*
X103531761Y-95947857D01*
G37*
G36*
X69098879Y-96729440D02*
G01*
X69139870Y-96741874D01*
X69177645Y-96762065D01*
X69210758Y-96789242D01*
X69237935Y-96822355D01*
X69258126Y-96860130D01*
X69270560Y-96901121D01*
X69275000Y-96946204D01*
X69275000Y-97478796D01*
X69270560Y-97523879D01*
X69258126Y-97564870D01*
X69237935Y-97602645D01*
X69210758Y-97635758D01*
X69177645Y-97662935D01*
X69139870Y-97683126D01*
X69098879Y-97695560D01*
X69053796Y-97700000D01*
X68446204Y-97700000D01*
X68401121Y-97695560D01*
X68360130Y-97683126D01*
X68322355Y-97662935D01*
X68289242Y-97635758D01*
X68262065Y-97602645D01*
X68241874Y-97564870D01*
X68229440Y-97523879D01*
X68225000Y-97478796D01*
X68225000Y-96946204D01*
X68229440Y-96901121D01*
X68241874Y-96860130D01*
X68262065Y-96822355D01*
X68289242Y-96789242D01*
X68322355Y-96762065D01*
X68360130Y-96741874D01*
X68401121Y-96729440D01*
X68446204Y-96725000D01*
X69053796Y-96725000D01*
X69098879Y-96729440D01*
G37*
G36*
X64598879Y-96729440D02*
G01*
X64639870Y-96741874D01*
X64677645Y-96762065D01*
X64710758Y-96789242D01*
X64737935Y-96822355D01*
X64758126Y-96860130D01*
X64770560Y-96901121D01*
X64775000Y-96946204D01*
X64775000Y-97478796D01*
X64770560Y-97523879D01*
X64758126Y-97564870D01*
X64737935Y-97602645D01*
X64710758Y-97635758D01*
X64677645Y-97662935D01*
X64639870Y-97683126D01*
X64598879Y-97695560D01*
X64553796Y-97700000D01*
X63946204Y-97700000D01*
X63901121Y-97695560D01*
X63860130Y-97683126D01*
X63822355Y-97662935D01*
X63789242Y-97635758D01*
X63762065Y-97602645D01*
X63741874Y-97564870D01*
X63729440Y-97523879D01*
X63725000Y-97478796D01*
X63725000Y-96946204D01*
X63729440Y-96901121D01*
X63741874Y-96860130D01*
X63762065Y-96822355D01*
X63789242Y-96789242D01*
X63822355Y-96762065D01*
X63860130Y-96741874D01*
X63901121Y-96729440D01*
X63946204Y-96725000D01*
X64553796Y-96725000D01*
X64598879Y-96729440D01*
G37*
G36*
X81023879Y-96479440D02*
G01*
X81064870Y-96491874D01*
X81102645Y-96512065D01*
X81135758Y-96539242D01*
X81162935Y-96572355D01*
X81183126Y-96610130D01*
X81195560Y-96651121D01*
X81200000Y-96696204D01*
X81200000Y-97303796D01*
X81195560Y-97348879D01*
X81183126Y-97389870D01*
X81162935Y-97427645D01*
X81135758Y-97460758D01*
X81102645Y-97487935D01*
X81064870Y-97508126D01*
X81023879Y-97520560D01*
X80978796Y-97525000D01*
X80446204Y-97525000D01*
X80401121Y-97520560D01*
X80360130Y-97508126D01*
X80322355Y-97487935D01*
X80289242Y-97460758D01*
X80262065Y-97427645D01*
X80241874Y-97389870D01*
X80229440Y-97348879D01*
X80225000Y-97303796D01*
X80225000Y-96696204D01*
X80229440Y-96651121D01*
X80241874Y-96610130D01*
X80262065Y-96572355D01*
X80289242Y-96539242D01*
X80322355Y-96512065D01*
X80360130Y-96491874D01*
X80401121Y-96479440D01*
X80446204Y-96475000D01*
X80978796Y-96475000D01*
X81023879Y-96479440D01*
G37*
G36*
X82598879Y-96479440D02*
G01*
X82639870Y-96491874D01*
X82677645Y-96512065D01*
X82710758Y-96539242D01*
X82737935Y-96572355D01*
X82758126Y-96610130D01*
X82770560Y-96651121D01*
X82775000Y-96696204D01*
X82775000Y-97303796D01*
X82770560Y-97348879D01*
X82758126Y-97389870D01*
X82737935Y-97427645D01*
X82710758Y-97460758D01*
X82677645Y-97487935D01*
X82639870Y-97508126D01*
X82598879Y-97520560D01*
X82553796Y-97525000D01*
X82021204Y-97525000D01*
X81976121Y-97520560D01*
X81935130Y-97508126D01*
X81897355Y-97487935D01*
X81864242Y-97460758D01*
X81837065Y-97427645D01*
X81816874Y-97389870D01*
X81804440Y-97348879D01*
X81800000Y-97303796D01*
X81800000Y-96696204D01*
X81804440Y-96651121D01*
X81816874Y-96610130D01*
X81837065Y-96572355D01*
X81864242Y-96539242D01*
X81897355Y-96512065D01*
X81935130Y-96491874D01*
X81976121Y-96479440D01*
X82021204Y-96475000D01*
X82553796Y-96475000D01*
X82598879Y-96479440D01*
G37*
G36*
X110237361Y-95472877D02*
G01*
X110295320Y-95484406D01*
X110459110Y-95552250D01*
X110606517Y-95650744D01*
X110731876Y-95776103D01*
X110731877Y-95776105D01*
X110830371Y-95923512D01*
X110898214Y-96087301D01*
X110932800Y-96261176D01*
X110932800Y-96438464D01*
X110909743Y-96554381D01*
X110898214Y-96612340D01*
X110830370Y-96776130D01*
X110731876Y-96923537D01*
X110606517Y-97048896D01*
X110459110Y-97147390D01*
X110295320Y-97215234D01*
X110237361Y-97226763D01*
X110121444Y-97249820D01*
X109944156Y-97249820D01*
X109828239Y-97226763D01*
X109770280Y-97215234D01*
X109606490Y-97147390D01*
X109459083Y-97048896D01*
X109333724Y-96923537D01*
X109235230Y-96776130D01*
X109167386Y-96612340D01*
X109155857Y-96554381D01*
X109132800Y-96438464D01*
X109132800Y-96261176D01*
X109167386Y-96087301D01*
X109235229Y-95923512D01*
X109333723Y-95776105D01*
X109333724Y-95776103D01*
X109459083Y-95650744D01*
X109606490Y-95552250D01*
X109770280Y-95484406D01*
X109828239Y-95472877D01*
X109944156Y-95449820D01*
X110121444Y-95449820D01*
X110237361Y-95472877D01*
G37*
G36*
X108392800Y-97249820D02*
G01*
X106592800Y-97249820D01*
X106592800Y-95449820D01*
X108392800Y-95449820D01*
X108392800Y-97249820D01*
G37*
G36*
X95048879Y-94804440D02*
G01*
X95089870Y-94816874D01*
X95127645Y-94837065D01*
X95160758Y-94864242D01*
X95187935Y-94897355D01*
X95208126Y-94935130D01*
X95220560Y-94976121D01*
X95225000Y-95021204D01*
X95225000Y-95553796D01*
X95220560Y-95598879D01*
X95208126Y-95639870D01*
X95187935Y-95677645D01*
X95160758Y-95710758D01*
X95127645Y-95737935D01*
X95089870Y-95758126D01*
X95048879Y-95770560D01*
X95003796Y-95775000D01*
X94396204Y-95775000D01*
X94351121Y-95770560D01*
X94310130Y-95758126D01*
X94272355Y-95737935D01*
X94239242Y-95710758D01*
X94212065Y-95677645D01*
X94191874Y-95639870D01*
X94179440Y-95598879D01*
X94175000Y-95553796D01*
X94175000Y-95021204D01*
X94179440Y-94976121D01*
X94191874Y-94935130D01*
X94212065Y-94897355D01*
X94239242Y-94864242D01*
X94272355Y-94837065D01*
X94310130Y-94816874D01*
X94351121Y-94804440D01*
X94396204Y-94800000D01*
X95003796Y-94800000D01*
X95048879Y-94804440D01*
G37*
G36*
X93248879Y-94804440D02*
G01*
X93289870Y-94816874D01*
X93327645Y-94837065D01*
X93360758Y-94864242D01*
X93387935Y-94897355D01*
X93408126Y-94935130D01*
X93420560Y-94976121D01*
X93425000Y-95021204D01*
X93425000Y-95553796D01*
X93420560Y-95598879D01*
X93408126Y-95639870D01*
X93387935Y-95677645D01*
X93360758Y-95710758D01*
X93327645Y-95737935D01*
X93289870Y-95758126D01*
X93248879Y-95770560D01*
X93203796Y-95775000D01*
X92596204Y-95775000D01*
X92551121Y-95770560D01*
X92510130Y-95758126D01*
X92472355Y-95737935D01*
X92439242Y-95710758D01*
X92412065Y-95677645D01*
X92391874Y-95639870D01*
X92379440Y-95598879D01*
X92375000Y-95553796D01*
X92375000Y-95021204D01*
X92379440Y-94976121D01*
X92391874Y-94935130D01*
X92412065Y-94897355D01*
X92439242Y-94864242D01*
X92472355Y-94837065D01*
X92510130Y-94816874D01*
X92551121Y-94804440D01*
X92596204Y-94800000D01*
X93203796Y-94800000D01*
X93248879Y-94804440D01*
G37*
G36*
X103531761Y-93407857D02*
G01*
X103589720Y-93419386D01*
X103753510Y-93487230D01*
X103900917Y-93585724D01*
X104026276Y-93711083D01*
X104124770Y-93858490D01*
X104184961Y-94003803D01*
X104192614Y-94022281D01*
X104227200Y-94196156D01*
X104227200Y-94373444D01*
X104192614Y-94547319D01*
X104125305Y-94709820D01*
X104124770Y-94711110D01*
X104026276Y-94858517D01*
X103900917Y-94983876D01*
X103753510Y-95082370D01*
X103589720Y-95150214D01*
X103531761Y-95161743D01*
X103415844Y-95184800D01*
X103238556Y-95184800D01*
X103122639Y-95161743D01*
X103064680Y-95150214D01*
X102900890Y-95082370D01*
X102753483Y-94983876D01*
X102628124Y-94858517D01*
X102529630Y-94711110D01*
X102529096Y-94709820D01*
X102461786Y-94547319D01*
X102427200Y-94373444D01*
X102427200Y-94196156D01*
X102461786Y-94022281D01*
X102469440Y-94003803D01*
X102529630Y-93858490D01*
X102628124Y-93711083D01*
X102753483Y-93585724D01*
X102900890Y-93487230D01*
X103064680Y-93419386D01*
X103122639Y-93407857D01*
X103238556Y-93384800D01*
X103415844Y-93384800D01*
X103531761Y-93407857D01*
G37*
G36*
X110237361Y-92932877D02*
G01*
X110295320Y-92944406D01*
X110459110Y-93012250D01*
X110606517Y-93110744D01*
X110731876Y-93236103D01*
X110830370Y-93383510D01*
X110830371Y-93383512D01*
X110837665Y-93401121D01*
X110865678Y-93468750D01*
X110898214Y-93547301D01*
X110932800Y-93721176D01*
X110932800Y-93898464D01*
X110916821Y-93978796D01*
X110898214Y-94072340D01*
X110830370Y-94236130D01*
X110731876Y-94383537D01*
X110606517Y-94508896D01*
X110459110Y-94607390D01*
X110295320Y-94675234D01*
X110237361Y-94686763D01*
X110121444Y-94709820D01*
X109944156Y-94709820D01*
X109828239Y-94686763D01*
X109770280Y-94675234D01*
X109606490Y-94607390D01*
X109459083Y-94508896D01*
X109333724Y-94383537D01*
X109235230Y-94236130D01*
X109167386Y-94072340D01*
X109148779Y-93978796D01*
X109132800Y-93898464D01*
X109132800Y-93721176D01*
X109167386Y-93547301D01*
X109199923Y-93468750D01*
X109227935Y-93401121D01*
X109235229Y-93383512D01*
X109235230Y-93383510D01*
X109333724Y-93236103D01*
X109459083Y-93110744D01*
X109606490Y-93012250D01*
X109770280Y-92944406D01*
X109828239Y-92932877D01*
X109944156Y-92909820D01*
X110121444Y-92909820D01*
X110237361Y-92932877D01*
G37*
G36*
X107697361Y-92932877D02*
G01*
X107755320Y-92944406D01*
X107919110Y-93012250D01*
X108066517Y-93110744D01*
X108191876Y-93236103D01*
X108290370Y-93383510D01*
X108290371Y-93383512D01*
X108297665Y-93401121D01*
X108325678Y-93468750D01*
X108358214Y-93547301D01*
X108392800Y-93721176D01*
X108392800Y-93898464D01*
X108376821Y-93978796D01*
X108358214Y-94072340D01*
X108290370Y-94236130D01*
X108191876Y-94383537D01*
X108066517Y-94508896D01*
X107919110Y-94607390D01*
X107755320Y-94675234D01*
X107697361Y-94686763D01*
X107581444Y-94709820D01*
X107404156Y-94709820D01*
X107288239Y-94686763D01*
X107230280Y-94675234D01*
X107066490Y-94607390D01*
X106919083Y-94508896D01*
X106793724Y-94383537D01*
X106695230Y-94236130D01*
X106627386Y-94072340D01*
X106608779Y-93978796D01*
X106592800Y-93898464D01*
X106592800Y-93721176D01*
X106627386Y-93547301D01*
X106659923Y-93468750D01*
X106687935Y-93401121D01*
X106695229Y-93383512D01*
X106695230Y-93383510D01*
X106793724Y-93236103D01*
X106919083Y-93110744D01*
X107066490Y-93012250D01*
X107230280Y-92944406D01*
X107288239Y-92932877D01*
X107404156Y-92909820D01*
X107581444Y-92909820D01*
X107697361Y-92932877D01*
G37*
G36*
X93248879Y-93229440D02*
G01*
X93289870Y-93241874D01*
X93327645Y-93262065D01*
X93360758Y-93289242D01*
X93387935Y-93322355D01*
X93408126Y-93360130D01*
X93420560Y-93401121D01*
X93425000Y-93446204D01*
X93425000Y-93978796D01*
X93420560Y-94023879D01*
X93408126Y-94064870D01*
X93387935Y-94102645D01*
X93360758Y-94135758D01*
X93327645Y-94162935D01*
X93289870Y-94183126D01*
X93248879Y-94195560D01*
X93203796Y-94200000D01*
X92596204Y-94200000D01*
X92551121Y-94195560D01*
X92510130Y-94183126D01*
X92472355Y-94162935D01*
X92439242Y-94135758D01*
X92412065Y-94102645D01*
X92391874Y-94064870D01*
X92379440Y-94023879D01*
X92375000Y-93978796D01*
X92375000Y-93446204D01*
X92379440Y-93401121D01*
X92391874Y-93360130D01*
X92412065Y-93322355D01*
X92439242Y-93289242D01*
X92472355Y-93262065D01*
X92510130Y-93241874D01*
X92551121Y-93229440D01*
X92596204Y-93225000D01*
X93203796Y-93225000D01*
X93248879Y-93229440D01*
G37*
G36*
X95048879Y-93229440D02*
G01*
X95089870Y-93241874D01*
X95127645Y-93262065D01*
X95160758Y-93289242D01*
X95187935Y-93322355D01*
X95208126Y-93360130D01*
X95220560Y-93401121D01*
X95225000Y-93446204D01*
X95225000Y-93978796D01*
X95220560Y-94023879D01*
X95208126Y-94064870D01*
X95187935Y-94102645D01*
X95160758Y-94135758D01*
X95127645Y-94162935D01*
X95089870Y-94183126D01*
X95048879Y-94195560D01*
X95003796Y-94200000D01*
X94396204Y-94200000D01*
X94351121Y-94195560D01*
X94310130Y-94183126D01*
X94272355Y-94162935D01*
X94239242Y-94135758D01*
X94212065Y-94102645D01*
X94191874Y-94064870D01*
X94179440Y-94023879D01*
X94175000Y-93978796D01*
X94175000Y-93446204D01*
X94179440Y-93401121D01*
X94191874Y-93360130D01*
X94212065Y-93322355D01*
X94239242Y-93289242D01*
X94272355Y-93262065D01*
X94310130Y-93241874D01*
X94351121Y-93229440D01*
X94396204Y-93225000D01*
X95003796Y-93225000D01*
X95048879Y-93229440D01*
G37*
G36*
X83403879Y-91769440D02*
G01*
X83444870Y-91781874D01*
X83482645Y-91802065D01*
X83515758Y-91829242D01*
X83542935Y-91862355D01*
X83563126Y-91900130D01*
X83575560Y-91941121D01*
X83580000Y-91986204D01*
X83580000Y-92593796D01*
X83575560Y-92638879D01*
X83563126Y-92679870D01*
X83542935Y-92717645D01*
X83515758Y-92750758D01*
X83482645Y-92777935D01*
X83444870Y-92798126D01*
X83403879Y-92810560D01*
X83358796Y-92815000D01*
X82826204Y-92815000D01*
X82781121Y-92810560D01*
X82740130Y-92798126D01*
X82702355Y-92777935D01*
X82669242Y-92750758D01*
X82642065Y-92717645D01*
X82621874Y-92679870D01*
X82609440Y-92638879D01*
X82605000Y-92593796D01*
X82605000Y-91986204D01*
X82609440Y-91941121D01*
X82621874Y-91900130D01*
X82642065Y-91862355D01*
X82669242Y-91829242D01*
X82702355Y-91802065D01*
X82740130Y-91781874D01*
X82781121Y-91769440D01*
X82826204Y-91765000D01*
X83358796Y-91765000D01*
X83403879Y-91769440D01*
G37*
G36*
X81978879Y-91844440D02*
G01*
X82019870Y-91856874D01*
X82057645Y-91877065D01*
X82090758Y-91904242D01*
X82117935Y-91937355D01*
X82138126Y-91975130D01*
X82150560Y-92016121D01*
X82155000Y-92061204D01*
X82155000Y-92593796D01*
X82150560Y-92638879D01*
X82138126Y-92679870D01*
X82117935Y-92717645D01*
X82090758Y-92750758D01*
X82057645Y-92777935D01*
X82019870Y-92798126D01*
X81978879Y-92810560D01*
X81933796Y-92815000D01*
X81326204Y-92815000D01*
X81281121Y-92810560D01*
X81240130Y-92798126D01*
X81202355Y-92777935D01*
X81169242Y-92750758D01*
X81142065Y-92717645D01*
X81121874Y-92679870D01*
X81109440Y-92638879D01*
X81105000Y-92593796D01*
X81105000Y-92061204D01*
X81109440Y-92016121D01*
X81121874Y-91975130D01*
X81142065Y-91937355D01*
X81169242Y-91904242D01*
X81202355Y-91877065D01*
X81240130Y-91856874D01*
X81281121Y-91844440D01*
X81326204Y-91840000D01*
X81933796Y-91840000D01*
X81978879Y-91844440D01*
G37*
G36*
X84978879Y-91769440D02*
G01*
X85019870Y-91781874D01*
X85057645Y-91802065D01*
X85090758Y-91829242D01*
X85117935Y-91862355D01*
X85138126Y-91900130D01*
X85150560Y-91941121D01*
X85155000Y-91986204D01*
X85155000Y-92593796D01*
X85150560Y-92638879D01*
X85138126Y-92679870D01*
X85117935Y-92717645D01*
X85090758Y-92750758D01*
X85057645Y-92777935D01*
X85019870Y-92798126D01*
X84978879Y-92810560D01*
X84933796Y-92815000D01*
X84401204Y-92815000D01*
X84356121Y-92810560D01*
X84315130Y-92798126D01*
X84277355Y-92777935D01*
X84244242Y-92750758D01*
X84217065Y-92717645D01*
X84196874Y-92679870D01*
X84184440Y-92638879D01*
X84180000Y-92593796D01*
X84180000Y-91986204D01*
X84184440Y-91941121D01*
X84196874Y-91900130D01*
X84217065Y-91862355D01*
X84244242Y-91829242D01*
X84277355Y-91802065D01*
X84315130Y-91781874D01*
X84356121Y-91769440D01*
X84401204Y-91765000D01*
X84933796Y-91765000D01*
X84978879Y-91769440D01*
G37*
G36*
X55271761Y-90867857D02*
G01*
X55329720Y-90879386D01*
X55493510Y-90947230D01*
X55640917Y-91045724D01*
X55766276Y-91171083D01*
X55864770Y-91318490D01*
X55930063Y-91476121D01*
X55932614Y-91482281D01*
X55967200Y-91656156D01*
X55967200Y-91833444D01*
X55964964Y-91844684D01*
X55932614Y-92007320D01*
X55907732Y-92067390D01*
X55865305Y-92169820D01*
X55864770Y-92171110D01*
X55766276Y-92318517D01*
X55640917Y-92443876D01*
X55493510Y-92542370D01*
X55329720Y-92610214D01*
X55271761Y-92621743D01*
X55155844Y-92644800D01*
X54978556Y-92644800D01*
X54862639Y-92621743D01*
X54804680Y-92610214D01*
X54640890Y-92542370D01*
X54493483Y-92443876D01*
X54368124Y-92318517D01*
X54269630Y-92171110D01*
X54269096Y-92169820D01*
X54226668Y-92067390D01*
X54201786Y-92007320D01*
X54169436Y-91844684D01*
X54167200Y-91833444D01*
X54167200Y-91656156D01*
X54201786Y-91482281D01*
X54204338Y-91476121D01*
X54269630Y-91318490D01*
X54368124Y-91171083D01*
X54493483Y-91045724D01*
X54640890Y-90947230D01*
X54804680Y-90879386D01*
X54862639Y-90867857D01*
X54978556Y-90844800D01*
X55155844Y-90844800D01*
X55271761Y-90867857D01*
G37*
G36*
X104227200Y-92644800D02*
G01*
X102427200Y-92644800D01*
X102427200Y-90844800D01*
X104227200Y-90844800D01*
X104227200Y-92644800D01*
G37*
G36*
X92598879Y-91304440D02*
G01*
X92639870Y-91316874D01*
X92677645Y-91337065D01*
X92710758Y-91364242D01*
X92737935Y-91397355D01*
X92758126Y-91435130D01*
X92770560Y-91476121D01*
X92775000Y-91521204D01*
X92775000Y-92053796D01*
X92770560Y-92098879D01*
X92758126Y-92139870D01*
X92737935Y-92177645D01*
X92710758Y-92210758D01*
X92677645Y-92237935D01*
X92639870Y-92258126D01*
X92598879Y-92270560D01*
X92553796Y-92275000D01*
X91946204Y-92275000D01*
X91901121Y-92270560D01*
X91860130Y-92258126D01*
X91822355Y-92237935D01*
X91789242Y-92210758D01*
X91762065Y-92177645D01*
X91741874Y-92139870D01*
X91729440Y-92098879D01*
X91725000Y-92053796D01*
X91725000Y-91521204D01*
X91729440Y-91476121D01*
X91741874Y-91435130D01*
X91762065Y-91397355D01*
X91789242Y-91364242D01*
X91822355Y-91337065D01*
X91860130Y-91316874D01*
X91901121Y-91304440D01*
X91946204Y-91300000D01*
X92553796Y-91300000D01*
X92598879Y-91304440D01*
G37*
G36*
X94598879Y-91304440D02*
G01*
X94639870Y-91316874D01*
X94677645Y-91337065D01*
X94710758Y-91364242D01*
X94737935Y-91397355D01*
X94758126Y-91435130D01*
X94770560Y-91476121D01*
X94775000Y-91521204D01*
X94775000Y-92053796D01*
X94770560Y-92098879D01*
X94758126Y-92139870D01*
X94737935Y-92177645D01*
X94710758Y-92210758D01*
X94677645Y-92237935D01*
X94639870Y-92258126D01*
X94598879Y-92270560D01*
X94553796Y-92275000D01*
X93946204Y-92275000D01*
X93901121Y-92270560D01*
X93860130Y-92258126D01*
X93822355Y-92237935D01*
X93789242Y-92210758D01*
X93762065Y-92177645D01*
X93741874Y-92139870D01*
X93729440Y-92098879D01*
X93725000Y-92053796D01*
X93725000Y-91521204D01*
X93729440Y-91476121D01*
X93741874Y-91435130D01*
X93762065Y-91397355D01*
X93789242Y-91364242D01*
X93822355Y-91337065D01*
X93860130Y-91316874D01*
X93901121Y-91304440D01*
X93946204Y-91300000D01*
X94553796Y-91300000D01*
X94598879Y-91304440D01*
G37*
G36*
X110237361Y-90392877D02*
G01*
X110295320Y-90404406D01*
X110459110Y-90472250D01*
X110606517Y-90570744D01*
X110731876Y-90696103D01*
X110731877Y-90696105D01*
X110830371Y-90843512D01*
X110898214Y-91007301D01*
X110932800Y-91181176D01*
X110932800Y-91358464D01*
X110930228Y-91371393D01*
X110898214Y-91532340D01*
X110830370Y-91696130D01*
X110731876Y-91843537D01*
X110606517Y-91968896D01*
X110459110Y-92067390D01*
X110459109Y-92067391D01*
X110459108Y-92067391D01*
X110411135Y-92087262D01*
X110295320Y-92135234D01*
X110237361Y-92146763D01*
X110121444Y-92169820D01*
X109944156Y-92169820D01*
X109828239Y-92146763D01*
X109770280Y-92135234D01*
X109654465Y-92087262D01*
X109606492Y-92067391D01*
X109606491Y-92067391D01*
X109606490Y-92067390D01*
X109459083Y-91968896D01*
X109333724Y-91843537D01*
X109235230Y-91696130D01*
X109167386Y-91532340D01*
X109135372Y-91371393D01*
X109132800Y-91358464D01*
X109132800Y-91181176D01*
X109167386Y-91007301D01*
X109235229Y-90843512D01*
X109333723Y-90696105D01*
X109333724Y-90696103D01*
X109459083Y-90570744D01*
X109606490Y-90472250D01*
X109770280Y-90404406D01*
X109828239Y-90392877D01*
X109944156Y-90369820D01*
X110121444Y-90369820D01*
X110237361Y-90392877D01*
G37*
G36*
X107697361Y-90392877D02*
G01*
X107755320Y-90404406D01*
X107919110Y-90472250D01*
X108066517Y-90570744D01*
X108191876Y-90696103D01*
X108191877Y-90696105D01*
X108290371Y-90843512D01*
X108358214Y-91007301D01*
X108392800Y-91181176D01*
X108392800Y-91358464D01*
X108390228Y-91371393D01*
X108358214Y-91532340D01*
X108290370Y-91696130D01*
X108191876Y-91843537D01*
X108066517Y-91968896D01*
X107919110Y-92067390D01*
X107919109Y-92067391D01*
X107919108Y-92067391D01*
X107871135Y-92087262D01*
X107755320Y-92135234D01*
X107697361Y-92146763D01*
X107581444Y-92169820D01*
X107404156Y-92169820D01*
X107288239Y-92146763D01*
X107230280Y-92135234D01*
X107114465Y-92087262D01*
X107066492Y-92067391D01*
X107066491Y-92067391D01*
X107066490Y-92067390D01*
X106919083Y-91968896D01*
X106793724Y-91843537D01*
X106695230Y-91696130D01*
X106627386Y-91532340D01*
X106595372Y-91371393D01*
X106592800Y-91358464D01*
X106592800Y-91181176D01*
X106627386Y-91007301D01*
X106695229Y-90843512D01*
X106793723Y-90696105D01*
X106793724Y-90696103D01*
X106919083Y-90570744D01*
X107066490Y-90472250D01*
X107230280Y-90404406D01*
X107288239Y-90392877D01*
X107404156Y-90369820D01*
X107581444Y-90369820D01*
X107697361Y-90392877D01*
G37*
G36*
X84978879Y-90269440D02*
G01*
X85019870Y-90281874D01*
X85057645Y-90302065D01*
X85090758Y-90329242D01*
X85117935Y-90362355D01*
X85138126Y-90400130D01*
X85150560Y-90441121D01*
X85155000Y-90486204D01*
X85155000Y-91093796D01*
X85150560Y-91138879D01*
X85138126Y-91179870D01*
X85117935Y-91217645D01*
X85090758Y-91250758D01*
X85057645Y-91277935D01*
X85019870Y-91298126D01*
X84978879Y-91310560D01*
X84933796Y-91315000D01*
X84401204Y-91315000D01*
X84356121Y-91310560D01*
X84315130Y-91298126D01*
X84277355Y-91277935D01*
X84244242Y-91250758D01*
X84217065Y-91217645D01*
X84196874Y-91179870D01*
X84184440Y-91138879D01*
X84180000Y-91093796D01*
X84180000Y-90486204D01*
X84184440Y-90441121D01*
X84196874Y-90400130D01*
X84217065Y-90362355D01*
X84244242Y-90329242D01*
X84277355Y-90302065D01*
X84315130Y-90281874D01*
X84356121Y-90269440D01*
X84401204Y-90265000D01*
X84933796Y-90265000D01*
X84978879Y-90269440D01*
G37*
G36*
X83403879Y-90269440D02*
G01*
X83444870Y-90281874D01*
X83482645Y-90302065D01*
X83515758Y-90329242D01*
X83542935Y-90362355D01*
X83563126Y-90400130D01*
X83575560Y-90441121D01*
X83580000Y-90486204D01*
X83580000Y-91093796D01*
X83575560Y-91138879D01*
X83563126Y-91179870D01*
X83542935Y-91217645D01*
X83515758Y-91250758D01*
X83482645Y-91277935D01*
X83444870Y-91298126D01*
X83403879Y-91310560D01*
X83358796Y-91315000D01*
X82826204Y-91315000D01*
X82781121Y-91310560D01*
X82740130Y-91298126D01*
X82702355Y-91277935D01*
X82669242Y-91250758D01*
X82642065Y-91217645D01*
X82621874Y-91179870D01*
X82609440Y-91138879D01*
X82605000Y-91093796D01*
X82605000Y-90486204D01*
X82609440Y-90441121D01*
X82621874Y-90400130D01*
X82642065Y-90362355D01*
X82669242Y-90329242D01*
X82702355Y-90302065D01*
X82740130Y-90281874D01*
X82781121Y-90269440D01*
X82826204Y-90265000D01*
X83358796Y-90265000D01*
X83403879Y-90269440D01*
G37*
G36*
X81978879Y-90269440D02*
G01*
X82019870Y-90281874D01*
X82057645Y-90302065D01*
X82090758Y-90329242D01*
X82117935Y-90362355D01*
X82138126Y-90400130D01*
X82150560Y-90441121D01*
X82155000Y-90486204D01*
X82155000Y-91018796D01*
X82150560Y-91063879D01*
X82138126Y-91104870D01*
X82117935Y-91142645D01*
X82090758Y-91175758D01*
X82057645Y-91202935D01*
X82019870Y-91223126D01*
X81978879Y-91235560D01*
X81933796Y-91240000D01*
X81326204Y-91240000D01*
X81281121Y-91235560D01*
X81240130Y-91223126D01*
X81202355Y-91202935D01*
X81169242Y-91175758D01*
X81142065Y-91142645D01*
X81121874Y-91104870D01*
X81109440Y-91063879D01*
X81105000Y-91018796D01*
X81105000Y-90486204D01*
X81109440Y-90441121D01*
X81121874Y-90400130D01*
X81142065Y-90362355D01*
X81169242Y-90329242D01*
X81202355Y-90302065D01*
X81240130Y-90281874D01*
X81281121Y-90269440D01*
X81326204Y-90265000D01*
X81933796Y-90265000D01*
X81978879Y-90269440D01*
G37*
G36*
X94598879Y-89729440D02*
G01*
X94639870Y-89741874D01*
X94677645Y-89762065D01*
X94710758Y-89789242D01*
X94737935Y-89822355D01*
X94758126Y-89860130D01*
X94770560Y-89901121D01*
X94775000Y-89946204D01*
X94775000Y-90478796D01*
X94770560Y-90523879D01*
X94758126Y-90564870D01*
X94737935Y-90602645D01*
X94710758Y-90635758D01*
X94677645Y-90662935D01*
X94639870Y-90683126D01*
X94598879Y-90695560D01*
X94553796Y-90700000D01*
X93946204Y-90700000D01*
X93901121Y-90695560D01*
X93860130Y-90683126D01*
X93822355Y-90662935D01*
X93789242Y-90635758D01*
X93762065Y-90602645D01*
X93741874Y-90564870D01*
X93729440Y-90523879D01*
X93725000Y-90478796D01*
X93725000Y-89946204D01*
X93729440Y-89901121D01*
X93741874Y-89860130D01*
X93762065Y-89822355D01*
X93789242Y-89789242D01*
X93822355Y-89762065D01*
X93860130Y-89741874D01*
X93901121Y-89729440D01*
X93946204Y-89725000D01*
X94553796Y-89725000D01*
X94598879Y-89729440D01*
G37*
G36*
X92598879Y-89729440D02*
G01*
X92639870Y-89741874D01*
X92677645Y-89762065D01*
X92710758Y-89789242D01*
X92737935Y-89822355D01*
X92758126Y-89860130D01*
X92770560Y-89901121D01*
X92775000Y-89946204D01*
X92775000Y-90478796D01*
X92770560Y-90523879D01*
X92758126Y-90564870D01*
X92737935Y-90602645D01*
X92710758Y-90635758D01*
X92677645Y-90662935D01*
X92639870Y-90683126D01*
X92598879Y-90695560D01*
X92553796Y-90700000D01*
X91946204Y-90700000D01*
X91901121Y-90695560D01*
X91860130Y-90683126D01*
X91822355Y-90662935D01*
X91789242Y-90635758D01*
X91762065Y-90602645D01*
X91741874Y-90564870D01*
X91729440Y-90523879D01*
X91725000Y-90478796D01*
X91725000Y-89946204D01*
X91729440Y-89901121D01*
X91741874Y-89860130D01*
X91762065Y-89822355D01*
X91789242Y-89789242D01*
X91822355Y-89762065D01*
X91860130Y-89741874D01*
X91901121Y-89729440D01*
X91946204Y-89725000D01*
X92553796Y-89725000D01*
X92598879Y-89729440D01*
G37*
G36*
X55271761Y-88327857D02*
G01*
X55329720Y-88339386D01*
X55493510Y-88407230D01*
X55640917Y-88505724D01*
X55766276Y-88631083D01*
X55766277Y-88631085D01*
X55864771Y-88778492D01*
X55932614Y-88942281D01*
X55967200Y-89116156D01*
X55967200Y-89293444D01*
X55932614Y-89467319D01*
X55865305Y-89629820D01*
X55864770Y-89631110D01*
X55766276Y-89778517D01*
X55640917Y-89903876D01*
X55493510Y-90002370D01*
X55329720Y-90070214D01*
X55271761Y-90081743D01*
X55155844Y-90104800D01*
X54978556Y-90104800D01*
X54862639Y-90081743D01*
X54804680Y-90070214D01*
X54640890Y-90002370D01*
X54493483Y-89903876D01*
X54368124Y-89778517D01*
X54269630Y-89631110D01*
X54269096Y-89629820D01*
X54201786Y-89467319D01*
X54167200Y-89293444D01*
X54167200Y-89116156D01*
X54201786Y-88942281D01*
X54269629Y-88778492D01*
X54368123Y-88631085D01*
X54368124Y-88631083D01*
X54493483Y-88505724D01*
X54640890Y-88407230D01*
X54804680Y-88339386D01*
X54862639Y-88327857D01*
X54978556Y-88304800D01*
X55155844Y-88304800D01*
X55271761Y-88327857D01*
G37*
G36*
X110237361Y-87852877D02*
G01*
X110295320Y-87864406D01*
X110459110Y-87932250D01*
X110606517Y-88030744D01*
X110731876Y-88156103D01*
X110797634Y-88254517D01*
X110830371Y-88303512D01*
X110898214Y-88467301D01*
X110930793Y-88631085D01*
X110932800Y-88641178D01*
X110932800Y-88818462D01*
X110898214Y-88992340D01*
X110830370Y-89156130D01*
X110731876Y-89303537D01*
X110606517Y-89428896D01*
X110459110Y-89527390D01*
X110295320Y-89595234D01*
X110237361Y-89606763D01*
X110121444Y-89629820D01*
X109944156Y-89629820D01*
X109828239Y-89606763D01*
X109770280Y-89595234D01*
X109606490Y-89527390D01*
X109459083Y-89428896D01*
X109333724Y-89303537D01*
X109235230Y-89156130D01*
X109167386Y-88992340D01*
X109132800Y-88818462D01*
X109132800Y-88641178D01*
X109134808Y-88631085D01*
X109167386Y-88467301D01*
X109235229Y-88303512D01*
X109267966Y-88254517D01*
X109333724Y-88156103D01*
X109459083Y-88030744D01*
X109606490Y-87932250D01*
X109770280Y-87864406D01*
X109828239Y-87852877D01*
X109944156Y-87829820D01*
X110121444Y-87829820D01*
X110237361Y-87852877D01*
G37*
G36*
X107697361Y-87852877D02*
G01*
X107755320Y-87864406D01*
X107919110Y-87932250D01*
X108066517Y-88030744D01*
X108191876Y-88156103D01*
X108257634Y-88254517D01*
X108290371Y-88303512D01*
X108358214Y-88467301D01*
X108390793Y-88631085D01*
X108392800Y-88641178D01*
X108392800Y-88818462D01*
X108358214Y-88992340D01*
X108290370Y-89156130D01*
X108191876Y-89303537D01*
X108066517Y-89428896D01*
X107919110Y-89527390D01*
X107755320Y-89595234D01*
X107697361Y-89606763D01*
X107581444Y-89629820D01*
X107404156Y-89629820D01*
X107288239Y-89606763D01*
X107230280Y-89595234D01*
X107066490Y-89527390D01*
X106919083Y-89428896D01*
X106793724Y-89303537D01*
X106695230Y-89156130D01*
X106627386Y-88992340D01*
X106592800Y-88818462D01*
X106592800Y-88641178D01*
X106594808Y-88631085D01*
X106627386Y-88467301D01*
X106695229Y-88303512D01*
X106727966Y-88254517D01*
X106793724Y-88156103D01*
X106919083Y-88030744D01*
X107066490Y-87932250D01*
X107230280Y-87864406D01*
X107288239Y-87852877D01*
X107404156Y-87829820D01*
X107581444Y-87829820D01*
X107697361Y-87852877D01*
G37*
G36*
X103531761Y-86803857D02*
G01*
X103589720Y-86815386D01*
X103753510Y-86883230D01*
X103900917Y-86981724D01*
X104026276Y-87107083D01*
X104124770Y-87254490D01*
X104170080Y-87363877D01*
X104192614Y-87418281D01*
X104221759Y-87564800D01*
X104227200Y-87592158D01*
X104227200Y-87769442D01*
X104192614Y-87943320D01*
X104124770Y-88107110D01*
X104026276Y-88254517D01*
X103900917Y-88379876D01*
X103753510Y-88478370D01*
X103589720Y-88546214D01*
X103531761Y-88557743D01*
X103415844Y-88580800D01*
X103238556Y-88580800D01*
X103122639Y-88557743D01*
X103064680Y-88546214D01*
X102900890Y-88478370D01*
X102753483Y-88379876D01*
X102628124Y-88254517D01*
X102529630Y-88107110D01*
X102461786Y-87943320D01*
X102427200Y-87769442D01*
X102427200Y-87592158D01*
X102432642Y-87564800D01*
X102461786Y-87418281D01*
X102484321Y-87363877D01*
X102529630Y-87254490D01*
X102628124Y-87107083D01*
X102753483Y-86981724D01*
X102900890Y-86883230D01*
X103064680Y-86815386D01*
X103122639Y-86803857D01*
X103238556Y-86780800D01*
X103415844Y-86780800D01*
X103531761Y-86803857D01*
G37*
G36*
X55271761Y-85787857D02*
G01*
X55329720Y-85799386D01*
X55493510Y-85867230D01*
X55640917Y-85965724D01*
X55766276Y-86091083D01*
X55766277Y-86091085D01*
X55864771Y-86238492D01*
X55932614Y-86402281D01*
X55967200Y-86576156D01*
X55967200Y-86753444D01*
X55954879Y-86815386D01*
X55932614Y-86927320D01*
X55910079Y-86981724D01*
X55865305Y-87089820D01*
X55864770Y-87091110D01*
X55766276Y-87238517D01*
X55640917Y-87363876D01*
X55493510Y-87462370D01*
X55329720Y-87530214D01*
X55271761Y-87541743D01*
X55155844Y-87564800D01*
X54978556Y-87564800D01*
X54862639Y-87541743D01*
X54804680Y-87530214D01*
X54640890Y-87462370D01*
X54493483Y-87363876D01*
X54368124Y-87238517D01*
X54269630Y-87091110D01*
X54269096Y-87089820D01*
X54224321Y-86981724D01*
X54201786Y-86927320D01*
X54179521Y-86815386D01*
X54167200Y-86753444D01*
X54167200Y-86576156D01*
X54201786Y-86402281D01*
X54269629Y-86238492D01*
X54368123Y-86091085D01*
X54368124Y-86091083D01*
X54493483Y-85965724D01*
X54640890Y-85867230D01*
X54804680Y-85799386D01*
X54862639Y-85787857D01*
X54978556Y-85764800D01*
X55155844Y-85764800D01*
X55271761Y-85787857D01*
G37*
G36*
X107697361Y-85312877D02*
G01*
X107755320Y-85324406D01*
X107919110Y-85392250D01*
X108066517Y-85490744D01*
X108191876Y-85616103D01*
X108290370Y-85763510D01*
X108290371Y-85763512D01*
X108358214Y-85927301D01*
X108390793Y-86091085D01*
X108392800Y-86101178D01*
X108392800Y-86278462D01*
X108358214Y-86452340D01*
X108290370Y-86616130D01*
X108191876Y-86763537D01*
X108066517Y-86888896D01*
X107919110Y-86987390D01*
X107755320Y-87055234D01*
X107697361Y-87066763D01*
X107581444Y-87089820D01*
X107404156Y-87089820D01*
X107288239Y-87066763D01*
X107230280Y-87055234D01*
X107066490Y-86987390D01*
X106919083Y-86888896D01*
X106793724Y-86763537D01*
X106695230Y-86616130D01*
X106627386Y-86452340D01*
X106592800Y-86278462D01*
X106592800Y-86101178D01*
X106594808Y-86091085D01*
X106627386Y-85927301D01*
X106695229Y-85763512D01*
X106695230Y-85763510D01*
X106793724Y-85616103D01*
X106919083Y-85490744D01*
X107066490Y-85392250D01*
X107230280Y-85324406D01*
X107288239Y-85312877D01*
X107404156Y-85289820D01*
X107581444Y-85289820D01*
X107697361Y-85312877D01*
G37*
G36*
X110237361Y-85312877D02*
G01*
X110295320Y-85324406D01*
X110459110Y-85392250D01*
X110606517Y-85490744D01*
X110731876Y-85616103D01*
X110830370Y-85763510D01*
X110830371Y-85763512D01*
X110898214Y-85927301D01*
X110930793Y-86091085D01*
X110932800Y-86101178D01*
X110932800Y-86278462D01*
X110898214Y-86452340D01*
X110830370Y-86616130D01*
X110731876Y-86763537D01*
X110606517Y-86888896D01*
X110459110Y-86987390D01*
X110295320Y-87055234D01*
X110237361Y-87066763D01*
X110121444Y-87089820D01*
X109944156Y-87089820D01*
X109828239Y-87066763D01*
X109770280Y-87055234D01*
X109606490Y-86987390D01*
X109459083Y-86888896D01*
X109333724Y-86763537D01*
X109235230Y-86616130D01*
X109167386Y-86452340D01*
X109132800Y-86278462D01*
X109132800Y-86101178D01*
X109134808Y-86091085D01*
X109167386Y-85927301D01*
X109235229Y-85763512D01*
X109235230Y-85763510D01*
X109333724Y-85616103D01*
X109459083Y-85490744D01*
X109606490Y-85392250D01*
X109770280Y-85324406D01*
X109828239Y-85312877D01*
X109944156Y-85289820D01*
X110121444Y-85289820D01*
X110237361Y-85312877D01*
G37*
G36*
X103531761Y-84263857D02*
G01*
X103589720Y-84275386D01*
X103753510Y-84343230D01*
X103900917Y-84441724D01*
X104026276Y-84567083D01*
X104124770Y-84714490D01*
X104170080Y-84823877D01*
X104192614Y-84878281D01*
X104221759Y-85024800D01*
X104227200Y-85052158D01*
X104227200Y-85229442D01*
X104192614Y-85403320D01*
X104124770Y-85567110D01*
X104026276Y-85714517D01*
X103900917Y-85839876D01*
X103753510Y-85938370D01*
X103589720Y-86006214D01*
X103531761Y-86017743D01*
X103415844Y-86040800D01*
X103238556Y-86040800D01*
X103122639Y-86017743D01*
X103064680Y-86006214D01*
X102900890Y-85938370D01*
X102753483Y-85839876D01*
X102628124Y-85714517D01*
X102529630Y-85567110D01*
X102461786Y-85403320D01*
X102427200Y-85229442D01*
X102427200Y-85052158D01*
X102432642Y-85024800D01*
X102461786Y-84878281D01*
X102484321Y-84823877D01*
X102529630Y-84714490D01*
X102628124Y-84567083D01*
X102753483Y-84441724D01*
X102900890Y-84343230D01*
X103064680Y-84275386D01*
X103122639Y-84263857D01*
X103238556Y-84240800D01*
X103415844Y-84240800D01*
X103531761Y-84263857D01*
G37*
G36*
X87348879Y-84804440D02*
G01*
X87389870Y-84816874D01*
X87427645Y-84837065D01*
X87460758Y-84864242D01*
X87487935Y-84897355D01*
X87508126Y-84935130D01*
X87520560Y-84976121D01*
X87525000Y-85021204D01*
X87525000Y-85553796D01*
X87520560Y-85598879D01*
X87508126Y-85639870D01*
X87487935Y-85677645D01*
X87460758Y-85710758D01*
X87427645Y-85737935D01*
X87389870Y-85758126D01*
X87348879Y-85770560D01*
X87303796Y-85775000D01*
X86696204Y-85775000D01*
X86651121Y-85770560D01*
X86610130Y-85758126D01*
X86572355Y-85737935D01*
X86539242Y-85710758D01*
X86512065Y-85677645D01*
X86491874Y-85639870D01*
X86479440Y-85598879D01*
X86475000Y-85553796D01*
X86475000Y-85021204D01*
X86479440Y-84976121D01*
X86491874Y-84935130D01*
X86512065Y-84897355D01*
X86539242Y-84864242D01*
X86572355Y-84837065D01*
X86610130Y-84816874D01*
X86651121Y-84804440D01*
X86696204Y-84800000D01*
X87303796Y-84800000D01*
X87348879Y-84804440D01*
G37*
G36*
X55250126Y-83243554D02*
G01*
X55329720Y-83259386D01*
X55493510Y-83327230D01*
X55640917Y-83425724D01*
X55766276Y-83551083D01*
X55864770Y-83698490D01*
X55932614Y-83862280D01*
X55939591Y-83897355D01*
X55967200Y-84036156D01*
X55967200Y-84213444D01*
X55954879Y-84275386D01*
X55932614Y-84387320D01*
X55910079Y-84441724D01*
X55865305Y-84549820D01*
X55864770Y-84551110D01*
X55766276Y-84698517D01*
X55640917Y-84823876D01*
X55493510Y-84922370D01*
X55329720Y-84990214D01*
X55299641Y-84996197D01*
X55155844Y-85024800D01*
X54978556Y-85024800D01*
X54834759Y-84996197D01*
X54804680Y-84990214D01*
X54640890Y-84922370D01*
X54493483Y-84823876D01*
X54368124Y-84698517D01*
X54269630Y-84551110D01*
X54269096Y-84549820D01*
X54224321Y-84441724D01*
X54201786Y-84387320D01*
X54179521Y-84275386D01*
X54167200Y-84213444D01*
X54167200Y-84036156D01*
X54194809Y-83897355D01*
X54201786Y-83862280D01*
X54269630Y-83698490D01*
X54368124Y-83551083D01*
X54493483Y-83425724D01*
X54640890Y-83327230D01*
X54804680Y-83259386D01*
X54884274Y-83243554D01*
X54978556Y-83224800D01*
X55155844Y-83224800D01*
X55250126Y-83243554D01*
G37*
G36*
X92848879Y-83804440D02*
G01*
X92889870Y-83816874D01*
X92927645Y-83837065D01*
X92960758Y-83864242D01*
X92987935Y-83897355D01*
X93008126Y-83935130D01*
X93020560Y-83976121D01*
X93025000Y-84021204D01*
X93025000Y-84553796D01*
X93020560Y-84598879D01*
X93008126Y-84639870D01*
X92987935Y-84677645D01*
X92960758Y-84710758D01*
X92927645Y-84737935D01*
X92889870Y-84758126D01*
X92848879Y-84770560D01*
X92803796Y-84775000D01*
X92196204Y-84775000D01*
X92151121Y-84770560D01*
X92110130Y-84758126D01*
X92072355Y-84737935D01*
X92039242Y-84710758D01*
X92012065Y-84677645D01*
X91991874Y-84639870D01*
X91979440Y-84598879D01*
X91975000Y-84553796D01*
X91975000Y-84021204D01*
X91979440Y-83976121D01*
X91991874Y-83935130D01*
X92012065Y-83897355D01*
X92039242Y-83864242D01*
X92072355Y-83837065D01*
X92110130Y-83816874D01*
X92151121Y-83804440D01*
X92196204Y-83800000D01*
X92803796Y-83800000D01*
X92848879Y-83804440D01*
G37*
G36*
X107697361Y-82772877D02*
G01*
X107755320Y-82784406D01*
X107919110Y-82852250D01*
X108066517Y-82950744D01*
X108191876Y-83076103D01*
X108263386Y-83183126D01*
X108290371Y-83223512D01*
X108358214Y-83387301D01*
X108392800Y-83561176D01*
X108392800Y-83738464D01*
X108369743Y-83854381D01*
X108358214Y-83912340D01*
X108340026Y-83956250D01*
X108301389Y-84049529D01*
X108290370Y-84076130D01*
X108191876Y-84223537D01*
X108066517Y-84348896D01*
X107919110Y-84447390D01*
X107755320Y-84515234D01*
X107697361Y-84526763D01*
X107581444Y-84549820D01*
X107404156Y-84549820D01*
X107288239Y-84526763D01*
X107230280Y-84515234D01*
X107066490Y-84447390D01*
X106919083Y-84348896D01*
X106793724Y-84223537D01*
X106695230Y-84076130D01*
X106684212Y-84049529D01*
X106645574Y-83956250D01*
X106627386Y-83912340D01*
X106615857Y-83854381D01*
X106592800Y-83738464D01*
X106592800Y-83561176D01*
X106627386Y-83387301D01*
X106695229Y-83223512D01*
X106722214Y-83183126D01*
X106793724Y-83076103D01*
X106919083Y-82950744D01*
X107066490Y-82852250D01*
X107230280Y-82784406D01*
X107288239Y-82772877D01*
X107404156Y-82749820D01*
X107581444Y-82749820D01*
X107697361Y-82772877D01*
G37*
G36*
X110237361Y-82772877D02*
G01*
X110295320Y-82784406D01*
X110459110Y-82852250D01*
X110606517Y-82950744D01*
X110731876Y-83076103D01*
X110803386Y-83183126D01*
X110830371Y-83223512D01*
X110898214Y-83387301D01*
X110932800Y-83561176D01*
X110932800Y-83738464D01*
X110909743Y-83854381D01*
X110898214Y-83912340D01*
X110880026Y-83956250D01*
X110841389Y-84049529D01*
X110830370Y-84076130D01*
X110731876Y-84223537D01*
X110606517Y-84348896D01*
X110459110Y-84447390D01*
X110295320Y-84515234D01*
X110237361Y-84526763D01*
X110121444Y-84549820D01*
X109944156Y-84549820D01*
X109828239Y-84526763D01*
X109770280Y-84515234D01*
X109606490Y-84447390D01*
X109459083Y-84348896D01*
X109333724Y-84223537D01*
X109235230Y-84076130D01*
X109224212Y-84049529D01*
X109185574Y-83956250D01*
X109167386Y-83912340D01*
X109155857Y-83854381D01*
X109132800Y-83738464D01*
X109132800Y-83561176D01*
X109167386Y-83387301D01*
X109235229Y-83223512D01*
X109262214Y-83183126D01*
X109333724Y-83076103D01*
X109459083Y-82950744D01*
X109606490Y-82852250D01*
X109770280Y-82784406D01*
X109828239Y-82772877D01*
X109944156Y-82749820D01*
X110121444Y-82749820D01*
X110237361Y-82772877D01*
G37*
G36*
X87348879Y-83229440D02*
G01*
X87389870Y-83241874D01*
X87427645Y-83262065D01*
X87460758Y-83289242D01*
X87487935Y-83322355D01*
X87508126Y-83360130D01*
X87520560Y-83401121D01*
X87525000Y-83446204D01*
X87525000Y-83978796D01*
X87520560Y-84023879D01*
X87508126Y-84064870D01*
X87487935Y-84102645D01*
X87460758Y-84135758D01*
X87427645Y-84162935D01*
X87389870Y-84183126D01*
X87348879Y-84195560D01*
X87303796Y-84200000D01*
X86696204Y-84200000D01*
X86651121Y-84195560D01*
X86610130Y-84183126D01*
X86572355Y-84162935D01*
X86539242Y-84135758D01*
X86512065Y-84102645D01*
X86491874Y-84064870D01*
X86479440Y-84023879D01*
X86475000Y-83978796D01*
X86475000Y-83446204D01*
X86479440Y-83401121D01*
X86491874Y-83360130D01*
X86512065Y-83322355D01*
X86539242Y-83289242D01*
X86572355Y-83262065D01*
X86610130Y-83241874D01*
X86651121Y-83229440D01*
X86696204Y-83225000D01*
X87303796Y-83225000D01*
X87348879Y-83229440D01*
G37*
G36*
X78098879Y-82804440D02*
G01*
X78139870Y-82816874D01*
X78177645Y-82837065D01*
X78210758Y-82864242D01*
X78237935Y-82897355D01*
X78258126Y-82935130D01*
X78270560Y-82976121D01*
X78275000Y-83021204D01*
X78275000Y-83553796D01*
X78270560Y-83598879D01*
X78258126Y-83639870D01*
X78237935Y-83677645D01*
X78210758Y-83710758D01*
X78177645Y-83737935D01*
X78139870Y-83758126D01*
X78098879Y-83770560D01*
X78053796Y-83775000D01*
X77446204Y-83775000D01*
X77401121Y-83770560D01*
X77360130Y-83758126D01*
X77322355Y-83737935D01*
X77289242Y-83710758D01*
X77262065Y-83677645D01*
X77241874Y-83639870D01*
X77229440Y-83598879D01*
X77225000Y-83553796D01*
X77225000Y-83021204D01*
X77229440Y-82976121D01*
X77241874Y-82935130D01*
X77262065Y-82897355D01*
X77289242Y-82864242D01*
X77322355Y-82837065D01*
X77360130Y-82816874D01*
X77401121Y-82804440D01*
X77446204Y-82800000D01*
X78053796Y-82800000D01*
X78098879Y-82804440D01*
G37*
G36*
X80848879Y-82804440D02*
G01*
X80889870Y-82816874D01*
X80927645Y-82837065D01*
X80960758Y-82864242D01*
X80987935Y-82897355D01*
X81008126Y-82935130D01*
X81020560Y-82976121D01*
X81025000Y-83021204D01*
X81025000Y-83553796D01*
X81020560Y-83598879D01*
X81008126Y-83639870D01*
X80987935Y-83677645D01*
X80960758Y-83710758D01*
X80927645Y-83737935D01*
X80889870Y-83758126D01*
X80848879Y-83770560D01*
X80803796Y-83775000D01*
X80196204Y-83775000D01*
X80151121Y-83770560D01*
X80110130Y-83758126D01*
X80072355Y-83737935D01*
X80039242Y-83710758D01*
X80012065Y-83677645D01*
X79991874Y-83639870D01*
X79979440Y-83598879D01*
X79975000Y-83553796D01*
X79975000Y-83021204D01*
X79979440Y-82976121D01*
X79991874Y-82935130D01*
X80012065Y-82897355D01*
X80039242Y-82864242D01*
X80072355Y-82837065D01*
X80110130Y-82816874D01*
X80151121Y-82804440D01*
X80196204Y-82800000D01*
X80803796Y-82800000D01*
X80848879Y-82804440D01*
G37*
G36*
X103531761Y-81723857D02*
G01*
X103589720Y-81735386D01*
X103753510Y-81803230D01*
X103900917Y-81901724D01*
X104026276Y-82027083D01*
X104094112Y-82128607D01*
X104124771Y-82174492D01*
X104135337Y-82200000D01*
X104190564Y-82333330D01*
X104192614Y-82338281D01*
X104221759Y-82484800D01*
X104227200Y-82512158D01*
X104227200Y-82689442D01*
X104192614Y-82863320D01*
X104124770Y-83027110D01*
X104026276Y-83174517D01*
X103900917Y-83299876D01*
X103753510Y-83398370D01*
X103753509Y-83398371D01*
X103753508Y-83398371D01*
X103705535Y-83418242D01*
X103589720Y-83466214D01*
X103576970Y-83468750D01*
X103415844Y-83500800D01*
X103238556Y-83500800D01*
X103077430Y-83468750D01*
X103064680Y-83466214D01*
X102948865Y-83418242D01*
X102900892Y-83398371D01*
X102900891Y-83398371D01*
X102900890Y-83398370D01*
X102753483Y-83299876D01*
X102628124Y-83174517D01*
X102529630Y-83027110D01*
X102461786Y-82863320D01*
X102427200Y-82689442D01*
X102427200Y-82512158D01*
X102432642Y-82484800D01*
X102461786Y-82338281D01*
X102463837Y-82333330D01*
X102519063Y-82200000D01*
X102529629Y-82174492D01*
X102560288Y-82128607D01*
X102628124Y-82027083D01*
X102753483Y-81901724D01*
X102900890Y-81803230D01*
X103064680Y-81735386D01*
X103122639Y-81723857D01*
X103238556Y-81700800D01*
X103415844Y-81700800D01*
X103531761Y-81723857D01*
G37*
G36*
X95848879Y-82229440D02*
G01*
X95889870Y-82241874D01*
X95927645Y-82262065D01*
X95960758Y-82289242D01*
X95987935Y-82322355D01*
X96008126Y-82360130D01*
X96020560Y-82401121D01*
X96025000Y-82446204D01*
X96025000Y-83053796D01*
X96020560Y-83098879D01*
X96008126Y-83139870D01*
X95987935Y-83177645D01*
X95960758Y-83210758D01*
X95927645Y-83237935D01*
X95889870Y-83258126D01*
X95848879Y-83270560D01*
X95803796Y-83275000D01*
X95271204Y-83275000D01*
X95226121Y-83270560D01*
X95185130Y-83258126D01*
X95147355Y-83237935D01*
X95114242Y-83210758D01*
X95087065Y-83177645D01*
X95066874Y-83139870D01*
X95054440Y-83098879D01*
X95050000Y-83053796D01*
X95050000Y-82446204D01*
X95054440Y-82401121D01*
X95066874Y-82360130D01*
X95087065Y-82322355D01*
X95114242Y-82289242D01*
X95147355Y-82262065D01*
X95185130Y-82241874D01*
X95226121Y-82229440D01*
X95271204Y-82225000D01*
X95803796Y-82225000D01*
X95848879Y-82229440D01*
G37*
G36*
X94273879Y-82229440D02*
G01*
X94314870Y-82241874D01*
X94352645Y-82262065D01*
X94385758Y-82289242D01*
X94412935Y-82322355D01*
X94433126Y-82360130D01*
X94445560Y-82401121D01*
X94450000Y-82446204D01*
X94450000Y-83053796D01*
X94445560Y-83098879D01*
X94433126Y-83139870D01*
X94412935Y-83177645D01*
X94385758Y-83210758D01*
X94352645Y-83237935D01*
X94314870Y-83258126D01*
X94273879Y-83270560D01*
X94228796Y-83275000D01*
X93696204Y-83275000D01*
X93651121Y-83270560D01*
X93610130Y-83258126D01*
X93572355Y-83237935D01*
X93539242Y-83210758D01*
X93512065Y-83177645D01*
X93491874Y-83139870D01*
X93479440Y-83098879D01*
X93475000Y-83053796D01*
X93475000Y-82446204D01*
X93479440Y-82401121D01*
X93491874Y-82360130D01*
X93512065Y-82322355D01*
X93539242Y-82289242D01*
X93572355Y-82262065D01*
X93610130Y-82241874D01*
X93651121Y-82229440D01*
X93696204Y-82225000D01*
X94228796Y-82225000D01*
X94273879Y-82229440D01*
G37*
G36*
X92848879Y-82229440D02*
G01*
X92889870Y-82241874D01*
X92927645Y-82262065D01*
X92960758Y-82289242D01*
X92987935Y-82322355D01*
X93008126Y-82360130D01*
X93020560Y-82401121D01*
X93025000Y-82446204D01*
X93025000Y-82978796D01*
X93020560Y-83023879D01*
X93008126Y-83064870D01*
X92987935Y-83102645D01*
X92960758Y-83135758D01*
X92927645Y-83162935D01*
X92889870Y-83183126D01*
X92848879Y-83195560D01*
X92803796Y-83200000D01*
X92196204Y-83200000D01*
X92151121Y-83195560D01*
X92110130Y-83183126D01*
X92072355Y-83162935D01*
X92039242Y-83135758D01*
X92012065Y-83102645D01*
X91991874Y-83064870D01*
X91979440Y-83023879D01*
X91975000Y-82978796D01*
X91975000Y-82446204D01*
X91979440Y-82401121D01*
X91991874Y-82360130D01*
X92012065Y-82322355D01*
X92039242Y-82289242D01*
X92072355Y-82262065D01*
X92110130Y-82241874D01*
X92151121Y-82229440D01*
X92196204Y-82225000D01*
X92803796Y-82225000D01*
X92848879Y-82229440D01*
G37*
G36*
X55271761Y-80707857D02*
G01*
X55329720Y-80719386D01*
X55493510Y-80787230D01*
X55640917Y-80885724D01*
X55766276Y-81011083D01*
X55864770Y-81158490D01*
X55894260Y-81229684D01*
X55932614Y-81322281D01*
X55967200Y-81496156D01*
X55967200Y-81673444D01*
X55954879Y-81735386D01*
X55932614Y-81847320D01*
X55864770Y-82011110D01*
X55766276Y-82158517D01*
X55640917Y-82283876D01*
X55493510Y-82382370D01*
X55329720Y-82450214D01*
X55271761Y-82461743D01*
X55155844Y-82484800D01*
X54978556Y-82484800D01*
X54862639Y-82461743D01*
X54804680Y-82450214D01*
X54640890Y-82382370D01*
X54493483Y-82283876D01*
X54368124Y-82158517D01*
X54269630Y-82011110D01*
X54201786Y-81847320D01*
X54179521Y-81735386D01*
X54167200Y-81673444D01*
X54167200Y-81496156D01*
X54201786Y-81322281D01*
X54240141Y-81229684D01*
X54269630Y-81158490D01*
X54368124Y-81011083D01*
X54493483Y-80885724D01*
X54640890Y-80787230D01*
X54804680Y-80719386D01*
X54862639Y-80707857D01*
X54978556Y-80684800D01*
X55155844Y-80684800D01*
X55271761Y-80707857D01*
G37*
G36*
X78098879Y-81229440D02*
G01*
X78139870Y-81241874D01*
X78177645Y-81262065D01*
X78210758Y-81289242D01*
X78237935Y-81322355D01*
X78258126Y-81360130D01*
X78270560Y-81401121D01*
X78275000Y-81446204D01*
X78275000Y-81978796D01*
X78270560Y-82023879D01*
X78258126Y-82064870D01*
X78237935Y-82102645D01*
X78210758Y-82135758D01*
X78177645Y-82162935D01*
X78139870Y-82183126D01*
X78098879Y-82195560D01*
X78053796Y-82200000D01*
X77446204Y-82200000D01*
X77401121Y-82195560D01*
X77360130Y-82183126D01*
X77322355Y-82162935D01*
X77289242Y-82135758D01*
X77262065Y-82102645D01*
X77241874Y-82064870D01*
X77229440Y-82023879D01*
X77225000Y-81978796D01*
X77225000Y-81446204D01*
X77229440Y-81401121D01*
X77241874Y-81360130D01*
X77262065Y-81322355D01*
X77289242Y-81289242D01*
X77322355Y-81262065D01*
X77360130Y-81241874D01*
X77401121Y-81229440D01*
X77446204Y-81225000D01*
X78053796Y-81225000D01*
X78098879Y-81229440D01*
G37*
G36*
X80848879Y-81229440D02*
G01*
X80889870Y-81241874D01*
X80927645Y-81262065D01*
X80960758Y-81289242D01*
X80987935Y-81322355D01*
X81008126Y-81360130D01*
X81020560Y-81401121D01*
X81025000Y-81446204D01*
X81025000Y-81978796D01*
X81020560Y-82023879D01*
X81008126Y-82064870D01*
X80987935Y-82102645D01*
X80960758Y-82135758D01*
X80927645Y-82162935D01*
X80889870Y-82183126D01*
X80848879Y-82195560D01*
X80803796Y-82200000D01*
X80196204Y-82200000D01*
X80151121Y-82195560D01*
X80110130Y-82183126D01*
X80072355Y-82162935D01*
X80039242Y-82135758D01*
X80012065Y-82102645D01*
X79991874Y-82064870D01*
X79979440Y-82023879D01*
X79975000Y-81978796D01*
X79975000Y-81446204D01*
X79979440Y-81401121D01*
X79991874Y-81360130D01*
X80012065Y-81322355D01*
X80039242Y-81289242D01*
X80072355Y-81262065D01*
X80110130Y-81241874D01*
X80151121Y-81229440D01*
X80196204Y-81225000D01*
X80803796Y-81225000D01*
X80848879Y-81229440D01*
G37*
G36*
X103531761Y-79183857D02*
G01*
X103589720Y-79195386D01*
X103753510Y-79263230D01*
X103900917Y-79361724D01*
X104026276Y-79487083D01*
X104124770Y-79634490D01*
X104170080Y-79743877D01*
X104192614Y-79798281D01*
X104221759Y-79944800D01*
X104227200Y-79972158D01*
X104227200Y-80149442D01*
X104192614Y-80323320D01*
X104124770Y-80487110D01*
X104026276Y-80634517D01*
X103900917Y-80759876D01*
X103753510Y-80858370D01*
X103589720Y-80926214D01*
X103531761Y-80937743D01*
X103415844Y-80960800D01*
X103238556Y-80960800D01*
X103122639Y-80937743D01*
X103064680Y-80926214D01*
X102900890Y-80858370D01*
X102753483Y-80759876D01*
X102628124Y-80634517D01*
X102529630Y-80487110D01*
X102461786Y-80323320D01*
X102427200Y-80149442D01*
X102427200Y-79972158D01*
X102432642Y-79944800D01*
X102461786Y-79798281D01*
X102484321Y-79743877D01*
X102529630Y-79634490D01*
X102628124Y-79487083D01*
X102753483Y-79361724D01*
X102900890Y-79263230D01*
X103064680Y-79195386D01*
X103122639Y-79183857D01*
X103238556Y-79160800D01*
X103415844Y-79160800D01*
X103531761Y-79183857D01*
G37*
G36*
X55271761Y-78167857D02*
G01*
X55329720Y-78179386D01*
X55493510Y-78247230D01*
X55640917Y-78345724D01*
X55766276Y-78471083D01*
X55766277Y-78471085D01*
X55864771Y-78618492D01*
X55932614Y-78782281D01*
X55967200Y-78956156D01*
X55967200Y-79133444D01*
X55954879Y-79195386D01*
X55932614Y-79307320D01*
X55864770Y-79471110D01*
X55766276Y-79618517D01*
X55640917Y-79743876D01*
X55493510Y-79842370D01*
X55329720Y-79910214D01*
X55271761Y-79921743D01*
X55155844Y-79944800D01*
X54978556Y-79944800D01*
X54862639Y-79921743D01*
X54804680Y-79910214D01*
X54640890Y-79842370D01*
X54493483Y-79743876D01*
X54368124Y-79618517D01*
X54269630Y-79471110D01*
X54201786Y-79307320D01*
X54179521Y-79195386D01*
X54167200Y-79133444D01*
X54167200Y-78956156D01*
X54201786Y-78782281D01*
X54269629Y-78618492D01*
X54368123Y-78471085D01*
X54368124Y-78471083D01*
X54493483Y-78345724D01*
X54640890Y-78247230D01*
X54804680Y-78179386D01*
X54862639Y-78167857D01*
X54978556Y-78144800D01*
X55155844Y-78144800D01*
X55271761Y-78167857D01*
G37*
G36*
X103531761Y-76643857D02*
G01*
X103589720Y-76655386D01*
X103753510Y-76723230D01*
X103900917Y-76821724D01*
X104026276Y-76947083D01*
X104124770Y-77094490D01*
X104170080Y-77203877D01*
X104192614Y-77258281D01*
X104221759Y-77404800D01*
X104227200Y-77432158D01*
X104227200Y-77609442D01*
X104192614Y-77783320D01*
X104124770Y-77947110D01*
X104026276Y-78094517D01*
X103900917Y-78219876D01*
X103753510Y-78318370D01*
X103589720Y-78386214D01*
X103531761Y-78397743D01*
X103415844Y-78420800D01*
X103238556Y-78420800D01*
X103122639Y-78397743D01*
X103064680Y-78386214D01*
X102900890Y-78318370D01*
X102753483Y-78219876D01*
X102628124Y-78094517D01*
X102529630Y-77947110D01*
X102461786Y-77783320D01*
X102427200Y-77609442D01*
X102427200Y-77432158D01*
X102432642Y-77404800D01*
X102461786Y-77258281D01*
X102484321Y-77203877D01*
X102529630Y-77094490D01*
X102628124Y-76947083D01*
X102753483Y-76821724D01*
X102900890Y-76723230D01*
X103064680Y-76655386D01*
X103122639Y-76643857D01*
X103238556Y-76620800D01*
X103415844Y-76620800D01*
X103531761Y-76643857D01*
G37*
G36*
X55271761Y-75627857D02*
G01*
X55329720Y-75639386D01*
X55493510Y-75707230D01*
X55640917Y-75805724D01*
X55766276Y-75931083D01*
X55766277Y-75931085D01*
X55864771Y-76078492D01*
X55932614Y-76242281D01*
X55967200Y-76416156D01*
X55967200Y-76593444D01*
X55954879Y-76655386D01*
X55932614Y-76767320D01*
X55864770Y-76931110D01*
X55766276Y-77078517D01*
X55640917Y-77203876D01*
X55493510Y-77302370D01*
X55329720Y-77370214D01*
X55271761Y-77381743D01*
X55155844Y-77404800D01*
X54978556Y-77404800D01*
X54862639Y-77381743D01*
X54804680Y-77370214D01*
X54640890Y-77302370D01*
X54493483Y-77203876D01*
X54368124Y-77078517D01*
X54269630Y-76931110D01*
X54201786Y-76767320D01*
X54179521Y-76655386D01*
X54167200Y-76593444D01*
X54167200Y-76416156D01*
X54201786Y-76242281D01*
X54269629Y-76078492D01*
X54368123Y-75931085D01*
X54368124Y-75931083D01*
X54493483Y-75805724D01*
X54640890Y-75707230D01*
X54804680Y-75639386D01*
X54862639Y-75627857D01*
X54978556Y-75604800D01*
X55155844Y-75604800D01*
X55271761Y-75627857D01*
G37*
G36*
X103531761Y-74103857D02*
G01*
X103589720Y-74115386D01*
X103753510Y-74183230D01*
X103900917Y-74281724D01*
X104026276Y-74407083D01*
X104105065Y-74525000D01*
X104124771Y-74554492D01*
X104192614Y-74718281D01*
X104221759Y-74864800D01*
X104227200Y-74892158D01*
X104227200Y-75069442D01*
X104192614Y-75243320D01*
X104124770Y-75407110D01*
X104026276Y-75554517D01*
X103900917Y-75679876D01*
X103753510Y-75778370D01*
X103589720Y-75846214D01*
X103531761Y-75857743D01*
X103415844Y-75880800D01*
X103238556Y-75880800D01*
X103122639Y-75857743D01*
X103064680Y-75846214D01*
X102900890Y-75778370D01*
X102753483Y-75679876D01*
X102628124Y-75554517D01*
X102529630Y-75407110D01*
X102461786Y-75243320D01*
X102427200Y-75069442D01*
X102427200Y-74892158D01*
X102432642Y-74864800D01*
X102461786Y-74718281D01*
X102529629Y-74554492D01*
X102549335Y-74525000D01*
X102628124Y-74407083D01*
X102753483Y-74281724D01*
X102900890Y-74183230D01*
X103064680Y-74115386D01*
X103122639Y-74103857D01*
X103238556Y-74080800D01*
X103415844Y-74080800D01*
X103531761Y-74103857D01*
G37*
G36*
X55967200Y-74864800D02*
G01*
X54167200Y-74864800D01*
X54167200Y-73064800D01*
X55967200Y-73064800D01*
X55967200Y-74864800D01*
G37*
G36*
X98848879Y-73479440D02*
G01*
X98889870Y-73491874D01*
X98927645Y-73512065D01*
X98960758Y-73539242D01*
X98987935Y-73572355D01*
X99008126Y-73610130D01*
X99020560Y-73651121D01*
X99025000Y-73696204D01*
X99025000Y-74303796D01*
X99020560Y-74348879D01*
X99008126Y-74389870D01*
X98987935Y-74427645D01*
X98960758Y-74460758D01*
X98927645Y-74487935D01*
X98889870Y-74508126D01*
X98848879Y-74520560D01*
X98803796Y-74525000D01*
X98271204Y-74525000D01*
X98226121Y-74520560D01*
X98185130Y-74508126D01*
X98147355Y-74487935D01*
X98114242Y-74460758D01*
X98087065Y-74427645D01*
X98066874Y-74389870D01*
X98054440Y-74348879D01*
X98050000Y-74303796D01*
X98050000Y-73696204D01*
X98054440Y-73651121D01*
X98066874Y-73610130D01*
X98087065Y-73572355D01*
X98114242Y-73539242D01*
X98147355Y-73512065D01*
X98185130Y-73491874D01*
X98226121Y-73479440D01*
X98271204Y-73475000D01*
X98803796Y-73475000D01*
X98848879Y-73479440D01*
G37*
G36*
X95848879Y-73479440D02*
G01*
X95889870Y-73491874D01*
X95927645Y-73512065D01*
X95960758Y-73539242D01*
X95987935Y-73572355D01*
X96008126Y-73610130D01*
X96020560Y-73651121D01*
X96025000Y-73696204D01*
X96025000Y-74303796D01*
X96020560Y-74348879D01*
X96008126Y-74389870D01*
X95987935Y-74427645D01*
X95960758Y-74460758D01*
X95927645Y-74487935D01*
X95889870Y-74508126D01*
X95848879Y-74520560D01*
X95803796Y-74525000D01*
X95271204Y-74525000D01*
X95226121Y-74520560D01*
X95185130Y-74508126D01*
X95147355Y-74487935D01*
X95114242Y-74460758D01*
X95087065Y-74427645D01*
X95066874Y-74389870D01*
X95054440Y-74348879D01*
X95050000Y-74303796D01*
X95050000Y-73696204D01*
X95054440Y-73651121D01*
X95066874Y-73610130D01*
X95087065Y-73572355D01*
X95114242Y-73539242D01*
X95147355Y-73512065D01*
X95185130Y-73491874D01*
X95226121Y-73479440D01*
X95271204Y-73475000D01*
X95803796Y-73475000D01*
X95848879Y-73479440D01*
G37*
G36*
X97273879Y-73479440D02*
G01*
X97314870Y-73491874D01*
X97352645Y-73512065D01*
X97385758Y-73539242D01*
X97412935Y-73572355D01*
X97433126Y-73610130D01*
X97445560Y-73651121D01*
X97450000Y-73696204D01*
X97450000Y-74303796D01*
X97445560Y-74348879D01*
X97433126Y-74389870D01*
X97412935Y-74427645D01*
X97385758Y-74460758D01*
X97352645Y-74487935D01*
X97314870Y-74508126D01*
X97273879Y-74520560D01*
X97228796Y-74525000D01*
X96696204Y-74525000D01*
X96651121Y-74520560D01*
X96610130Y-74508126D01*
X96572355Y-74487935D01*
X96539242Y-74460758D01*
X96512065Y-74427645D01*
X96491874Y-74389870D01*
X96479440Y-74348879D01*
X96475000Y-74303796D01*
X96475000Y-73696204D01*
X96479440Y-73651121D01*
X96491874Y-73610130D01*
X96512065Y-73572355D01*
X96539242Y-73539242D01*
X96572355Y-73512065D01*
X96610130Y-73491874D01*
X96651121Y-73479440D01*
X96696204Y-73475000D01*
X97228796Y-73475000D01*
X97273879Y-73479440D01*
G37*
G36*
X94273879Y-73479440D02*
G01*
X94314870Y-73491874D01*
X94352645Y-73512065D01*
X94385758Y-73539242D01*
X94412935Y-73572355D01*
X94433126Y-73610130D01*
X94445560Y-73651121D01*
X94450000Y-73696204D01*
X94450000Y-74303796D01*
X94445560Y-74348879D01*
X94433126Y-74389870D01*
X94412935Y-74427645D01*
X94385758Y-74460758D01*
X94352645Y-74487935D01*
X94314870Y-74508126D01*
X94273879Y-74520560D01*
X94228796Y-74525000D01*
X93696204Y-74525000D01*
X93651121Y-74520560D01*
X93610130Y-74508126D01*
X93572355Y-74487935D01*
X93539242Y-74460758D01*
X93512065Y-74427645D01*
X93491874Y-74389870D01*
X93479440Y-74348879D01*
X93475000Y-74303796D01*
X93475000Y-73696204D01*
X93479440Y-73651121D01*
X93491874Y-73610130D01*
X93512065Y-73572355D01*
X93539242Y-73539242D01*
X93572355Y-73512065D01*
X93610130Y-73491874D01*
X93651121Y-73479440D01*
X93696204Y-73475000D01*
X94228796Y-73475000D01*
X94273879Y-73479440D01*
G37*
G36*
X108392800Y-74389820D02*
G01*
X106592800Y-74389820D01*
X106592800Y-72589820D01*
X108392800Y-72589820D01*
X108392800Y-74389820D01*
G37*
G36*
X110237361Y-72612877D02*
G01*
X110295320Y-72624406D01*
X110459110Y-72692250D01*
X110606517Y-72790744D01*
X110731876Y-72916103D01*
X110804638Y-73025000D01*
X110830371Y-73063512D01*
X110898214Y-73227301D01*
X110932800Y-73401176D01*
X110932800Y-73578464D01*
X110914354Y-73671197D01*
X110898214Y-73752340D01*
X110830370Y-73916130D01*
X110731876Y-74063537D01*
X110606517Y-74188896D01*
X110459110Y-74287390D01*
X110295320Y-74355234D01*
X110237361Y-74366763D01*
X110121444Y-74389820D01*
X109944156Y-74389820D01*
X109828239Y-74366763D01*
X109770280Y-74355234D01*
X109606490Y-74287390D01*
X109459083Y-74188896D01*
X109333724Y-74063537D01*
X109235230Y-73916130D01*
X109167386Y-73752340D01*
X109151246Y-73671197D01*
X109132800Y-73578464D01*
X109132800Y-73401176D01*
X109167386Y-73227301D01*
X109235229Y-73063512D01*
X109260962Y-73025000D01*
X109333724Y-72916103D01*
X109459083Y-72790744D01*
X109606490Y-72692250D01*
X109770280Y-72624406D01*
X109828239Y-72612877D01*
X109944156Y-72589820D01*
X110121444Y-72589820D01*
X110237361Y-72612877D01*
G37*
G36*
X103531761Y-71563857D02*
G01*
X103589720Y-71575386D01*
X103753510Y-71643230D01*
X103900917Y-71741724D01*
X104026276Y-71867083D01*
X104124770Y-72014490D01*
X104192614Y-72178280D01*
X104227200Y-72352158D01*
X104227200Y-72529442D01*
X104192614Y-72703320D01*
X104124770Y-72867110D01*
X104026276Y-73014517D01*
X103900917Y-73139876D01*
X103753510Y-73238370D01*
X103589720Y-73306214D01*
X103531761Y-73317743D01*
X103415844Y-73340800D01*
X103238556Y-73340800D01*
X103122639Y-73317743D01*
X103064680Y-73306214D01*
X102900890Y-73238370D01*
X102753483Y-73139876D01*
X102628124Y-73014517D01*
X102529630Y-72867110D01*
X102461786Y-72703320D01*
X102427200Y-72529442D01*
X102427200Y-72352158D01*
X102461786Y-72178280D01*
X102529630Y-72014490D01*
X102628124Y-71867083D01*
X102753483Y-71741724D01*
X102900890Y-71643230D01*
X103064680Y-71575386D01*
X103122639Y-71563857D01*
X103238556Y-71540800D01*
X103415844Y-71540800D01*
X103531761Y-71563857D01*
G37*
G36*
X94273879Y-71979440D02*
G01*
X94314870Y-71991874D01*
X94352645Y-72012065D01*
X94385758Y-72039242D01*
X94412935Y-72072355D01*
X94433126Y-72110130D01*
X94445560Y-72151121D01*
X94450000Y-72196204D01*
X94450000Y-72803796D01*
X94445560Y-72848879D01*
X94433126Y-72889870D01*
X94412935Y-72927645D01*
X94385758Y-72960758D01*
X94352645Y-72987935D01*
X94314870Y-73008126D01*
X94273879Y-73020560D01*
X94228796Y-73025000D01*
X93696204Y-73025000D01*
X93651121Y-73020560D01*
X93610130Y-73008126D01*
X93572355Y-72987935D01*
X93539242Y-72960758D01*
X93512065Y-72927645D01*
X93491874Y-72889870D01*
X93479440Y-72848879D01*
X93475000Y-72803796D01*
X93475000Y-72196204D01*
X93479440Y-72151121D01*
X93491874Y-72110130D01*
X93512065Y-72072355D01*
X93539242Y-72039242D01*
X93572355Y-72012065D01*
X93610130Y-71991874D01*
X93651121Y-71979440D01*
X93696204Y-71975000D01*
X94228796Y-71975000D01*
X94273879Y-71979440D01*
G37*
G36*
X95848879Y-71979440D02*
G01*
X95889870Y-71991874D01*
X95927645Y-72012065D01*
X95960758Y-72039242D01*
X95987935Y-72072355D01*
X96008126Y-72110130D01*
X96020560Y-72151121D01*
X96025000Y-72196204D01*
X96025000Y-72803796D01*
X96020560Y-72848879D01*
X96008126Y-72889870D01*
X95987935Y-72927645D01*
X95960758Y-72960758D01*
X95927645Y-72987935D01*
X95889870Y-73008126D01*
X95848879Y-73020560D01*
X95803796Y-73025000D01*
X95271204Y-73025000D01*
X95226121Y-73020560D01*
X95185130Y-73008126D01*
X95147355Y-72987935D01*
X95114242Y-72960758D01*
X95087065Y-72927645D01*
X95066874Y-72889870D01*
X95054440Y-72848879D01*
X95050000Y-72803796D01*
X95050000Y-72196204D01*
X95054440Y-72151121D01*
X95066874Y-72110130D01*
X95087065Y-72072355D01*
X95114242Y-72039242D01*
X95147355Y-72012065D01*
X95185130Y-71991874D01*
X95226121Y-71979440D01*
X95271204Y-71975000D01*
X95803796Y-71975000D01*
X95848879Y-71979440D01*
G37*
G36*
X97273879Y-71979440D02*
G01*
X97314870Y-71991874D01*
X97352645Y-72012065D01*
X97385758Y-72039242D01*
X97412935Y-72072355D01*
X97433126Y-72110130D01*
X97445560Y-72151121D01*
X97450000Y-72196204D01*
X97450000Y-72803796D01*
X97445560Y-72848879D01*
X97433126Y-72889870D01*
X97412935Y-72927645D01*
X97385758Y-72960758D01*
X97352645Y-72987935D01*
X97314870Y-73008126D01*
X97273879Y-73020560D01*
X97228796Y-73025000D01*
X96696204Y-73025000D01*
X96651121Y-73020560D01*
X96610130Y-73008126D01*
X96572355Y-72987935D01*
X96539242Y-72960758D01*
X96512065Y-72927645D01*
X96491874Y-72889870D01*
X96479440Y-72848879D01*
X96475000Y-72803796D01*
X96475000Y-72196204D01*
X96479440Y-72151121D01*
X96491874Y-72110130D01*
X96512065Y-72072355D01*
X96539242Y-72039242D01*
X96572355Y-72012065D01*
X96610130Y-71991874D01*
X96651121Y-71979440D01*
X96696204Y-71975000D01*
X97228796Y-71975000D01*
X97273879Y-71979440D01*
G37*
G36*
X98848879Y-71979440D02*
G01*
X98889870Y-71991874D01*
X98927645Y-72012065D01*
X98960758Y-72039242D01*
X98987935Y-72072355D01*
X99008126Y-72110130D01*
X99020560Y-72151121D01*
X99025000Y-72196204D01*
X99025000Y-72803796D01*
X99020560Y-72848879D01*
X99008126Y-72889870D01*
X98987935Y-72927645D01*
X98960758Y-72960758D01*
X98927645Y-72987935D01*
X98889870Y-73008126D01*
X98848879Y-73020560D01*
X98803796Y-73025000D01*
X98271204Y-73025000D01*
X98226121Y-73020560D01*
X98185130Y-73008126D01*
X98147355Y-72987935D01*
X98114242Y-72960758D01*
X98087065Y-72927645D01*
X98066874Y-72889870D01*
X98054440Y-72848879D01*
X98050000Y-72803796D01*
X98050000Y-72196204D01*
X98054440Y-72151121D01*
X98066874Y-72110130D01*
X98087065Y-72072355D01*
X98114242Y-72039242D01*
X98147355Y-72012065D01*
X98185130Y-71991874D01*
X98226121Y-71979440D01*
X98271204Y-71975000D01*
X98803796Y-71975000D01*
X98848879Y-71979440D01*
G37*
G36*
X110237361Y-70072877D02*
G01*
X110295320Y-70084406D01*
X110459110Y-70152250D01*
X110606517Y-70250744D01*
X110731876Y-70376103D01*
X110830370Y-70523510D01*
X110898214Y-70687300D01*
X110932800Y-70861178D01*
X110932800Y-71038462D01*
X110898214Y-71212340D01*
X110830370Y-71376130D01*
X110731876Y-71523537D01*
X110606517Y-71648896D01*
X110459110Y-71747390D01*
X110295320Y-71815234D01*
X110237361Y-71826763D01*
X110121444Y-71849820D01*
X109944156Y-71849820D01*
X109828239Y-71826763D01*
X109770280Y-71815234D01*
X109606490Y-71747390D01*
X109459083Y-71648896D01*
X109333724Y-71523537D01*
X109235230Y-71376130D01*
X109167386Y-71212340D01*
X109132800Y-71038462D01*
X109132800Y-70861178D01*
X109167386Y-70687300D01*
X109235230Y-70523510D01*
X109333724Y-70376103D01*
X109459083Y-70250744D01*
X109606490Y-70152250D01*
X109770280Y-70084406D01*
X109828239Y-70072877D01*
X109944156Y-70049820D01*
X110121444Y-70049820D01*
X110237361Y-70072877D01*
G37*
G36*
X107697361Y-70072877D02*
G01*
X107755320Y-70084406D01*
X107919110Y-70152250D01*
X108066517Y-70250744D01*
X108191876Y-70376103D01*
X108290370Y-70523510D01*
X108358214Y-70687300D01*
X108392800Y-70861178D01*
X108392800Y-71038462D01*
X108358214Y-71212340D01*
X108290370Y-71376130D01*
X108191876Y-71523537D01*
X108066517Y-71648896D01*
X107919110Y-71747390D01*
X107755320Y-71815234D01*
X107697361Y-71826763D01*
X107581444Y-71849820D01*
X107404156Y-71849820D01*
X107288239Y-71826763D01*
X107230280Y-71815234D01*
X107066490Y-71747390D01*
X106919083Y-71648896D01*
X106793724Y-71523537D01*
X106695230Y-71376130D01*
X106627386Y-71212340D01*
X106592800Y-71038462D01*
X106592800Y-70861178D01*
X106627386Y-70687300D01*
X106695230Y-70523510D01*
X106793724Y-70376103D01*
X106919083Y-70250744D01*
X107066490Y-70152250D01*
X107230280Y-70084406D01*
X107288239Y-70072877D01*
X107404156Y-70049820D01*
X107581444Y-70049820D01*
X107697361Y-70072877D01*
G37*
G36*
X103531761Y-69023857D02*
G01*
X103589720Y-69035386D01*
X103753510Y-69103230D01*
X103900917Y-69201724D01*
X104026276Y-69327083D01*
X104124770Y-69474490D01*
X104192614Y-69638280D01*
X104227200Y-69812158D01*
X104227200Y-69989442D01*
X104192614Y-70163320D01*
X104124770Y-70327110D01*
X104026276Y-70474517D01*
X103900917Y-70599876D01*
X103753510Y-70698370D01*
X103589720Y-70766214D01*
X103531761Y-70777743D01*
X103415844Y-70800800D01*
X103238556Y-70800800D01*
X103122639Y-70777743D01*
X103064680Y-70766214D01*
X102900890Y-70698370D01*
X102753483Y-70599876D01*
X102628124Y-70474517D01*
X102529630Y-70327110D01*
X102461786Y-70163320D01*
X102427200Y-69989442D01*
X102427200Y-69812158D01*
X102461786Y-69638280D01*
X102529630Y-69474490D01*
X102628124Y-69327083D01*
X102753483Y-69201724D01*
X102900890Y-69103230D01*
X103064680Y-69035386D01*
X103122639Y-69023857D01*
X103238556Y-69000800D01*
X103415844Y-69000800D01*
X103531761Y-69023857D01*
G37*
G36*
X110237361Y-67532877D02*
G01*
X110295320Y-67544406D01*
X110459110Y-67612250D01*
X110606517Y-67710744D01*
X110731876Y-67836103D01*
X110830370Y-67983510D01*
X110898214Y-68147300D01*
X110932800Y-68321178D01*
X110932800Y-68498462D01*
X110898214Y-68672340D01*
X110830370Y-68836130D01*
X110731876Y-68983537D01*
X110606517Y-69108896D01*
X110459110Y-69207390D01*
X110295320Y-69275234D01*
X110237361Y-69286763D01*
X110121444Y-69309820D01*
X109944156Y-69309820D01*
X109828239Y-69286763D01*
X109770280Y-69275234D01*
X109606490Y-69207390D01*
X109459083Y-69108896D01*
X109333724Y-68983537D01*
X109235230Y-68836130D01*
X109167386Y-68672340D01*
X109132800Y-68498462D01*
X109132800Y-68321178D01*
X109167386Y-68147300D01*
X109235230Y-67983510D01*
X109333724Y-67836103D01*
X109459083Y-67710744D01*
X109606490Y-67612250D01*
X109770280Y-67544406D01*
X109828239Y-67532877D01*
X109944156Y-67509820D01*
X110121444Y-67509820D01*
X110237361Y-67532877D01*
G37*
G36*
X107697361Y-67532877D02*
G01*
X107755320Y-67544406D01*
X107919110Y-67612250D01*
X108066517Y-67710744D01*
X108191876Y-67836103D01*
X108290370Y-67983510D01*
X108358214Y-68147300D01*
X108392800Y-68321178D01*
X108392800Y-68498462D01*
X108358214Y-68672340D01*
X108290370Y-68836130D01*
X108191876Y-68983537D01*
X108066517Y-69108896D01*
X107919110Y-69207390D01*
X107755320Y-69275234D01*
X107697361Y-69286763D01*
X107581444Y-69309820D01*
X107404156Y-69309820D01*
X107288239Y-69286763D01*
X107230280Y-69275234D01*
X107066490Y-69207390D01*
X106919083Y-69108896D01*
X106793724Y-68983537D01*
X106695230Y-68836130D01*
X106627386Y-68672340D01*
X106592800Y-68498462D01*
X106592800Y-68321178D01*
X106627386Y-68147300D01*
X106695230Y-67983510D01*
X106793724Y-67836103D01*
X106919083Y-67710744D01*
X107066490Y-67612250D01*
X107230280Y-67544406D01*
X107288239Y-67532877D01*
X107404156Y-67509820D01*
X107581444Y-67509820D01*
X107697361Y-67532877D01*
G37*
G36*
X103531761Y-66483857D02*
G01*
X103589720Y-66495386D01*
X103753510Y-66563230D01*
X103900917Y-66661724D01*
X104026276Y-66787083D01*
X104124770Y-66934490D01*
X104192614Y-67098280D01*
X104227200Y-67272158D01*
X104227200Y-67449442D01*
X104192614Y-67623320D01*
X104124770Y-67787110D01*
X104026276Y-67934517D01*
X103900917Y-68059876D01*
X103753510Y-68158370D01*
X103589720Y-68226214D01*
X103531761Y-68237743D01*
X103415844Y-68260800D01*
X103238556Y-68260800D01*
X103122639Y-68237743D01*
X103064680Y-68226214D01*
X102900890Y-68158370D01*
X102753483Y-68059876D01*
X102628124Y-67934517D01*
X102529630Y-67787110D01*
X102461786Y-67623320D01*
X102427200Y-67449442D01*
X102427200Y-67272158D01*
X102461786Y-67098280D01*
X102529630Y-66934490D01*
X102628124Y-66787083D01*
X102753483Y-66661724D01*
X102900890Y-66563230D01*
X103064680Y-66495386D01*
X103122639Y-66483857D01*
X103238556Y-66460800D01*
X103415844Y-66460800D01*
X103531761Y-66483857D01*
G37*
G36*
X92148879Y-66054440D02*
G01*
X92189870Y-66066874D01*
X92227645Y-66087065D01*
X92260758Y-66114242D01*
X92287935Y-66147355D01*
X92308126Y-66185130D01*
X92320560Y-66226121D01*
X92325000Y-66271204D01*
X92325000Y-66803796D01*
X92320560Y-66848879D01*
X92308126Y-66889870D01*
X92287935Y-66927645D01*
X92260758Y-66960758D01*
X92227645Y-66987935D01*
X92189870Y-67008126D01*
X92148879Y-67020560D01*
X92103796Y-67025000D01*
X91496204Y-67025000D01*
X91451121Y-67020560D01*
X91410130Y-67008126D01*
X91372355Y-66987935D01*
X91339242Y-66960758D01*
X91312065Y-66927645D01*
X91291874Y-66889870D01*
X91279440Y-66848879D01*
X91275000Y-66803796D01*
X91275000Y-66271204D01*
X91279440Y-66226121D01*
X91291874Y-66185130D01*
X91312065Y-66147355D01*
X91339242Y-66114242D01*
X91372355Y-66087065D01*
X91410130Y-66066874D01*
X91451121Y-66054440D01*
X91496204Y-66050000D01*
X92103796Y-66050000D01*
X92148879Y-66054440D01*
G37*
G36*
X107697361Y-64992877D02*
G01*
X107755320Y-65004406D01*
X107919110Y-65072250D01*
X108066517Y-65170744D01*
X108191876Y-65296103D01*
X108290370Y-65443510D01*
X108358214Y-65607300D01*
X108392800Y-65781178D01*
X108392800Y-65958462D01*
X108358214Y-66132340D01*
X108290370Y-66296130D01*
X108191876Y-66443537D01*
X108066517Y-66568896D01*
X107919110Y-66667390D01*
X107755320Y-66735234D01*
X107697361Y-66746763D01*
X107581444Y-66769820D01*
X107404156Y-66769820D01*
X107288239Y-66746763D01*
X107230280Y-66735234D01*
X107066490Y-66667390D01*
X106919083Y-66568896D01*
X106793724Y-66443537D01*
X106695230Y-66296130D01*
X106627386Y-66132340D01*
X106592800Y-65958462D01*
X106592800Y-65781178D01*
X106627386Y-65607300D01*
X106695230Y-65443510D01*
X106793724Y-65296103D01*
X106919083Y-65170744D01*
X107066490Y-65072250D01*
X107230280Y-65004406D01*
X107288239Y-64992877D01*
X107404156Y-64969820D01*
X107581444Y-64969820D01*
X107697361Y-64992877D01*
G37*
G36*
X110237361Y-64992877D02*
G01*
X110295320Y-65004406D01*
X110459110Y-65072250D01*
X110606517Y-65170744D01*
X110731876Y-65296103D01*
X110830370Y-65443510D01*
X110898214Y-65607300D01*
X110932800Y-65781178D01*
X110932800Y-65958462D01*
X110898214Y-66132340D01*
X110830370Y-66296130D01*
X110731876Y-66443537D01*
X110606517Y-66568896D01*
X110459110Y-66667390D01*
X110295320Y-66735234D01*
X110237361Y-66746763D01*
X110121444Y-66769820D01*
X109944156Y-66769820D01*
X109828239Y-66746763D01*
X109770280Y-66735234D01*
X109606490Y-66667390D01*
X109459083Y-66568896D01*
X109333724Y-66443537D01*
X109235230Y-66296130D01*
X109167386Y-66132340D01*
X109132800Y-65958462D01*
X109132800Y-65781178D01*
X109167386Y-65607300D01*
X109235230Y-65443510D01*
X109333724Y-65296103D01*
X109459083Y-65170744D01*
X109606490Y-65072250D01*
X109770280Y-65004406D01*
X109828239Y-64992877D01*
X109944156Y-64969820D01*
X110121444Y-64969820D01*
X110237361Y-64992877D01*
G37*
G36*
X104227200Y-65720800D02*
G01*
X102427200Y-65720800D01*
X102427200Y-63920800D01*
X104227200Y-63920800D01*
X104227200Y-65720800D01*
G37*
G36*
X92148879Y-64479440D02*
G01*
X92189870Y-64491874D01*
X92227645Y-64512065D01*
X92260758Y-64539242D01*
X92287935Y-64572355D01*
X92308126Y-64610130D01*
X92320560Y-64651121D01*
X92325000Y-64696204D01*
X92325000Y-65228796D01*
X92320560Y-65273879D01*
X92308126Y-65314870D01*
X92287935Y-65352645D01*
X92260758Y-65385758D01*
X92227645Y-65412935D01*
X92189870Y-65433126D01*
X92148879Y-65445560D01*
X92103796Y-65450000D01*
X91496204Y-65450000D01*
X91451121Y-65445560D01*
X91410130Y-65433126D01*
X91372355Y-65412935D01*
X91339242Y-65385758D01*
X91312065Y-65352645D01*
X91291874Y-65314870D01*
X91279440Y-65273879D01*
X91275000Y-65228796D01*
X91275000Y-64696204D01*
X91279440Y-64651121D01*
X91291874Y-64610130D01*
X91312065Y-64572355D01*
X91339242Y-64539242D01*
X91372355Y-64512065D01*
X91410130Y-64491874D01*
X91451121Y-64479440D01*
X91496204Y-64475000D01*
X92103796Y-64475000D01*
X92148879Y-64479440D01*
G37*
G36*
X110237361Y-62452877D02*
G01*
X110295320Y-62464406D01*
X110459110Y-62532250D01*
X110606517Y-62630744D01*
X110731876Y-62756103D01*
X110830370Y-62903510D01*
X110898214Y-63067300D01*
X110932800Y-63241178D01*
X110932800Y-63418462D01*
X110898214Y-63592340D01*
X110830370Y-63756130D01*
X110731876Y-63903537D01*
X110606517Y-64028896D01*
X110459110Y-64127390D01*
X110295320Y-64195234D01*
X110237361Y-64206763D01*
X110121444Y-64229820D01*
X109944156Y-64229820D01*
X109828239Y-64206763D01*
X109770280Y-64195234D01*
X109606490Y-64127390D01*
X109459083Y-64028896D01*
X109333724Y-63903537D01*
X109235230Y-63756130D01*
X109167386Y-63592340D01*
X109132800Y-63418462D01*
X109132800Y-63241178D01*
X109167386Y-63067300D01*
X109235230Y-62903510D01*
X109333724Y-62756103D01*
X109459083Y-62630744D01*
X109606490Y-62532250D01*
X109770280Y-62464406D01*
X109828239Y-62452877D01*
X109944156Y-62429820D01*
X110121444Y-62429820D01*
X110237361Y-62452877D01*
G37*
G36*
X107697361Y-62452877D02*
G01*
X107755320Y-62464406D01*
X107919110Y-62532250D01*
X108066517Y-62630744D01*
X108191876Y-62756103D01*
X108290370Y-62903510D01*
X108358214Y-63067300D01*
X108392800Y-63241178D01*
X108392800Y-63418462D01*
X108358214Y-63592340D01*
X108290370Y-63756130D01*
X108191876Y-63903537D01*
X108066517Y-64028896D01*
X107919110Y-64127390D01*
X107755320Y-64195234D01*
X107697361Y-64206763D01*
X107581444Y-64229820D01*
X107404156Y-64229820D01*
X107288239Y-64206763D01*
X107230280Y-64195234D01*
X107066490Y-64127390D01*
X106919083Y-64028896D01*
X106793724Y-63903537D01*
X106695230Y-63756130D01*
X106627386Y-63592340D01*
X106592800Y-63418462D01*
X106592800Y-63241178D01*
X106627386Y-63067300D01*
X106695230Y-62903510D01*
X106793724Y-62756103D01*
X106919083Y-62630744D01*
X107066490Y-62532250D01*
X107230280Y-62464406D01*
X107288239Y-62452877D01*
X107404156Y-62429820D01*
X107581444Y-62429820D01*
X107697361Y-62452877D01*
G37*
G36*
X84848879Y-60804440D02*
G01*
X84889870Y-60816874D01*
X84927645Y-60837065D01*
X84960758Y-60864242D01*
X84987935Y-60897355D01*
X85008126Y-60935130D01*
X85020560Y-60976121D01*
X85025000Y-61021204D01*
X85025000Y-61553796D01*
X85020560Y-61598879D01*
X85008126Y-61639870D01*
X84987935Y-61677645D01*
X84960758Y-61710758D01*
X84927645Y-61737935D01*
X84889870Y-61758126D01*
X84848879Y-61770560D01*
X84803796Y-61775000D01*
X84196204Y-61775000D01*
X84151121Y-61770560D01*
X84110130Y-61758126D01*
X84072355Y-61737935D01*
X84039242Y-61710758D01*
X84012065Y-61677645D01*
X83991874Y-61639870D01*
X83979440Y-61598879D01*
X83975000Y-61553796D01*
X83975000Y-61021204D01*
X83979440Y-60976121D01*
X83991874Y-60935130D01*
X84012065Y-60897355D01*
X84039242Y-60864242D01*
X84072355Y-60837065D01*
X84110130Y-60816874D01*
X84151121Y-60804440D01*
X84196204Y-60800000D01*
X84803796Y-60800000D01*
X84848879Y-60804440D01*
G37*
G36*
X107697361Y-59912877D02*
G01*
X107755320Y-59924406D01*
X107919110Y-59992250D01*
X108066517Y-60090744D01*
X108191876Y-60216103D01*
X108290370Y-60363510D01*
X108358214Y-60527300D01*
X108392800Y-60701178D01*
X108392800Y-60878462D01*
X108358214Y-61052340D01*
X108290370Y-61216130D01*
X108191876Y-61363537D01*
X108066517Y-61488896D01*
X107919110Y-61587390D01*
X107755320Y-61655234D01*
X107697827Y-61666670D01*
X107581444Y-61689820D01*
X107404156Y-61689820D01*
X107287773Y-61666670D01*
X107230280Y-61655234D01*
X107066490Y-61587390D01*
X106919083Y-61488896D01*
X106793724Y-61363537D01*
X106695230Y-61216130D01*
X106627386Y-61052340D01*
X106592800Y-60878462D01*
X106592800Y-60701178D01*
X106627386Y-60527300D01*
X106695230Y-60363510D01*
X106793724Y-60216103D01*
X106919083Y-60090744D01*
X107066490Y-59992250D01*
X107230280Y-59924406D01*
X107288239Y-59912877D01*
X107404156Y-59889820D01*
X107581444Y-59889820D01*
X107697361Y-59912877D01*
G37*
G36*
X110237361Y-59912877D02*
G01*
X110295320Y-59924406D01*
X110459110Y-59992250D01*
X110606517Y-60090744D01*
X110731876Y-60216103D01*
X110830370Y-60363510D01*
X110898214Y-60527300D01*
X110932800Y-60701178D01*
X110932800Y-60878462D01*
X110898214Y-61052340D01*
X110830370Y-61216130D01*
X110731876Y-61363537D01*
X110606517Y-61488896D01*
X110459110Y-61587390D01*
X110295320Y-61655234D01*
X110237827Y-61666670D01*
X110121444Y-61689820D01*
X109944156Y-61689820D01*
X109827773Y-61666670D01*
X109770280Y-61655234D01*
X109606490Y-61587390D01*
X109459083Y-61488896D01*
X109333724Y-61363537D01*
X109235230Y-61216130D01*
X109167386Y-61052340D01*
X109132800Y-60878462D01*
X109132800Y-60701178D01*
X109167386Y-60527300D01*
X109235230Y-60363510D01*
X109333724Y-60216103D01*
X109459083Y-60090744D01*
X109606490Y-59992250D01*
X109770280Y-59924406D01*
X109828239Y-59912877D01*
X109944156Y-59889820D01*
X110121444Y-59889820D01*
X110237361Y-59912877D01*
G37*
G36*
X84848879Y-59229440D02*
G01*
X84889870Y-59241874D01*
X84927645Y-59262065D01*
X84960758Y-59289242D01*
X84987935Y-59322355D01*
X85008126Y-59360130D01*
X85020560Y-59401121D01*
X85025000Y-59446204D01*
X85025000Y-59978796D01*
X85020560Y-60023879D01*
X85008126Y-60064870D01*
X84987935Y-60102645D01*
X84960758Y-60135758D01*
X84927645Y-60162935D01*
X84889870Y-60183126D01*
X84848879Y-60195560D01*
X84803796Y-60200000D01*
X84196204Y-60200000D01*
X84151121Y-60195560D01*
X84110130Y-60183126D01*
X84072355Y-60162935D01*
X84039242Y-60135758D01*
X84012065Y-60102645D01*
X83991874Y-60064870D01*
X83979440Y-60023879D01*
X83975000Y-59978796D01*
X83975000Y-59446204D01*
X83979440Y-59401121D01*
X83991874Y-59360130D01*
X84012065Y-59322355D01*
X84039242Y-59289242D01*
X84072355Y-59262065D01*
X84110130Y-59241874D01*
X84151121Y-59229440D01*
X84196204Y-59225000D01*
X84803796Y-59225000D01*
X84848879Y-59229440D01*
G37*
G36*
X45550000Y-58050000D02*
G01*
X42450000Y-58050000D01*
X42450000Y-54950000D01*
X45550000Y-54950000D01*
X45550000Y-58050000D01*
G37*
G36*
X44302390Y-49899783D02*
G01*
X44452118Y-49929565D01*
X44568960Y-49977963D01*
X44734199Y-50046407D01*
X44734200Y-50046408D01*
X44988068Y-50216036D01*
X45203964Y-50431932D01*
X45203965Y-50431934D01*
X45373593Y-50685801D01*
X45490435Y-50967883D01*
X45550000Y-51267337D01*
X45550000Y-51572663D01*
X45490435Y-51872117D01*
X45373593Y-52154199D01*
X45373592Y-52154200D01*
X45203964Y-52408068D01*
X44988068Y-52623964D01*
X44860273Y-52709353D01*
X44734199Y-52793593D01*
X44568960Y-52862037D01*
X44452118Y-52910435D01*
X44302390Y-52940217D01*
X44152663Y-52970000D01*
X43847337Y-52970000D01*
X43697610Y-52940218D01*
X43547882Y-52910435D01*
X43431040Y-52862037D01*
X43265801Y-52793593D01*
X43139727Y-52709353D01*
X43011932Y-52623964D01*
X42796036Y-52408068D01*
X42626408Y-52154200D01*
X42626407Y-52154199D01*
X42509565Y-51872117D01*
X42450000Y-51572663D01*
X42450000Y-51267337D01*
X42509565Y-50967883D01*
X42626407Y-50685801D01*
X42796035Y-50431934D01*
X42796036Y-50431932D01*
X43011932Y-50216036D01*
X43265800Y-50046408D01*
X43265801Y-50046407D01*
X43431040Y-49977963D01*
X43547882Y-49929565D01*
X43697610Y-49899783D01*
X43847337Y-49870000D01*
X44152663Y-49870000D01*
X44302390Y-49899783D01*
G37*
G36*
X115302390Y-43479782D02*
G01*
X115452118Y-43509565D01*
X115568960Y-43557963D01*
X115734199Y-43626407D01*
X115734200Y-43626408D01*
X115988068Y-43796036D01*
X116203964Y-44011932D01*
X116203965Y-44011934D01*
X116373593Y-44265801D01*
X116388762Y-44302423D01*
X116490435Y-44547882D01*
X116508026Y-44636321D01*
X116550000Y-44847337D01*
X116550000Y-45152663D01*
X116490435Y-45452117D01*
X116373593Y-45734199D01*
X116373592Y-45734200D01*
X116203964Y-45988068D01*
X115988068Y-46203964D01*
X115860273Y-46289353D01*
X115734199Y-46373593D01*
X115568960Y-46442037D01*
X115452118Y-46490435D01*
X115302390Y-46520217D01*
X115152663Y-46550000D01*
X114847337Y-46550000D01*
X114697610Y-46520217D01*
X114547882Y-46490435D01*
X114431040Y-46442037D01*
X114265801Y-46373593D01*
X114139727Y-46289353D01*
X114011932Y-46203964D01*
X113796036Y-45988068D01*
X113626408Y-45734200D01*
X113626407Y-45734199D01*
X113509565Y-45452117D01*
X113450000Y-45152663D01*
X113450000Y-44847337D01*
X113491974Y-44636321D01*
X113509565Y-44547882D01*
X113611238Y-44302423D01*
X113626407Y-44265801D01*
X113796035Y-44011934D01*
X113796036Y-44011932D01*
X114011932Y-43796036D01*
X114265800Y-43626408D01*
X114265801Y-43626407D01*
X114431040Y-43557963D01*
X114547882Y-43509565D01*
X114697610Y-43479783D01*
X114847337Y-43450000D01*
X115152663Y-43450000D01*
X115302390Y-43479782D01*
G37*
G36*
X45302390Y-43479782D02*
G01*
X45452118Y-43509565D01*
X45568960Y-43557963D01*
X45734199Y-43626407D01*
X45734200Y-43626408D01*
X45988068Y-43796036D01*
X46203964Y-44011932D01*
X46203965Y-44011934D01*
X46373593Y-44265801D01*
X46388762Y-44302423D01*
X46490435Y-44547882D01*
X46508026Y-44636321D01*
X46550000Y-44847337D01*
X46550000Y-45152663D01*
X46490435Y-45452117D01*
X46373593Y-45734199D01*
X46373592Y-45734200D01*
X46203964Y-45988068D01*
X45988068Y-46203964D01*
X45860273Y-46289353D01*
X45734199Y-46373593D01*
X45568960Y-46442037D01*
X45452118Y-46490435D01*
X45302390Y-46520217D01*
X45152663Y-46550000D01*
X44847337Y-46550000D01*
X44697610Y-46520217D01*
X44547882Y-46490435D01*
X44431040Y-46442037D01*
X44265801Y-46373593D01*
X44139727Y-46289353D01*
X44011932Y-46203964D01*
X43796036Y-45988068D01*
X43626408Y-45734200D01*
X43626407Y-45734199D01*
X43509565Y-45452117D01*
X43450000Y-45152663D01*
X43450000Y-44847337D01*
X43491974Y-44636321D01*
X43509565Y-44547882D01*
X43611238Y-44302423D01*
X43626407Y-44265801D01*
X43796035Y-44011934D01*
X43796036Y-44011932D01*
X44011932Y-43796036D01*
X44265800Y-43626408D01*
X44265801Y-43626407D01*
X44431040Y-43557963D01*
X44547882Y-43509565D01*
X44697610Y-43479782D01*
X44847337Y-43450000D01*
X45152663Y-43450000D01*
X45302390Y-43479782D01*
G37*
G36*
X94752422Y-43685087D02*
G01*
X94850909Y-43714962D01*
X94941674Y-43763477D01*
X95021231Y-43828768D01*
X95086522Y-43908325D01*
X95135037Y-43999090D01*
X95164912Y-44097577D01*
X95175000Y-44199999D01*
X95175000Y-44200001D01*
X95164912Y-44302423D01*
X95135037Y-44400910D01*
X95086522Y-44491675D01*
X95021231Y-44571232D01*
X94941674Y-44636523D01*
X94850909Y-44685038D01*
X94752422Y-44714913D01*
X94650000Y-44725001D01*
X94350000Y-44725001D01*
X94247578Y-44714913D01*
X94149091Y-44685038D01*
X94058326Y-44636523D01*
X93978769Y-44571232D01*
X93913478Y-44491675D01*
X93864963Y-44400910D01*
X93835088Y-44302423D01*
X93825000Y-44200001D01*
X93825000Y-44199999D01*
X93835088Y-44097577D01*
X93864963Y-43999090D01*
X93913478Y-43908325D01*
X93978769Y-43828768D01*
X94058326Y-43763477D01*
X94149091Y-43714962D01*
X94247578Y-43685087D01*
X94350000Y-43674999D01*
X94650000Y-43674999D01*
X94752422Y-43685087D01*
G37*
G36*
X89752422Y-43685087D02*
G01*
X89850909Y-43714962D01*
X89941674Y-43763477D01*
X90021231Y-43828768D01*
X90086522Y-43908325D01*
X90135037Y-43999090D01*
X90164912Y-44097577D01*
X90175000Y-44199999D01*
X90175000Y-44200001D01*
X90164912Y-44302423D01*
X90135037Y-44400910D01*
X90086522Y-44491675D01*
X90021231Y-44571232D01*
X89941674Y-44636523D01*
X89850909Y-44685038D01*
X89752422Y-44714913D01*
X89650000Y-44725001D01*
X89350000Y-44725001D01*
X89247578Y-44714913D01*
X89149091Y-44685038D01*
X89058326Y-44636523D01*
X88978769Y-44571232D01*
X88913478Y-44491675D01*
X88864963Y-44400910D01*
X88835088Y-44302423D01*
X88825000Y-44200001D01*
X88825000Y-44199999D01*
X88835088Y-44097577D01*
X88864963Y-43999090D01*
X88913478Y-43908325D01*
X88978769Y-43828768D01*
X89058326Y-43763477D01*
X89149091Y-43714962D01*
X89247578Y-43685087D01*
X89350000Y-43674999D01*
X89650000Y-43674999D01*
X89752422Y-43685087D01*
G37*
G36*
X72414561Y-41373057D02*
G01*
X72472520Y-41384586D01*
X72636310Y-41452430D01*
X72783717Y-41550924D01*
X72909076Y-41676283D01*
X73007570Y-41823690D01*
X73007571Y-41823692D01*
X73075414Y-41987481D01*
X73098323Y-42102650D01*
X73110000Y-42161358D01*
X73110000Y-42338642D01*
X73075414Y-42512520D01*
X73007570Y-42676310D01*
X72909076Y-42823717D01*
X72783717Y-42949076D01*
X72636310Y-43047570D01*
X72472520Y-43115414D01*
X72414561Y-43126943D01*
X72298644Y-43150000D01*
X72121356Y-43150000D01*
X72005439Y-43126943D01*
X71947480Y-43115414D01*
X71783690Y-43047570D01*
X71636283Y-42949076D01*
X71510924Y-42823717D01*
X71412430Y-42676310D01*
X71344586Y-42512520D01*
X71310000Y-42338642D01*
X71310000Y-42161358D01*
X71321678Y-42102650D01*
X71344586Y-41987481D01*
X71412429Y-41823692D01*
X71412430Y-41823690D01*
X71510924Y-41676283D01*
X71636283Y-41550924D01*
X71783690Y-41452430D01*
X71947480Y-41384586D01*
X72005439Y-41373057D01*
X72121356Y-41350000D01*
X72298644Y-41350000D01*
X72414561Y-41373057D01*
G37*
G36*
X75650000Y-43150000D02*
G01*
X73850000Y-43150000D01*
X73850000Y-41350000D01*
X75650000Y-41350000D01*
X75650000Y-43150000D01*
G37*
G36*
X95597546Y-40684607D02*
G01*
X95691343Y-40713060D01*
X95777786Y-40759265D01*
X95853554Y-40821447D01*
X95915736Y-40897215D01*
X95961941Y-40983658D01*
X95990394Y-41077455D01*
X96000001Y-41175000D01*
X96000001Y-41825000D01*
X95990394Y-41922545D01*
X95961941Y-42016342D01*
X95915736Y-42102785D01*
X95853554Y-42178553D01*
X95777786Y-42240735D01*
X95691343Y-42286940D01*
X95597546Y-42315393D01*
X95500001Y-42325000D01*
X95499999Y-42325000D01*
X95402454Y-42315393D01*
X95308657Y-42286940D01*
X95222214Y-42240735D01*
X95146446Y-42178553D01*
X95084264Y-42102785D01*
X95038059Y-42016342D01*
X95009606Y-41922545D01*
X94999999Y-41825000D01*
X94999999Y-41175000D01*
X95009606Y-41077455D01*
X95038059Y-40983658D01*
X95084264Y-40897215D01*
X95146446Y-40821447D01*
X95222214Y-40759265D01*
X95308657Y-40713060D01*
X95402454Y-40684607D01*
X95499999Y-40675000D01*
X95500001Y-40675000D01*
X95597546Y-40684607D01*
G37*
G36*
X88597546Y-40684607D02*
G01*
X88691343Y-40713060D01*
X88777786Y-40759265D01*
X88853554Y-40821447D01*
X88915736Y-40897215D01*
X88961941Y-40983658D01*
X88990394Y-41077455D01*
X89000001Y-41175000D01*
X89000001Y-41825000D01*
X88990394Y-41922545D01*
X88961941Y-42016342D01*
X88915736Y-42102785D01*
X88853554Y-42178553D01*
X88777786Y-42240735D01*
X88691343Y-42286940D01*
X88597546Y-42315393D01*
X88500001Y-42325000D01*
X88499999Y-42325000D01*
X88402454Y-42315393D01*
X88308657Y-42286940D01*
X88222214Y-42240735D01*
X88146446Y-42178553D01*
X88084264Y-42102785D01*
X88038059Y-42016342D01*
X88009606Y-41922545D01*
X87999999Y-41825000D01*
X87999999Y-41175000D01*
X88009606Y-41077455D01*
X88038059Y-40983658D01*
X88084264Y-40897215D01*
X88146446Y-40821447D01*
X88222214Y-40759265D01*
X88308657Y-40713060D01*
X88402454Y-40684607D01*
X88499999Y-40675000D01*
X88500001Y-40675000D01*
X88597546Y-40684607D01*
G37*
M02*
