%TF.GenerationSoftware,KiCad,Pcbnew,(5.1.6)-1*%
%TF.CreationDate,2020-06-19T12:40:56+02:00*%
%TF.ProjectId,iceduino,69636564-7569-46e6-9f2e-6b696361645f,rev?*%
%TF.SameCoordinates,Original*%
%TF.FileFunction,Paste,Bot*%
%TF.FilePolarity,Positive*%
%FSLAX46Y46*%
G04 Gerber Fmt 4.6, Leading zero omitted, Abs format (unit mm)*
G04 Created by KiCad (PCBNEW (5.1.6)-1) date 2020-06-19 12:40:56*
%MOMM*%
%LPD*%
G01*
G04 APERTURE LIST*
G04 APERTURE END LIST*
%TO.C,C1*%
G36*
G01*
X92643750Y-94850000D02*
X93156250Y-94850000D01*
G75*
G02*
X93375000Y-95068750I0J-218750D01*
G01*
X93375000Y-95506250D01*
G75*
G02*
X93156250Y-95725000I-218750J0D01*
G01*
X92643750Y-95725000D01*
G75*
G02*
X92425000Y-95506250I0J218750D01*
G01*
X92425000Y-95068750D01*
G75*
G02*
X92643750Y-94850000I218750J0D01*
G01*
G37*
G36*
G01*
X92643750Y-93275000D02*
X93156250Y-93275000D01*
G75*
G02*
X93375000Y-93493750I0J-218750D01*
G01*
X93375000Y-93931250D01*
G75*
G02*
X93156250Y-94150000I-218750J0D01*
G01*
X92643750Y-94150000D01*
G75*
G02*
X92425000Y-93931250I0J218750D01*
G01*
X92425000Y-93493750D01*
G75*
G02*
X92643750Y-93275000I218750J0D01*
G01*
G37*
%TD*%
%TO.C,C2*%
G36*
G01*
X81850000Y-102506250D02*
X81850000Y-101993750D01*
G75*
G02*
X82068750Y-101775000I218750J0D01*
G01*
X82506250Y-101775000D01*
G75*
G02*
X82725000Y-101993750I0J-218750D01*
G01*
X82725000Y-102506250D01*
G75*
G02*
X82506250Y-102725000I-218750J0D01*
G01*
X82068750Y-102725000D01*
G75*
G02*
X81850000Y-102506250I0J218750D01*
G01*
G37*
G36*
G01*
X80275000Y-102506250D02*
X80275000Y-101993750D01*
G75*
G02*
X80493750Y-101775000I218750J0D01*
G01*
X80931250Y-101775000D01*
G75*
G02*
X81150000Y-101993750I0J-218750D01*
G01*
X81150000Y-102506250D01*
G75*
G02*
X80931250Y-102725000I-218750J0D01*
G01*
X80493750Y-102725000D01*
G75*
G02*
X80275000Y-102506250I0J218750D01*
G01*
G37*
%TD*%
%TO.C,C3*%
G36*
G01*
X94506250Y-92225000D02*
X93993750Y-92225000D01*
G75*
G02*
X93775000Y-92006250I0J218750D01*
G01*
X93775000Y-91568750D01*
G75*
G02*
X93993750Y-91350000I218750J0D01*
G01*
X94506250Y-91350000D01*
G75*
G02*
X94725000Y-91568750I0J-218750D01*
G01*
X94725000Y-92006250D01*
G75*
G02*
X94506250Y-92225000I-218750J0D01*
G01*
G37*
G36*
G01*
X94506250Y-90650000D02*
X93993750Y-90650000D01*
G75*
G02*
X93775000Y-90431250I0J218750D01*
G01*
X93775000Y-89993750D01*
G75*
G02*
X93993750Y-89775000I218750J0D01*
G01*
X94506250Y-89775000D01*
G75*
G02*
X94725000Y-89993750I0J-218750D01*
G01*
X94725000Y-90431250D01*
G75*
G02*
X94506250Y-90650000I-218750J0D01*
G01*
G37*
%TD*%
%TO.C,C4*%
G36*
G01*
X92506250Y-105725000D02*
X91993750Y-105725000D01*
G75*
G02*
X91775000Y-105506250I0J218750D01*
G01*
X91775000Y-105068750D01*
G75*
G02*
X91993750Y-104850000I218750J0D01*
G01*
X92506250Y-104850000D01*
G75*
G02*
X92725000Y-105068750I0J-218750D01*
G01*
X92725000Y-105506250D01*
G75*
G02*
X92506250Y-105725000I-218750J0D01*
G01*
G37*
G36*
G01*
X92506250Y-104150000D02*
X91993750Y-104150000D01*
G75*
G02*
X91775000Y-103931250I0J218750D01*
G01*
X91775000Y-103493750D01*
G75*
G02*
X91993750Y-103275000I218750J0D01*
G01*
X92506250Y-103275000D01*
G75*
G02*
X92725000Y-103493750I0J-218750D01*
G01*
X92725000Y-103931250D01*
G75*
G02*
X92506250Y-104150000I-218750J0D01*
G01*
G37*
%TD*%
%TO.C,C5*%
G36*
G01*
X90243750Y-112600000D02*
X90756250Y-112600000D01*
G75*
G02*
X90975000Y-112818750I0J-218750D01*
G01*
X90975000Y-113256250D01*
G75*
G02*
X90756250Y-113475000I-218750J0D01*
G01*
X90243750Y-113475000D01*
G75*
G02*
X90025000Y-113256250I0J218750D01*
G01*
X90025000Y-112818750D01*
G75*
G02*
X90243750Y-112600000I218750J0D01*
G01*
G37*
G36*
G01*
X90243750Y-111025000D02*
X90756250Y-111025000D01*
G75*
G02*
X90975000Y-111243750I0J-218750D01*
G01*
X90975000Y-111681250D01*
G75*
G02*
X90756250Y-111900000I-218750J0D01*
G01*
X90243750Y-111900000D01*
G75*
G02*
X90025000Y-111681250I0J218750D01*
G01*
X90025000Y-111243750D01*
G75*
G02*
X90243750Y-111025000I218750J0D01*
G01*
G37*
%TD*%
%TO.C,C6*%
G36*
G01*
X85993750Y-111025000D02*
X86506250Y-111025000D01*
G75*
G02*
X86725000Y-111243750I0J-218750D01*
G01*
X86725000Y-111681250D01*
G75*
G02*
X86506250Y-111900000I-218750J0D01*
G01*
X85993750Y-111900000D01*
G75*
G02*
X85775000Y-111681250I0J218750D01*
G01*
X85775000Y-111243750D01*
G75*
G02*
X85993750Y-111025000I218750J0D01*
G01*
G37*
G36*
G01*
X85993750Y-112600000D02*
X86506250Y-112600000D01*
G75*
G02*
X86725000Y-112818750I0J-218750D01*
G01*
X86725000Y-113256250D01*
G75*
G02*
X86506250Y-113475000I-218750J0D01*
G01*
X85993750Y-113475000D01*
G75*
G02*
X85775000Y-113256250I0J218750D01*
G01*
X85775000Y-112818750D01*
G75*
G02*
X85993750Y-112600000I218750J0D01*
G01*
G37*
%TD*%
%TO.C,C7*%
G36*
G01*
X81850000Y-101006250D02*
X81850000Y-100493750D01*
G75*
G02*
X82068750Y-100275000I218750J0D01*
G01*
X82506250Y-100275000D01*
G75*
G02*
X82725000Y-100493750I0J-218750D01*
G01*
X82725000Y-101006250D01*
G75*
G02*
X82506250Y-101225000I-218750J0D01*
G01*
X82068750Y-101225000D01*
G75*
G02*
X81850000Y-101006250I0J218750D01*
G01*
G37*
G36*
G01*
X80275000Y-101006250D02*
X80275000Y-100493750D01*
G75*
G02*
X80493750Y-100275000I218750J0D01*
G01*
X80931250Y-100275000D01*
G75*
G02*
X81150000Y-100493750I0J-218750D01*
G01*
X81150000Y-101006250D01*
G75*
G02*
X80931250Y-101225000I-218750J0D01*
G01*
X80493750Y-101225000D01*
G75*
G02*
X80275000Y-101006250I0J218750D01*
G01*
G37*
%TD*%
%TO.C,C8*%
G36*
G01*
X80275000Y-97256250D02*
X80275000Y-96743750D01*
G75*
G02*
X80493750Y-96525000I218750J0D01*
G01*
X80931250Y-96525000D01*
G75*
G02*
X81150000Y-96743750I0J-218750D01*
G01*
X81150000Y-97256250D01*
G75*
G02*
X80931250Y-97475000I-218750J0D01*
G01*
X80493750Y-97475000D01*
G75*
G02*
X80275000Y-97256250I0J218750D01*
G01*
G37*
G36*
G01*
X81850000Y-97256250D02*
X81850000Y-96743750D01*
G75*
G02*
X82068750Y-96525000I218750J0D01*
G01*
X82506250Y-96525000D01*
G75*
G02*
X82725000Y-96743750I0J-218750D01*
G01*
X82725000Y-97256250D01*
G75*
G02*
X82506250Y-97475000I-218750J0D01*
G01*
X82068750Y-97475000D01*
G75*
G02*
X81850000Y-97256250I0J218750D01*
G01*
G37*
%TD*%
%TO.C,C9*%
G36*
G01*
X87256250Y-85725000D02*
X86743750Y-85725000D01*
G75*
G02*
X86525000Y-85506250I0J218750D01*
G01*
X86525000Y-85068750D01*
G75*
G02*
X86743750Y-84850000I218750J0D01*
G01*
X87256250Y-84850000D01*
G75*
G02*
X87475000Y-85068750I0J-218750D01*
G01*
X87475000Y-85506250D01*
G75*
G02*
X87256250Y-85725000I-218750J0D01*
G01*
G37*
G36*
G01*
X87256250Y-84150000D02*
X86743750Y-84150000D01*
G75*
G02*
X86525000Y-83931250I0J218750D01*
G01*
X86525000Y-83493750D01*
G75*
G02*
X86743750Y-83275000I218750J0D01*
G01*
X87256250Y-83275000D01*
G75*
G02*
X87475000Y-83493750I0J-218750D01*
G01*
X87475000Y-83931250D01*
G75*
G02*
X87256250Y-84150000I-218750J0D01*
G01*
G37*
%TD*%
%TO.C,C10*%
G36*
G01*
X92756250Y-84725000D02*
X92243750Y-84725000D01*
G75*
G02*
X92025000Y-84506250I0J218750D01*
G01*
X92025000Y-84068750D01*
G75*
G02*
X92243750Y-83850000I218750J0D01*
G01*
X92756250Y-83850000D01*
G75*
G02*
X92975000Y-84068750I0J-218750D01*
G01*
X92975000Y-84506250D01*
G75*
G02*
X92756250Y-84725000I-218750J0D01*
G01*
G37*
G36*
G01*
X92756250Y-83150000D02*
X92243750Y-83150000D01*
G75*
G02*
X92025000Y-82931250I0J218750D01*
G01*
X92025000Y-82493750D01*
G75*
G02*
X92243750Y-82275000I218750J0D01*
G01*
X92756250Y-82275000D01*
G75*
G02*
X92975000Y-82493750I0J-218750D01*
G01*
X92975000Y-82931250D01*
G75*
G02*
X92756250Y-83150000I-218750J0D01*
G01*
G37*
%TD*%
%TO.C,C11*%
G36*
G01*
X89975000Y-97993750D02*
X89975000Y-98506250D01*
G75*
G02*
X89756250Y-98725000I-218750J0D01*
G01*
X89318750Y-98725000D01*
G75*
G02*
X89100000Y-98506250I0J218750D01*
G01*
X89100000Y-97993750D01*
G75*
G02*
X89318750Y-97775000I218750J0D01*
G01*
X89756250Y-97775000D01*
G75*
G02*
X89975000Y-97993750I0J-218750D01*
G01*
G37*
G36*
G01*
X88400000Y-97993750D02*
X88400000Y-98506250D01*
G75*
G02*
X88181250Y-98725000I-218750J0D01*
G01*
X87743750Y-98725000D01*
G75*
G02*
X87525000Y-98506250I0J218750D01*
G01*
X87525000Y-97993750D01*
G75*
G02*
X87743750Y-97775000I218750J0D01*
G01*
X88181250Y-97775000D01*
G75*
G02*
X88400000Y-97993750I0J-218750D01*
G01*
G37*
%TD*%
%TO.C,C12*%
G36*
G01*
X94443750Y-94850000D02*
X94956250Y-94850000D01*
G75*
G02*
X95175000Y-95068750I0J-218750D01*
G01*
X95175000Y-95506250D01*
G75*
G02*
X94956250Y-95725000I-218750J0D01*
G01*
X94443750Y-95725000D01*
G75*
G02*
X94225000Y-95506250I0J218750D01*
G01*
X94225000Y-95068750D01*
G75*
G02*
X94443750Y-94850000I218750J0D01*
G01*
G37*
G36*
G01*
X94443750Y-93275000D02*
X94956250Y-93275000D01*
G75*
G02*
X95175000Y-93493750I0J-218750D01*
G01*
X95175000Y-93931250D01*
G75*
G02*
X94956250Y-94150000I-218750J0D01*
G01*
X94443750Y-94150000D01*
G75*
G02*
X94225000Y-93931250I0J218750D01*
G01*
X94225000Y-93493750D01*
G75*
G02*
X94443750Y-93275000I218750J0D01*
G01*
G37*
%TD*%
%TO.C,C13*%
G36*
G01*
X80756250Y-83725000D02*
X80243750Y-83725000D01*
G75*
G02*
X80025000Y-83506250I0J218750D01*
G01*
X80025000Y-83068750D01*
G75*
G02*
X80243750Y-82850000I218750J0D01*
G01*
X80756250Y-82850000D01*
G75*
G02*
X80975000Y-83068750I0J-218750D01*
G01*
X80975000Y-83506250D01*
G75*
G02*
X80756250Y-83725000I-218750J0D01*
G01*
G37*
G36*
G01*
X80756250Y-82150000D02*
X80243750Y-82150000D01*
G75*
G02*
X80025000Y-81931250I0J218750D01*
G01*
X80025000Y-81493750D01*
G75*
G02*
X80243750Y-81275000I218750J0D01*
G01*
X80756250Y-81275000D01*
G75*
G02*
X80975000Y-81493750I0J-218750D01*
G01*
X80975000Y-81931250D01*
G75*
G02*
X80756250Y-82150000I-218750J0D01*
G01*
G37*
%TD*%
%TO.C,C14*%
G36*
G01*
X80025000Y-105756250D02*
X80025000Y-105243750D01*
G75*
G02*
X80243750Y-105025000I218750J0D01*
G01*
X80681250Y-105025000D01*
G75*
G02*
X80900000Y-105243750I0J-218750D01*
G01*
X80900000Y-105756250D01*
G75*
G02*
X80681250Y-105975000I-218750J0D01*
G01*
X80243750Y-105975000D01*
G75*
G02*
X80025000Y-105756250I0J218750D01*
G01*
G37*
G36*
G01*
X81600000Y-105756250D02*
X81600000Y-105243750D01*
G75*
G02*
X81818750Y-105025000I218750J0D01*
G01*
X82256250Y-105025000D01*
G75*
G02*
X82475000Y-105243750I0J-218750D01*
G01*
X82475000Y-105756250D01*
G75*
G02*
X82256250Y-105975000I-218750J0D01*
G01*
X81818750Y-105975000D01*
G75*
G02*
X81600000Y-105756250I0J218750D01*
G01*
G37*
%TD*%
%TO.C,C15*%
G36*
G01*
X78006250Y-83725000D02*
X77493750Y-83725000D01*
G75*
G02*
X77275000Y-83506250I0J218750D01*
G01*
X77275000Y-83068750D01*
G75*
G02*
X77493750Y-82850000I218750J0D01*
G01*
X78006250Y-82850000D01*
G75*
G02*
X78225000Y-83068750I0J-218750D01*
G01*
X78225000Y-83506250D01*
G75*
G02*
X78006250Y-83725000I-218750J0D01*
G01*
G37*
G36*
G01*
X78006250Y-82150000D02*
X77493750Y-82150000D01*
G75*
G02*
X77275000Y-81931250I0J218750D01*
G01*
X77275000Y-81493750D01*
G75*
G02*
X77493750Y-81275000I218750J0D01*
G01*
X78006250Y-81275000D01*
G75*
G02*
X78225000Y-81493750I0J-218750D01*
G01*
X78225000Y-81931250D01*
G75*
G02*
X78006250Y-82150000I-218750J0D01*
G01*
G37*
%TD*%
%TO.C,C16*%
G36*
G01*
X80275000Y-99006250D02*
X80275000Y-98493750D01*
G75*
G02*
X80493750Y-98275000I218750J0D01*
G01*
X80931250Y-98275000D01*
G75*
G02*
X81150000Y-98493750I0J-218750D01*
G01*
X81150000Y-99006250D01*
G75*
G02*
X80931250Y-99225000I-218750J0D01*
G01*
X80493750Y-99225000D01*
G75*
G02*
X80275000Y-99006250I0J218750D01*
G01*
G37*
G36*
G01*
X81850000Y-99006250D02*
X81850000Y-98493750D01*
G75*
G02*
X82068750Y-98275000I218750J0D01*
G01*
X82506250Y-98275000D01*
G75*
G02*
X82725000Y-98493750I0J-218750D01*
G01*
X82725000Y-99006250D01*
G75*
G02*
X82506250Y-99225000I-218750J0D01*
G01*
X82068750Y-99225000D01*
G75*
G02*
X81850000Y-99006250I0J218750D01*
G01*
G37*
%TD*%
%TO.C,C17*%
G36*
G01*
X91993750Y-91350000D02*
X92506250Y-91350000D01*
G75*
G02*
X92725000Y-91568750I0J-218750D01*
G01*
X92725000Y-92006250D01*
G75*
G02*
X92506250Y-92225000I-218750J0D01*
G01*
X91993750Y-92225000D01*
G75*
G02*
X91775000Y-92006250I0J218750D01*
G01*
X91775000Y-91568750D01*
G75*
G02*
X91993750Y-91350000I218750J0D01*
G01*
G37*
G36*
G01*
X91993750Y-89775000D02*
X92506250Y-89775000D01*
G75*
G02*
X92725000Y-89993750I0J-218750D01*
G01*
X92725000Y-90431250D01*
G75*
G02*
X92506250Y-90650000I-218750J0D01*
G01*
X91993750Y-90650000D01*
G75*
G02*
X91775000Y-90431250I0J218750D01*
G01*
X91775000Y-89993750D01*
G75*
G02*
X91993750Y-89775000I218750J0D01*
G01*
G37*
%TD*%
%TO.C,C37*%
G36*
G01*
X84230000Y-91046250D02*
X84230000Y-90533750D01*
G75*
G02*
X84448750Y-90315000I218750J0D01*
G01*
X84886250Y-90315000D01*
G75*
G02*
X85105000Y-90533750I0J-218750D01*
G01*
X85105000Y-91046250D01*
G75*
G02*
X84886250Y-91265000I-218750J0D01*
G01*
X84448750Y-91265000D01*
G75*
G02*
X84230000Y-91046250I0J218750D01*
G01*
G37*
G36*
G01*
X82655000Y-91046250D02*
X82655000Y-90533750D01*
G75*
G02*
X82873750Y-90315000I218750J0D01*
G01*
X83311250Y-90315000D01*
G75*
G02*
X83530000Y-90533750I0J-218750D01*
G01*
X83530000Y-91046250D01*
G75*
G02*
X83311250Y-91265000I-218750J0D01*
G01*
X82873750Y-91265000D01*
G75*
G02*
X82655000Y-91046250I0J218750D01*
G01*
G37*
%TD*%
%TO.C,C38*%
G36*
G01*
X84230000Y-92546250D02*
X84230000Y-92033750D01*
G75*
G02*
X84448750Y-91815000I218750J0D01*
G01*
X84886250Y-91815000D01*
G75*
G02*
X85105000Y-92033750I0J-218750D01*
G01*
X85105000Y-92546250D01*
G75*
G02*
X84886250Y-92765000I-218750J0D01*
G01*
X84448750Y-92765000D01*
G75*
G02*
X84230000Y-92546250I0J218750D01*
G01*
G37*
G36*
G01*
X82655000Y-92546250D02*
X82655000Y-92033750D01*
G75*
G02*
X82873750Y-91815000I218750J0D01*
G01*
X83311250Y-91815000D01*
G75*
G02*
X83530000Y-92033750I0J-218750D01*
G01*
X83530000Y-92546250D01*
G75*
G02*
X83311250Y-92765000I-218750J0D01*
G01*
X82873750Y-92765000D01*
G75*
G02*
X82655000Y-92546250I0J218750D01*
G01*
G37*
%TD*%
%TO.C,C39*%
G36*
G01*
X88600000Y-104256250D02*
X88600000Y-103743750D01*
G75*
G02*
X88818750Y-103525000I218750J0D01*
G01*
X89256250Y-103525000D01*
G75*
G02*
X89475000Y-103743750I0J-218750D01*
G01*
X89475000Y-104256250D01*
G75*
G02*
X89256250Y-104475000I-218750J0D01*
G01*
X88818750Y-104475000D01*
G75*
G02*
X88600000Y-104256250I0J218750D01*
G01*
G37*
G36*
G01*
X87025000Y-104256250D02*
X87025000Y-103743750D01*
G75*
G02*
X87243750Y-103525000I218750J0D01*
G01*
X87681250Y-103525000D01*
G75*
G02*
X87900000Y-103743750I0J-218750D01*
G01*
X87900000Y-104256250D01*
G75*
G02*
X87681250Y-104475000I-218750J0D01*
G01*
X87243750Y-104475000D01*
G75*
G02*
X87025000Y-104256250I0J218750D01*
G01*
G37*
%TD*%
%TO.C,C40*%
G36*
G01*
X87025000Y-105756250D02*
X87025000Y-105243750D01*
G75*
G02*
X87243750Y-105025000I218750J0D01*
G01*
X87681250Y-105025000D01*
G75*
G02*
X87900000Y-105243750I0J-218750D01*
G01*
X87900000Y-105756250D01*
G75*
G02*
X87681250Y-105975000I-218750J0D01*
G01*
X87243750Y-105975000D01*
G75*
G02*
X87025000Y-105756250I0J218750D01*
G01*
G37*
G36*
G01*
X88600000Y-105756250D02*
X88600000Y-105243750D01*
G75*
G02*
X88818750Y-105025000I218750J0D01*
G01*
X89256250Y-105025000D01*
G75*
G02*
X89475000Y-105243750I0J-218750D01*
G01*
X89475000Y-105756250D01*
G75*
G02*
X89256250Y-105975000I-218750J0D01*
G01*
X88818750Y-105975000D01*
G75*
G02*
X88600000Y-105756250I0J218750D01*
G01*
G37*
%TD*%
%TO.C,C48*%
G36*
G01*
X69006250Y-99225000D02*
X68493750Y-99225000D01*
G75*
G02*
X68275000Y-99006250I0J218750D01*
G01*
X68275000Y-98568750D01*
G75*
G02*
X68493750Y-98350000I218750J0D01*
G01*
X69006250Y-98350000D01*
G75*
G02*
X69225000Y-98568750I0J-218750D01*
G01*
X69225000Y-99006250D01*
G75*
G02*
X69006250Y-99225000I-218750J0D01*
G01*
G37*
G36*
G01*
X69006250Y-97650000D02*
X68493750Y-97650000D01*
G75*
G02*
X68275000Y-97431250I0J218750D01*
G01*
X68275000Y-96993750D01*
G75*
G02*
X68493750Y-96775000I218750J0D01*
G01*
X69006250Y-96775000D01*
G75*
G02*
X69225000Y-96993750I0J-218750D01*
G01*
X69225000Y-97431250D01*
G75*
G02*
X69006250Y-97650000I-218750J0D01*
G01*
G37*
%TD*%
%TO.C,C49*%
G36*
G01*
X63993750Y-98350000D02*
X64506250Y-98350000D01*
G75*
G02*
X64725000Y-98568750I0J-218750D01*
G01*
X64725000Y-99006250D01*
G75*
G02*
X64506250Y-99225000I-218750J0D01*
G01*
X63993750Y-99225000D01*
G75*
G02*
X63775000Y-99006250I0J218750D01*
G01*
X63775000Y-98568750D01*
G75*
G02*
X63993750Y-98350000I218750J0D01*
G01*
G37*
G36*
G01*
X63993750Y-96775000D02*
X64506250Y-96775000D01*
G75*
G02*
X64725000Y-96993750I0J-218750D01*
G01*
X64725000Y-97431250D01*
G75*
G02*
X64506250Y-97650000I-218750J0D01*
G01*
X63993750Y-97650000D01*
G75*
G02*
X63775000Y-97431250I0J218750D01*
G01*
X63775000Y-96993750D01*
G75*
G02*
X63993750Y-96775000I218750J0D01*
G01*
G37*
%TD*%
%TO.C,C83*%
G36*
G01*
X84756250Y-60150000D02*
X84243750Y-60150000D01*
G75*
G02*
X84025000Y-59931250I0J218750D01*
G01*
X84025000Y-59493750D01*
G75*
G02*
X84243750Y-59275000I218750J0D01*
G01*
X84756250Y-59275000D01*
G75*
G02*
X84975000Y-59493750I0J-218750D01*
G01*
X84975000Y-59931250D01*
G75*
G02*
X84756250Y-60150000I-218750J0D01*
G01*
G37*
G36*
G01*
X84756250Y-61725000D02*
X84243750Y-61725000D01*
G75*
G02*
X84025000Y-61506250I0J218750D01*
G01*
X84025000Y-61068750D01*
G75*
G02*
X84243750Y-60850000I218750J0D01*
G01*
X84756250Y-60850000D01*
G75*
G02*
X84975000Y-61068750I0J-218750D01*
G01*
X84975000Y-61506250D01*
G75*
G02*
X84756250Y-61725000I-218750J0D01*
G01*
G37*
%TD*%
%TO.C,R15*%
G36*
G01*
X81886250Y-92765000D02*
X81373750Y-92765000D01*
G75*
G02*
X81155000Y-92546250I0J218750D01*
G01*
X81155000Y-92108750D01*
G75*
G02*
X81373750Y-91890000I218750J0D01*
G01*
X81886250Y-91890000D01*
G75*
G02*
X82105000Y-92108750I0J-218750D01*
G01*
X82105000Y-92546250D01*
G75*
G02*
X81886250Y-92765000I-218750J0D01*
G01*
G37*
G36*
G01*
X81886250Y-91190000D02*
X81373750Y-91190000D01*
G75*
G02*
X81155000Y-90971250I0J218750D01*
G01*
X81155000Y-90533750D01*
G75*
G02*
X81373750Y-90315000I218750J0D01*
G01*
X81886250Y-90315000D01*
G75*
G02*
X82105000Y-90533750I0J-218750D01*
G01*
X82105000Y-90971250D01*
G75*
G02*
X81886250Y-91190000I-218750J0D01*
G01*
G37*
%TD*%
%TO.C,R16*%
G36*
G01*
X85743750Y-105100000D02*
X86256250Y-105100000D01*
G75*
G02*
X86475000Y-105318750I0J-218750D01*
G01*
X86475000Y-105756250D01*
G75*
G02*
X86256250Y-105975000I-218750J0D01*
G01*
X85743750Y-105975000D01*
G75*
G02*
X85525000Y-105756250I0J218750D01*
G01*
X85525000Y-105318750D01*
G75*
G02*
X85743750Y-105100000I218750J0D01*
G01*
G37*
G36*
G01*
X85743750Y-103525000D02*
X86256250Y-103525000D01*
G75*
G02*
X86475000Y-103743750I0J-218750D01*
G01*
X86475000Y-104181250D01*
G75*
G02*
X86256250Y-104400000I-218750J0D01*
G01*
X85743750Y-104400000D01*
G75*
G02*
X85525000Y-104181250I0J218750D01*
G01*
X85525000Y-103743750D01*
G75*
G02*
X85743750Y-103525000I218750J0D01*
G01*
G37*
%TD*%
%TO.C,R42*%
G36*
G01*
X95100000Y-83006250D02*
X95100000Y-82493750D01*
G75*
G02*
X95318750Y-82275000I218750J0D01*
G01*
X95756250Y-82275000D01*
G75*
G02*
X95975000Y-82493750I0J-218750D01*
G01*
X95975000Y-83006250D01*
G75*
G02*
X95756250Y-83225000I-218750J0D01*
G01*
X95318750Y-83225000D01*
G75*
G02*
X95100000Y-83006250I0J218750D01*
G01*
G37*
G36*
G01*
X93525000Y-83006250D02*
X93525000Y-82493750D01*
G75*
G02*
X93743750Y-82275000I218750J0D01*
G01*
X94181250Y-82275000D01*
G75*
G02*
X94400000Y-82493750I0J-218750D01*
G01*
X94400000Y-83006250D01*
G75*
G02*
X94181250Y-83225000I-218750J0D01*
G01*
X93743750Y-83225000D01*
G75*
G02*
X93525000Y-83006250I0J218750D01*
G01*
G37*
%TD*%
%TO.C,R43*%
G36*
G01*
X91543750Y-66100000D02*
X92056250Y-66100000D01*
G75*
G02*
X92275000Y-66318750I0J-218750D01*
G01*
X92275000Y-66756250D01*
G75*
G02*
X92056250Y-66975000I-218750J0D01*
G01*
X91543750Y-66975000D01*
G75*
G02*
X91325000Y-66756250I0J218750D01*
G01*
X91325000Y-66318750D01*
G75*
G02*
X91543750Y-66100000I218750J0D01*
G01*
G37*
G36*
G01*
X91543750Y-64525000D02*
X92056250Y-64525000D01*
G75*
G02*
X92275000Y-64743750I0J-218750D01*
G01*
X92275000Y-65181250D01*
G75*
G02*
X92056250Y-65400000I-218750J0D01*
G01*
X91543750Y-65400000D01*
G75*
G02*
X91325000Y-65181250I0J218750D01*
G01*
X91325000Y-64743750D01*
G75*
G02*
X91543750Y-64525000I218750J0D01*
G01*
G37*
%TD*%
%TO.C,C54*%
G36*
G01*
X95100000Y-74256250D02*
X95100000Y-73743750D01*
G75*
G02*
X95318750Y-73525000I218750J0D01*
G01*
X95756250Y-73525000D01*
G75*
G02*
X95975000Y-73743750I0J-218750D01*
G01*
X95975000Y-74256250D01*
G75*
G02*
X95756250Y-74475000I-218750J0D01*
G01*
X95318750Y-74475000D01*
G75*
G02*
X95100000Y-74256250I0J218750D01*
G01*
G37*
G36*
G01*
X93525000Y-74256250D02*
X93525000Y-73743750D01*
G75*
G02*
X93743750Y-73525000I218750J0D01*
G01*
X94181250Y-73525000D01*
G75*
G02*
X94400000Y-73743750I0J-218750D01*
G01*
X94400000Y-74256250D01*
G75*
G02*
X94181250Y-74475000I-218750J0D01*
G01*
X93743750Y-74475000D01*
G75*
G02*
X93525000Y-74256250I0J218750D01*
G01*
G37*
%TD*%
%TO.C,C55*%
G36*
G01*
X93525000Y-72756250D02*
X93525000Y-72243750D01*
G75*
G02*
X93743750Y-72025000I218750J0D01*
G01*
X94181250Y-72025000D01*
G75*
G02*
X94400000Y-72243750I0J-218750D01*
G01*
X94400000Y-72756250D01*
G75*
G02*
X94181250Y-72975000I-218750J0D01*
G01*
X93743750Y-72975000D01*
G75*
G02*
X93525000Y-72756250I0J218750D01*
G01*
G37*
G36*
G01*
X95100000Y-72756250D02*
X95100000Y-72243750D01*
G75*
G02*
X95318750Y-72025000I218750J0D01*
G01*
X95756250Y-72025000D01*
G75*
G02*
X95975000Y-72243750I0J-218750D01*
G01*
X95975000Y-72756250D01*
G75*
G02*
X95756250Y-72975000I-218750J0D01*
G01*
X95318750Y-72975000D01*
G75*
G02*
X95100000Y-72756250I0J218750D01*
G01*
G37*
%TD*%
%TO.C,C56*%
G36*
G01*
X97400000Y-73743750D02*
X97400000Y-74256250D01*
G75*
G02*
X97181250Y-74475000I-218750J0D01*
G01*
X96743750Y-74475000D01*
G75*
G02*
X96525000Y-74256250I0J218750D01*
G01*
X96525000Y-73743750D01*
G75*
G02*
X96743750Y-73525000I218750J0D01*
G01*
X97181250Y-73525000D01*
G75*
G02*
X97400000Y-73743750I0J-218750D01*
G01*
G37*
G36*
G01*
X98975000Y-73743750D02*
X98975000Y-74256250D01*
G75*
G02*
X98756250Y-74475000I-218750J0D01*
G01*
X98318750Y-74475000D01*
G75*
G02*
X98100000Y-74256250I0J218750D01*
G01*
X98100000Y-73743750D01*
G75*
G02*
X98318750Y-73525000I218750J0D01*
G01*
X98756250Y-73525000D01*
G75*
G02*
X98975000Y-73743750I0J-218750D01*
G01*
G37*
%TD*%
%TO.C,C57*%
G36*
G01*
X98975000Y-72243750D02*
X98975000Y-72756250D01*
G75*
G02*
X98756250Y-72975000I-218750J0D01*
G01*
X98318750Y-72975000D01*
G75*
G02*
X98100000Y-72756250I0J218750D01*
G01*
X98100000Y-72243750D01*
G75*
G02*
X98318750Y-72025000I218750J0D01*
G01*
X98756250Y-72025000D01*
G75*
G02*
X98975000Y-72243750I0J-218750D01*
G01*
G37*
G36*
G01*
X97400000Y-72243750D02*
X97400000Y-72756250D01*
G75*
G02*
X97181250Y-72975000I-218750J0D01*
G01*
X96743750Y-72975000D01*
G75*
G02*
X96525000Y-72756250I0J218750D01*
G01*
X96525000Y-72243750D01*
G75*
G02*
X96743750Y-72025000I218750J0D01*
G01*
X97181250Y-72025000D01*
G75*
G02*
X97400000Y-72243750I0J-218750D01*
G01*
G37*
%TD*%
M02*
