%TF.GenerationSoftware,KiCad,Pcbnew,(5.1.6)-1*%
%TF.CreationDate,2020-06-19T12:40:56+02:00*%
%TF.ProjectId,iceduino,69636564-7569-46e6-9f2e-6b696361645f,rev?*%
%TF.SameCoordinates,Original*%
%TF.FileFunction,Legend,Bot*%
%TF.FilePolarity,Positive*%
%FSLAX46Y46*%
G04 Gerber Fmt 4.6, Leading zero omitted, Abs format (unit mm)*
G04 Created by KiCad (PCBNEW (5.1.6)-1) date 2020-06-19 12:40:56*
%MOMM*%
%LPD*%
G01*
G04 APERTURE LIST*
%ADD10C,0.150000*%
%ADD11C,0.010000*%
%ADD12C,0.120000*%
%ADD13R,3.100000X3.100000*%
%ADD14C,3.100000*%
%ADD15O,1.800000X1.800000*%
%ADD16R,1.800000X1.800000*%
G04 APERTURE END LIST*
D10*
X98357142Y-136167380D02*
X98357142Y-135167380D01*
X97309523Y-136072142D02*
X97357142Y-136119761D01*
X97500000Y-136167380D01*
X97595238Y-136167380D01*
X97738095Y-136119761D01*
X97833333Y-136024523D01*
X97880952Y-135929285D01*
X97928571Y-135738809D01*
X97928571Y-135595952D01*
X97880952Y-135405476D01*
X97833333Y-135310238D01*
X97738095Y-135215000D01*
X97595238Y-135167380D01*
X97500000Y-135167380D01*
X97357142Y-135215000D01*
X97309523Y-135262619D01*
X96880952Y-135643571D02*
X96547619Y-135643571D01*
X96404761Y-136167380D02*
X96880952Y-136167380D01*
X96880952Y-135167380D01*
X96404761Y-135167380D01*
X95547619Y-135500714D02*
X95547619Y-136167380D01*
X95785714Y-135119761D02*
X96023809Y-135834047D01*
X95404761Y-135834047D01*
X94833333Y-135167380D02*
X94738095Y-135167380D01*
X94642857Y-135215000D01*
X94595238Y-135262619D01*
X94547619Y-135357857D01*
X94500000Y-135548333D01*
X94500000Y-135786428D01*
X94547619Y-135976904D01*
X94595238Y-136072142D01*
X94642857Y-136119761D01*
X94738095Y-136167380D01*
X94833333Y-136167380D01*
X94928571Y-136119761D01*
X94976190Y-136072142D01*
X95023809Y-135976904D01*
X95071428Y-135786428D01*
X95071428Y-135548333D01*
X95023809Y-135357857D01*
X94976190Y-135262619D01*
X94928571Y-135215000D01*
X94833333Y-135167380D01*
X94071428Y-136167380D02*
X94071428Y-135167380D01*
X94071428Y-135643571D02*
X93500000Y-135643571D01*
X93500000Y-136167380D02*
X93500000Y-135167380D01*
X93119047Y-135167380D02*
X92452380Y-136167380D01*
X92452380Y-135167380D02*
X93119047Y-136167380D01*
X91642857Y-135500714D02*
X91642857Y-136167380D01*
X91880952Y-135119761D02*
X92119047Y-135834047D01*
X91500000Y-135834047D01*
X91119047Y-136167380D02*
X91119047Y-135167380D01*
X90547619Y-136167380D02*
X90976190Y-135595952D01*
X90547619Y-135167380D02*
X91119047Y-135738809D01*
X89357142Y-136167380D02*
X89357142Y-135167380D01*
X88309523Y-136072142D02*
X88357142Y-136119761D01*
X88500000Y-136167380D01*
X88595238Y-136167380D01*
X88738095Y-136119761D01*
X88833333Y-136024523D01*
X88880952Y-135929285D01*
X88928571Y-135738809D01*
X88928571Y-135595952D01*
X88880952Y-135405476D01*
X88833333Y-135310238D01*
X88738095Y-135215000D01*
X88595238Y-135167380D01*
X88500000Y-135167380D01*
X88357142Y-135215000D01*
X88309523Y-135262619D01*
X87880952Y-135643571D02*
X87547619Y-135643571D01*
X87404761Y-136167380D02*
X87880952Y-136167380D01*
X87880952Y-135167380D01*
X87404761Y-135167380D01*
X86547619Y-136167380D02*
X86547619Y-135167380D01*
X86547619Y-136119761D02*
X86642857Y-136167380D01*
X86833333Y-136167380D01*
X86928571Y-136119761D01*
X86976190Y-136072142D01*
X87023809Y-135976904D01*
X87023809Y-135691190D01*
X86976190Y-135595952D01*
X86928571Y-135548333D01*
X86833333Y-135500714D01*
X86642857Y-135500714D01*
X86547619Y-135548333D01*
X85642857Y-135500714D02*
X85642857Y-136167380D01*
X86071428Y-135500714D02*
X86071428Y-136024523D01*
X86023809Y-136119761D01*
X85928571Y-136167380D01*
X85785714Y-136167380D01*
X85690476Y-136119761D01*
X85642857Y-136072142D01*
X85166666Y-136167380D02*
X85166666Y-135500714D01*
X85166666Y-135167380D02*
X85214285Y-135215000D01*
X85166666Y-135262619D01*
X85119047Y-135215000D01*
X85166666Y-135167380D01*
X85166666Y-135262619D01*
X84690476Y-135500714D02*
X84690476Y-136167380D01*
X84690476Y-135595952D02*
X84642857Y-135548333D01*
X84547619Y-135500714D01*
X84404761Y-135500714D01*
X84309523Y-135548333D01*
X84261904Y-135643571D01*
X84261904Y-136167380D01*
X83642857Y-136167380D02*
X83738095Y-136119761D01*
X83785714Y-136072142D01*
X83833333Y-135976904D01*
X83833333Y-135691190D01*
X83785714Y-135595952D01*
X83738095Y-135548333D01*
X83642857Y-135500714D01*
X83500000Y-135500714D01*
X83404761Y-135548333D01*
X83357142Y-135595952D01*
X83309523Y-135691190D01*
X83309523Y-135976904D01*
X83357142Y-136072142D01*
X83404761Y-136119761D01*
X83500000Y-136167380D01*
X83642857Y-136167380D01*
X81738095Y-136119761D02*
X81833333Y-136167380D01*
X82023809Y-136167380D01*
X82119047Y-136119761D01*
X82166666Y-136024523D01*
X82166666Y-135643571D01*
X82119047Y-135548333D01*
X82023809Y-135500714D01*
X81833333Y-135500714D01*
X81738095Y-135548333D01*
X81690476Y-135643571D01*
X81690476Y-135738809D01*
X82166666Y-135834047D01*
X80833333Y-136167380D02*
X80833333Y-135167380D01*
X80833333Y-136119761D02*
X80928571Y-136167380D01*
X81119047Y-136167380D01*
X81214285Y-136119761D01*
X81261904Y-136072142D01*
X81309523Y-135976904D01*
X81309523Y-135691190D01*
X81261904Y-135595952D01*
X81214285Y-135548333D01*
X81119047Y-135500714D01*
X80928571Y-135500714D01*
X80833333Y-135548333D01*
X79928571Y-135500714D02*
X79928571Y-136167380D01*
X80357142Y-135500714D02*
X80357142Y-136024523D01*
X80309523Y-136119761D01*
X80214285Y-136167380D01*
X80071428Y-136167380D01*
X79976190Y-136119761D01*
X79928571Y-136072142D01*
X79023809Y-136119761D02*
X79119047Y-136167380D01*
X79309523Y-136167380D01*
X79404761Y-136119761D01*
X79452380Y-136072142D01*
X79500000Y-135976904D01*
X79500000Y-135691190D01*
X79452380Y-135595952D01*
X79404761Y-135548333D01*
X79309523Y-135500714D01*
X79119047Y-135500714D01*
X79023809Y-135548333D01*
X78166666Y-136167380D02*
X78166666Y-135643571D01*
X78214285Y-135548333D01*
X78309523Y-135500714D01*
X78500000Y-135500714D01*
X78595238Y-135548333D01*
X78166666Y-136119761D02*
X78261904Y-136167380D01*
X78500000Y-136167380D01*
X78595238Y-136119761D01*
X78642857Y-136024523D01*
X78642857Y-135929285D01*
X78595238Y-135834047D01*
X78500000Y-135786428D01*
X78261904Y-135786428D01*
X78166666Y-135738809D01*
X77833333Y-135500714D02*
X77452380Y-135500714D01*
X77690476Y-135167380D02*
X77690476Y-136024523D01*
X77642857Y-136119761D01*
X77547619Y-136167380D01*
X77452380Y-136167380D01*
X77119047Y-136167380D02*
X77119047Y-135500714D01*
X77119047Y-135167380D02*
X77166666Y-135215000D01*
X77119047Y-135262619D01*
X77071428Y-135215000D01*
X77119047Y-135167380D01*
X77119047Y-135262619D01*
X76500000Y-136167380D02*
X76595238Y-136119761D01*
X76642857Y-136072142D01*
X76690476Y-135976904D01*
X76690476Y-135691190D01*
X76642857Y-135595952D01*
X76595238Y-135548333D01*
X76500000Y-135500714D01*
X76357142Y-135500714D01*
X76261904Y-135548333D01*
X76214285Y-135595952D01*
X76166666Y-135691190D01*
X76166666Y-135976904D01*
X76214285Y-136072142D01*
X76261904Y-136119761D01*
X76357142Y-136167380D01*
X76500000Y-136167380D01*
X75738095Y-135500714D02*
X75738095Y-136167380D01*
X75738095Y-135595952D02*
X75690476Y-135548333D01*
X75595238Y-135500714D01*
X75452380Y-135500714D01*
X75357142Y-135548333D01*
X75309523Y-135643571D01*
X75309523Y-136167380D01*
X74404761Y-136167380D02*
X74404761Y-135643571D01*
X74452380Y-135548333D01*
X74547619Y-135500714D01*
X74738095Y-135500714D01*
X74833333Y-135548333D01*
X74404761Y-136119761D02*
X74500000Y-136167380D01*
X74738095Y-136167380D01*
X74833333Y-136119761D01*
X74880952Y-136024523D01*
X74880952Y-135929285D01*
X74833333Y-135834047D01*
X74738095Y-135786428D01*
X74500000Y-135786428D01*
X74404761Y-135738809D01*
X73785714Y-136167380D02*
X73880952Y-136119761D01*
X73928571Y-136024523D01*
X73928571Y-135167380D01*
X72642857Y-136167380D02*
X72642857Y-135167380D01*
X72642857Y-135548333D02*
X72547619Y-135500714D01*
X72357142Y-135500714D01*
X72261904Y-135548333D01*
X72214285Y-135595952D01*
X72166666Y-135691190D01*
X72166666Y-135976904D01*
X72214285Y-136072142D01*
X72261904Y-136119761D01*
X72357142Y-136167380D01*
X72547619Y-136167380D01*
X72642857Y-136119761D01*
X71738095Y-136167380D02*
X71738095Y-135500714D01*
X71738095Y-135691190D02*
X71690476Y-135595952D01*
X71642857Y-135548333D01*
X71547619Y-135500714D01*
X71452380Y-135500714D01*
X70738095Y-136119761D02*
X70833333Y-136167380D01*
X71023809Y-136167380D01*
X71119047Y-136119761D01*
X71166666Y-136024523D01*
X71166666Y-135643571D01*
X71119047Y-135548333D01*
X71023809Y-135500714D01*
X70833333Y-135500714D01*
X70738095Y-135548333D01*
X70690476Y-135643571D01*
X70690476Y-135738809D01*
X71166666Y-135834047D01*
X69833333Y-136167380D02*
X69833333Y-135643571D01*
X69880952Y-135548333D01*
X69976190Y-135500714D01*
X70166666Y-135500714D01*
X70261904Y-135548333D01*
X69833333Y-136119761D02*
X69928571Y-136167380D01*
X70166666Y-136167380D01*
X70261904Y-136119761D01*
X70309523Y-136024523D01*
X70309523Y-135929285D01*
X70261904Y-135834047D01*
X70166666Y-135786428D01*
X69928571Y-135786428D01*
X69833333Y-135738809D01*
X69357142Y-136167380D02*
X69357142Y-135167380D01*
X69261904Y-135786428D02*
X68976190Y-136167380D01*
X68976190Y-135500714D02*
X69357142Y-135881666D01*
X68404761Y-136167380D02*
X68500000Y-136119761D01*
X68547619Y-136072142D01*
X68595238Y-135976904D01*
X68595238Y-135691190D01*
X68547619Y-135595952D01*
X68500000Y-135548333D01*
X68404761Y-135500714D01*
X68261904Y-135500714D01*
X68166666Y-135548333D01*
X68119047Y-135595952D01*
X68071428Y-135691190D01*
X68071428Y-135976904D01*
X68119047Y-136072142D01*
X68166666Y-136119761D01*
X68261904Y-136167380D01*
X68404761Y-136167380D01*
X67214285Y-135500714D02*
X67214285Y-136167380D01*
X67642857Y-135500714D02*
X67642857Y-136024523D01*
X67595238Y-136119761D01*
X67500000Y-136167380D01*
X67357142Y-136167380D01*
X67261904Y-136119761D01*
X67214285Y-136072142D01*
X66880952Y-135500714D02*
X66500000Y-135500714D01*
X66738095Y-135167380D02*
X66738095Y-136024523D01*
X66690476Y-136119761D01*
X66595238Y-136167380D01*
X66500000Y-136167380D01*
X65404761Y-136167380D02*
X65404761Y-135167380D01*
X65404761Y-135548333D02*
X65309523Y-135500714D01*
X65119047Y-135500714D01*
X65023809Y-135548333D01*
X64976190Y-135595952D01*
X64928571Y-135691190D01*
X64928571Y-135976904D01*
X64976190Y-136072142D01*
X65023809Y-136119761D01*
X65119047Y-136167380D01*
X65309523Y-136167380D01*
X65404761Y-136119761D01*
X64357142Y-136167380D02*
X64452380Y-136119761D01*
X64500000Y-136072142D01*
X64547619Y-135976904D01*
X64547619Y-135691190D01*
X64500000Y-135595952D01*
X64452380Y-135548333D01*
X64357142Y-135500714D01*
X64214285Y-135500714D01*
X64119047Y-135548333D01*
X64071428Y-135595952D01*
X64023809Y-135691190D01*
X64023809Y-135976904D01*
X64071428Y-136072142D01*
X64119047Y-136119761D01*
X64214285Y-136167380D01*
X64357142Y-136167380D01*
X63166666Y-136167380D02*
X63166666Y-135643571D01*
X63214285Y-135548333D01*
X63309523Y-135500714D01*
X63500000Y-135500714D01*
X63595238Y-135548333D01*
X63166666Y-136119761D02*
X63261904Y-136167380D01*
X63500000Y-136167380D01*
X63595238Y-136119761D01*
X63642857Y-136024523D01*
X63642857Y-135929285D01*
X63595238Y-135834047D01*
X63500000Y-135786428D01*
X63261904Y-135786428D01*
X63166666Y-135738809D01*
X62690476Y-136167380D02*
X62690476Y-135500714D01*
X62690476Y-135691190D02*
X62642857Y-135595952D01*
X62595238Y-135548333D01*
X62500000Y-135500714D01*
X62404761Y-135500714D01*
X61642857Y-136167380D02*
X61642857Y-135167380D01*
X61642857Y-136119761D02*
X61738095Y-136167380D01*
X61928571Y-136167380D01*
X62023809Y-136119761D01*
X62071428Y-136072142D01*
X62119047Y-135976904D01*
X62119047Y-135691190D01*
X62071428Y-135595952D01*
X62023809Y-135548333D01*
X61928571Y-135500714D01*
X61738095Y-135500714D01*
X61642857Y-135548333D01*
X85595238Y-136912619D02*
X85547619Y-136865000D01*
X85452380Y-136817380D01*
X85214285Y-136817380D01*
X85119047Y-136865000D01*
X85071428Y-136912619D01*
X85023809Y-137007857D01*
X85023809Y-137103095D01*
X85071428Y-137245952D01*
X85642857Y-137817380D01*
X85023809Y-137817380D01*
X84404761Y-136817380D02*
X84309523Y-136817380D01*
X84214285Y-136865000D01*
X84166666Y-136912619D01*
X84119047Y-137007857D01*
X84071428Y-137198333D01*
X84071428Y-137436428D01*
X84119047Y-137626904D01*
X84166666Y-137722142D01*
X84214285Y-137769761D01*
X84309523Y-137817380D01*
X84404761Y-137817380D01*
X84500000Y-137769761D01*
X84547619Y-137722142D01*
X84595238Y-137626904D01*
X84642857Y-137436428D01*
X84642857Y-137198333D01*
X84595238Y-137007857D01*
X84547619Y-136912619D01*
X84500000Y-136865000D01*
X84404761Y-136817380D01*
X83690476Y-136912619D02*
X83642857Y-136865000D01*
X83547619Y-136817380D01*
X83309523Y-136817380D01*
X83214285Y-136865000D01*
X83166666Y-136912619D01*
X83119047Y-137007857D01*
X83119047Y-137103095D01*
X83166666Y-137245952D01*
X83738095Y-137817380D01*
X83119047Y-137817380D01*
X82500000Y-136817380D02*
X82404761Y-136817380D01*
X82309523Y-136865000D01*
X82261904Y-136912619D01*
X82214285Y-137007857D01*
X82166666Y-137198333D01*
X82166666Y-137436428D01*
X82214285Y-137626904D01*
X82261904Y-137722142D01*
X82309523Y-137769761D01*
X82404761Y-137817380D01*
X82500000Y-137817380D01*
X82595238Y-137769761D01*
X82642857Y-137722142D01*
X82690476Y-137626904D01*
X82738095Y-137436428D01*
X82738095Y-137198333D01*
X82690476Y-137007857D01*
X82642857Y-136912619D01*
X82595238Y-136865000D01*
X82500000Y-136817380D01*
X81547619Y-136817380D02*
X81452380Y-136817380D01*
X81357142Y-136865000D01*
X81309523Y-136912619D01*
X81261904Y-137007857D01*
X81214285Y-137198333D01*
X81214285Y-137436428D01*
X81261904Y-137626904D01*
X81309523Y-137722142D01*
X81357142Y-137769761D01*
X81452380Y-137817380D01*
X81547619Y-137817380D01*
X81642857Y-137769761D01*
X81690476Y-137722142D01*
X81738095Y-137626904D01*
X81785714Y-137436428D01*
X81785714Y-137198333D01*
X81738095Y-137007857D01*
X81690476Y-136912619D01*
X81642857Y-136865000D01*
X81547619Y-136817380D01*
X80357142Y-136817380D02*
X80547619Y-136817380D01*
X80642857Y-136865000D01*
X80690476Y-136912619D01*
X80785714Y-137055476D01*
X80833333Y-137245952D01*
X80833333Y-137626904D01*
X80785714Y-137722142D01*
X80738095Y-137769761D01*
X80642857Y-137817380D01*
X80452380Y-137817380D01*
X80357142Y-137769761D01*
X80309523Y-137722142D01*
X80261904Y-137626904D01*
X80261904Y-137388809D01*
X80309523Y-137293571D01*
X80357142Y-137245952D01*
X80452380Y-137198333D01*
X80642857Y-137198333D01*
X80738095Y-137245952D01*
X80785714Y-137293571D01*
X80833333Y-137388809D01*
X79309523Y-137817380D02*
X79880952Y-137817380D01*
X79595238Y-137817380D02*
X79595238Y-136817380D01*
X79690476Y-136960238D01*
X79785714Y-137055476D01*
X79880952Y-137103095D01*
X78833333Y-137817380D02*
X78642857Y-137817380D01*
X78547619Y-137769761D01*
X78500000Y-137722142D01*
X78404761Y-137579285D01*
X78357142Y-137388809D01*
X78357142Y-137007857D01*
X78404761Y-136912619D01*
X78452380Y-136865000D01*
X78547619Y-136817380D01*
X78738095Y-136817380D01*
X78833333Y-136865000D01*
X78880952Y-136912619D01*
X78928571Y-137007857D01*
X78928571Y-137245952D01*
X78880952Y-137341190D01*
X78833333Y-137388809D01*
X78738095Y-137436428D01*
X78547619Y-137436428D01*
X78452380Y-137388809D01*
X78404761Y-137341190D01*
X78357142Y-137245952D01*
X78166666Y-137912619D02*
X77404761Y-137912619D01*
X77166666Y-137817380D02*
X77166666Y-137150714D01*
X77166666Y-137341190D02*
X77119047Y-137245952D01*
X77071428Y-137198333D01*
X76976190Y-137150714D01*
X76880952Y-137150714D01*
X76166666Y-137769761D02*
X76261904Y-137817380D01*
X76452380Y-137817380D01*
X76547619Y-137769761D01*
X76595238Y-137674523D01*
X76595238Y-137293571D01*
X76547619Y-137198333D01*
X76452380Y-137150714D01*
X76261904Y-137150714D01*
X76166666Y-137198333D01*
X76119047Y-137293571D01*
X76119047Y-137388809D01*
X76595238Y-137484047D01*
X75785714Y-137150714D02*
X75547619Y-137817380D01*
X75309523Y-137150714D01*
X74404761Y-137817380D02*
X74976190Y-137817380D01*
X74690476Y-137817380D02*
X74690476Y-136817380D01*
X74785714Y-136960238D01*
X74880952Y-137055476D01*
X74976190Y-137103095D01*
D11*
%TO.C,G\u002A\u002A\u002A*%
G36*
X58191606Y-50634674D02*
G01*
X58136709Y-50638459D01*
X58087926Y-50644681D01*
X58051889Y-50652732D01*
X57988696Y-50680377D01*
X57936654Y-50720195D01*
X57896852Y-50770999D01*
X57870380Y-50831600D01*
X57863900Y-50857656D01*
X57860975Y-50881794D01*
X57858551Y-50922203D01*
X57856644Y-50978229D01*
X57855272Y-51049219D01*
X57854452Y-51134517D01*
X57854200Y-51226279D01*
X57854200Y-51546600D01*
X58040467Y-51546600D01*
X58040467Y-51469835D01*
X58070035Y-51499404D01*
X58105447Y-51525657D01*
X58143538Y-51542019D01*
X58181076Y-51549367D01*
X58228980Y-51553407D01*
X58281003Y-51554098D01*
X58330895Y-51551403D01*
X58372409Y-51545282D01*
X58379732Y-51543489D01*
X58444434Y-51518127D01*
X58498189Y-51479847D01*
X58541090Y-51428573D01*
X58562398Y-51389967D01*
X58573638Y-51361188D01*
X58579813Y-51331070D01*
X58582129Y-51292881D01*
X58582251Y-51279135D01*
X58581886Y-51263070D01*
X58412023Y-51263070D01*
X58408525Y-51300062D01*
X58390394Y-51332710D01*
X58358781Y-51358967D01*
X58314834Y-51376785D01*
X58313657Y-51377087D01*
X58286644Y-51380995D01*
X58249929Y-51382496D01*
X58208571Y-51381824D01*
X58167628Y-51379211D01*
X58132160Y-51374889D01*
X58107224Y-51369094D01*
X58103128Y-51367393D01*
X58077252Y-51350450D01*
X58059602Y-51327354D01*
X58048647Y-51294859D01*
X58042862Y-51249718D01*
X58042131Y-51237761D01*
X58038343Y-51165600D01*
X58176988Y-51165786D01*
X58242269Y-51166733D01*
X58292932Y-51169768D01*
X58331228Y-51175477D01*
X58359406Y-51184446D01*
X58379715Y-51197260D01*
X58394406Y-51214504D01*
X58399739Y-51223781D01*
X58412023Y-51263070D01*
X58581886Y-51263070D01*
X58581387Y-51241127D01*
X58577667Y-51212861D01*
X58569559Y-51187201D01*
X58556442Y-51158825D01*
X58530344Y-51115160D01*
X58499103Y-51081579D01*
X58458099Y-51053722D01*
X58429934Y-51039363D01*
X58413366Y-51031913D01*
X58397825Y-51026317D01*
X58380513Y-51022260D01*
X58358633Y-51019428D01*
X58329387Y-51017504D01*
X58289978Y-51016172D01*
X58237609Y-51015118D01*
X58211074Y-51014683D01*
X58038781Y-51011932D01*
X58041741Y-50941276D01*
X58043929Y-50904645D01*
X58047554Y-50880348D01*
X58053774Y-50863788D01*
X58063748Y-50850368D01*
X58064995Y-50849023D01*
X58089050Y-50829575D01*
X58120149Y-50816516D01*
X58161257Y-50809065D01*
X58215342Y-50806440D01*
X58226733Y-50806420D01*
X58268398Y-50807317D01*
X58298223Y-50810186D01*
X58321268Y-50815861D01*
X58342588Y-50825175D01*
X58343563Y-50825680D01*
X58366073Y-50839404D01*
X58381562Y-50852544D01*
X58384872Y-50857436D01*
X58389638Y-50864617D01*
X58397851Y-50865672D01*
X58411762Y-50859509D01*
X58433618Y-50845034D01*
X58465668Y-50821154D01*
X58476334Y-50812973D01*
X58505358Y-50790330D01*
X58522888Y-50775142D01*
X58530949Y-50764664D01*
X58531565Y-50756155D01*
X58526760Y-50746872D01*
X58525994Y-50745694D01*
X58497225Y-50714078D01*
X58455675Y-50684868D01*
X58405498Y-50660397D01*
X58350845Y-50642999D01*
X58338379Y-50640302D01*
X58297900Y-50635358D01*
X58247156Y-50633561D01*
X58191606Y-50634674D01*
G37*
X58191606Y-50634674D02*
X58136709Y-50638459D01*
X58087926Y-50644681D01*
X58051889Y-50652732D01*
X57988696Y-50680377D01*
X57936654Y-50720195D01*
X57896852Y-50770999D01*
X57870380Y-50831600D01*
X57863900Y-50857656D01*
X57860975Y-50881794D01*
X57858551Y-50922203D01*
X57856644Y-50978229D01*
X57855272Y-51049219D01*
X57854452Y-51134517D01*
X57854200Y-51226279D01*
X57854200Y-51546600D01*
X58040467Y-51546600D01*
X58040467Y-51469835D01*
X58070035Y-51499404D01*
X58105447Y-51525657D01*
X58143538Y-51542019D01*
X58181076Y-51549367D01*
X58228980Y-51553407D01*
X58281003Y-51554098D01*
X58330895Y-51551403D01*
X58372409Y-51545282D01*
X58379732Y-51543489D01*
X58444434Y-51518127D01*
X58498189Y-51479847D01*
X58541090Y-51428573D01*
X58562398Y-51389967D01*
X58573638Y-51361188D01*
X58579813Y-51331070D01*
X58582129Y-51292881D01*
X58582251Y-51279135D01*
X58581886Y-51263070D01*
X58412023Y-51263070D01*
X58408525Y-51300062D01*
X58390394Y-51332710D01*
X58358781Y-51358967D01*
X58314834Y-51376785D01*
X58313657Y-51377087D01*
X58286644Y-51380995D01*
X58249929Y-51382496D01*
X58208571Y-51381824D01*
X58167628Y-51379211D01*
X58132160Y-51374889D01*
X58107224Y-51369094D01*
X58103128Y-51367393D01*
X58077252Y-51350450D01*
X58059602Y-51327354D01*
X58048647Y-51294859D01*
X58042862Y-51249718D01*
X58042131Y-51237761D01*
X58038343Y-51165600D01*
X58176988Y-51165786D01*
X58242269Y-51166733D01*
X58292932Y-51169768D01*
X58331228Y-51175477D01*
X58359406Y-51184446D01*
X58379715Y-51197260D01*
X58394406Y-51214504D01*
X58399739Y-51223781D01*
X58412023Y-51263070D01*
X58581886Y-51263070D01*
X58581387Y-51241127D01*
X58577667Y-51212861D01*
X58569559Y-51187201D01*
X58556442Y-51158825D01*
X58530344Y-51115160D01*
X58499103Y-51081579D01*
X58458099Y-51053722D01*
X58429934Y-51039363D01*
X58413366Y-51031913D01*
X58397825Y-51026317D01*
X58380513Y-51022260D01*
X58358633Y-51019428D01*
X58329387Y-51017504D01*
X58289978Y-51016172D01*
X58237609Y-51015118D01*
X58211074Y-51014683D01*
X58038781Y-51011932D01*
X58041741Y-50941276D01*
X58043929Y-50904645D01*
X58047554Y-50880348D01*
X58053774Y-50863788D01*
X58063748Y-50850368D01*
X58064995Y-50849023D01*
X58089050Y-50829575D01*
X58120149Y-50816516D01*
X58161257Y-50809065D01*
X58215342Y-50806440D01*
X58226733Y-50806420D01*
X58268398Y-50807317D01*
X58298223Y-50810186D01*
X58321268Y-50815861D01*
X58342588Y-50825175D01*
X58343563Y-50825680D01*
X58366073Y-50839404D01*
X58381562Y-50852544D01*
X58384872Y-50857436D01*
X58389638Y-50864617D01*
X58397851Y-50865672D01*
X58411762Y-50859509D01*
X58433618Y-50845034D01*
X58465668Y-50821154D01*
X58476334Y-50812973D01*
X58505358Y-50790330D01*
X58522888Y-50775142D01*
X58530949Y-50764664D01*
X58531565Y-50756155D01*
X58526760Y-50746872D01*
X58525994Y-50745694D01*
X58497225Y-50714078D01*
X58455675Y-50684868D01*
X58405498Y-50660397D01*
X58350845Y-50642999D01*
X58338379Y-50640302D01*
X58297900Y-50635358D01*
X58247156Y-50633561D01*
X58191606Y-50634674D01*
G36*
X56321734Y-51546600D02*
G01*
X56508000Y-51546600D01*
X56508000Y-51460510D01*
X56542473Y-51487813D01*
X56603339Y-51525861D01*
X56669842Y-51547961D01*
X56736600Y-51554299D01*
X56773686Y-51552579D01*
X56809385Y-51548429D01*
X56835455Y-51542879D01*
X56887654Y-51519434D01*
X56936794Y-51484340D01*
X56978904Y-51441303D01*
X57010011Y-51394027D01*
X57019884Y-51370867D01*
X57028047Y-51337176D01*
X57034563Y-51290158D01*
X57039412Y-51233116D01*
X57042569Y-51169350D01*
X57044012Y-51102163D01*
X57043975Y-51093633D01*
X56858803Y-51093633D01*
X56858316Y-51149063D01*
X56856652Y-51191036D01*
X56853506Y-51223005D01*
X56848573Y-51248426D01*
X56843719Y-51264688D01*
X56822042Y-51307627D01*
X56791161Y-51340721D01*
X56754138Y-51361044D01*
X56738898Y-51364842D01*
X56715918Y-51369013D01*
X56700116Y-51372458D01*
X56698500Y-51372925D01*
X56678215Y-51374046D01*
X56649106Y-51369513D01*
X56617721Y-51360769D01*
X56590611Y-51349255D01*
X56590357Y-51349117D01*
X56564553Y-51329352D01*
X56542939Y-51299010D01*
X56535445Y-51284652D01*
X56525972Y-51263897D01*
X56519355Y-51244437D01*
X56514958Y-51222332D01*
X56512147Y-51193643D01*
X56510286Y-51154428D01*
X56509320Y-51122753D01*
X56509589Y-51040095D01*
X56515731Y-50972420D01*
X56528287Y-50918639D01*
X56547800Y-50877665D01*
X56574812Y-50848407D01*
X56609865Y-50829777D01*
X56653501Y-50820685D01*
X56659996Y-50820135D01*
X56711034Y-50819196D01*
X56750410Y-50825447D01*
X56782208Y-50839852D01*
X56799732Y-50853146D01*
X56820505Y-50875073D01*
X56836067Y-50901145D01*
X56847049Y-50933921D01*
X56854078Y-50975964D01*
X56857785Y-51029837D01*
X56858803Y-51093633D01*
X57043975Y-51093633D01*
X57043719Y-51034855D01*
X57041668Y-50970727D01*
X57037836Y-50913082D01*
X57032200Y-50865221D01*
X57024738Y-50830444D01*
X57023590Y-50826933D01*
X56994911Y-50769156D01*
X56952084Y-50717565D01*
X56897523Y-50674812D01*
X56872067Y-50660324D01*
X56847679Y-50648776D01*
X56825834Y-50641660D01*
X56801007Y-50637935D01*
X56767671Y-50636563D01*
X56745067Y-50636433D01*
X56703840Y-50637121D01*
X56673802Y-50639843D01*
X56649243Y-50645587D01*
X56624450Y-50655339D01*
X56617680Y-50658456D01*
X56585511Y-50675819D01*
X56554256Y-50696301D01*
X56539364Y-50708016D01*
X56508000Y-50735554D01*
X56508000Y-50276600D01*
X56321734Y-50276600D01*
X56321734Y-51546600D01*
G37*
X56321734Y-51546600D02*
X56508000Y-51546600D01*
X56508000Y-51460510D01*
X56542473Y-51487813D01*
X56603339Y-51525861D01*
X56669842Y-51547961D01*
X56736600Y-51554299D01*
X56773686Y-51552579D01*
X56809385Y-51548429D01*
X56835455Y-51542879D01*
X56887654Y-51519434D01*
X56936794Y-51484340D01*
X56978904Y-51441303D01*
X57010011Y-51394027D01*
X57019884Y-51370867D01*
X57028047Y-51337176D01*
X57034563Y-51290158D01*
X57039412Y-51233116D01*
X57042569Y-51169350D01*
X57044012Y-51102163D01*
X57043975Y-51093633D01*
X56858803Y-51093633D01*
X56858316Y-51149063D01*
X56856652Y-51191036D01*
X56853506Y-51223005D01*
X56848573Y-51248426D01*
X56843719Y-51264688D01*
X56822042Y-51307627D01*
X56791161Y-51340721D01*
X56754138Y-51361044D01*
X56738898Y-51364842D01*
X56715918Y-51369013D01*
X56700116Y-51372458D01*
X56698500Y-51372925D01*
X56678215Y-51374046D01*
X56649106Y-51369513D01*
X56617721Y-51360769D01*
X56590611Y-51349255D01*
X56590357Y-51349117D01*
X56564553Y-51329352D01*
X56542939Y-51299010D01*
X56535445Y-51284652D01*
X56525972Y-51263897D01*
X56519355Y-51244437D01*
X56514958Y-51222332D01*
X56512147Y-51193643D01*
X56510286Y-51154428D01*
X56509320Y-51122753D01*
X56509589Y-51040095D01*
X56515731Y-50972420D01*
X56528287Y-50918639D01*
X56547800Y-50877665D01*
X56574812Y-50848407D01*
X56609865Y-50829777D01*
X56653501Y-50820685D01*
X56659996Y-50820135D01*
X56711034Y-50819196D01*
X56750410Y-50825447D01*
X56782208Y-50839852D01*
X56799732Y-50853146D01*
X56820505Y-50875073D01*
X56836067Y-50901145D01*
X56847049Y-50933921D01*
X56854078Y-50975964D01*
X56857785Y-51029837D01*
X56858803Y-51093633D01*
X57043975Y-51093633D01*
X57043719Y-51034855D01*
X57041668Y-50970727D01*
X57037836Y-50913082D01*
X57032200Y-50865221D01*
X57024738Y-50830444D01*
X57023590Y-50826933D01*
X56994911Y-50769156D01*
X56952084Y-50717565D01*
X56897523Y-50674812D01*
X56872067Y-50660324D01*
X56847679Y-50648776D01*
X56825834Y-50641660D01*
X56801007Y-50637935D01*
X56767671Y-50636563D01*
X56745067Y-50636433D01*
X56703840Y-50637121D01*
X56673802Y-50639843D01*
X56649243Y-50645587D01*
X56624450Y-50655339D01*
X56617680Y-50658456D01*
X56585511Y-50675819D01*
X56554256Y-50696301D01*
X56539364Y-50708016D01*
X56508000Y-50735554D01*
X56508000Y-50276600D01*
X56321734Y-50276600D01*
X56321734Y-51546600D01*
G36*
X54526264Y-50636951D02*
G01*
X54487620Y-50638203D01*
X54457436Y-50640941D01*
X54431481Y-50645621D01*
X54405523Y-50652698D01*
X54393428Y-50656552D01*
X54329360Y-50685457D01*
X54277227Y-50726149D01*
X54237434Y-50778297D01*
X54232183Y-50787789D01*
X54209300Y-50831167D01*
X54206837Y-51188883D01*
X54204375Y-51546600D01*
X54391333Y-51546600D01*
X54391333Y-51475698D01*
X54414617Y-51497483D01*
X54440364Y-51519114D01*
X54466147Y-51534172D01*
X54495994Y-51543887D01*
X54533935Y-51549493D01*
X54584000Y-51552221D01*
X54594533Y-51552500D01*
X54653948Y-51552432D01*
X54698915Y-51549155D01*
X54725767Y-51543627D01*
X54794480Y-51513574D01*
X54849854Y-51473121D01*
X54891955Y-51422212D01*
X54909372Y-51389967D01*
X54924403Y-51340585D01*
X54929584Y-51285437D01*
X54754908Y-51285437D01*
X54742996Y-51318239D01*
X54719182Y-51347037D01*
X54683602Y-51368764D01*
X54672139Y-51372973D01*
X54639453Y-51379658D01*
X54597532Y-51382860D01*
X54551604Y-51382763D01*
X54506901Y-51379554D01*
X54468650Y-51373416D01*
X54442726Y-51364873D01*
X54418425Y-51345711D01*
X54402286Y-51316488D01*
X54393537Y-51275170D01*
X54391333Y-51229372D01*
X54391333Y-51165600D01*
X54519468Y-51165600D01*
X54570827Y-51166287D01*
X54616784Y-51168199D01*
X54653721Y-51171114D01*
X54678019Y-51174807D01*
X54680836Y-51175557D01*
X54717883Y-51193691D01*
X54742487Y-51220095D01*
X54754783Y-51251699D01*
X54754908Y-51285437D01*
X54929584Y-51285437D01*
X54929735Y-51283832D01*
X54925390Y-51226201D01*
X54911393Y-51174184D01*
X54908552Y-51167467D01*
X54876788Y-51116284D01*
X54832244Y-51073191D01*
X54778251Y-51041061D01*
X54749456Y-51030221D01*
X54726194Y-51023809D01*
X54702111Y-51019194D01*
X54673866Y-51016102D01*
X54638120Y-51014257D01*
X54591530Y-51013384D01*
X54542842Y-51013200D01*
X54391333Y-51013200D01*
X54391333Y-50942375D01*
X54392090Y-50904701D01*
X54394915Y-50879388D01*
X54400644Y-50861908D01*
X54408399Y-50849855D01*
X54432224Y-50829417D01*
X54467167Y-50815747D01*
X54515076Y-50808305D01*
X54556433Y-50806521D01*
X54609898Y-50807472D01*
X54650419Y-50812281D01*
X54681725Y-50821837D01*
X54707543Y-50837032D01*
X54717178Y-50844895D01*
X54746328Y-50870489D01*
X54814364Y-50818697D01*
X54842946Y-50796260D01*
X54865612Y-50777173D01*
X54879475Y-50763945D01*
X54882400Y-50759604D01*
X54875695Y-50747482D01*
X54857993Y-50729614D01*
X54832918Y-50708797D01*
X54804090Y-50687831D01*
X54775133Y-50669516D01*
X54749669Y-50656650D01*
X54748641Y-50656235D01*
X54727096Y-50648444D01*
X54705831Y-50643046D01*
X54681035Y-50639607D01*
X54648899Y-50637694D01*
X54605615Y-50636871D01*
X54577600Y-50636730D01*
X54526264Y-50636951D01*
G37*
X54526264Y-50636951D02*
X54487620Y-50638203D01*
X54457436Y-50640941D01*
X54431481Y-50645621D01*
X54405523Y-50652698D01*
X54393428Y-50656552D01*
X54329360Y-50685457D01*
X54277227Y-50726149D01*
X54237434Y-50778297D01*
X54232183Y-50787789D01*
X54209300Y-50831167D01*
X54206837Y-51188883D01*
X54204375Y-51546600D01*
X54391333Y-51546600D01*
X54391333Y-51475698D01*
X54414617Y-51497483D01*
X54440364Y-51519114D01*
X54466147Y-51534172D01*
X54495994Y-51543887D01*
X54533935Y-51549493D01*
X54584000Y-51552221D01*
X54594533Y-51552500D01*
X54653948Y-51552432D01*
X54698915Y-51549155D01*
X54725767Y-51543627D01*
X54794480Y-51513574D01*
X54849854Y-51473121D01*
X54891955Y-51422212D01*
X54909372Y-51389967D01*
X54924403Y-51340585D01*
X54929584Y-51285437D01*
X54754908Y-51285437D01*
X54742996Y-51318239D01*
X54719182Y-51347037D01*
X54683602Y-51368764D01*
X54672139Y-51372973D01*
X54639453Y-51379658D01*
X54597532Y-51382860D01*
X54551604Y-51382763D01*
X54506901Y-51379554D01*
X54468650Y-51373416D01*
X54442726Y-51364873D01*
X54418425Y-51345711D01*
X54402286Y-51316488D01*
X54393537Y-51275170D01*
X54391333Y-51229372D01*
X54391333Y-51165600D01*
X54519468Y-51165600D01*
X54570827Y-51166287D01*
X54616784Y-51168199D01*
X54653721Y-51171114D01*
X54678019Y-51174807D01*
X54680836Y-51175557D01*
X54717883Y-51193691D01*
X54742487Y-51220095D01*
X54754783Y-51251699D01*
X54754908Y-51285437D01*
X54929584Y-51285437D01*
X54929735Y-51283832D01*
X54925390Y-51226201D01*
X54911393Y-51174184D01*
X54908552Y-51167467D01*
X54876788Y-51116284D01*
X54832244Y-51073191D01*
X54778251Y-51041061D01*
X54749456Y-51030221D01*
X54726194Y-51023809D01*
X54702111Y-51019194D01*
X54673866Y-51016102D01*
X54638120Y-51014257D01*
X54591530Y-51013384D01*
X54542842Y-51013200D01*
X54391333Y-51013200D01*
X54391333Y-50942375D01*
X54392090Y-50904701D01*
X54394915Y-50879388D01*
X54400644Y-50861908D01*
X54408399Y-50849855D01*
X54432224Y-50829417D01*
X54467167Y-50815747D01*
X54515076Y-50808305D01*
X54556433Y-50806521D01*
X54609898Y-50807472D01*
X54650419Y-50812281D01*
X54681725Y-50821837D01*
X54707543Y-50837032D01*
X54717178Y-50844895D01*
X54746328Y-50870489D01*
X54814364Y-50818697D01*
X54842946Y-50796260D01*
X54865612Y-50777173D01*
X54879475Y-50763945D01*
X54882400Y-50759604D01*
X54875695Y-50747482D01*
X54857993Y-50729614D01*
X54832918Y-50708797D01*
X54804090Y-50687831D01*
X54775133Y-50669516D01*
X54749669Y-50656650D01*
X54748641Y-50656235D01*
X54727096Y-50648444D01*
X54705831Y-50643046D01*
X54681035Y-50639607D01*
X54648899Y-50637694D01*
X54605615Y-50636871D01*
X54577600Y-50636730D01*
X54526264Y-50636951D01*
G36*
X52973831Y-50636804D02*
G01*
X52943957Y-50638244D01*
X52920740Y-50641933D01*
X52899045Y-50648874D01*
X52873734Y-50660073D01*
X52858867Y-50667218D01*
X52790334Y-50708565D01*
X52735325Y-50759914D01*
X52693143Y-50822073D01*
X52663830Y-50893442D01*
X52655996Y-50923624D01*
X52650922Y-50956558D01*
X52648147Y-50996764D01*
X52647211Y-51048760D01*
X52647200Y-51056425D01*
X52647200Y-51165600D01*
X53208359Y-51165600D01*
X53203242Y-51208801D01*
X53188776Y-51265131D01*
X53160461Y-51312218D01*
X53119425Y-51348719D01*
X53066797Y-51373293D01*
X53064341Y-51374046D01*
X53006955Y-51384438D01*
X52950167Y-51380254D01*
X52892278Y-51361054D01*
X52831589Y-51326392D01*
X52803461Y-51306052D01*
X52792154Y-51307032D01*
X52770729Y-51319998D01*
X52738684Y-51345267D01*
X52730875Y-51351895D01*
X52703859Y-51375425D01*
X52682166Y-51395043D01*
X52668735Y-51408050D01*
X52665872Y-51411543D01*
X52670421Y-51420490D01*
X52685668Y-51436087D01*
X52708239Y-51455565D01*
X52734763Y-51476151D01*
X52761869Y-51495074D01*
X52783158Y-51507950D01*
X52814452Y-51522418D01*
X52851604Y-51536087D01*
X52871863Y-51542088D01*
X52913051Y-51549386D01*
X52963418Y-51553276D01*
X53016772Y-51553736D01*
X53066922Y-51550745D01*
X53107677Y-51544279D01*
X53112867Y-51542934D01*
X53187013Y-51514217D01*
X53250334Y-51472545D01*
X53302579Y-51418186D01*
X53343500Y-51351409D01*
X53372848Y-51272482D01*
X53376456Y-51258733D01*
X53382792Y-51220588D01*
X53386629Y-51170609D01*
X53388031Y-51113704D01*
X53387062Y-51054777D01*
X53383785Y-50998735D01*
X53382656Y-50988864D01*
X53206000Y-50988864D01*
X53206000Y-51013200D01*
X52831108Y-51013200D01*
X52836225Y-50969999D01*
X52850204Y-50916296D01*
X52877481Y-50870170D01*
X52916129Y-50834694D01*
X52924193Y-50829648D01*
X52970868Y-50810926D01*
X53021241Y-50805267D01*
X53071294Y-50811981D01*
X53117006Y-50830378D01*
X53154358Y-50859767D01*
X53163402Y-50870719D01*
X53182769Y-50904061D01*
X53197778Y-50943053D01*
X53205526Y-50979642D01*
X53206000Y-50988864D01*
X53382656Y-50988864D01*
X53378262Y-50950483D01*
X53372075Y-50920067D01*
X53342088Y-50839186D01*
X53299625Y-50769722D01*
X53255724Y-50721462D01*
X53213667Y-50686602D01*
X53172332Y-50662227D01*
X53127356Y-50646798D01*
X53074378Y-50638774D01*
X53015500Y-50636608D01*
X52973831Y-50636804D01*
G37*
X52973831Y-50636804D02*
X52943957Y-50638244D01*
X52920740Y-50641933D01*
X52899045Y-50648874D01*
X52873734Y-50660073D01*
X52858867Y-50667218D01*
X52790334Y-50708565D01*
X52735325Y-50759914D01*
X52693143Y-50822073D01*
X52663830Y-50893442D01*
X52655996Y-50923624D01*
X52650922Y-50956558D01*
X52648147Y-50996764D01*
X52647211Y-51048760D01*
X52647200Y-51056425D01*
X52647200Y-51165600D01*
X53208359Y-51165600D01*
X53203242Y-51208801D01*
X53188776Y-51265131D01*
X53160461Y-51312218D01*
X53119425Y-51348719D01*
X53066797Y-51373293D01*
X53064341Y-51374046D01*
X53006955Y-51384438D01*
X52950167Y-51380254D01*
X52892278Y-51361054D01*
X52831589Y-51326392D01*
X52803461Y-51306052D01*
X52792154Y-51307032D01*
X52770729Y-51319998D01*
X52738684Y-51345267D01*
X52730875Y-51351895D01*
X52703859Y-51375425D01*
X52682166Y-51395043D01*
X52668735Y-51408050D01*
X52665872Y-51411543D01*
X52670421Y-51420490D01*
X52685668Y-51436087D01*
X52708239Y-51455565D01*
X52734763Y-51476151D01*
X52761869Y-51495074D01*
X52783158Y-51507950D01*
X52814452Y-51522418D01*
X52851604Y-51536087D01*
X52871863Y-51542088D01*
X52913051Y-51549386D01*
X52963418Y-51553276D01*
X53016772Y-51553736D01*
X53066922Y-51550745D01*
X53107677Y-51544279D01*
X53112867Y-51542934D01*
X53187013Y-51514217D01*
X53250334Y-51472545D01*
X53302579Y-51418186D01*
X53343500Y-51351409D01*
X53372848Y-51272482D01*
X53376456Y-51258733D01*
X53382792Y-51220588D01*
X53386629Y-51170609D01*
X53388031Y-51113704D01*
X53387062Y-51054777D01*
X53383785Y-50998735D01*
X53382656Y-50988864D01*
X53206000Y-50988864D01*
X53206000Y-51013200D01*
X52831108Y-51013200D01*
X52836225Y-50969999D01*
X52850204Y-50916296D01*
X52877481Y-50870170D01*
X52916129Y-50834694D01*
X52924193Y-50829648D01*
X52970868Y-50810926D01*
X53021241Y-50805267D01*
X53071294Y-50811981D01*
X53117006Y-50830378D01*
X53154358Y-50859767D01*
X53163402Y-50870719D01*
X53182769Y-50904061D01*
X53197778Y-50943053D01*
X53205526Y-50979642D01*
X53206000Y-50988864D01*
X53382656Y-50988864D01*
X53378262Y-50950483D01*
X53372075Y-50920067D01*
X53342088Y-50839186D01*
X53299625Y-50769722D01*
X53255724Y-50721462D01*
X53213667Y-50686602D01*
X53172332Y-50662227D01*
X53127356Y-50646798D01*
X53074378Y-50638774D01*
X53015500Y-50636608D01*
X52973831Y-50636804D01*
G36*
X58973613Y-49207106D02*
G01*
X58943346Y-49210886D01*
X58916728Y-49218701D01*
X58895600Y-49227741D01*
X58832603Y-49265231D01*
X58783305Y-49312603D01*
X58747806Y-49369741D01*
X58730372Y-49418650D01*
X58723725Y-49453987D01*
X58718343Y-49502335D01*
X58714358Y-49559812D01*
X58711900Y-49622532D01*
X58711100Y-49686613D01*
X58712089Y-49748170D01*
X58714999Y-49803320D01*
X58716742Y-49822840D01*
X58726251Y-49889281D01*
X58740511Y-49942786D01*
X58760989Y-49987029D01*
X58789154Y-50025685D01*
X58804129Y-50041640D01*
X58858896Y-50085214D01*
X58919835Y-50113990D01*
X58984737Y-50127885D01*
X59051387Y-50126814D01*
X59117575Y-50110691D01*
X59181090Y-50079431D01*
X59212148Y-50057309D01*
X59231641Y-50042215D01*
X59244975Y-50032728D01*
X59248131Y-50031066D01*
X59248788Y-50039240D01*
X59249396Y-50062590D01*
X59249941Y-50099360D01*
X59250408Y-50147791D01*
X59250781Y-50206127D01*
X59251044Y-50272612D01*
X59251182Y-50345487D01*
X59251200Y-50383438D01*
X59251200Y-50735809D01*
X59223858Y-50709077D01*
X59200422Y-50690105D01*
X59169714Y-50670196D01*
X59149774Y-50659389D01*
X59125665Y-50648503D01*
X59103697Y-50641692D01*
X59078586Y-50638034D01*
X59045047Y-50636605D01*
X59018367Y-50636433D01*
X58977768Y-50636894D01*
X58948778Y-50638939D01*
X58926082Y-50643559D01*
X58904367Y-50651745D01*
X58884282Y-50661450D01*
X58833605Y-50694815D01*
X58787414Y-50739542D01*
X58750361Y-50790597D01*
X58733358Y-50824845D01*
X58728461Y-50837527D01*
X58724443Y-50849973D01*
X58721199Y-50863964D01*
X58718628Y-50881283D01*
X58716625Y-50903715D01*
X58715088Y-50933040D01*
X58713913Y-50971044D01*
X58712998Y-51019508D01*
X58712238Y-51080215D01*
X58711531Y-51154949D01*
X58711066Y-51210050D01*
X58708279Y-51546600D01*
X58895600Y-51546600D01*
X58895647Y-51260850D01*
X58895914Y-51186040D01*
X58896652Y-51117821D01*
X58897811Y-51058108D01*
X58899339Y-51008815D01*
X58901183Y-50971857D01*
X58903293Y-50949147D01*
X58904203Y-50944471D01*
X58925855Y-50893801D01*
X58958758Y-50855623D01*
X59002082Y-50830559D01*
X59054997Y-50819231D01*
X59071621Y-50818606D01*
X59128305Y-50825431D01*
X59175319Y-50845980D01*
X59212127Y-50879880D01*
X59238190Y-50926761D01*
X59241564Y-50936147D01*
X59244694Y-50954579D01*
X59247207Y-50989409D01*
X59249106Y-51040750D01*
X59250396Y-51108715D01*
X59251080Y-51193417D01*
X59251200Y-51255763D01*
X59251200Y-51546600D01*
X59437527Y-51546600D01*
X59435380Y-50380316D01*
X59434068Y-49667000D01*
X59246926Y-49667000D01*
X59246736Y-49719746D01*
X59245963Y-49758841D01*
X59244247Y-49787568D01*
X59241228Y-49809206D01*
X59236548Y-49827038D01*
X59229847Y-49844345D01*
X59226730Y-49851389D01*
X59201576Y-49893779D01*
X59169473Y-49922526D01*
X59128385Y-49938737D01*
X59076269Y-49943520D01*
X59058325Y-49942901D01*
X59017572Y-49937718D01*
X58986087Y-49926305D01*
X58972865Y-49918476D01*
X58944157Y-49892787D01*
X58922579Y-49857641D01*
X58907754Y-49811595D01*
X58899302Y-49753208D01*
X58896847Y-49681038D01*
X58897987Y-49633133D01*
X58901259Y-49575716D01*
X58906360Y-49531624D01*
X58914093Y-49497281D01*
X58925260Y-49469111D01*
X58940508Y-49443763D01*
X58969097Y-49416536D01*
X59008349Y-49397961D01*
X59053957Y-49388772D01*
X59101615Y-49389701D01*
X59147017Y-49401483D01*
X59158390Y-49406650D01*
X59182359Y-49421321D01*
X59200438Y-49440156D01*
X59217531Y-49468580D01*
X59221567Y-49476500D01*
X59230946Y-49495747D01*
X59237674Y-49512284D01*
X59242191Y-49529410D01*
X59244935Y-49550425D01*
X59246346Y-49578629D01*
X59246863Y-49617321D01*
X59246926Y-49667000D01*
X59434068Y-49667000D01*
X59433234Y-49214033D01*
X59251200Y-49209227D01*
X59251200Y-49304253D01*
X59215889Y-49274027D01*
X59164072Y-49238607D01*
X59105842Y-49216499D01*
X59038494Y-49206795D01*
X59014133Y-49206159D01*
X58973613Y-49207106D01*
G37*
X58973613Y-49207106D02*
X58943346Y-49210886D01*
X58916728Y-49218701D01*
X58895600Y-49227741D01*
X58832603Y-49265231D01*
X58783305Y-49312603D01*
X58747806Y-49369741D01*
X58730372Y-49418650D01*
X58723725Y-49453987D01*
X58718343Y-49502335D01*
X58714358Y-49559812D01*
X58711900Y-49622532D01*
X58711100Y-49686613D01*
X58712089Y-49748170D01*
X58714999Y-49803320D01*
X58716742Y-49822840D01*
X58726251Y-49889281D01*
X58740511Y-49942786D01*
X58760989Y-49987029D01*
X58789154Y-50025685D01*
X58804129Y-50041640D01*
X58858896Y-50085214D01*
X58919835Y-50113990D01*
X58984737Y-50127885D01*
X59051387Y-50126814D01*
X59117575Y-50110691D01*
X59181090Y-50079431D01*
X59212148Y-50057309D01*
X59231641Y-50042215D01*
X59244975Y-50032728D01*
X59248131Y-50031066D01*
X59248788Y-50039240D01*
X59249396Y-50062590D01*
X59249941Y-50099360D01*
X59250408Y-50147791D01*
X59250781Y-50206127D01*
X59251044Y-50272612D01*
X59251182Y-50345487D01*
X59251200Y-50383438D01*
X59251200Y-50735809D01*
X59223858Y-50709077D01*
X59200422Y-50690105D01*
X59169714Y-50670196D01*
X59149774Y-50659389D01*
X59125665Y-50648503D01*
X59103697Y-50641692D01*
X59078586Y-50638034D01*
X59045047Y-50636605D01*
X59018367Y-50636433D01*
X58977768Y-50636894D01*
X58948778Y-50638939D01*
X58926082Y-50643559D01*
X58904367Y-50651745D01*
X58884282Y-50661450D01*
X58833605Y-50694815D01*
X58787414Y-50739542D01*
X58750361Y-50790597D01*
X58733358Y-50824845D01*
X58728461Y-50837527D01*
X58724443Y-50849973D01*
X58721199Y-50863964D01*
X58718628Y-50881283D01*
X58716625Y-50903715D01*
X58715088Y-50933040D01*
X58713913Y-50971044D01*
X58712998Y-51019508D01*
X58712238Y-51080215D01*
X58711531Y-51154949D01*
X58711066Y-51210050D01*
X58708279Y-51546600D01*
X58895600Y-51546600D01*
X58895647Y-51260850D01*
X58895914Y-51186040D01*
X58896652Y-51117821D01*
X58897811Y-51058108D01*
X58899339Y-51008815D01*
X58901183Y-50971857D01*
X58903293Y-50949147D01*
X58904203Y-50944471D01*
X58925855Y-50893801D01*
X58958758Y-50855623D01*
X59002082Y-50830559D01*
X59054997Y-50819231D01*
X59071621Y-50818606D01*
X59128305Y-50825431D01*
X59175319Y-50845980D01*
X59212127Y-50879880D01*
X59238190Y-50926761D01*
X59241564Y-50936147D01*
X59244694Y-50954579D01*
X59247207Y-50989409D01*
X59249106Y-51040750D01*
X59250396Y-51108715D01*
X59251080Y-51193417D01*
X59251200Y-51255763D01*
X59251200Y-51546600D01*
X59437527Y-51546600D01*
X59435380Y-50380316D01*
X59434068Y-49667000D01*
X59246926Y-49667000D01*
X59246736Y-49719746D01*
X59245963Y-49758841D01*
X59244247Y-49787568D01*
X59241228Y-49809206D01*
X59236548Y-49827038D01*
X59229847Y-49844345D01*
X59226730Y-49851389D01*
X59201576Y-49893779D01*
X59169473Y-49922526D01*
X59128385Y-49938737D01*
X59076269Y-49943520D01*
X59058325Y-49942901D01*
X59017572Y-49937718D01*
X58986087Y-49926305D01*
X58972865Y-49918476D01*
X58944157Y-49892787D01*
X58922579Y-49857641D01*
X58907754Y-49811595D01*
X58899302Y-49753208D01*
X58896847Y-49681038D01*
X58897987Y-49633133D01*
X58901259Y-49575716D01*
X58906360Y-49531624D01*
X58914093Y-49497281D01*
X58925260Y-49469111D01*
X58940508Y-49443763D01*
X58969097Y-49416536D01*
X59008349Y-49397961D01*
X59053957Y-49388772D01*
X59101615Y-49389701D01*
X59147017Y-49401483D01*
X59158390Y-49406650D01*
X59182359Y-49421321D01*
X59200438Y-49440156D01*
X59217531Y-49468580D01*
X59221567Y-49476500D01*
X59230946Y-49495747D01*
X59237674Y-49512284D01*
X59242191Y-49529410D01*
X59244935Y-49550425D01*
X59246346Y-49578629D01*
X59246863Y-49617321D01*
X59246926Y-49667000D01*
X59434068Y-49667000D01*
X59433234Y-49214033D01*
X59251200Y-49209227D01*
X59251200Y-49304253D01*
X59215889Y-49274027D01*
X59164072Y-49238607D01*
X59105842Y-49216499D01*
X59038494Y-49206795D01*
X59014133Y-49206159D01*
X58973613Y-49207106D01*
G36*
X57204995Y-50636975D02*
G01*
X57176506Y-50639243D01*
X57153070Y-50644539D01*
X57128752Y-50654075D01*
X57106434Y-50664704D01*
X57079351Y-50679180D01*
X57059918Y-50691794D01*
X57051679Y-50700191D01*
X57051672Y-50701115D01*
X57057902Y-50710536D01*
X57072766Y-50729959D01*
X57093968Y-50756456D01*
X57116611Y-50783977D01*
X57178837Y-50858699D01*
X57213835Y-50838685D01*
X57251457Y-50824555D01*
X57296606Y-50818315D01*
X57341544Y-50820524D01*
X57368932Y-50827472D01*
X57404162Y-50848391D01*
X57435958Y-50881140D01*
X57457149Y-50915833D01*
X57461337Y-50926057D01*
X57464713Y-50937985D01*
X57467366Y-50953453D01*
X57469382Y-50974299D01*
X57470850Y-51002362D01*
X57471858Y-51039478D01*
X57472493Y-51087486D01*
X57472842Y-51148223D01*
X57472995Y-51223526D01*
X57473014Y-51248150D01*
X57473200Y-51546600D01*
X57659467Y-51546600D01*
X57659467Y-50640666D01*
X57473200Y-50640666D01*
X57473200Y-50735770D01*
X57438253Y-50704198D01*
X57399288Y-50673297D01*
X57360413Y-50652910D01*
X57316680Y-50641310D01*
X57263141Y-50636767D01*
X57244472Y-50636522D01*
X57204995Y-50636975D01*
G37*
X57204995Y-50636975D02*
X57176506Y-50639243D01*
X57153070Y-50644539D01*
X57128752Y-50654075D01*
X57106434Y-50664704D01*
X57079351Y-50679180D01*
X57059918Y-50691794D01*
X57051679Y-50700191D01*
X57051672Y-50701115D01*
X57057902Y-50710536D01*
X57072766Y-50729959D01*
X57093968Y-50756456D01*
X57116611Y-50783977D01*
X57178837Y-50858699D01*
X57213835Y-50838685D01*
X57251457Y-50824555D01*
X57296606Y-50818315D01*
X57341544Y-50820524D01*
X57368932Y-50827472D01*
X57404162Y-50848391D01*
X57435958Y-50881140D01*
X57457149Y-50915833D01*
X57461337Y-50926057D01*
X57464713Y-50937985D01*
X57467366Y-50953453D01*
X57469382Y-50974299D01*
X57470850Y-51002362D01*
X57471858Y-51039478D01*
X57472493Y-51087486D01*
X57472842Y-51148223D01*
X57472995Y-51223526D01*
X57473014Y-51248150D01*
X57473200Y-51546600D01*
X57659467Y-51546600D01*
X57659467Y-50640666D01*
X57473200Y-50640666D01*
X57473200Y-50735770D01*
X57438253Y-50704198D01*
X57399288Y-50673297D01*
X57360413Y-50652910D01*
X57316680Y-50641310D01*
X57263141Y-50636767D01*
X57244472Y-50636522D01*
X57204995Y-50636975D01*
G36*
X56128817Y-50642522D02*
G01*
X56030670Y-50644900D01*
X55945965Y-50956107D01*
X55926934Y-51025331D01*
X55909097Y-51088873D01*
X55892968Y-51145006D01*
X55879060Y-51192003D01*
X55867885Y-51228137D01*
X55859956Y-51251679D01*
X55855787Y-51260904D01*
X55855471Y-51260907D01*
X55849809Y-51249687D01*
X55841656Y-51227991D01*
X55836449Y-51212167D01*
X55830624Y-51193815D01*
X55820323Y-51161659D01*
X55806287Y-51118003D01*
X55789258Y-51065151D01*
X55769979Y-51005407D01*
X55749192Y-50941075D01*
X55737604Y-50905250D01*
X55651992Y-50640666D01*
X55518248Y-50640666D01*
X55487607Y-50735916D01*
X55476255Y-50771202D01*
X55460865Y-50819031D01*
X55442589Y-50875828D01*
X55422577Y-50938016D01*
X55401980Y-51002021D01*
X55388845Y-51042833D01*
X55370390Y-51099772D01*
X55353412Y-51151377D01*
X55338653Y-51195459D01*
X55326854Y-51229827D01*
X55318755Y-51252291D01*
X55315191Y-51260582D01*
X55311819Y-51254088D01*
X55304589Y-51232965D01*
X55294012Y-51198943D01*
X55280600Y-51153753D01*
X55264866Y-51099124D01*
X55247321Y-51036788D01*
X55228478Y-50968473D01*
X55225016Y-50955782D01*
X55140376Y-50644900D01*
X55045255Y-50642506D01*
X55000679Y-50641935D01*
X54971170Y-50642974D01*
X54954925Y-50645770D01*
X54950133Y-50650270D01*
X54952641Y-50660032D01*
X54959853Y-50684418D01*
X54971300Y-50721927D01*
X54986514Y-50771058D01*
X55005028Y-50830309D01*
X55026372Y-50898181D01*
X55050079Y-50973173D01*
X55075681Y-51053783D01*
X55091530Y-51103514D01*
X55232927Y-51546600D01*
X55395774Y-51546600D01*
X55488172Y-51237567D01*
X55508942Y-51168528D01*
X55528343Y-51104860D01*
X55545819Y-51048325D01*
X55560814Y-51000686D01*
X55572773Y-50963704D01*
X55581141Y-50939141D01*
X55585360Y-50928761D01*
X55585623Y-50928533D01*
X55589085Y-50936361D01*
X55596776Y-50958670D01*
X55608141Y-50993698D01*
X55622626Y-51039681D01*
X55639677Y-51094856D01*
X55658739Y-51157461D01*
X55679259Y-51225734D01*
X55682789Y-51237567D01*
X55774903Y-51546600D01*
X55937743Y-51546600D01*
X56050820Y-51193117D01*
X56075905Y-51114673D01*
X56100566Y-51037502D01*
X56124069Y-50963907D01*
X56145679Y-50896192D01*
X56164660Y-50836661D01*
X56180277Y-50787617D01*
X56191795Y-50751366D01*
X56195430Y-50739888D01*
X56226964Y-50640143D01*
X56128817Y-50642522D01*
G37*
X56128817Y-50642522D02*
X56030670Y-50644900D01*
X55945965Y-50956107D01*
X55926934Y-51025331D01*
X55909097Y-51088873D01*
X55892968Y-51145006D01*
X55879060Y-51192003D01*
X55867885Y-51228137D01*
X55859956Y-51251679D01*
X55855787Y-51260904D01*
X55855471Y-51260907D01*
X55849809Y-51249687D01*
X55841656Y-51227991D01*
X55836449Y-51212167D01*
X55830624Y-51193815D01*
X55820323Y-51161659D01*
X55806287Y-51118003D01*
X55789258Y-51065151D01*
X55769979Y-51005407D01*
X55749192Y-50941075D01*
X55737604Y-50905250D01*
X55651992Y-50640666D01*
X55518248Y-50640666D01*
X55487607Y-50735916D01*
X55476255Y-50771202D01*
X55460865Y-50819031D01*
X55442589Y-50875828D01*
X55422577Y-50938016D01*
X55401980Y-51002021D01*
X55388845Y-51042833D01*
X55370390Y-51099772D01*
X55353412Y-51151377D01*
X55338653Y-51195459D01*
X55326854Y-51229827D01*
X55318755Y-51252291D01*
X55315191Y-51260582D01*
X55311819Y-51254088D01*
X55304589Y-51232965D01*
X55294012Y-51198943D01*
X55280600Y-51153753D01*
X55264866Y-51099124D01*
X55247321Y-51036788D01*
X55228478Y-50968473D01*
X55225016Y-50955782D01*
X55140376Y-50644900D01*
X55045255Y-50642506D01*
X55000679Y-50641935D01*
X54971170Y-50642974D01*
X54954925Y-50645770D01*
X54950133Y-50650270D01*
X54952641Y-50660032D01*
X54959853Y-50684418D01*
X54971300Y-50721927D01*
X54986514Y-50771058D01*
X55005028Y-50830309D01*
X55026372Y-50898181D01*
X55050079Y-50973173D01*
X55075681Y-51053783D01*
X55091530Y-51103514D01*
X55232927Y-51546600D01*
X55395774Y-51546600D01*
X55488172Y-51237567D01*
X55508942Y-51168528D01*
X55528343Y-51104860D01*
X55545819Y-51048325D01*
X55560814Y-51000686D01*
X55572773Y-50963704D01*
X55581141Y-50939141D01*
X55585360Y-50928761D01*
X55585623Y-50928533D01*
X55589085Y-50936361D01*
X55596776Y-50958670D01*
X55608141Y-50993698D01*
X55622626Y-51039681D01*
X55639677Y-51094856D01*
X55658739Y-51157461D01*
X55679259Y-51225734D01*
X55682789Y-51237567D01*
X55774903Y-51546600D01*
X55937743Y-51546600D01*
X56050820Y-51193117D01*
X56075905Y-51114673D01*
X56100566Y-51037502D01*
X56124069Y-50963907D01*
X56145679Y-50896192D01*
X56164660Y-50836661D01*
X56180277Y-50787617D01*
X56191795Y-50751366D01*
X56195430Y-50739888D01*
X56226964Y-50640143D01*
X56128817Y-50642522D01*
G36*
X53543859Y-50635602D02*
G01*
X53480356Y-50650911D01*
X53430415Y-50675368D01*
X53391314Y-50700165D01*
X53455865Y-50776249D01*
X53481585Y-50805989D01*
X53503525Y-50830283D01*
X53519315Y-50846579D01*
X53526518Y-50852333D01*
X53537195Y-50848789D01*
X53556840Y-50839874D01*
X53565834Y-50835400D01*
X53602480Y-50823297D01*
X53645884Y-50818563D01*
X53688852Y-50821343D01*
X53724190Y-50831781D01*
X53725004Y-50832187D01*
X53759587Y-50853439D01*
X53784524Y-50879455D01*
X53801684Y-50907367D01*
X53806471Y-50916933D01*
X53810358Y-50927163D01*
X53813456Y-50939883D01*
X53815881Y-50956919D01*
X53817744Y-50980098D01*
X53819158Y-51011246D01*
X53820238Y-51052190D01*
X53821095Y-51104754D01*
X53821844Y-51170767D01*
X53822524Y-51243917D01*
X53825215Y-51546600D01*
X54001867Y-51546600D01*
X54001867Y-50640666D01*
X53824067Y-50640666D01*
X53824067Y-50735554D01*
X53792703Y-50708016D01*
X53738030Y-50670474D01*
X53676077Y-50645688D01*
X53610227Y-50633962D01*
X53543859Y-50635602D01*
G37*
X53543859Y-50635602D02*
X53480356Y-50650911D01*
X53430415Y-50675368D01*
X53391314Y-50700165D01*
X53455865Y-50776249D01*
X53481585Y-50805989D01*
X53503525Y-50830283D01*
X53519315Y-50846579D01*
X53526518Y-50852333D01*
X53537195Y-50848789D01*
X53556840Y-50839874D01*
X53565834Y-50835400D01*
X53602480Y-50823297D01*
X53645884Y-50818563D01*
X53688852Y-50821343D01*
X53724190Y-50831781D01*
X53725004Y-50832187D01*
X53759587Y-50853439D01*
X53784524Y-50879455D01*
X53801684Y-50907367D01*
X53806471Y-50916933D01*
X53810358Y-50927163D01*
X53813456Y-50939883D01*
X53815881Y-50956919D01*
X53817744Y-50980098D01*
X53819158Y-51011246D01*
X53820238Y-51052190D01*
X53821095Y-51104754D01*
X53821844Y-51170767D01*
X53822524Y-51243917D01*
X53825215Y-51546600D01*
X54001867Y-51546600D01*
X54001867Y-50640666D01*
X53824067Y-50640666D01*
X53824067Y-50735554D01*
X53792703Y-50708016D01*
X53738030Y-50670474D01*
X53676077Y-50645688D01*
X53610227Y-50633962D01*
X53543859Y-50635602D01*
G36*
X59906012Y-49205252D02*
G01*
X59834938Y-49222927D01*
X59769656Y-49253752D01*
X59711990Y-49296567D01*
X59663760Y-49350214D01*
X59626791Y-49413531D01*
X59602905Y-49485359D01*
X59598897Y-49506297D01*
X59593948Y-49550186D01*
X59591104Y-49604331D01*
X59590311Y-49663754D01*
X59591515Y-49723476D01*
X59594662Y-49778520D01*
X59599698Y-49823905D01*
X59602510Y-49839589D01*
X59619678Y-49901878D01*
X59643710Y-49953386D01*
X59677620Y-49999822D01*
X59699467Y-50023167D01*
X59760051Y-50072355D01*
X59828209Y-50106897D01*
X59902237Y-50126313D01*
X59980428Y-50130122D01*
X60047067Y-50121131D01*
X60118011Y-50098312D01*
X60180627Y-50061804D01*
X60225334Y-50023067D01*
X60262199Y-49980917D01*
X60290520Y-49935534D01*
X60311115Y-49884287D01*
X60324801Y-49824542D01*
X60332397Y-49753667D01*
X60334723Y-49671233D01*
X60334545Y-49664223D01*
X60147816Y-49664223D01*
X60147214Y-49692400D01*
X60145630Y-49742484D01*
X60143548Y-49779063D01*
X60140493Y-49805569D01*
X60135990Y-49825429D01*
X60129563Y-49842074D01*
X60125270Y-49850659D01*
X60093637Y-49893501D01*
X60051901Y-49924039D01*
X60002555Y-49941285D01*
X59948092Y-49944249D01*
X59907367Y-49937055D01*
X59858785Y-49915316D01*
X59819269Y-49880186D01*
X59799531Y-49850659D01*
X59791906Y-49834331D01*
X59786455Y-49816582D01*
X59782701Y-49793985D01*
X59780169Y-49763110D01*
X59778383Y-49720526D01*
X59777586Y-49692400D01*
X59776999Y-49632296D01*
X59778418Y-49580833D01*
X59781711Y-49541178D01*
X59784493Y-49524550D01*
X59802991Y-49476581D01*
X59833152Y-49438101D01*
X59872137Y-49409856D01*
X59917105Y-49392594D01*
X59965216Y-49387060D01*
X60013633Y-49394002D01*
X60059514Y-49414167D01*
X60095001Y-49442885D01*
X60114473Y-49465917D01*
X60128903Y-49490792D01*
X60138872Y-49520285D01*
X60144959Y-49557171D01*
X60147747Y-49604226D01*
X60147816Y-49664223D01*
X60334545Y-49664223D01*
X60332513Y-49584648D01*
X60325255Y-49512051D01*
X60312215Y-49451053D01*
X60292661Y-49399270D01*
X60265859Y-49354313D01*
X60231078Y-49313797D01*
X60222409Y-49305361D01*
X60173258Y-49264643D01*
X60122733Y-49235983D01*
X60063817Y-49215473D01*
X60058246Y-49213993D01*
X59981055Y-49201887D01*
X59906012Y-49205252D01*
G37*
X59906012Y-49205252D02*
X59834938Y-49222927D01*
X59769656Y-49253752D01*
X59711990Y-49296567D01*
X59663760Y-49350214D01*
X59626791Y-49413531D01*
X59602905Y-49485359D01*
X59598897Y-49506297D01*
X59593948Y-49550186D01*
X59591104Y-49604331D01*
X59590311Y-49663754D01*
X59591515Y-49723476D01*
X59594662Y-49778520D01*
X59599698Y-49823905D01*
X59602510Y-49839589D01*
X59619678Y-49901878D01*
X59643710Y-49953386D01*
X59677620Y-49999822D01*
X59699467Y-50023167D01*
X59760051Y-50072355D01*
X59828209Y-50106897D01*
X59902237Y-50126313D01*
X59980428Y-50130122D01*
X60047067Y-50121131D01*
X60118011Y-50098312D01*
X60180627Y-50061804D01*
X60225334Y-50023067D01*
X60262199Y-49980917D01*
X60290520Y-49935534D01*
X60311115Y-49884287D01*
X60324801Y-49824542D01*
X60332397Y-49753667D01*
X60334723Y-49671233D01*
X60334545Y-49664223D01*
X60147816Y-49664223D01*
X60147214Y-49692400D01*
X60145630Y-49742484D01*
X60143548Y-49779063D01*
X60140493Y-49805569D01*
X60135990Y-49825429D01*
X60129563Y-49842074D01*
X60125270Y-49850659D01*
X60093637Y-49893501D01*
X60051901Y-49924039D01*
X60002555Y-49941285D01*
X59948092Y-49944249D01*
X59907367Y-49937055D01*
X59858785Y-49915316D01*
X59819269Y-49880186D01*
X59799531Y-49850659D01*
X59791906Y-49834331D01*
X59786455Y-49816582D01*
X59782701Y-49793985D01*
X59780169Y-49763110D01*
X59778383Y-49720526D01*
X59777586Y-49692400D01*
X59776999Y-49632296D01*
X59778418Y-49580833D01*
X59781711Y-49541178D01*
X59784493Y-49524550D01*
X59802991Y-49476581D01*
X59833152Y-49438101D01*
X59872137Y-49409856D01*
X59917105Y-49392594D01*
X59965216Y-49387060D01*
X60013633Y-49394002D01*
X60059514Y-49414167D01*
X60095001Y-49442885D01*
X60114473Y-49465917D01*
X60128903Y-49490792D01*
X60138872Y-49520285D01*
X60144959Y-49557171D01*
X60147747Y-49604226D01*
X60147816Y-49664223D01*
X60334545Y-49664223D01*
X60332513Y-49584648D01*
X60325255Y-49512051D01*
X60312215Y-49451053D01*
X60292661Y-49399270D01*
X60265859Y-49354313D01*
X60231078Y-49313797D01*
X60222409Y-49305361D01*
X60173258Y-49264643D01*
X60122733Y-49235983D01*
X60063817Y-49215473D01*
X60058246Y-49213993D01*
X59981055Y-49201887D01*
X59906012Y-49205252D01*
G36*
X58177164Y-49205433D02*
G01*
X58156873Y-49208281D01*
X58082433Y-49227778D01*
X58017538Y-49260140D01*
X57959126Y-49306926D01*
X57954740Y-49311240D01*
X57915849Y-49354882D01*
X57886702Y-49399920D01*
X57866220Y-49449524D01*
X57853321Y-49506864D01*
X57846923Y-49575107D01*
X57845733Y-49630679D01*
X57845733Y-49734733D01*
X58406892Y-49734733D01*
X58401947Y-49776487D01*
X58387977Y-49832694D01*
X58361811Y-49879025D01*
X58325410Y-49914897D01*
X58280734Y-49939726D01*
X58229745Y-49952929D01*
X58174404Y-49953920D01*
X58116670Y-49942116D01*
X58058506Y-49916933D01*
X58018231Y-49890768D01*
X57991763Y-49870937D01*
X57926677Y-49926693D01*
X57861591Y-49982450D01*
X57885412Y-50007854D01*
X57938356Y-50052681D01*
X58002739Y-50088101D01*
X58075320Y-50113143D01*
X58152857Y-50126836D01*
X58232106Y-50128209D01*
X58272622Y-50123778D01*
X58348429Y-50104246D01*
X58414684Y-50071117D01*
X58470957Y-50025063D01*
X58516816Y-49966755D01*
X58551830Y-49896862D01*
X58575568Y-49816057D01*
X58587599Y-49725010D01*
X58587974Y-49633133D01*
X58584151Y-49582333D01*
X58406835Y-49582333D01*
X58032000Y-49582333D01*
X58032000Y-49560032D01*
X58039890Y-49511248D01*
X58061654Y-49464446D01*
X58094438Y-49424220D01*
X58134082Y-49395821D01*
X58173277Y-49383104D01*
X58219409Y-49378930D01*
X58265153Y-49383326D01*
X58301154Y-49395243D01*
X58345802Y-49427218D01*
X58378371Y-49470634D01*
X58398057Y-49524298D01*
X58401593Y-49544087D01*
X58406835Y-49582333D01*
X58584151Y-49582333D01*
X58582986Y-49566863D01*
X58574703Y-49512070D01*
X58561969Y-49463431D01*
X58543629Y-49415627D01*
X58538025Y-49403167D01*
X58500228Y-49340578D01*
X58450452Y-49288287D01*
X58390977Y-49247462D01*
X58324084Y-49219267D01*
X58252053Y-49204868D01*
X58177164Y-49205433D01*
G37*
X58177164Y-49205433D02*
X58156873Y-49208281D01*
X58082433Y-49227778D01*
X58017538Y-49260140D01*
X57959126Y-49306926D01*
X57954740Y-49311240D01*
X57915849Y-49354882D01*
X57886702Y-49399920D01*
X57866220Y-49449524D01*
X57853321Y-49506864D01*
X57846923Y-49575107D01*
X57845733Y-49630679D01*
X57845733Y-49734733D01*
X58406892Y-49734733D01*
X58401947Y-49776487D01*
X58387977Y-49832694D01*
X58361811Y-49879025D01*
X58325410Y-49914897D01*
X58280734Y-49939726D01*
X58229745Y-49952929D01*
X58174404Y-49953920D01*
X58116670Y-49942116D01*
X58058506Y-49916933D01*
X58018231Y-49890768D01*
X57991763Y-49870937D01*
X57926677Y-49926693D01*
X57861591Y-49982450D01*
X57885412Y-50007854D01*
X57938356Y-50052681D01*
X58002739Y-50088101D01*
X58075320Y-50113143D01*
X58152857Y-50126836D01*
X58232106Y-50128209D01*
X58272622Y-50123778D01*
X58348429Y-50104246D01*
X58414684Y-50071117D01*
X58470957Y-50025063D01*
X58516816Y-49966755D01*
X58551830Y-49896862D01*
X58575568Y-49816057D01*
X58587599Y-49725010D01*
X58587974Y-49633133D01*
X58584151Y-49582333D01*
X58406835Y-49582333D01*
X58032000Y-49582333D01*
X58032000Y-49560032D01*
X58039890Y-49511248D01*
X58061654Y-49464446D01*
X58094438Y-49424220D01*
X58134082Y-49395821D01*
X58173277Y-49383104D01*
X58219409Y-49378930D01*
X58265153Y-49383326D01*
X58301154Y-49395243D01*
X58345802Y-49427218D01*
X58378371Y-49470634D01*
X58398057Y-49524298D01*
X58401593Y-49544087D01*
X58406835Y-49582333D01*
X58584151Y-49582333D01*
X58582986Y-49566863D01*
X58574703Y-49512070D01*
X58561969Y-49463431D01*
X58543629Y-49415627D01*
X58538025Y-49403167D01*
X58500228Y-49340578D01*
X58450452Y-49288287D01*
X58390977Y-49247462D01*
X58324084Y-49219267D01*
X58252053Y-49204868D01*
X58177164Y-49205433D01*
G36*
X56005955Y-49206569D02*
G01*
X55933628Y-49221250D01*
X55863608Y-49243834D01*
X55800690Y-49272778D01*
X55750499Y-49305869D01*
X55725365Y-49326304D01*
X55756128Y-49363302D01*
X55778896Y-49390556D01*
X55801950Y-49417961D01*
X55811540Y-49429281D01*
X55836188Y-49458261D01*
X55882111Y-49432131D01*
X55949490Y-49400710D01*
X56017708Y-49383840D01*
X56092210Y-49380216D01*
X56097560Y-49380414D01*
X56137050Y-49383085D01*
X56164206Y-49387815D01*
X56183593Y-49395604D01*
X56192002Y-49401108D01*
X56214921Y-49426308D01*
X56228984Y-49458233D01*
X56232102Y-49490727D01*
X56228076Y-49507400D01*
X56215220Y-49528769D01*
X56195219Y-49544355D01*
X56165241Y-49555445D01*
X56122454Y-49563326D01*
X56099009Y-49566091D01*
X56031089Y-49573327D01*
X55977720Y-49579390D01*
X55936593Y-49584663D01*
X55905395Y-49589528D01*
X55881817Y-49594366D01*
X55863548Y-49599562D01*
X55848277Y-49605495D01*
X55841375Y-49608697D01*
X55788471Y-49642726D01*
X55748587Y-49687390D01*
X55721584Y-49742911D01*
X55707322Y-49809509D01*
X55706073Y-49823005D01*
X55708384Y-49890920D01*
X55725863Y-49951632D01*
X55758139Y-50004665D01*
X55804840Y-50049543D01*
X55865594Y-50085790D01*
X55930218Y-50110119D01*
X55973026Y-50119369D01*
X56025411Y-50125659D01*
X56080257Y-50128533D01*
X56130446Y-50127533D01*
X56156634Y-50124682D01*
X56237076Y-50105728D01*
X56315052Y-50076251D01*
X56385751Y-50038387D01*
X56438638Y-49999381D01*
X56475109Y-49967566D01*
X56349459Y-49843300D01*
X56303846Y-49877984D01*
X56245911Y-49914733D01*
X56184192Y-49938511D01*
X56114126Y-49950935D01*
X56093133Y-49952555D01*
X56032980Y-49953121D01*
X55985550Y-49946339D01*
X55947983Y-49931486D01*
X55917962Y-49908388D01*
X55899567Y-49886807D01*
X55891492Y-49865759D01*
X55889933Y-49842166D01*
X55892038Y-49815296D01*
X55900598Y-49797097D01*
X55914981Y-49782895D01*
X55925589Y-49774709D01*
X55937172Y-49768269D01*
X55952288Y-49763058D01*
X55973496Y-49758560D01*
X56003353Y-49754255D01*
X56044417Y-49749628D01*
X56099247Y-49744159D01*
X56112973Y-49742834D01*
X56155428Y-49737859D01*
X56195951Y-49731565D01*
X56228891Y-49724905D01*
X56243504Y-49720849D01*
X56304411Y-49692510D01*
X56353130Y-49653362D01*
X56388710Y-49604288D01*
X56402495Y-49572937D01*
X56411314Y-49533013D01*
X56414377Y-49484532D01*
X56411726Y-49434846D01*
X56403405Y-49391308D01*
X56401388Y-49384924D01*
X56374952Y-49332820D01*
X56334620Y-49287894D01*
X56282286Y-49251214D01*
X56219848Y-49223850D01*
X56149202Y-49206871D01*
X56075789Y-49201333D01*
X56005955Y-49206569D01*
G37*
X56005955Y-49206569D02*
X55933628Y-49221250D01*
X55863608Y-49243834D01*
X55800690Y-49272778D01*
X55750499Y-49305869D01*
X55725365Y-49326304D01*
X55756128Y-49363302D01*
X55778896Y-49390556D01*
X55801950Y-49417961D01*
X55811540Y-49429281D01*
X55836188Y-49458261D01*
X55882111Y-49432131D01*
X55949490Y-49400710D01*
X56017708Y-49383840D01*
X56092210Y-49380216D01*
X56097560Y-49380414D01*
X56137050Y-49383085D01*
X56164206Y-49387815D01*
X56183593Y-49395604D01*
X56192002Y-49401108D01*
X56214921Y-49426308D01*
X56228984Y-49458233D01*
X56232102Y-49490727D01*
X56228076Y-49507400D01*
X56215220Y-49528769D01*
X56195219Y-49544355D01*
X56165241Y-49555445D01*
X56122454Y-49563326D01*
X56099009Y-49566091D01*
X56031089Y-49573327D01*
X55977720Y-49579390D01*
X55936593Y-49584663D01*
X55905395Y-49589528D01*
X55881817Y-49594366D01*
X55863548Y-49599562D01*
X55848277Y-49605495D01*
X55841375Y-49608697D01*
X55788471Y-49642726D01*
X55748587Y-49687390D01*
X55721584Y-49742911D01*
X55707322Y-49809509D01*
X55706073Y-49823005D01*
X55708384Y-49890920D01*
X55725863Y-49951632D01*
X55758139Y-50004665D01*
X55804840Y-50049543D01*
X55865594Y-50085790D01*
X55930218Y-50110119D01*
X55973026Y-50119369D01*
X56025411Y-50125659D01*
X56080257Y-50128533D01*
X56130446Y-50127533D01*
X56156634Y-50124682D01*
X56237076Y-50105728D01*
X56315052Y-50076251D01*
X56385751Y-50038387D01*
X56438638Y-49999381D01*
X56475109Y-49967566D01*
X56349459Y-49843300D01*
X56303846Y-49877984D01*
X56245911Y-49914733D01*
X56184192Y-49938511D01*
X56114126Y-49950935D01*
X56093133Y-49952555D01*
X56032980Y-49953121D01*
X55985550Y-49946339D01*
X55947983Y-49931486D01*
X55917962Y-49908388D01*
X55899567Y-49886807D01*
X55891492Y-49865759D01*
X55889933Y-49842166D01*
X55892038Y-49815296D01*
X55900598Y-49797097D01*
X55914981Y-49782895D01*
X55925589Y-49774709D01*
X55937172Y-49768269D01*
X55952288Y-49763058D01*
X55973496Y-49758560D01*
X56003353Y-49754255D01*
X56044417Y-49749628D01*
X56099247Y-49744159D01*
X56112973Y-49742834D01*
X56155428Y-49737859D01*
X56195951Y-49731565D01*
X56228891Y-49724905D01*
X56243504Y-49720849D01*
X56304411Y-49692510D01*
X56353130Y-49653362D01*
X56388710Y-49604288D01*
X56402495Y-49572937D01*
X56411314Y-49533013D01*
X56414377Y-49484532D01*
X56411726Y-49434846D01*
X56403405Y-49391308D01*
X56401388Y-49384924D01*
X56374952Y-49332820D01*
X56334620Y-49287894D01*
X56282286Y-49251214D01*
X56219848Y-49223850D01*
X56149202Y-49206871D01*
X56075789Y-49201333D01*
X56005955Y-49206569D01*
G36*
X55180800Y-49204802D02*
G01*
X55105037Y-49221866D01*
X55035246Y-49254629D01*
X54972217Y-49302818D01*
X54971279Y-49303702D01*
X54934564Y-49343033D01*
X54906027Y-49385044D01*
X54884865Y-49432288D01*
X54870278Y-49487323D01*
X54861463Y-49552701D01*
X54857619Y-49630979D01*
X54857294Y-49667000D01*
X54859011Y-49747964D01*
X54864700Y-49815076D01*
X54875169Y-49871117D01*
X54891228Y-49918870D01*
X54913686Y-49961117D01*
X54943350Y-50000640D01*
X54959444Y-50018466D01*
X55015123Y-50066828D01*
X55077942Y-50100775D01*
X55142493Y-50120208D01*
X55189249Y-50128453D01*
X55229775Y-50130957D01*
X55272572Y-50127877D01*
X55304170Y-50123200D01*
X55370867Y-50103936D01*
X55433907Y-50070258D01*
X55490006Y-50024680D01*
X55535879Y-49969716D01*
X55560016Y-49927285D01*
X55579973Y-49873048D01*
X55593226Y-49809053D01*
X55600013Y-49733441D01*
X55600452Y-49662972D01*
X55411567Y-49662972D01*
X55411440Y-49716072D01*
X55410824Y-49755344D01*
X55409363Y-49783894D01*
X55406701Y-49804829D01*
X55402483Y-49821252D01*
X55396354Y-49836270D01*
X55390348Y-49848364D01*
X55364966Y-49887601D01*
X55333423Y-49914762D01*
X55292544Y-49933767D01*
X55252097Y-49944038D01*
X55212230Y-49944175D01*
X55166025Y-49934165D01*
X55163845Y-49933523D01*
X55120090Y-49912101D01*
X55083656Y-49877582D01*
X55057742Y-49833294D01*
X55052137Y-49817408D01*
X55047422Y-49791694D01*
X55044079Y-49753514D01*
X55042121Y-49707278D01*
X55041564Y-49657399D01*
X55042421Y-49608288D01*
X55044706Y-49564357D01*
X55048435Y-49530018D01*
X55051163Y-49516605D01*
X55071783Y-49471029D01*
X55105163Y-49432965D01*
X55147854Y-49405029D01*
X55196405Y-49389834D01*
X55221067Y-49387833D01*
X55280106Y-49394180D01*
X55328946Y-49413907D01*
X55368175Y-49447346D01*
X55392888Y-49483915D01*
X55399783Y-49498048D01*
X55404744Y-49512671D01*
X55408086Y-49530794D01*
X55410124Y-49555427D01*
X55411170Y-49589578D01*
X55411538Y-49636256D01*
X55411567Y-49662972D01*
X55600452Y-49662972D01*
X55600569Y-49644356D01*
X55599618Y-49616200D01*
X55595863Y-49553164D01*
X55590153Y-49503382D01*
X55582010Y-49463239D01*
X55577269Y-49446866D01*
X55546906Y-49378697D01*
X55503279Y-49319625D01*
X55448204Y-49271051D01*
X55383500Y-49234377D01*
X55310986Y-49211003D01*
X55261745Y-49203707D01*
X55180800Y-49204802D01*
G37*
X55180800Y-49204802D02*
X55105037Y-49221866D01*
X55035246Y-49254629D01*
X54972217Y-49302818D01*
X54971279Y-49303702D01*
X54934564Y-49343033D01*
X54906027Y-49385044D01*
X54884865Y-49432288D01*
X54870278Y-49487323D01*
X54861463Y-49552701D01*
X54857619Y-49630979D01*
X54857294Y-49667000D01*
X54859011Y-49747964D01*
X54864700Y-49815076D01*
X54875169Y-49871117D01*
X54891228Y-49918870D01*
X54913686Y-49961117D01*
X54943350Y-50000640D01*
X54959444Y-50018466D01*
X55015123Y-50066828D01*
X55077942Y-50100775D01*
X55142493Y-50120208D01*
X55189249Y-50128453D01*
X55229775Y-50130957D01*
X55272572Y-50127877D01*
X55304170Y-50123200D01*
X55370867Y-50103936D01*
X55433907Y-50070258D01*
X55490006Y-50024680D01*
X55535879Y-49969716D01*
X55560016Y-49927285D01*
X55579973Y-49873048D01*
X55593226Y-49809053D01*
X55600013Y-49733441D01*
X55600452Y-49662972D01*
X55411567Y-49662972D01*
X55411440Y-49716072D01*
X55410824Y-49755344D01*
X55409363Y-49783894D01*
X55406701Y-49804829D01*
X55402483Y-49821252D01*
X55396354Y-49836270D01*
X55390348Y-49848364D01*
X55364966Y-49887601D01*
X55333423Y-49914762D01*
X55292544Y-49933767D01*
X55252097Y-49944038D01*
X55212230Y-49944175D01*
X55166025Y-49934165D01*
X55163845Y-49933523D01*
X55120090Y-49912101D01*
X55083656Y-49877582D01*
X55057742Y-49833294D01*
X55052137Y-49817408D01*
X55047422Y-49791694D01*
X55044079Y-49753514D01*
X55042121Y-49707278D01*
X55041564Y-49657399D01*
X55042421Y-49608288D01*
X55044706Y-49564357D01*
X55048435Y-49530018D01*
X55051163Y-49516605D01*
X55071783Y-49471029D01*
X55105163Y-49432965D01*
X55147854Y-49405029D01*
X55196405Y-49389834D01*
X55221067Y-49387833D01*
X55280106Y-49394180D01*
X55328946Y-49413907D01*
X55368175Y-49447346D01*
X55392888Y-49483915D01*
X55399783Y-49498048D01*
X55404744Y-49512671D01*
X55408086Y-49530794D01*
X55410124Y-49555427D01*
X55411170Y-49589578D01*
X55411538Y-49636256D01*
X55411567Y-49662972D01*
X55600452Y-49662972D01*
X55600569Y-49644356D01*
X55599618Y-49616200D01*
X55595863Y-49553164D01*
X55590153Y-49503382D01*
X55582010Y-49463239D01*
X55577269Y-49446866D01*
X55546906Y-49378697D01*
X55503279Y-49319625D01*
X55448204Y-49271051D01*
X55383500Y-49234377D01*
X55310986Y-49211003D01*
X55261745Y-49203707D01*
X55180800Y-49204802D01*
G36*
X54518333Y-49493631D02*
G01*
X54518002Y-49588078D01*
X54517016Y-49667049D01*
X54515383Y-49730223D01*
X54513114Y-49777278D01*
X54510218Y-49807892D01*
X54508554Y-49816872D01*
X54492051Y-49855142D01*
X54464606Y-49891172D01*
X54430776Y-49920114D01*
X54395567Y-49937001D01*
X54340184Y-49944755D01*
X54288100Y-49937802D01*
X54241967Y-49917097D01*
X54204436Y-49883595D01*
X54190127Y-49863031D01*
X54166967Y-49823633D01*
X54164456Y-49516716D01*
X54161945Y-49209800D01*
X53976467Y-49209800D01*
X53976467Y-50115733D01*
X54162733Y-50115733D01*
X54162733Y-50029933D01*
X54200364Y-50060768D01*
X54253303Y-50094375D01*
X54314793Y-50117434D01*
X54379605Y-50128645D01*
X54442509Y-50126711D01*
X54456061Y-50124290D01*
X54518375Y-50103203D01*
X54576228Y-50068460D01*
X54625789Y-50022971D01*
X54663231Y-49969649D01*
X54665759Y-49964796D01*
X54675603Y-49943580D01*
X54683679Y-49921261D01*
X54690135Y-49896024D01*
X54695122Y-49866052D01*
X54698787Y-49829528D01*
X54701282Y-49784636D01*
X54702754Y-49729559D01*
X54703355Y-49662481D01*
X54703232Y-49581586D01*
X54702786Y-49514600D01*
X54700367Y-49214033D01*
X54518333Y-49209227D01*
X54518333Y-49493631D01*
G37*
X54518333Y-49493631D02*
X54518002Y-49588078D01*
X54517016Y-49667049D01*
X54515383Y-49730223D01*
X54513114Y-49777278D01*
X54510218Y-49807892D01*
X54508554Y-49816872D01*
X54492051Y-49855142D01*
X54464606Y-49891172D01*
X54430776Y-49920114D01*
X54395567Y-49937001D01*
X54340184Y-49944755D01*
X54288100Y-49937802D01*
X54241967Y-49917097D01*
X54204436Y-49883595D01*
X54190127Y-49863031D01*
X54166967Y-49823633D01*
X54164456Y-49516716D01*
X54161945Y-49209800D01*
X53976467Y-49209800D01*
X53976467Y-50115733D01*
X54162733Y-50115733D01*
X54162733Y-50029933D01*
X54200364Y-50060768D01*
X54253303Y-50094375D01*
X54314793Y-50117434D01*
X54379605Y-50128645D01*
X54442509Y-50126711D01*
X54456061Y-50124290D01*
X54518375Y-50103203D01*
X54576228Y-50068460D01*
X54625789Y-50022971D01*
X54663231Y-49969649D01*
X54665759Y-49964796D01*
X54675603Y-49943580D01*
X54683679Y-49921261D01*
X54690135Y-49896024D01*
X54695122Y-49866052D01*
X54698787Y-49829528D01*
X54701282Y-49784636D01*
X54702754Y-49729559D01*
X54703355Y-49662481D01*
X54703232Y-49581586D01*
X54702786Y-49514600D01*
X54700367Y-49214033D01*
X54518333Y-49209227D01*
X54518333Y-49493631D01*
G36*
X52693744Y-49212558D02*
G01*
X52621956Y-49237189D01*
X52601115Y-49247004D01*
X52569247Y-49264917D01*
X52536863Y-49286579D01*
X52506961Y-49309521D01*
X52482535Y-49331273D01*
X52466583Y-49349365D01*
X52462099Y-49361328D01*
X52462166Y-49361546D01*
X52469475Y-49370635D01*
X52486711Y-49387893D01*
X52510947Y-49410467D01*
X52528098Y-49425789D01*
X52591029Y-49481147D01*
X52621231Y-49452240D01*
X52654473Y-49423744D01*
X52686074Y-49405605D01*
X52721544Y-49395767D01*
X52766388Y-49392175D01*
X52782667Y-49392008D01*
X52823096Y-49393022D01*
X52852219Y-49396670D01*
X52875582Y-49403918D01*
X52889552Y-49410613D01*
X52932280Y-49440423D01*
X52964437Y-49479632D01*
X52987123Y-49530129D01*
X53001436Y-49593804D01*
X53003057Y-49605616D01*
X53006632Y-49669254D01*
X53002139Y-49733010D01*
X52990282Y-49791417D01*
X52973520Y-49835637D01*
X52941942Y-49880608D01*
X52900301Y-49914142D01*
X52851385Y-49935831D01*
X52797982Y-49945264D01*
X52742879Y-49942032D01*
X52688866Y-49925724D01*
X52638730Y-49895931D01*
X52627339Y-49886514D01*
X52588072Y-49851949D01*
X52524503Y-49909069D01*
X52497800Y-49933639D01*
X52476623Y-49954220D01*
X52463669Y-49968127D01*
X52460934Y-49972378D01*
X52467492Y-49983633D01*
X52484935Y-50001388D01*
X52509916Y-50022968D01*
X52539089Y-50045698D01*
X52569106Y-50066901D01*
X52596621Y-50083903D01*
X52607585Y-50089610D01*
X52654850Y-50107857D01*
X52708960Y-50122063D01*
X52762090Y-50130465D01*
X52795367Y-50131929D01*
X52817176Y-50129797D01*
X52848053Y-50124878D01*
X52875265Y-50119502D01*
X52953603Y-50094734D01*
X53021348Y-50056990D01*
X53078144Y-50006786D01*
X53123632Y-49944638D01*
X53157457Y-49871059D01*
X53179260Y-49786566D01*
X53188686Y-49691671D01*
X53189067Y-49667000D01*
X53182742Y-49569127D01*
X53164006Y-49481744D01*
X53133215Y-49405324D01*
X53090726Y-49340341D01*
X53036895Y-49287269D01*
X52972080Y-49246580D01*
X52896636Y-49218750D01*
X52843436Y-49207977D01*
X52766054Y-49203065D01*
X52693744Y-49212558D01*
G37*
X52693744Y-49212558D02*
X52621956Y-49237189D01*
X52601115Y-49247004D01*
X52569247Y-49264917D01*
X52536863Y-49286579D01*
X52506961Y-49309521D01*
X52482535Y-49331273D01*
X52466583Y-49349365D01*
X52462099Y-49361328D01*
X52462166Y-49361546D01*
X52469475Y-49370635D01*
X52486711Y-49387893D01*
X52510947Y-49410467D01*
X52528098Y-49425789D01*
X52591029Y-49481147D01*
X52621231Y-49452240D01*
X52654473Y-49423744D01*
X52686074Y-49405605D01*
X52721544Y-49395767D01*
X52766388Y-49392175D01*
X52782667Y-49392008D01*
X52823096Y-49393022D01*
X52852219Y-49396670D01*
X52875582Y-49403918D01*
X52889552Y-49410613D01*
X52932280Y-49440423D01*
X52964437Y-49479632D01*
X52987123Y-49530129D01*
X53001436Y-49593804D01*
X53003057Y-49605616D01*
X53006632Y-49669254D01*
X53002139Y-49733010D01*
X52990282Y-49791417D01*
X52973520Y-49835637D01*
X52941942Y-49880608D01*
X52900301Y-49914142D01*
X52851385Y-49935831D01*
X52797982Y-49945264D01*
X52742879Y-49942032D01*
X52688866Y-49925724D01*
X52638730Y-49895931D01*
X52627339Y-49886514D01*
X52588072Y-49851949D01*
X52524503Y-49909069D01*
X52497800Y-49933639D01*
X52476623Y-49954220D01*
X52463669Y-49968127D01*
X52460934Y-49972378D01*
X52467492Y-49983633D01*
X52484935Y-50001388D01*
X52509916Y-50022968D01*
X52539089Y-50045698D01*
X52569106Y-50066901D01*
X52596621Y-50083903D01*
X52607585Y-50089610D01*
X52654850Y-50107857D01*
X52708960Y-50122063D01*
X52762090Y-50130465D01*
X52795367Y-50131929D01*
X52817176Y-50129797D01*
X52848053Y-50124878D01*
X52875265Y-50119502D01*
X52953603Y-50094734D01*
X53021348Y-50056990D01*
X53078144Y-50006786D01*
X53123632Y-49944638D01*
X53157457Y-49871059D01*
X53179260Y-49786566D01*
X53188686Y-49691671D01*
X53189067Y-49667000D01*
X53182742Y-49569127D01*
X53164006Y-49481744D01*
X53133215Y-49405324D01*
X53090726Y-49340341D01*
X53036895Y-49287269D01*
X52972080Y-49246580D01*
X52896636Y-49218750D01*
X52843436Y-49207977D01*
X52766054Y-49203065D01*
X52693744Y-49212558D01*
G36*
X51982765Y-49206801D02*
G01*
X51912833Y-49223541D01*
X51847872Y-49253264D01*
X51789845Y-49295114D01*
X51740719Y-49348233D01*
X51702457Y-49411765D01*
X51680670Y-49470664D01*
X51672258Y-49509483D01*
X51667235Y-49554947D01*
X51665173Y-49611467D01*
X51665067Y-49630833D01*
X51665067Y-49734733D01*
X52223867Y-49734733D01*
X52223867Y-49763302D01*
X52216583Y-49810346D01*
X52196654Y-49857344D01*
X52166964Y-49897500D01*
X52166911Y-49897554D01*
X52124258Y-49929679D01*
X52073608Y-49948694D01*
X52017611Y-49954657D01*
X51958919Y-49947623D01*
X51900185Y-49927649D01*
X51844059Y-49894791D01*
X51838426Y-49890596D01*
X51812819Y-49871103D01*
X51746288Y-49927533D01*
X51679756Y-49983964D01*
X51721095Y-50021538D01*
X51770250Y-50058215D01*
X51829422Y-50089968D01*
X51891780Y-50113544D01*
X51936000Y-50123820D01*
X51984631Y-50129957D01*
X52026919Y-50130964D01*
X52071935Y-50126796D01*
X52096867Y-50122994D01*
X52172064Y-50102749D01*
X52237827Y-50068809D01*
X52293686Y-50021847D01*
X52339175Y-49962531D01*
X52373826Y-49891532D01*
X52397172Y-49809521D01*
X52408745Y-49717166D01*
X52409986Y-49674095D01*
X52404341Y-49574213D01*
X52401228Y-49557998D01*
X52223867Y-49557998D01*
X52223867Y-49582333D01*
X51849032Y-49582333D01*
X51854274Y-49544087D01*
X51869294Y-49487050D01*
X51896533Y-49440988D01*
X51934824Y-49406949D01*
X51982999Y-49385984D01*
X52037600Y-49379133D01*
X52092895Y-49385703D01*
X52139563Y-49406087D01*
X52174855Y-49435628D01*
X52196655Y-49466804D01*
X52213871Y-49506333D01*
X52223130Y-49545796D01*
X52223867Y-49557998D01*
X52401228Y-49557998D01*
X52387212Y-49485004D01*
X52358877Y-49407045D01*
X52319613Y-49340912D01*
X52269696Y-49287182D01*
X52209405Y-49246431D01*
X52202727Y-49243048D01*
X52129677Y-49215698D01*
X52055701Y-49203901D01*
X51982765Y-49206801D01*
G37*
X51982765Y-49206801D02*
X51912833Y-49223541D01*
X51847872Y-49253264D01*
X51789845Y-49295114D01*
X51740719Y-49348233D01*
X51702457Y-49411765D01*
X51680670Y-49470664D01*
X51672258Y-49509483D01*
X51667235Y-49554947D01*
X51665173Y-49611467D01*
X51665067Y-49630833D01*
X51665067Y-49734733D01*
X52223867Y-49734733D01*
X52223867Y-49763302D01*
X52216583Y-49810346D01*
X52196654Y-49857344D01*
X52166964Y-49897500D01*
X52166911Y-49897554D01*
X52124258Y-49929679D01*
X52073608Y-49948694D01*
X52017611Y-49954657D01*
X51958919Y-49947623D01*
X51900185Y-49927649D01*
X51844059Y-49894791D01*
X51838426Y-49890596D01*
X51812819Y-49871103D01*
X51746288Y-49927533D01*
X51679756Y-49983964D01*
X51721095Y-50021538D01*
X51770250Y-50058215D01*
X51829422Y-50089968D01*
X51891780Y-50113544D01*
X51936000Y-50123820D01*
X51984631Y-50129957D01*
X52026919Y-50130964D01*
X52071935Y-50126796D01*
X52096867Y-50122994D01*
X52172064Y-50102749D01*
X52237827Y-50068809D01*
X52293686Y-50021847D01*
X52339175Y-49962531D01*
X52373826Y-49891532D01*
X52397172Y-49809521D01*
X52408745Y-49717166D01*
X52409986Y-49674095D01*
X52404341Y-49574213D01*
X52401228Y-49557998D01*
X52223867Y-49557998D01*
X52223867Y-49582333D01*
X51849032Y-49582333D01*
X51854274Y-49544087D01*
X51869294Y-49487050D01*
X51896533Y-49440988D01*
X51934824Y-49406949D01*
X51982999Y-49385984D01*
X52037600Y-49379133D01*
X52092895Y-49385703D01*
X52139563Y-49406087D01*
X52174855Y-49435628D01*
X52196655Y-49466804D01*
X52213871Y-49506333D01*
X52223130Y-49545796D01*
X52223867Y-49557998D01*
X52401228Y-49557998D01*
X52387212Y-49485004D01*
X52358877Y-49407045D01*
X52319613Y-49340912D01*
X52269696Y-49287182D01*
X52209405Y-49246431D01*
X52202727Y-49243048D01*
X52129677Y-49215698D01*
X52055701Y-49203901D01*
X51982765Y-49206801D01*
G36*
X57235300Y-49206284D02*
G01*
X57207151Y-49208857D01*
X57183298Y-49214844D01*
X57157432Y-49225554D01*
X57141257Y-49233342D01*
X57082202Y-49271077D01*
X57032933Y-49320235D01*
X56996329Y-49377770D01*
X56988986Y-49394359D01*
X56984102Y-49406944D01*
X56980095Y-49419306D01*
X56976863Y-49433226D01*
X56974303Y-49450485D01*
X56972314Y-49472865D01*
X56970794Y-49502145D01*
X56969640Y-49540109D01*
X56968750Y-49588535D01*
X56968022Y-49649206D01*
X56967355Y-49723903D01*
X56966917Y-49779183D01*
X56964305Y-50115733D01*
X57150669Y-50115733D01*
X57153185Y-49813050D01*
X57153876Y-49733388D01*
X57154569Y-49668823D01*
X57155380Y-49617520D01*
X57156429Y-49577644D01*
X57157833Y-49547359D01*
X57159709Y-49524830D01*
X57162175Y-49508222D01*
X57165350Y-49495698D01*
X57169350Y-49485423D01*
X57174294Y-49475563D01*
X57174917Y-49474393D01*
X57194549Y-49446940D01*
X57220503Y-49421624D01*
X57229332Y-49415126D01*
X57251534Y-49402200D01*
X57273045Y-49395108D01*
X57300506Y-49392223D01*
X57324415Y-49391833D01*
X57377741Y-49396162D01*
X57419453Y-49410227D01*
X57452795Y-49435647D01*
X57477433Y-49468117D01*
X57502833Y-49509001D01*
X57507865Y-50115733D01*
X57693482Y-50115733D01*
X57689100Y-49214033D01*
X57598083Y-49211630D01*
X57507067Y-49209227D01*
X57507067Y-49304067D01*
X57470409Y-49274029D01*
X57424439Y-49241051D01*
X57379393Y-49220012D01*
X57329567Y-49208929D01*
X57274055Y-49205819D01*
X57235300Y-49206284D01*
G37*
X57235300Y-49206284D02*
X57207151Y-49208857D01*
X57183298Y-49214844D01*
X57157432Y-49225554D01*
X57141257Y-49233342D01*
X57082202Y-49271077D01*
X57032933Y-49320235D01*
X56996329Y-49377770D01*
X56988986Y-49394359D01*
X56984102Y-49406944D01*
X56980095Y-49419306D01*
X56976863Y-49433226D01*
X56974303Y-49450485D01*
X56972314Y-49472865D01*
X56970794Y-49502145D01*
X56969640Y-49540109D01*
X56968750Y-49588535D01*
X56968022Y-49649206D01*
X56967355Y-49723903D01*
X56966917Y-49779183D01*
X56964305Y-50115733D01*
X57150669Y-50115733D01*
X57153185Y-49813050D01*
X57153876Y-49733388D01*
X57154569Y-49668823D01*
X57155380Y-49617520D01*
X57156429Y-49577644D01*
X57157833Y-49547359D01*
X57159709Y-49524830D01*
X57162175Y-49508222D01*
X57165350Y-49495698D01*
X57169350Y-49485423D01*
X57174294Y-49475563D01*
X57174917Y-49474393D01*
X57194549Y-49446940D01*
X57220503Y-49421624D01*
X57229332Y-49415126D01*
X57251534Y-49402200D01*
X57273045Y-49395108D01*
X57300506Y-49392223D01*
X57324415Y-49391833D01*
X57377741Y-49396162D01*
X57419453Y-49410227D01*
X57452795Y-49435647D01*
X57477433Y-49468117D01*
X57502833Y-49509001D01*
X57507865Y-50115733D01*
X57693482Y-50115733D01*
X57689100Y-49214033D01*
X57598083Y-49211630D01*
X57507067Y-49209227D01*
X57507067Y-49304067D01*
X57470409Y-49274029D01*
X57424439Y-49241051D01*
X57379393Y-49220012D01*
X57329567Y-49208929D01*
X57274055Y-49205819D01*
X57235300Y-49206284D01*
G36*
X53362634Y-49205984D02*
G01*
X53322571Y-49206814D01*
X53293311Y-49209881D01*
X53268759Y-49216333D01*
X53242819Y-49227319D01*
X53238617Y-49229339D01*
X53207928Y-49244678D01*
X53188606Y-49257313D01*
X53180569Y-49270165D01*
X53183732Y-49286152D01*
X53198013Y-49308193D01*
X53223327Y-49339209D01*
X53235082Y-49353083D01*
X53299647Y-49429184D01*
X53338751Y-49408392D01*
X53385545Y-49391762D01*
X53434789Y-49388412D01*
X53482454Y-49397602D01*
X53524512Y-49418593D01*
X53555064Y-49448062D01*
X53565430Y-49462723D01*
X53573857Y-49477261D01*
X53580543Y-49493544D01*
X53585691Y-49513439D01*
X53589499Y-49538816D01*
X53592168Y-49571544D01*
X53593900Y-49613489D01*
X53594893Y-49666522D01*
X53595348Y-49732511D01*
X53595466Y-49813323D01*
X53595467Y-49824897D01*
X53595467Y-50115733D01*
X53781734Y-50115733D01*
X53781734Y-49209800D01*
X53595467Y-49209800D01*
X53595467Y-49304687D01*
X53564103Y-49277150D01*
X53537987Y-49257651D01*
X53505285Y-49237725D01*
X53485787Y-49227722D01*
X53458942Y-49216532D01*
X53433654Y-49209899D01*
X53403802Y-49206743D01*
X53363268Y-49205983D01*
X53362634Y-49205984D01*
G37*
X53362634Y-49205984D02*
X53322571Y-49206814D01*
X53293311Y-49209881D01*
X53268759Y-49216333D01*
X53242819Y-49227319D01*
X53238617Y-49229339D01*
X53207928Y-49244678D01*
X53188606Y-49257313D01*
X53180569Y-49270165D01*
X53183732Y-49286152D01*
X53198013Y-49308193D01*
X53223327Y-49339209D01*
X53235082Y-49353083D01*
X53299647Y-49429184D01*
X53338751Y-49408392D01*
X53385545Y-49391762D01*
X53434789Y-49388412D01*
X53482454Y-49397602D01*
X53524512Y-49418593D01*
X53555064Y-49448062D01*
X53565430Y-49462723D01*
X53573857Y-49477261D01*
X53580543Y-49493544D01*
X53585691Y-49513439D01*
X53589499Y-49538816D01*
X53592168Y-49571544D01*
X53593900Y-49613489D01*
X53594893Y-49666522D01*
X53595348Y-49732511D01*
X53595466Y-49813323D01*
X53595467Y-49824897D01*
X53595467Y-50115733D01*
X53781734Y-50115733D01*
X53781734Y-49209800D01*
X53595467Y-49209800D01*
X53595467Y-49304687D01*
X53564103Y-49277150D01*
X53537987Y-49257651D01*
X53505285Y-49237725D01*
X53485787Y-49227722D01*
X53458942Y-49216532D01*
X53433654Y-49209899D01*
X53403802Y-49206743D01*
X53363268Y-49205983D01*
X53362634Y-49205984D01*
G36*
X55539609Y-42463983D02*
G01*
X55535776Y-42475803D01*
X55529256Y-42502650D01*
X55520384Y-42542889D01*
X55509494Y-42594888D01*
X55496919Y-42657011D01*
X55482995Y-42727624D01*
X55468054Y-42805093D01*
X55452431Y-42887782D01*
X55446744Y-42918300D01*
X55429407Y-43010723D01*
X55413210Y-43095190D01*
X55398410Y-43170456D01*
X55385266Y-43235271D01*
X55374035Y-43288390D01*
X55364975Y-43328566D01*
X55358344Y-43354550D01*
X55354418Y-43365077D01*
X55343418Y-43371472D01*
X55318764Y-43383146D01*
X55282585Y-43399236D01*
X55237004Y-43418875D01*
X55184149Y-43441198D01*
X55126144Y-43465338D01*
X55065116Y-43490431D01*
X55003192Y-43515611D01*
X54942495Y-43540011D01*
X54885154Y-43562767D01*
X54833293Y-43583013D01*
X54789038Y-43599883D01*
X54754516Y-43612511D01*
X54731851Y-43620031D01*
X54723947Y-43621800D01*
X54711302Y-43616842D01*
X54685117Y-43602039D01*
X54645557Y-43577496D01*
X54592783Y-43543319D01*
X54526959Y-43499614D01*
X54448245Y-43446485D01*
X54356807Y-43384039D01*
X54337478Y-43370766D01*
X54266866Y-43322411D01*
X54200001Y-43276965D01*
X54138264Y-43235341D01*
X54083037Y-43198455D01*
X54035698Y-43167221D01*
X53997629Y-43142554D01*
X53970209Y-43125369D01*
X53954820Y-43116580D01*
X53952462Y-43115641D01*
X53946504Y-43116180D01*
X53937707Y-43120407D01*
X53925103Y-43129218D01*
X53907722Y-43143509D01*
X53884596Y-43164175D01*
X53854754Y-43192113D01*
X53817229Y-43228219D01*
X53771051Y-43273388D01*
X53715250Y-43328517D01*
X53648858Y-43394502D01*
X53623677Y-43419592D01*
X53563632Y-43479672D01*
X53507139Y-43536635D01*
X53455359Y-43589276D01*
X53409457Y-43636392D01*
X53370596Y-43676780D01*
X53339940Y-43709236D01*
X53318652Y-43732557D01*
X53307896Y-43745540D01*
X53306897Y-43747238D01*
X53303966Y-43771990D01*
X53307390Y-43782274D01*
X53313690Y-43792118D01*
X53328640Y-43814520D01*
X53351292Y-43848088D01*
X53380699Y-43891429D01*
X53415913Y-43943148D01*
X53455989Y-44001855D01*
X53499977Y-44066154D01*
X53546932Y-44134655D01*
X53557158Y-44149555D01*
X53616893Y-44236886D01*
X53667242Y-44311180D01*
X53708678Y-44373172D01*
X53741670Y-44423594D01*
X53766691Y-44463178D01*
X53784212Y-44492658D01*
X53794704Y-44512768D01*
X53798638Y-44524238D01*
X53798693Y-44525153D01*
X53795375Y-44538787D01*
X53786007Y-44565752D01*
X53771489Y-44603937D01*
X53752723Y-44651231D01*
X53730607Y-44705525D01*
X53706042Y-44764707D01*
X53679928Y-44826667D01*
X53653165Y-44889295D01*
X53626655Y-44950478D01*
X53601295Y-45008109D01*
X53577988Y-45060074D01*
X53557634Y-45104265D01*
X53541131Y-45138570D01*
X53529381Y-45160878D01*
X53524369Y-45168328D01*
X53518027Y-45173141D01*
X53507461Y-45178114D01*
X53491231Y-45183570D01*
X53467897Y-45189831D01*
X53436018Y-45197220D01*
X53394155Y-45206058D01*
X53340867Y-45216669D01*
X53274714Y-45229374D01*
X53194257Y-45244496D01*
X53134034Y-45255695D01*
X53054793Y-45270376D01*
X52979010Y-45284395D01*
X52908666Y-45297387D01*
X52845743Y-45308987D01*
X52792225Y-45318830D01*
X52750094Y-45326550D01*
X52721332Y-45331782D01*
X52710700Y-45333684D01*
X52693333Y-45336297D01*
X52678646Y-45338435D01*
X52666416Y-45341434D01*
X52656421Y-45346632D01*
X52648436Y-45355366D01*
X52642239Y-45368972D01*
X52637608Y-45388788D01*
X52634318Y-45416151D01*
X52632147Y-45452397D01*
X52630872Y-45498865D01*
X52630269Y-45556891D01*
X52630116Y-45627811D01*
X52630190Y-45712964D01*
X52630267Y-45813686D01*
X52630267Y-46263009D01*
X52649317Y-46274923D01*
X52661261Y-46278802D01*
X52688171Y-46285335D01*
X52728348Y-46294175D01*
X52780093Y-46304975D01*
X52841708Y-46317386D01*
X52911492Y-46331062D01*
X52987747Y-46345655D01*
X53068773Y-46360818D01*
X53074636Y-46361902D01*
X53171590Y-46379917D01*
X53253125Y-46395314D01*
X53320509Y-46408367D01*
X53375007Y-46419349D01*
X53417886Y-46428534D01*
X53450413Y-46436197D01*
X53473853Y-46442610D01*
X53489474Y-46448049D01*
X53498541Y-46452787D01*
X53499939Y-46453900D01*
X53507350Y-46465493D01*
X53519966Y-46490838D01*
X53536948Y-46527868D01*
X53557454Y-46574515D01*
X53580645Y-46628714D01*
X53605682Y-46688399D01*
X53631724Y-46751501D01*
X53657932Y-46815956D01*
X53683465Y-46879696D01*
X53707484Y-46940655D01*
X53729149Y-46996767D01*
X53747620Y-47045964D01*
X53762056Y-47086181D01*
X53771619Y-47115351D01*
X53775469Y-47131407D01*
X53775500Y-47131911D01*
X53774114Y-47140536D01*
X53768937Y-47153603D01*
X53759255Y-47172243D01*
X53744351Y-47197585D01*
X53723512Y-47230760D01*
X53696021Y-47272897D01*
X53661163Y-47325126D01*
X53618223Y-47388578D01*
X53566487Y-47464383D01*
X53547705Y-47491801D01*
X53501451Y-47559358D01*
X53457906Y-47623121D01*
X53418057Y-47681636D01*
X53382887Y-47733448D01*
X53353383Y-47777103D01*
X53330529Y-47811147D01*
X53315312Y-47834125D01*
X53308744Y-47844530D01*
X53303094Y-47862460D01*
X53308350Y-47881534D01*
X53311022Y-47886807D01*
X53319523Y-47897529D01*
X53338694Y-47918614D01*
X53367103Y-47948631D01*
X53403317Y-47986153D01*
X53445906Y-48029750D01*
X53493436Y-48077994D01*
X53544476Y-48129455D01*
X53597594Y-48182705D01*
X53651358Y-48236315D01*
X53704337Y-48288856D01*
X53755097Y-48338899D01*
X53802208Y-48385016D01*
X53844238Y-48425777D01*
X53879754Y-48459753D01*
X53907325Y-48485516D01*
X53925518Y-48501637D01*
X53932017Y-48506476D01*
X53953181Y-48511761D01*
X53969618Y-48506201D01*
X53980230Y-48499492D01*
X54003321Y-48484186D01*
X54037418Y-48461282D01*
X54081047Y-48431777D01*
X54132736Y-48396670D01*
X54191011Y-48356960D01*
X54254399Y-48313644D01*
X54313629Y-48273070D01*
X54394722Y-48217635D01*
X54463019Y-48171369D01*
X54519527Y-48133630D01*
X54565254Y-48103778D01*
X54601208Y-48081172D01*
X54628395Y-48065172D01*
X54647823Y-48055136D01*
X54660499Y-48050426D01*
X54664621Y-48049867D01*
X54682360Y-48054176D01*
X54713288Y-48066716D01*
X54756137Y-48086905D01*
X54809638Y-48114161D01*
X54840067Y-48130300D01*
X54886472Y-48154865D01*
X54928341Y-48176402D01*
X54963198Y-48193689D01*
X54988568Y-48205501D01*
X55001977Y-48210617D01*
X55002887Y-48210733D01*
X55019444Y-48204669D01*
X55024334Y-48200150D01*
X55028741Y-48190948D01*
X55039138Y-48167196D01*
X55055060Y-48130002D01*
X55076045Y-48080470D01*
X55101629Y-48019708D01*
X55131348Y-47948821D01*
X55164738Y-47868915D01*
X55201336Y-47781097D01*
X55240679Y-47686473D01*
X55282303Y-47586149D01*
X55325744Y-47481232D01*
X55334761Y-47459427D01*
X55387488Y-47331768D01*
X55433983Y-47218883D01*
X55474575Y-47119939D01*
X55509593Y-47034098D01*
X55539364Y-46960526D01*
X55564218Y-46898386D01*
X55584483Y-46846843D01*
X55600487Y-46805061D01*
X55612560Y-46772204D01*
X55621029Y-46747437D01*
X55626223Y-46729925D01*
X55628471Y-46718830D01*
X55628101Y-46713319D01*
X55628090Y-46713297D01*
X55616589Y-46700350D01*
X55595494Y-46683088D01*
X55574816Y-46668820D01*
X55456951Y-46586495D01*
X55355205Y-46499727D01*
X55269207Y-46407930D01*
X55198586Y-46310515D01*
X55142973Y-46206895D01*
X55101997Y-46096483D01*
X55075288Y-45978691D01*
X55062637Y-45856343D01*
X55064902Y-45734186D01*
X55083147Y-45614886D01*
X55116484Y-45499820D01*
X55164024Y-45390369D01*
X55224878Y-45287911D01*
X55298158Y-45193826D01*
X55382975Y-45109493D01*
X55478441Y-45036292D01*
X55583667Y-44975601D01*
X55648633Y-44946751D01*
X55768132Y-44907958D01*
X55889495Y-44885439D01*
X56011279Y-44878917D01*
X56132038Y-44888117D01*
X56250327Y-44912761D01*
X56364702Y-44952573D01*
X56473718Y-45007277D01*
X56575931Y-45076597D01*
X56646970Y-45137740D01*
X56731162Y-45228909D01*
X56801262Y-45328183D01*
X56857150Y-45434100D01*
X56898706Y-45545200D01*
X56925811Y-45660020D01*
X56938343Y-45777098D01*
X56936185Y-45894974D01*
X56919214Y-46012185D01*
X56887312Y-46127271D01*
X56840359Y-46238768D01*
X56778234Y-46345217D01*
X56749388Y-46385684D01*
X56682612Y-46463697D01*
X56600885Y-46539920D01*
X56503464Y-46615004D01*
X56429925Y-46664431D01*
X56403707Y-46682796D01*
X56382829Y-46700321D01*
X56372418Y-46712349D01*
X56371725Y-46717390D01*
X56373202Y-46726887D01*
X56377195Y-46741726D01*
X56384051Y-46762791D01*
X56394115Y-46790964D01*
X56407735Y-46827129D01*
X56425257Y-46872171D01*
X56447026Y-46926972D01*
X56473390Y-46992417D01*
X56504695Y-47069390D01*
X56541287Y-47158774D01*
X56583512Y-47261452D01*
X56631718Y-47378309D01*
X56665239Y-47459427D01*
X56708993Y-47565144D01*
X56751024Y-47666492D01*
X56790868Y-47762365D01*
X56828063Y-47851657D01*
X56862143Y-47933261D01*
X56892646Y-48006073D01*
X56919109Y-48068984D01*
X56941066Y-48120890D01*
X56958056Y-48160684D01*
X56969615Y-48187259D01*
X56975278Y-48199510D01*
X56975666Y-48200150D01*
X56990455Y-48209702D01*
X56996612Y-48210733D01*
X57007588Y-48206879D01*
X57030963Y-48196129D01*
X57064269Y-48179704D01*
X57105044Y-48158824D01*
X57150823Y-48134709D01*
X57159067Y-48130300D01*
X57217586Y-48099666D01*
X57266013Y-48075847D01*
X57303099Y-48059415D01*
X57327596Y-48050941D01*
X57334694Y-48049867D01*
X57346009Y-48052396D01*
X57363892Y-48060485D01*
X57389561Y-48074883D01*
X57424234Y-48096340D01*
X57469126Y-48125604D01*
X57525456Y-48163425D01*
X57583952Y-48203351D01*
X57677515Y-48267525D01*
X57758049Y-48322698D01*
X57826465Y-48369485D01*
X57883672Y-48408498D01*
X57930581Y-48440351D01*
X57968102Y-48465659D01*
X57997146Y-48485034D01*
X58018622Y-48499092D01*
X58033442Y-48508444D01*
X58042514Y-48513706D01*
X58046750Y-48515491D01*
X58046928Y-48515502D01*
X58057679Y-48511386D01*
X58075803Y-48501348D01*
X58078567Y-48499649D01*
X58089738Y-48490395D01*
X58111266Y-48470469D01*
X58141693Y-48441335D01*
X58179566Y-48404456D01*
X58223429Y-48361296D01*
X58271827Y-48313317D01*
X58323305Y-48261984D01*
X58376408Y-48208759D01*
X58429681Y-48155105D01*
X58481668Y-48102487D01*
X58530915Y-48052366D01*
X58575966Y-48006207D01*
X58615367Y-47965473D01*
X58647662Y-47931626D01*
X58671397Y-47906131D01*
X58685115Y-47890450D01*
X58687347Y-47887451D01*
X58696784Y-47868573D01*
X58695302Y-47852887D01*
X58691647Y-47845118D01*
X58684858Y-47834331D01*
X58669459Y-47811052D01*
X58646437Y-47776739D01*
X58616780Y-47732849D01*
X58581475Y-47680842D01*
X58541510Y-47622175D01*
X58497873Y-47558305D01*
X58452339Y-47491839D01*
X58397626Y-47411885D01*
X58351940Y-47344643D01*
X58314565Y-47288980D01*
X58284781Y-47243760D01*
X58261870Y-47207849D01*
X58245115Y-47180114D01*
X58233795Y-47159418D01*
X58227194Y-47144629D01*
X58224592Y-47134610D01*
X58224494Y-47132006D01*
X58227831Y-47118619D01*
X58236918Y-47091389D01*
X58251068Y-47052139D01*
X58269597Y-47002688D01*
X58291819Y-46944856D01*
X58317047Y-46880465D01*
X58344596Y-46811335D01*
X58355251Y-46784892D01*
X58389691Y-46700111D01*
X58418609Y-46629947D01*
X58442540Y-46573204D01*
X58462021Y-46528687D01*
X58477591Y-46495201D01*
X58489785Y-46471550D01*
X58499140Y-46456539D01*
X58506134Y-46449015D01*
X58519408Y-46443631D01*
X58547253Y-46436047D01*
X58590022Y-46426189D01*
X58648066Y-46413984D01*
X58721740Y-46399358D01*
X58811396Y-46382236D01*
X58917387Y-46362546D01*
X58929467Y-46360328D01*
X59010362Y-46345325D01*
X59086603Y-46330862D01*
X59156479Y-46317287D01*
X59218281Y-46304945D01*
X59270300Y-46294185D01*
X59310827Y-46285353D01*
X59338152Y-46278797D01*
X59350565Y-46274864D01*
X59350684Y-46274794D01*
X59369734Y-46263009D01*
X59369734Y-45815784D01*
X59369703Y-45717000D01*
X59369581Y-45633775D01*
X59369324Y-45564733D01*
X59368888Y-45508500D01*
X59368228Y-45463702D01*
X59367300Y-45428962D01*
X59366060Y-45402906D01*
X59364463Y-45384160D01*
X59362465Y-45371348D01*
X59360022Y-45363096D01*
X59357089Y-45358029D01*
X59354917Y-45355807D01*
X59342920Y-45351188D01*
X59314949Y-45343919D01*
X59271733Y-45334150D01*
X59213998Y-45322032D01*
X59142470Y-45307715D01*
X59057878Y-45291352D01*
X58960947Y-45273092D01*
X58916767Y-45264900D01*
X58820096Y-45246985D01*
X58738748Y-45231734D01*
X58671373Y-45218851D01*
X58616620Y-45208041D01*
X58573141Y-45199009D01*
X58539585Y-45191459D01*
X58514601Y-45185096D01*
X58496841Y-45179625D01*
X58484953Y-45174749D01*
X58477589Y-45170175D01*
X58475631Y-45168388D01*
X58467868Y-45156018D01*
X58454703Y-45130135D01*
X58437037Y-45092851D01*
X58415770Y-45046275D01*
X58391802Y-44992516D01*
X58366033Y-44933686D01*
X58339363Y-44871895D01*
X58312692Y-44809251D01*
X58286921Y-44747867D01*
X58262949Y-44689850D01*
X58241676Y-44637312D01*
X58224003Y-44592363D01*
X58210830Y-44557113D01*
X58203056Y-44533671D01*
X58201307Y-44525279D01*
X58204484Y-44514774D01*
X58214307Y-44495520D01*
X58231234Y-44466805D01*
X58255723Y-44427917D01*
X58288233Y-44378142D01*
X58329222Y-44316768D01*
X58379149Y-44243082D01*
X58438473Y-44156372D01*
X58440517Y-44153395D01*
X58487854Y-44084395D01*
X58532501Y-44019176D01*
X58573490Y-43959157D01*
X58609858Y-43905758D01*
X58640639Y-43860400D01*
X58664868Y-43824501D01*
X58681580Y-43799483D01*
X58689810Y-43786764D01*
X58690276Y-43785964D01*
X58696245Y-43759970D01*
X58693095Y-43747214D01*
X58685725Y-43737570D01*
X58667474Y-43717227D01*
X58639506Y-43687388D01*
X58602985Y-43649256D01*
X58559073Y-43604034D01*
X58508935Y-43552925D01*
X58453733Y-43497134D01*
X58394632Y-43437863D01*
X58376323Y-43419592D01*
X58306022Y-43349628D01*
X58246644Y-43290831D01*
X58197222Y-43242307D01*
X58156793Y-43203164D01*
X58124391Y-43172510D01*
X58099051Y-43149451D01*
X58079807Y-43133095D01*
X58065695Y-43122549D01*
X58055750Y-43116920D01*
X58049006Y-43115315D01*
X58047538Y-43115470D01*
X58036912Y-43120914D01*
X58013750Y-43135092D01*
X57979431Y-43157090D01*
X57935334Y-43185995D01*
X57882840Y-43220893D01*
X57823327Y-43260870D01*
X57758177Y-43305012D01*
X57688767Y-43352407D01*
X57662269Y-43370595D01*
X57566480Y-43436141D01*
X57484322Y-43491742D01*
X57415745Y-43537429D01*
X57360698Y-43573234D01*
X57319132Y-43599191D01*
X57290997Y-43615332D01*
X57276242Y-43621688D01*
X57275172Y-43621800D01*
X57262507Y-43618631D01*
X57236415Y-43609702D01*
X57199030Y-43595883D01*
X57152483Y-43578042D01*
X57098907Y-43557047D01*
X57040435Y-43533767D01*
X56979199Y-43509070D01*
X56917331Y-43483826D01*
X56856964Y-43458903D01*
X56800230Y-43435169D01*
X56749261Y-43413493D01*
X56706191Y-43394744D01*
X56673152Y-43379790D01*
X56652276Y-43369499D01*
X56646052Y-43365547D01*
X56641624Y-43354284D01*
X56634516Y-43327056D01*
X56624879Y-43284593D01*
X56612865Y-43227623D01*
X56598624Y-43156876D01*
X56582309Y-43073082D01*
X56564072Y-42976971D01*
X56553104Y-42918194D01*
X56537330Y-42834044D01*
X56522118Y-42754531D01*
X56507804Y-42681290D01*
X56494722Y-42615955D01*
X56483204Y-42560161D01*
X56473586Y-42515542D01*
X56466200Y-42483734D01*
X56461380Y-42466370D01*
X56460346Y-42463983D01*
X56448343Y-42444933D01*
X55551657Y-42444933D01*
X55539609Y-42463983D01*
G37*
X55539609Y-42463983D02*
X55535776Y-42475803D01*
X55529256Y-42502650D01*
X55520384Y-42542889D01*
X55509494Y-42594888D01*
X55496919Y-42657011D01*
X55482995Y-42727624D01*
X55468054Y-42805093D01*
X55452431Y-42887782D01*
X55446744Y-42918300D01*
X55429407Y-43010723D01*
X55413210Y-43095190D01*
X55398410Y-43170456D01*
X55385266Y-43235271D01*
X55374035Y-43288390D01*
X55364975Y-43328566D01*
X55358344Y-43354550D01*
X55354418Y-43365077D01*
X55343418Y-43371472D01*
X55318764Y-43383146D01*
X55282585Y-43399236D01*
X55237004Y-43418875D01*
X55184149Y-43441198D01*
X55126144Y-43465338D01*
X55065116Y-43490431D01*
X55003192Y-43515611D01*
X54942495Y-43540011D01*
X54885154Y-43562767D01*
X54833293Y-43583013D01*
X54789038Y-43599883D01*
X54754516Y-43612511D01*
X54731851Y-43620031D01*
X54723947Y-43621800D01*
X54711302Y-43616842D01*
X54685117Y-43602039D01*
X54645557Y-43577496D01*
X54592783Y-43543319D01*
X54526959Y-43499614D01*
X54448245Y-43446485D01*
X54356807Y-43384039D01*
X54337478Y-43370766D01*
X54266866Y-43322411D01*
X54200001Y-43276965D01*
X54138264Y-43235341D01*
X54083037Y-43198455D01*
X54035698Y-43167221D01*
X53997629Y-43142554D01*
X53970209Y-43125369D01*
X53954820Y-43116580D01*
X53952462Y-43115641D01*
X53946504Y-43116180D01*
X53937707Y-43120407D01*
X53925103Y-43129218D01*
X53907722Y-43143509D01*
X53884596Y-43164175D01*
X53854754Y-43192113D01*
X53817229Y-43228219D01*
X53771051Y-43273388D01*
X53715250Y-43328517D01*
X53648858Y-43394502D01*
X53623677Y-43419592D01*
X53563632Y-43479672D01*
X53507139Y-43536635D01*
X53455359Y-43589276D01*
X53409457Y-43636392D01*
X53370596Y-43676780D01*
X53339940Y-43709236D01*
X53318652Y-43732557D01*
X53307896Y-43745540D01*
X53306897Y-43747238D01*
X53303966Y-43771990D01*
X53307390Y-43782274D01*
X53313690Y-43792118D01*
X53328640Y-43814520D01*
X53351292Y-43848088D01*
X53380699Y-43891429D01*
X53415913Y-43943148D01*
X53455989Y-44001855D01*
X53499977Y-44066154D01*
X53546932Y-44134655D01*
X53557158Y-44149555D01*
X53616893Y-44236886D01*
X53667242Y-44311180D01*
X53708678Y-44373172D01*
X53741670Y-44423594D01*
X53766691Y-44463178D01*
X53784212Y-44492658D01*
X53794704Y-44512768D01*
X53798638Y-44524238D01*
X53798693Y-44525153D01*
X53795375Y-44538787D01*
X53786007Y-44565752D01*
X53771489Y-44603937D01*
X53752723Y-44651231D01*
X53730607Y-44705525D01*
X53706042Y-44764707D01*
X53679928Y-44826667D01*
X53653165Y-44889295D01*
X53626655Y-44950478D01*
X53601295Y-45008109D01*
X53577988Y-45060074D01*
X53557634Y-45104265D01*
X53541131Y-45138570D01*
X53529381Y-45160878D01*
X53524369Y-45168328D01*
X53518027Y-45173141D01*
X53507461Y-45178114D01*
X53491231Y-45183570D01*
X53467897Y-45189831D01*
X53436018Y-45197220D01*
X53394155Y-45206058D01*
X53340867Y-45216669D01*
X53274714Y-45229374D01*
X53194257Y-45244496D01*
X53134034Y-45255695D01*
X53054793Y-45270376D01*
X52979010Y-45284395D01*
X52908666Y-45297387D01*
X52845743Y-45308987D01*
X52792225Y-45318830D01*
X52750094Y-45326550D01*
X52721332Y-45331782D01*
X52710700Y-45333684D01*
X52693333Y-45336297D01*
X52678646Y-45338435D01*
X52666416Y-45341434D01*
X52656421Y-45346632D01*
X52648436Y-45355366D01*
X52642239Y-45368972D01*
X52637608Y-45388788D01*
X52634318Y-45416151D01*
X52632147Y-45452397D01*
X52630872Y-45498865D01*
X52630269Y-45556891D01*
X52630116Y-45627811D01*
X52630190Y-45712964D01*
X52630267Y-45813686D01*
X52630267Y-46263009D01*
X52649317Y-46274923D01*
X52661261Y-46278802D01*
X52688171Y-46285335D01*
X52728348Y-46294175D01*
X52780093Y-46304975D01*
X52841708Y-46317386D01*
X52911492Y-46331062D01*
X52987747Y-46345655D01*
X53068773Y-46360818D01*
X53074636Y-46361902D01*
X53171590Y-46379917D01*
X53253125Y-46395314D01*
X53320509Y-46408367D01*
X53375007Y-46419349D01*
X53417886Y-46428534D01*
X53450413Y-46436197D01*
X53473853Y-46442610D01*
X53489474Y-46448049D01*
X53498541Y-46452787D01*
X53499939Y-46453900D01*
X53507350Y-46465493D01*
X53519966Y-46490838D01*
X53536948Y-46527868D01*
X53557454Y-46574515D01*
X53580645Y-46628714D01*
X53605682Y-46688399D01*
X53631724Y-46751501D01*
X53657932Y-46815956D01*
X53683465Y-46879696D01*
X53707484Y-46940655D01*
X53729149Y-46996767D01*
X53747620Y-47045964D01*
X53762056Y-47086181D01*
X53771619Y-47115351D01*
X53775469Y-47131407D01*
X53775500Y-47131911D01*
X53774114Y-47140536D01*
X53768937Y-47153603D01*
X53759255Y-47172243D01*
X53744351Y-47197585D01*
X53723512Y-47230760D01*
X53696021Y-47272897D01*
X53661163Y-47325126D01*
X53618223Y-47388578D01*
X53566487Y-47464383D01*
X53547705Y-47491801D01*
X53501451Y-47559358D01*
X53457906Y-47623121D01*
X53418057Y-47681636D01*
X53382887Y-47733448D01*
X53353383Y-47777103D01*
X53330529Y-47811147D01*
X53315312Y-47834125D01*
X53308744Y-47844530D01*
X53303094Y-47862460D01*
X53308350Y-47881534D01*
X53311022Y-47886807D01*
X53319523Y-47897529D01*
X53338694Y-47918614D01*
X53367103Y-47948631D01*
X53403317Y-47986153D01*
X53445906Y-48029750D01*
X53493436Y-48077994D01*
X53544476Y-48129455D01*
X53597594Y-48182705D01*
X53651358Y-48236315D01*
X53704337Y-48288856D01*
X53755097Y-48338899D01*
X53802208Y-48385016D01*
X53844238Y-48425777D01*
X53879754Y-48459753D01*
X53907325Y-48485516D01*
X53925518Y-48501637D01*
X53932017Y-48506476D01*
X53953181Y-48511761D01*
X53969618Y-48506201D01*
X53980230Y-48499492D01*
X54003321Y-48484186D01*
X54037418Y-48461282D01*
X54081047Y-48431777D01*
X54132736Y-48396670D01*
X54191011Y-48356960D01*
X54254399Y-48313644D01*
X54313629Y-48273070D01*
X54394722Y-48217635D01*
X54463019Y-48171369D01*
X54519527Y-48133630D01*
X54565254Y-48103778D01*
X54601208Y-48081172D01*
X54628395Y-48065172D01*
X54647823Y-48055136D01*
X54660499Y-48050426D01*
X54664621Y-48049867D01*
X54682360Y-48054176D01*
X54713288Y-48066716D01*
X54756137Y-48086905D01*
X54809638Y-48114161D01*
X54840067Y-48130300D01*
X54886472Y-48154865D01*
X54928341Y-48176402D01*
X54963198Y-48193689D01*
X54988568Y-48205501D01*
X55001977Y-48210617D01*
X55002887Y-48210733D01*
X55019444Y-48204669D01*
X55024334Y-48200150D01*
X55028741Y-48190948D01*
X55039138Y-48167196D01*
X55055060Y-48130002D01*
X55076045Y-48080470D01*
X55101629Y-48019708D01*
X55131348Y-47948821D01*
X55164738Y-47868915D01*
X55201336Y-47781097D01*
X55240679Y-47686473D01*
X55282303Y-47586149D01*
X55325744Y-47481232D01*
X55334761Y-47459427D01*
X55387488Y-47331768D01*
X55433983Y-47218883D01*
X55474575Y-47119939D01*
X55509593Y-47034098D01*
X55539364Y-46960526D01*
X55564218Y-46898386D01*
X55584483Y-46846843D01*
X55600487Y-46805061D01*
X55612560Y-46772204D01*
X55621029Y-46747437D01*
X55626223Y-46729925D01*
X55628471Y-46718830D01*
X55628101Y-46713319D01*
X55628090Y-46713297D01*
X55616589Y-46700350D01*
X55595494Y-46683088D01*
X55574816Y-46668820D01*
X55456951Y-46586495D01*
X55355205Y-46499727D01*
X55269207Y-46407930D01*
X55198586Y-46310515D01*
X55142973Y-46206895D01*
X55101997Y-46096483D01*
X55075288Y-45978691D01*
X55062637Y-45856343D01*
X55064902Y-45734186D01*
X55083147Y-45614886D01*
X55116484Y-45499820D01*
X55164024Y-45390369D01*
X55224878Y-45287911D01*
X55298158Y-45193826D01*
X55382975Y-45109493D01*
X55478441Y-45036292D01*
X55583667Y-44975601D01*
X55648633Y-44946751D01*
X55768132Y-44907958D01*
X55889495Y-44885439D01*
X56011279Y-44878917D01*
X56132038Y-44888117D01*
X56250327Y-44912761D01*
X56364702Y-44952573D01*
X56473718Y-45007277D01*
X56575931Y-45076597D01*
X56646970Y-45137740D01*
X56731162Y-45228909D01*
X56801262Y-45328183D01*
X56857150Y-45434100D01*
X56898706Y-45545200D01*
X56925811Y-45660020D01*
X56938343Y-45777098D01*
X56936185Y-45894974D01*
X56919214Y-46012185D01*
X56887312Y-46127271D01*
X56840359Y-46238768D01*
X56778234Y-46345217D01*
X56749388Y-46385684D01*
X56682612Y-46463697D01*
X56600885Y-46539920D01*
X56503464Y-46615004D01*
X56429925Y-46664431D01*
X56403707Y-46682796D01*
X56382829Y-46700321D01*
X56372418Y-46712349D01*
X56371725Y-46717390D01*
X56373202Y-46726887D01*
X56377195Y-46741726D01*
X56384051Y-46762791D01*
X56394115Y-46790964D01*
X56407735Y-46827129D01*
X56425257Y-46872171D01*
X56447026Y-46926972D01*
X56473390Y-46992417D01*
X56504695Y-47069390D01*
X56541287Y-47158774D01*
X56583512Y-47261452D01*
X56631718Y-47378309D01*
X56665239Y-47459427D01*
X56708993Y-47565144D01*
X56751024Y-47666492D01*
X56790868Y-47762365D01*
X56828063Y-47851657D01*
X56862143Y-47933261D01*
X56892646Y-48006073D01*
X56919109Y-48068984D01*
X56941066Y-48120890D01*
X56958056Y-48160684D01*
X56969615Y-48187259D01*
X56975278Y-48199510D01*
X56975666Y-48200150D01*
X56990455Y-48209702D01*
X56996612Y-48210733D01*
X57007588Y-48206879D01*
X57030963Y-48196129D01*
X57064269Y-48179704D01*
X57105044Y-48158824D01*
X57150823Y-48134709D01*
X57159067Y-48130300D01*
X57217586Y-48099666D01*
X57266013Y-48075847D01*
X57303099Y-48059415D01*
X57327596Y-48050941D01*
X57334694Y-48049867D01*
X57346009Y-48052396D01*
X57363892Y-48060485D01*
X57389561Y-48074883D01*
X57424234Y-48096340D01*
X57469126Y-48125604D01*
X57525456Y-48163425D01*
X57583952Y-48203351D01*
X57677515Y-48267525D01*
X57758049Y-48322698D01*
X57826465Y-48369485D01*
X57883672Y-48408498D01*
X57930581Y-48440351D01*
X57968102Y-48465659D01*
X57997146Y-48485034D01*
X58018622Y-48499092D01*
X58033442Y-48508444D01*
X58042514Y-48513706D01*
X58046750Y-48515491D01*
X58046928Y-48515502D01*
X58057679Y-48511386D01*
X58075803Y-48501348D01*
X58078567Y-48499649D01*
X58089738Y-48490395D01*
X58111266Y-48470469D01*
X58141693Y-48441335D01*
X58179566Y-48404456D01*
X58223429Y-48361296D01*
X58271827Y-48313317D01*
X58323305Y-48261984D01*
X58376408Y-48208759D01*
X58429681Y-48155105D01*
X58481668Y-48102487D01*
X58530915Y-48052366D01*
X58575966Y-48006207D01*
X58615367Y-47965473D01*
X58647662Y-47931626D01*
X58671397Y-47906131D01*
X58685115Y-47890450D01*
X58687347Y-47887451D01*
X58696784Y-47868573D01*
X58695302Y-47852887D01*
X58691647Y-47845118D01*
X58684858Y-47834331D01*
X58669459Y-47811052D01*
X58646437Y-47776739D01*
X58616780Y-47732849D01*
X58581475Y-47680842D01*
X58541510Y-47622175D01*
X58497873Y-47558305D01*
X58452339Y-47491839D01*
X58397626Y-47411885D01*
X58351940Y-47344643D01*
X58314565Y-47288980D01*
X58284781Y-47243760D01*
X58261870Y-47207849D01*
X58245115Y-47180114D01*
X58233795Y-47159418D01*
X58227194Y-47144629D01*
X58224592Y-47134610D01*
X58224494Y-47132006D01*
X58227831Y-47118619D01*
X58236918Y-47091389D01*
X58251068Y-47052139D01*
X58269597Y-47002688D01*
X58291819Y-46944856D01*
X58317047Y-46880465D01*
X58344596Y-46811335D01*
X58355251Y-46784892D01*
X58389691Y-46700111D01*
X58418609Y-46629947D01*
X58442540Y-46573204D01*
X58462021Y-46528687D01*
X58477591Y-46495201D01*
X58489785Y-46471550D01*
X58499140Y-46456539D01*
X58506134Y-46449015D01*
X58519408Y-46443631D01*
X58547253Y-46436047D01*
X58590022Y-46426189D01*
X58648066Y-46413984D01*
X58721740Y-46399358D01*
X58811396Y-46382236D01*
X58917387Y-46362546D01*
X58929467Y-46360328D01*
X59010362Y-46345325D01*
X59086603Y-46330862D01*
X59156479Y-46317287D01*
X59218281Y-46304945D01*
X59270300Y-46294185D01*
X59310827Y-46285353D01*
X59338152Y-46278797D01*
X59350565Y-46274864D01*
X59350684Y-46274794D01*
X59369734Y-46263009D01*
X59369734Y-45815784D01*
X59369703Y-45717000D01*
X59369581Y-45633775D01*
X59369324Y-45564733D01*
X59368888Y-45508500D01*
X59368228Y-45463702D01*
X59367300Y-45428962D01*
X59366060Y-45402906D01*
X59364463Y-45384160D01*
X59362465Y-45371348D01*
X59360022Y-45363096D01*
X59357089Y-45358029D01*
X59354917Y-45355807D01*
X59342920Y-45351188D01*
X59314949Y-45343919D01*
X59271733Y-45334150D01*
X59213998Y-45322032D01*
X59142470Y-45307715D01*
X59057878Y-45291352D01*
X58960947Y-45273092D01*
X58916767Y-45264900D01*
X58820096Y-45246985D01*
X58738748Y-45231734D01*
X58671373Y-45218851D01*
X58616620Y-45208041D01*
X58573141Y-45199009D01*
X58539585Y-45191459D01*
X58514601Y-45185096D01*
X58496841Y-45179625D01*
X58484953Y-45174749D01*
X58477589Y-45170175D01*
X58475631Y-45168388D01*
X58467868Y-45156018D01*
X58454703Y-45130135D01*
X58437037Y-45092851D01*
X58415770Y-45046275D01*
X58391802Y-44992516D01*
X58366033Y-44933686D01*
X58339363Y-44871895D01*
X58312692Y-44809251D01*
X58286921Y-44747867D01*
X58262949Y-44689850D01*
X58241676Y-44637312D01*
X58224003Y-44592363D01*
X58210830Y-44557113D01*
X58203056Y-44533671D01*
X58201307Y-44525279D01*
X58204484Y-44514774D01*
X58214307Y-44495520D01*
X58231234Y-44466805D01*
X58255723Y-44427917D01*
X58288233Y-44378142D01*
X58329222Y-44316768D01*
X58379149Y-44243082D01*
X58438473Y-44156372D01*
X58440517Y-44153395D01*
X58487854Y-44084395D01*
X58532501Y-44019176D01*
X58573490Y-43959157D01*
X58609858Y-43905758D01*
X58640639Y-43860400D01*
X58664868Y-43824501D01*
X58681580Y-43799483D01*
X58689810Y-43786764D01*
X58690276Y-43785964D01*
X58696245Y-43759970D01*
X58693095Y-43747214D01*
X58685725Y-43737570D01*
X58667474Y-43717227D01*
X58639506Y-43687388D01*
X58602985Y-43649256D01*
X58559073Y-43604034D01*
X58508935Y-43552925D01*
X58453733Y-43497134D01*
X58394632Y-43437863D01*
X58376323Y-43419592D01*
X58306022Y-43349628D01*
X58246644Y-43290831D01*
X58197222Y-43242307D01*
X58156793Y-43203164D01*
X58124391Y-43172510D01*
X58099051Y-43149451D01*
X58079807Y-43133095D01*
X58065695Y-43122549D01*
X58055750Y-43116920D01*
X58049006Y-43115315D01*
X58047538Y-43115470D01*
X58036912Y-43120914D01*
X58013750Y-43135092D01*
X57979431Y-43157090D01*
X57935334Y-43185995D01*
X57882840Y-43220893D01*
X57823327Y-43260870D01*
X57758177Y-43305012D01*
X57688767Y-43352407D01*
X57662269Y-43370595D01*
X57566480Y-43436141D01*
X57484322Y-43491742D01*
X57415745Y-43537429D01*
X57360698Y-43573234D01*
X57319132Y-43599191D01*
X57290997Y-43615332D01*
X57276242Y-43621688D01*
X57275172Y-43621800D01*
X57262507Y-43618631D01*
X57236415Y-43609702D01*
X57199030Y-43595883D01*
X57152483Y-43578042D01*
X57098907Y-43557047D01*
X57040435Y-43533767D01*
X56979199Y-43509070D01*
X56917331Y-43483826D01*
X56856964Y-43458903D01*
X56800230Y-43435169D01*
X56749261Y-43413493D01*
X56706191Y-43394744D01*
X56673152Y-43379790D01*
X56652276Y-43369499D01*
X56646052Y-43365547D01*
X56641624Y-43354284D01*
X56634516Y-43327056D01*
X56624879Y-43284593D01*
X56612865Y-43227623D01*
X56598624Y-43156876D01*
X56582309Y-43073082D01*
X56564072Y-42976971D01*
X56553104Y-42918194D01*
X56537330Y-42834044D01*
X56522118Y-42754531D01*
X56507804Y-42681290D01*
X56494722Y-42615955D01*
X56483204Y-42560161D01*
X56473586Y-42515542D01*
X56466200Y-42483734D01*
X56461380Y-42466370D01*
X56460346Y-42463983D01*
X56448343Y-42444933D01*
X55551657Y-42444933D01*
X55539609Y-42463983D01*
D12*
%TO.C,C1*%
X93410000Y-94337221D02*
X93410000Y-94662779D01*
X92390000Y-94337221D02*
X92390000Y-94662779D01*
%TO.C,C2*%
X81337221Y-101740000D02*
X81662779Y-101740000D01*
X81337221Y-102760000D02*
X81662779Y-102760000D01*
%TO.C,C3*%
X94760000Y-91162779D02*
X94760000Y-90837221D01*
X93740000Y-91162779D02*
X93740000Y-90837221D01*
%TO.C,C4*%
X92760000Y-104662779D02*
X92760000Y-104337221D01*
X91740000Y-104662779D02*
X91740000Y-104337221D01*
%TO.C,C5*%
X91010000Y-112087221D02*
X91010000Y-112412779D01*
X89990000Y-112087221D02*
X89990000Y-112412779D01*
%TO.C,C6*%
X85740000Y-112087221D02*
X85740000Y-112412779D01*
X86760000Y-112087221D02*
X86760000Y-112412779D01*
%TO.C,C7*%
X81337221Y-100240000D02*
X81662779Y-100240000D01*
X81337221Y-101260000D02*
X81662779Y-101260000D01*
%TO.C,C8*%
X81337221Y-97510000D02*
X81662779Y-97510000D01*
X81337221Y-96490000D02*
X81662779Y-96490000D01*
%TO.C,C9*%
X87510000Y-84662779D02*
X87510000Y-84337221D01*
X86490000Y-84662779D02*
X86490000Y-84337221D01*
%TO.C,C10*%
X93010000Y-83662779D02*
X93010000Y-83337221D01*
X91990000Y-83662779D02*
X91990000Y-83337221D01*
%TO.C,C11*%
X88912779Y-97740000D02*
X88587221Y-97740000D01*
X88912779Y-98760000D02*
X88587221Y-98760000D01*
%TO.C,C12*%
X95210000Y-94337221D02*
X95210000Y-94662779D01*
X94190000Y-94337221D02*
X94190000Y-94662779D01*
%TO.C,C13*%
X81010000Y-82662779D02*
X81010000Y-82337221D01*
X79990000Y-82662779D02*
X79990000Y-82337221D01*
%TO.C,C14*%
X81087221Y-106010000D02*
X81412779Y-106010000D01*
X81087221Y-104990000D02*
X81412779Y-104990000D01*
%TO.C,C15*%
X78260000Y-82662779D02*
X78260000Y-82337221D01*
X77240000Y-82662779D02*
X77240000Y-82337221D01*
%TO.C,C16*%
X81337221Y-99260000D02*
X81662779Y-99260000D01*
X81337221Y-98240000D02*
X81662779Y-98240000D01*
%TO.C,C17*%
X92760000Y-90837221D02*
X92760000Y-91162779D01*
X91740000Y-90837221D02*
X91740000Y-91162779D01*
%TO.C,C37*%
X83717221Y-90280000D02*
X84042779Y-90280000D01*
X83717221Y-91300000D02*
X84042779Y-91300000D01*
%TO.C,C38*%
X83717221Y-91780000D02*
X84042779Y-91780000D01*
X83717221Y-92800000D02*
X84042779Y-92800000D01*
%TO.C,C39*%
X88087221Y-103490000D02*
X88412779Y-103490000D01*
X88087221Y-104510000D02*
X88412779Y-104510000D01*
%TO.C,C40*%
X88087221Y-106010000D02*
X88412779Y-106010000D01*
X88087221Y-104990000D02*
X88412779Y-104990000D01*
%TO.C,C48*%
X69260000Y-98162779D02*
X69260000Y-97837221D01*
X68240000Y-98162779D02*
X68240000Y-97837221D01*
%TO.C,C49*%
X64760000Y-97837221D02*
X64760000Y-98162779D01*
X63740000Y-97837221D02*
X63740000Y-98162779D01*
%TO.C,C83*%
X83990000Y-60662779D02*
X83990000Y-60337221D01*
X85010000Y-60662779D02*
X85010000Y-60337221D01*
%TO.C,R15*%
X82140000Y-91702779D02*
X82140000Y-91377221D01*
X81120000Y-91702779D02*
X81120000Y-91377221D01*
%TO.C,R16*%
X86510000Y-104587221D02*
X86510000Y-104912779D01*
X85490000Y-104587221D02*
X85490000Y-104912779D01*
%TO.C,R42*%
X94587221Y-82240000D02*
X94912779Y-82240000D01*
X94587221Y-83260000D02*
X94912779Y-83260000D01*
%TO.C,R43*%
X92310000Y-65587221D02*
X92310000Y-65912779D01*
X91290000Y-65587221D02*
X91290000Y-65912779D01*
%TO.C,C54*%
X94587221Y-74510000D02*
X94912779Y-74510000D01*
X94587221Y-73490000D02*
X94912779Y-73490000D01*
%TO.C,C55*%
X94587221Y-71990000D02*
X94912779Y-71990000D01*
X94587221Y-73010000D02*
X94912779Y-73010000D01*
%TO.C,C56*%
X97912779Y-73490000D02*
X97587221Y-73490000D01*
X97912779Y-74510000D02*
X97587221Y-74510000D01*
%TO.C,C57*%
X97912779Y-73010000D02*
X97587221Y-73010000D01*
X97912779Y-71990000D02*
X97587221Y-71990000D01*
%TO.C,C1*%
D10*
X92916666Y-97357142D02*
X92964285Y-97404761D01*
X93107142Y-97452380D01*
X93202380Y-97452380D01*
X93345238Y-97404761D01*
X93440476Y-97309523D01*
X93488095Y-97214285D01*
X93535714Y-97023809D01*
X93535714Y-96880952D01*
X93488095Y-96690476D01*
X93440476Y-96595238D01*
X93345238Y-96500000D01*
X93202380Y-96452380D01*
X93107142Y-96452380D01*
X92964285Y-96500000D01*
X92916666Y-96547619D01*
X91964285Y-97452380D02*
X92535714Y-97452380D01*
X92250000Y-97452380D02*
X92250000Y-96452380D01*
X92345238Y-96595238D01*
X92440476Y-96690476D01*
X92535714Y-96738095D01*
%TO.C,C2*%
X78166666Y-102607142D02*
X78214285Y-102654761D01*
X78357142Y-102702380D01*
X78452380Y-102702380D01*
X78595238Y-102654761D01*
X78690476Y-102559523D01*
X78738095Y-102464285D01*
X78785714Y-102273809D01*
X78785714Y-102130952D01*
X78738095Y-101940476D01*
X78690476Y-101845238D01*
X78595238Y-101750000D01*
X78452380Y-101702380D01*
X78357142Y-101702380D01*
X78214285Y-101750000D01*
X78166666Y-101797619D01*
X77785714Y-101797619D02*
X77738095Y-101750000D01*
X77642857Y-101702380D01*
X77404761Y-101702380D01*
X77309523Y-101750000D01*
X77261904Y-101797619D01*
X77214285Y-101892857D01*
X77214285Y-101988095D01*
X77261904Y-102130952D01*
X77833333Y-102702380D01*
X77214285Y-102702380D01*
%TO.C,C3*%
X96037142Y-90833333D02*
X96084761Y-90785714D01*
X96132380Y-90642857D01*
X96132380Y-90547619D01*
X96084761Y-90404761D01*
X95989523Y-90309523D01*
X95894285Y-90261904D01*
X95703809Y-90214285D01*
X95560952Y-90214285D01*
X95370476Y-90261904D01*
X95275238Y-90309523D01*
X95180000Y-90404761D01*
X95132380Y-90547619D01*
X95132380Y-90642857D01*
X95180000Y-90785714D01*
X95227619Y-90833333D01*
X95132380Y-91166666D02*
X95132380Y-91785714D01*
X95513333Y-91452380D01*
X95513333Y-91595238D01*
X95560952Y-91690476D01*
X95608571Y-91738095D01*
X95703809Y-91785714D01*
X95941904Y-91785714D01*
X96037142Y-91738095D01*
X96084761Y-91690476D01*
X96132380Y-91595238D01*
X96132380Y-91309523D01*
X96084761Y-91214285D01*
X96037142Y-91166666D01*
%TO.C,C4*%
X95357142Y-104333333D02*
X95404761Y-104285714D01*
X95452380Y-104142857D01*
X95452380Y-104047619D01*
X95404761Y-103904761D01*
X95309523Y-103809523D01*
X95214285Y-103761904D01*
X95023809Y-103714285D01*
X94880952Y-103714285D01*
X94690476Y-103761904D01*
X94595238Y-103809523D01*
X94500000Y-103904761D01*
X94452380Y-104047619D01*
X94452380Y-104142857D01*
X94500000Y-104285714D01*
X94547619Y-104333333D01*
X94785714Y-105190476D02*
X95452380Y-105190476D01*
X94404761Y-104952380D02*
X95119047Y-104714285D01*
X95119047Y-105333333D01*
%TO.C,C5*%
X93357142Y-111833333D02*
X93404761Y-111785714D01*
X93452380Y-111642857D01*
X93452380Y-111547619D01*
X93404761Y-111404761D01*
X93309523Y-111309523D01*
X93214285Y-111261904D01*
X93023809Y-111214285D01*
X92880952Y-111214285D01*
X92690476Y-111261904D01*
X92595238Y-111309523D01*
X92500000Y-111404761D01*
X92452380Y-111547619D01*
X92452380Y-111642857D01*
X92500000Y-111785714D01*
X92547619Y-111833333D01*
X92452380Y-112738095D02*
X92452380Y-112261904D01*
X92928571Y-112214285D01*
X92880952Y-112261904D01*
X92833333Y-112357142D01*
X92833333Y-112595238D01*
X92880952Y-112690476D01*
X92928571Y-112738095D01*
X93023809Y-112785714D01*
X93261904Y-112785714D01*
X93357142Y-112738095D01*
X93404761Y-112690476D01*
X93452380Y-112595238D01*
X93452380Y-112357142D01*
X93404761Y-112261904D01*
X93357142Y-112214285D01*
%TO.C,C6*%
X85177142Y-112083333D02*
X85224761Y-112035714D01*
X85272380Y-111892857D01*
X85272380Y-111797619D01*
X85224761Y-111654761D01*
X85129523Y-111559523D01*
X85034285Y-111511904D01*
X84843809Y-111464285D01*
X84700952Y-111464285D01*
X84510476Y-111511904D01*
X84415238Y-111559523D01*
X84320000Y-111654761D01*
X84272380Y-111797619D01*
X84272380Y-111892857D01*
X84320000Y-112035714D01*
X84367619Y-112083333D01*
X84272380Y-112940476D02*
X84272380Y-112750000D01*
X84320000Y-112654761D01*
X84367619Y-112607142D01*
X84510476Y-112511904D01*
X84700952Y-112464285D01*
X85081904Y-112464285D01*
X85177142Y-112511904D01*
X85224761Y-112559523D01*
X85272380Y-112654761D01*
X85272380Y-112845238D01*
X85224761Y-112940476D01*
X85177142Y-112988095D01*
X85081904Y-113035714D01*
X84843809Y-113035714D01*
X84748571Y-112988095D01*
X84700952Y-112940476D01*
X84653333Y-112845238D01*
X84653333Y-112654761D01*
X84700952Y-112559523D01*
X84748571Y-112511904D01*
X84843809Y-112464285D01*
%TO.C,C7*%
X78166666Y-101107142D02*
X78214285Y-101154761D01*
X78357142Y-101202380D01*
X78452380Y-101202380D01*
X78595238Y-101154761D01*
X78690476Y-101059523D01*
X78738095Y-100964285D01*
X78785714Y-100773809D01*
X78785714Y-100630952D01*
X78738095Y-100440476D01*
X78690476Y-100345238D01*
X78595238Y-100250000D01*
X78452380Y-100202380D01*
X78357142Y-100202380D01*
X78214285Y-100250000D01*
X78166666Y-100297619D01*
X77833333Y-100202380D02*
X77166666Y-100202380D01*
X77595238Y-101202380D01*
%TO.C,C8*%
X78166666Y-97357142D02*
X78214285Y-97404761D01*
X78357142Y-97452380D01*
X78452380Y-97452380D01*
X78595238Y-97404761D01*
X78690476Y-97309523D01*
X78738095Y-97214285D01*
X78785714Y-97023809D01*
X78785714Y-96880952D01*
X78738095Y-96690476D01*
X78690476Y-96595238D01*
X78595238Y-96500000D01*
X78452380Y-96452380D01*
X78357142Y-96452380D01*
X78214285Y-96500000D01*
X78166666Y-96547619D01*
X77595238Y-96880952D02*
X77690476Y-96833333D01*
X77738095Y-96785714D01*
X77785714Y-96690476D01*
X77785714Y-96642857D01*
X77738095Y-96547619D01*
X77690476Y-96500000D01*
X77595238Y-96452380D01*
X77404761Y-96452380D01*
X77309523Y-96500000D01*
X77261904Y-96547619D01*
X77214285Y-96642857D01*
X77214285Y-96690476D01*
X77261904Y-96785714D01*
X77309523Y-96833333D01*
X77404761Y-96880952D01*
X77595238Y-96880952D01*
X77690476Y-96928571D01*
X77738095Y-96976190D01*
X77785714Y-97071428D01*
X77785714Y-97261904D01*
X77738095Y-97357142D01*
X77690476Y-97404761D01*
X77595238Y-97452380D01*
X77404761Y-97452380D01*
X77309523Y-97404761D01*
X77261904Y-97357142D01*
X77214285Y-97261904D01*
X77214285Y-97071428D01*
X77261904Y-96976190D01*
X77309523Y-96928571D01*
X77404761Y-96880952D01*
%TO.C,C9*%
X85857142Y-84333333D02*
X85904761Y-84285714D01*
X85952380Y-84142857D01*
X85952380Y-84047619D01*
X85904761Y-83904761D01*
X85809523Y-83809523D01*
X85714285Y-83761904D01*
X85523809Y-83714285D01*
X85380952Y-83714285D01*
X85190476Y-83761904D01*
X85095238Y-83809523D01*
X85000000Y-83904761D01*
X84952380Y-84047619D01*
X84952380Y-84142857D01*
X85000000Y-84285714D01*
X85047619Y-84333333D01*
X85952380Y-84809523D02*
X85952380Y-85000000D01*
X85904761Y-85095238D01*
X85857142Y-85142857D01*
X85714285Y-85238095D01*
X85523809Y-85285714D01*
X85142857Y-85285714D01*
X85047619Y-85238095D01*
X85000000Y-85190476D01*
X84952380Y-85095238D01*
X84952380Y-84904761D01*
X85000000Y-84809523D01*
X85047619Y-84761904D01*
X85142857Y-84714285D01*
X85380952Y-84714285D01*
X85476190Y-84761904D01*
X85523809Y-84809523D01*
X85571428Y-84904761D01*
X85571428Y-85095238D01*
X85523809Y-85190476D01*
X85476190Y-85238095D01*
X85380952Y-85285714D01*
%TO.C,C10*%
X91357142Y-82857142D02*
X91404761Y-82809523D01*
X91452380Y-82666666D01*
X91452380Y-82571428D01*
X91404761Y-82428571D01*
X91309523Y-82333333D01*
X91214285Y-82285714D01*
X91023809Y-82238095D01*
X90880952Y-82238095D01*
X90690476Y-82285714D01*
X90595238Y-82333333D01*
X90500000Y-82428571D01*
X90452380Y-82571428D01*
X90452380Y-82666666D01*
X90500000Y-82809523D01*
X90547619Y-82857142D01*
X91452380Y-83809523D02*
X91452380Y-83238095D01*
X91452380Y-83523809D02*
X90452380Y-83523809D01*
X90595238Y-83428571D01*
X90690476Y-83333333D01*
X90738095Y-83238095D01*
X90452380Y-84428571D02*
X90452380Y-84523809D01*
X90500000Y-84619047D01*
X90547619Y-84666666D01*
X90642857Y-84714285D01*
X90833333Y-84761904D01*
X91071428Y-84761904D01*
X91261904Y-84714285D01*
X91357142Y-84666666D01*
X91404761Y-84619047D01*
X91452380Y-84523809D01*
X91452380Y-84428571D01*
X91404761Y-84333333D01*
X91357142Y-84285714D01*
X91261904Y-84238095D01*
X91071428Y-84190476D01*
X90833333Y-84190476D01*
X90642857Y-84238095D01*
X90547619Y-84285714D01*
X90500000Y-84333333D01*
X90452380Y-84428571D01*
%TO.C,C11*%
X89892857Y-100107142D02*
X89940476Y-100154761D01*
X90083333Y-100202380D01*
X90178571Y-100202380D01*
X90321428Y-100154761D01*
X90416666Y-100059523D01*
X90464285Y-99964285D01*
X90511904Y-99773809D01*
X90511904Y-99630952D01*
X90464285Y-99440476D01*
X90416666Y-99345238D01*
X90321428Y-99250000D01*
X90178571Y-99202380D01*
X90083333Y-99202380D01*
X89940476Y-99250000D01*
X89892857Y-99297619D01*
X88940476Y-100202380D02*
X89511904Y-100202380D01*
X89226190Y-100202380D02*
X89226190Y-99202380D01*
X89321428Y-99345238D01*
X89416666Y-99440476D01*
X89511904Y-99488095D01*
X87988095Y-100202380D02*
X88559523Y-100202380D01*
X88273809Y-100202380D02*
X88273809Y-99202380D01*
X88369047Y-99345238D01*
X88464285Y-99440476D01*
X88559523Y-99488095D01*
%TO.C,C12*%
X96607142Y-94607142D02*
X96654761Y-94559523D01*
X96702380Y-94416666D01*
X96702380Y-94321428D01*
X96654761Y-94178571D01*
X96559523Y-94083333D01*
X96464285Y-94035714D01*
X96273809Y-93988095D01*
X96130952Y-93988095D01*
X95940476Y-94035714D01*
X95845238Y-94083333D01*
X95750000Y-94178571D01*
X95702380Y-94321428D01*
X95702380Y-94416666D01*
X95750000Y-94559523D01*
X95797619Y-94607142D01*
X96702380Y-95559523D02*
X96702380Y-94988095D01*
X96702380Y-95273809D02*
X95702380Y-95273809D01*
X95845238Y-95178571D01*
X95940476Y-95083333D01*
X95988095Y-94988095D01*
X95797619Y-95940476D02*
X95750000Y-95988095D01*
X95702380Y-96083333D01*
X95702380Y-96321428D01*
X95750000Y-96416666D01*
X95797619Y-96464285D01*
X95892857Y-96511904D01*
X95988095Y-96511904D01*
X96130952Y-96464285D01*
X96702380Y-95892857D01*
X96702380Y-96511904D01*
%TO.C,C13*%
X82357142Y-81857142D02*
X82404761Y-81809523D01*
X82452380Y-81666666D01*
X82452380Y-81571428D01*
X82404761Y-81428571D01*
X82309523Y-81333333D01*
X82214285Y-81285714D01*
X82023809Y-81238095D01*
X81880952Y-81238095D01*
X81690476Y-81285714D01*
X81595238Y-81333333D01*
X81500000Y-81428571D01*
X81452380Y-81571428D01*
X81452380Y-81666666D01*
X81500000Y-81809523D01*
X81547619Y-81857142D01*
X82452380Y-82809523D02*
X82452380Y-82238095D01*
X82452380Y-82523809D02*
X81452380Y-82523809D01*
X81595238Y-82428571D01*
X81690476Y-82333333D01*
X81738095Y-82238095D01*
X81452380Y-83142857D02*
X81452380Y-83761904D01*
X81833333Y-83428571D01*
X81833333Y-83571428D01*
X81880952Y-83666666D01*
X81928571Y-83714285D01*
X82023809Y-83761904D01*
X82261904Y-83761904D01*
X82357142Y-83714285D01*
X82404761Y-83666666D01*
X82452380Y-83571428D01*
X82452380Y-83285714D01*
X82404761Y-83190476D01*
X82357142Y-83142857D01*
%TO.C,C14*%
X81892857Y-107287142D02*
X81940476Y-107334761D01*
X82083333Y-107382380D01*
X82178571Y-107382380D01*
X82321428Y-107334761D01*
X82416666Y-107239523D01*
X82464285Y-107144285D01*
X82511904Y-106953809D01*
X82511904Y-106810952D01*
X82464285Y-106620476D01*
X82416666Y-106525238D01*
X82321428Y-106430000D01*
X82178571Y-106382380D01*
X82083333Y-106382380D01*
X81940476Y-106430000D01*
X81892857Y-106477619D01*
X80940476Y-107382380D02*
X81511904Y-107382380D01*
X81226190Y-107382380D02*
X81226190Y-106382380D01*
X81321428Y-106525238D01*
X81416666Y-106620476D01*
X81511904Y-106668095D01*
X80083333Y-106715714D02*
X80083333Y-107382380D01*
X80321428Y-106334761D02*
X80559523Y-107049047D01*
X79940476Y-107049047D01*
%TO.C,C15*%
X76607142Y-81857142D02*
X76654761Y-81809523D01*
X76702380Y-81666666D01*
X76702380Y-81571428D01*
X76654761Y-81428571D01*
X76559523Y-81333333D01*
X76464285Y-81285714D01*
X76273809Y-81238095D01*
X76130952Y-81238095D01*
X75940476Y-81285714D01*
X75845238Y-81333333D01*
X75750000Y-81428571D01*
X75702380Y-81571428D01*
X75702380Y-81666666D01*
X75750000Y-81809523D01*
X75797619Y-81857142D01*
X76702380Y-82809523D02*
X76702380Y-82238095D01*
X76702380Y-82523809D02*
X75702380Y-82523809D01*
X75845238Y-82428571D01*
X75940476Y-82333333D01*
X75988095Y-82238095D01*
X75702380Y-83714285D02*
X75702380Y-83238095D01*
X76178571Y-83190476D01*
X76130952Y-83238095D01*
X76083333Y-83333333D01*
X76083333Y-83571428D01*
X76130952Y-83666666D01*
X76178571Y-83714285D01*
X76273809Y-83761904D01*
X76511904Y-83761904D01*
X76607142Y-83714285D01*
X76654761Y-83666666D01*
X76702380Y-83571428D01*
X76702380Y-83333333D01*
X76654761Y-83238095D01*
X76607142Y-83190476D01*
%TO.C,C16*%
X78392857Y-99107142D02*
X78440476Y-99154761D01*
X78583333Y-99202380D01*
X78678571Y-99202380D01*
X78821428Y-99154761D01*
X78916666Y-99059523D01*
X78964285Y-98964285D01*
X79011904Y-98773809D01*
X79011904Y-98630952D01*
X78964285Y-98440476D01*
X78916666Y-98345238D01*
X78821428Y-98250000D01*
X78678571Y-98202380D01*
X78583333Y-98202380D01*
X78440476Y-98250000D01*
X78392857Y-98297619D01*
X77440476Y-99202380D02*
X78011904Y-99202380D01*
X77726190Y-99202380D02*
X77726190Y-98202380D01*
X77821428Y-98345238D01*
X77916666Y-98440476D01*
X78011904Y-98488095D01*
X76583333Y-98202380D02*
X76773809Y-98202380D01*
X76869047Y-98250000D01*
X76916666Y-98297619D01*
X77011904Y-98440476D01*
X77059523Y-98630952D01*
X77059523Y-99011904D01*
X77011904Y-99107142D01*
X76964285Y-99154761D01*
X76869047Y-99202380D01*
X76678571Y-99202380D01*
X76583333Y-99154761D01*
X76535714Y-99107142D01*
X76488095Y-99011904D01*
X76488095Y-98773809D01*
X76535714Y-98678571D01*
X76583333Y-98630952D01*
X76678571Y-98583333D01*
X76869047Y-98583333D01*
X76964285Y-98630952D01*
X77011904Y-98678571D01*
X77059523Y-98773809D01*
%TO.C,C17*%
X91107142Y-88607142D02*
X91154761Y-88559523D01*
X91202380Y-88416666D01*
X91202380Y-88321428D01*
X91154761Y-88178571D01*
X91059523Y-88083333D01*
X90964285Y-88035714D01*
X90773809Y-87988095D01*
X90630952Y-87988095D01*
X90440476Y-88035714D01*
X90345238Y-88083333D01*
X90250000Y-88178571D01*
X90202380Y-88321428D01*
X90202380Y-88416666D01*
X90250000Y-88559523D01*
X90297619Y-88607142D01*
X91202380Y-89559523D02*
X91202380Y-88988095D01*
X91202380Y-89273809D02*
X90202380Y-89273809D01*
X90345238Y-89178571D01*
X90440476Y-89083333D01*
X90488095Y-88988095D01*
X90202380Y-89892857D02*
X90202380Y-90559523D01*
X91202380Y-90130952D01*
%TO.C,C37*%
X87392857Y-90607142D02*
X87440476Y-90654761D01*
X87583333Y-90702380D01*
X87678571Y-90702380D01*
X87821428Y-90654761D01*
X87916666Y-90559523D01*
X87964285Y-90464285D01*
X88011904Y-90273809D01*
X88011904Y-90130952D01*
X87964285Y-89940476D01*
X87916666Y-89845238D01*
X87821428Y-89750000D01*
X87678571Y-89702380D01*
X87583333Y-89702380D01*
X87440476Y-89750000D01*
X87392857Y-89797619D01*
X87059523Y-89702380D02*
X86440476Y-89702380D01*
X86773809Y-90083333D01*
X86630952Y-90083333D01*
X86535714Y-90130952D01*
X86488095Y-90178571D01*
X86440476Y-90273809D01*
X86440476Y-90511904D01*
X86488095Y-90607142D01*
X86535714Y-90654761D01*
X86630952Y-90702380D01*
X86916666Y-90702380D01*
X87011904Y-90654761D01*
X87059523Y-90607142D01*
X86107142Y-89702380D02*
X85440476Y-89702380D01*
X85869047Y-90702380D01*
%TO.C,C38*%
X87392857Y-93107142D02*
X87440476Y-93154761D01*
X87583333Y-93202380D01*
X87678571Y-93202380D01*
X87821428Y-93154761D01*
X87916666Y-93059523D01*
X87964285Y-92964285D01*
X88011904Y-92773809D01*
X88011904Y-92630952D01*
X87964285Y-92440476D01*
X87916666Y-92345238D01*
X87821428Y-92250000D01*
X87678571Y-92202380D01*
X87583333Y-92202380D01*
X87440476Y-92250000D01*
X87392857Y-92297619D01*
X87059523Y-92202380D02*
X86440476Y-92202380D01*
X86773809Y-92583333D01*
X86630952Y-92583333D01*
X86535714Y-92630952D01*
X86488095Y-92678571D01*
X86440476Y-92773809D01*
X86440476Y-93011904D01*
X86488095Y-93107142D01*
X86535714Y-93154761D01*
X86630952Y-93202380D01*
X86916666Y-93202380D01*
X87011904Y-93154761D01*
X87059523Y-93107142D01*
X85869047Y-92630952D02*
X85964285Y-92583333D01*
X86011904Y-92535714D01*
X86059523Y-92440476D01*
X86059523Y-92392857D01*
X86011904Y-92297619D01*
X85964285Y-92250000D01*
X85869047Y-92202380D01*
X85678571Y-92202380D01*
X85583333Y-92250000D01*
X85535714Y-92297619D01*
X85488095Y-92392857D01*
X85488095Y-92440476D01*
X85535714Y-92535714D01*
X85583333Y-92583333D01*
X85678571Y-92630952D01*
X85869047Y-92630952D01*
X85964285Y-92678571D01*
X86011904Y-92726190D01*
X86059523Y-92821428D01*
X86059523Y-93011904D01*
X86011904Y-93107142D01*
X85964285Y-93154761D01*
X85869047Y-93202380D01*
X85678571Y-93202380D01*
X85583333Y-93154761D01*
X85535714Y-93107142D01*
X85488095Y-93011904D01*
X85488095Y-92821428D01*
X85535714Y-92726190D01*
X85583333Y-92678571D01*
X85678571Y-92630952D01*
%TO.C,C39*%
X88892857Y-102857142D02*
X88940476Y-102904761D01*
X89083333Y-102952380D01*
X89178571Y-102952380D01*
X89321428Y-102904761D01*
X89416666Y-102809523D01*
X89464285Y-102714285D01*
X89511904Y-102523809D01*
X89511904Y-102380952D01*
X89464285Y-102190476D01*
X89416666Y-102095238D01*
X89321428Y-102000000D01*
X89178571Y-101952380D01*
X89083333Y-101952380D01*
X88940476Y-102000000D01*
X88892857Y-102047619D01*
X88559523Y-101952380D02*
X87940476Y-101952380D01*
X88273809Y-102333333D01*
X88130952Y-102333333D01*
X88035714Y-102380952D01*
X87988095Y-102428571D01*
X87940476Y-102523809D01*
X87940476Y-102761904D01*
X87988095Y-102857142D01*
X88035714Y-102904761D01*
X88130952Y-102952380D01*
X88416666Y-102952380D01*
X88511904Y-102904761D01*
X88559523Y-102857142D01*
X87464285Y-102952380D02*
X87273809Y-102952380D01*
X87178571Y-102904761D01*
X87130952Y-102857142D01*
X87035714Y-102714285D01*
X86988095Y-102523809D01*
X86988095Y-102142857D01*
X87035714Y-102047619D01*
X87083333Y-102000000D01*
X87178571Y-101952380D01*
X87369047Y-101952380D01*
X87464285Y-102000000D01*
X87511904Y-102047619D01*
X87559523Y-102142857D01*
X87559523Y-102380952D01*
X87511904Y-102476190D01*
X87464285Y-102523809D01*
X87369047Y-102571428D01*
X87178571Y-102571428D01*
X87083333Y-102523809D01*
X87035714Y-102476190D01*
X86988095Y-102380952D01*
%TO.C,C40*%
X88892857Y-108357142D02*
X88940476Y-108404761D01*
X89083333Y-108452380D01*
X89178571Y-108452380D01*
X89321428Y-108404761D01*
X89416666Y-108309523D01*
X89464285Y-108214285D01*
X89511904Y-108023809D01*
X89511904Y-107880952D01*
X89464285Y-107690476D01*
X89416666Y-107595238D01*
X89321428Y-107500000D01*
X89178571Y-107452380D01*
X89083333Y-107452380D01*
X88940476Y-107500000D01*
X88892857Y-107547619D01*
X88035714Y-107785714D02*
X88035714Y-108452380D01*
X88273809Y-107404761D02*
X88511904Y-108119047D01*
X87892857Y-108119047D01*
X87321428Y-107452380D02*
X87226190Y-107452380D01*
X87130952Y-107500000D01*
X87083333Y-107547619D01*
X87035714Y-107642857D01*
X86988095Y-107833333D01*
X86988095Y-108071428D01*
X87035714Y-108261904D01*
X87083333Y-108357142D01*
X87130952Y-108404761D01*
X87226190Y-108452380D01*
X87321428Y-108452380D01*
X87416666Y-108404761D01*
X87464285Y-108357142D01*
X87511904Y-108261904D01*
X87559523Y-108071428D01*
X87559523Y-107833333D01*
X87511904Y-107642857D01*
X87464285Y-107547619D01*
X87416666Y-107500000D01*
X87321428Y-107452380D01*
%TO.C,C48*%
X72107142Y-97357142D02*
X72154761Y-97309523D01*
X72202380Y-97166666D01*
X72202380Y-97071428D01*
X72154761Y-96928571D01*
X72059523Y-96833333D01*
X71964285Y-96785714D01*
X71773809Y-96738095D01*
X71630952Y-96738095D01*
X71440476Y-96785714D01*
X71345238Y-96833333D01*
X71250000Y-96928571D01*
X71202380Y-97071428D01*
X71202380Y-97166666D01*
X71250000Y-97309523D01*
X71297619Y-97357142D01*
X71535714Y-98214285D02*
X72202380Y-98214285D01*
X71154761Y-97976190D02*
X71869047Y-97738095D01*
X71869047Y-98357142D01*
X71630952Y-98880952D02*
X71583333Y-98785714D01*
X71535714Y-98738095D01*
X71440476Y-98690476D01*
X71392857Y-98690476D01*
X71297619Y-98738095D01*
X71250000Y-98785714D01*
X71202380Y-98880952D01*
X71202380Y-99071428D01*
X71250000Y-99166666D01*
X71297619Y-99214285D01*
X71392857Y-99261904D01*
X71440476Y-99261904D01*
X71535714Y-99214285D01*
X71583333Y-99166666D01*
X71630952Y-99071428D01*
X71630952Y-98880952D01*
X71678571Y-98785714D01*
X71726190Y-98738095D01*
X71821428Y-98690476D01*
X72011904Y-98690476D01*
X72107142Y-98738095D01*
X72154761Y-98785714D01*
X72202380Y-98880952D01*
X72202380Y-99071428D01*
X72154761Y-99166666D01*
X72107142Y-99214285D01*
X72011904Y-99261904D01*
X71821428Y-99261904D01*
X71726190Y-99214285D01*
X71678571Y-99166666D01*
X71630952Y-99071428D01*
%TO.C,C49*%
X61357142Y-97357142D02*
X61404761Y-97309523D01*
X61452380Y-97166666D01*
X61452380Y-97071428D01*
X61404761Y-96928571D01*
X61309523Y-96833333D01*
X61214285Y-96785714D01*
X61023809Y-96738095D01*
X60880952Y-96738095D01*
X60690476Y-96785714D01*
X60595238Y-96833333D01*
X60500000Y-96928571D01*
X60452380Y-97071428D01*
X60452380Y-97166666D01*
X60500000Y-97309523D01*
X60547619Y-97357142D01*
X60785714Y-98214285D02*
X61452380Y-98214285D01*
X60404761Y-97976190D02*
X61119047Y-97738095D01*
X61119047Y-98357142D01*
X61452380Y-98785714D02*
X61452380Y-98976190D01*
X61404761Y-99071428D01*
X61357142Y-99119047D01*
X61214285Y-99214285D01*
X61023809Y-99261904D01*
X60642857Y-99261904D01*
X60547619Y-99214285D01*
X60500000Y-99166666D01*
X60452380Y-99071428D01*
X60452380Y-98880952D01*
X60500000Y-98785714D01*
X60547619Y-98738095D01*
X60642857Y-98690476D01*
X60880952Y-98690476D01*
X60976190Y-98738095D01*
X61023809Y-98785714D01*
X61071428Y-98880952D01*
X61071428Y-99071428D01*
X61023809Y-99166666D01*
X60976190Y-99214285D01*
X60880952Y-99261904D01*
%TO.C,C83*%
X83357142Y-61357142D02*
X83404761Y-61309523D01*
X83452380Y-61166666D01*
X83452380Y-61071428D01*
X83404761Y-60928571D01*
X83309523Y-60833333D01*
X83214285Y-60785714D01*
X83023809Y-60738095D01*
X82880952Y-60738095D01*
X82690476Y-60785714D01*
X82595238Y-60833333D01*
X82500000Y-60928571D01*
X82452380Y-61071428D01*
X82452380Y-61166666D01*
X82500000Y-61309523D01*
X82547619Y-61357142D01*
X82880952Y-61928571D02*
X82833333Y-61833333D01*
X82785714Y-61785714D01*
X82690476Y-61738095D01*
X82642857Y-61738095D01*
X82547619Y-61785714D01*
X82500000Y-61833333D01*
X82452380Y-61928571D01*
X82452380Y-62119047D01*
X82500000Y-62214285D01*
X82547619Y-62261904D01*
X82642857Y-62309523D01*
X82690476Y-62309523D01*
X82785714Y-62261904D01*
X82833333Y-62214285D01*
X82880952Y-62119047D01*
X82880952Y-61928571D01*
X82928571Y-61833333D01*
X82976190Y-61785714D01*
X83071428Y-61738095D01*
X83261904Y-61738095D01*
X83357142Y-61785714D01*
X83404761Y-61833333D01*
X83452380Y-61928571D01*
X83452380Y-62119047D01*
X83404761Y-62214285D01*
X83357142Y-62261904D01*
X83261904Y-62309523D01*
X83071428Y-62309523D01*
X82976190Y-62261904D01*
X82928571Y-62214285D01*
X82880952Y-62119047D01*
X82452380Y-62642857D02*
X82452380Y-63261904D01*
X82833333Y-62928571D01*
X82833333Y-63071428D01*
X82880952Y-63166666D01*
X82928571Y-63214285D01*
X83023809Y-63261904D01*
X83261904Y-63261904D01*
X83357142Y-63214285D01*
X83404761Y-63166666D01*
X83452380Y-63071428D01*
X83452380Y-62785714D01*
X83404761Y-62690476D01*
X83357142Y-62642857D01*
%TO.C,R15*%
X80582380Y-90607142D02*
X80106190Y-90273809D01*
X80582380Y-90035714D02*
X79582380Y-90035714D01*
X79582380Y-90416666D01*
X79630000Y-90511904D01*
X79677619Y-90559523D01*
X79772857Y-90607142D01*
X79915714Y-90607142D01*
X80010952Y-90559523D01*
X80058571Y-90511904D01*
X80106190Y-90416666D01*
X80106190Y-90035714D01*
X80582380Y-91559523D02*
X80582380Y-90988095D01*
X80582380Y-91273809D02*
X79582380Y-91273809D01*
X79725238Y-91178571D01*
X79820476Y-91083333D01*
X79868095Y-90988095D01*
X79582380Y-92464285D02*
X79582380Y-91988095D01*
X80058571Y-91940476D01*
X80010952Y-91988095D01*
X79963333Y-92083333D01*
X79963333Y-92321428D01*
X80010952Y-92416666D01*
X80058571Y-92464285D01*
X80153809Y-92511904D01*
X80391904Y-92511904D01*
X80487142Y-92464285D01*
X80534761Y-92416666D01*
X80582380Y-92321428D01*
X80582380Y-92083333D01*
X80534761Y-91988095D01*
X80487142Y-91940476D01*
%TO.C,R16*%
X84952380Y-104857142D02*
X84476190Y-104523809D01*
X84952380Y-104285714D02*
X83952380Y-104285714D01*
X83952380Y-104666666D01*
X84000000Y-104761904D01*
X84047619Y-104809523D01*
X84142857Y-104857142D01*
X84285714Y-104857142D01*
X84380952Y-104809523D01*
X84428571Y-104761904D01*
X84476190Y-104666666D01*
X84476190Y-104285714D01*
X84952380Y-105809523D02*
X84952380Y-105238095D01*
X84952380Y-105523809D02*
X83952380Y-105523809D01*
X84095238Y-105428571D01*
X84190476Y-105333333D01*
X84238095Y-105238095D01*
X83952380Y-106666666D02*
X83952380Y-106476190D01*
X84000000Y-106380952D01*
X84047619Y-106333333D01*
X84190476Y-106238095D01*
X84380952Y-106190476D01*
X84761904Y-106190476D01*
X84857142Y-106238095D01*
X84904761Y-106285714D01*
X84952380Y-106380952D01*
X84952380Y-106571428D01*
X84904761Y-106666666D01*
X84857142Y-106714285D01*
X84761904Y-106761904D01*
X84523809Y-106761904D01*
X84428571Y-106714285D01*
X84380952Y-106666666D01*
X84333333Y-106571428D01*
X84333333Y-106380952D01*
X84380952Y-106285714D01*
X84428571Y-106238095D01*
X84523809Y-106190476D01*
%TO.C,R42*%
X95392857Y-81702380D02*
X95726190Y-81226190D01*
X95964285Y-81702380D02*
X95964285Y-80702380D01*
X95583333Y-80702380D01*
X95488095Y-80750000D01*
X95440476Y-80797619D01*
X95392857Y-80892857D01*
X95392857Y-81035714D01*
X95440476Y-81130952D01*
X95488095Y-81178571D01*
X95583333Y-81226190D01*
X95964285Y-81226190D01*
X94535714Y-81035714D02*
X94535714Y-81702380D01*
X94773809Y-80654761D02*
X95011904Y-81369047D01*
X94392857Y-81369047D01*
X94059523Y-80797619D02*
X94011904Y-80750000D01*
X93916666Y-80702380D01*
X93678571Y-80702380D01*
X93583333Y-80750000D01*
X93535714Y-80797619D01*
X93488095Y-80892857D01*
X93488095Y-80988095D01*
X93535714Y-81130952D01*
X94107142Y-81702380D01*
X93488095Y-81702380D01*
%TO.C,R43*%
X93952380Y-65107142D02*
X93476190Y-64773809D01*
X93952380Y-64535714D02*
X92952380Y-64535714D01*
X92952380Y-64916666D01*
X93000000Y-65011904D01*
X93047619Y-65059523D01*
X93142857Y-65107142D01*
X93285714Y-65107142D01*
X93380952Y-65059523D01*
X93428571Y-65011904D01*
X93476190Y-64916666D01*
X93476190Y-64535714D01*
X93285714Y-65964285D02*
X93952380Y-65964285D01*
X92904761Y-65726190D02*
X93619047Y-65488095D01*
X93619047Y-66107142D01*
X92952380Y-66392857D02*
X92952380Y-67011904D01*
X93333333Y-66678571D01*
X93333333Y-66821428D01*
X93380952Y-66916666D01*
X93428571Y-66964285D01*
X93523809Y-67011904D01*
X93761904Y-67011904D01*
X93857142Y-66964285D01*
X93904761Y-66916666D01*
X93952380Y-66821428D01*
X93952380Y-66535714D01*
X93904761Y-66440476D01*
X93857142Y-66392857D01*
%TO.C,C54*%
X93392857Y-75857142D02*
X93440476Y-75904761D01*
X93583333Y-75952380D01*
X93678571Y-75952380D01*
X93821428Y-75904761D01*
X93916666Y-75809523D01*
X93964285Y-75714285D01*
X94011904Y-75523809D01*
X94011904Y-75380952D01*
X93964285Y-75190476D01*
X93916666Y-75095238D01*
X93821428Y-75000000D01*
X93678571Y-74952380D01*
X93583333Y-74952380D01*
X93440476Y-75000000D01*
X93392857Y-75047619D01*
X92488095Y-74952380D02*
X92964285Y-74952380D01*
X93011904Y-75428571D01*
X92964285Y-75380952D01*
X92869047Y-75333333D01*
X92630952Y-75333333D01*
X92535714Y-75380952D01*
X92488095Y-75428571D01*
X92440476Y-75523809D01*
X92440476Y-75761904D01*
X92488095Y-75857142D01*
X92535714Y-75904761D01*
X92630952Y-75952380D01*
X92869047Y-75952380D01*
X92964285Y-75904761D01*
X93011904Y-75857142D01*
X91583333Y-75285714D02*
X91583333Y-75952380D01*
X91821428Y-74904761D02*
X92059523Y-75619047D01*
X91440476Y-75619047D01*
%TO.C,C55*%
X95392857Y-71357142D02*
X95440476Y-71404761D01*
X95583333Y-71452380D01*
X95678571Y-71452380D01*
X95821428Y-71404761D01*
X95916666Y-71309523D01*
X95964285Y-71214285D01*
X96011904Y-71023809D01*
X96011904Y-70880952D01*
X95964285Y-70690476D01*
X95916666Y-70595238D01*
X95821428Y-70500000D01*
X95678571Y-70452380D01*
X95583333Y-70452380D01*
X95440476Y-70500000D01*
X95392857Y-70547619D01*
X94488095Y-70452380D02*
X94964285Y-70452380D01*
X95011904Y-70928571D01*
X94964285Y-70880952D01*
X94869047Y-70833333D01*
X94630952Y-70833333D01*
X94535714Y-70880952D01*
X94488095Y-70928571D01*
X94440476Y-71023809D01*
X94440476Y-71261904D01*
X94488095Y-71357142D01*
X94535714Y-71404761D01*
X94630952Y-71452380D01*
X94869047Y-71452380D01*
X94964285Y-71404761D01*
X95011904Y-71357142D01*
X93535714Y-70452380D02*
X94011904Y-70452380D01*
X94059523Y-70928571D01*
X94011904Y-70880952D01*
X93916666Y-70833333D01*
X93678571Y-70833333D01*
X93583333Y-70880952D01*
X93535714Y-70928571D01*
X93488095Y-71023809D01*
X93488095Y-71261904D01*
X93535714Y-71357142D01*
X93583333Y-71404761D01*
X93678571Y-71452380D01*
X93916666Y-71452380D01*
X94011904Y-71404761D01*
X94059523Y-71357142D01*
%TO.C,C56*%
X98392857Y-75857142D02*
X98440476Y-75904761D01*
X98583333Y-75952380D01*
X98678571Y-75952380D01*
X98821428Y-75904761D01*
X98916666Y-75809523D01*
X98964285Y-75714285D01*
X99011904Y-75523809D01*
X99011904Y-75380952D01*
X98964285Y-75190476D01*
X98916666Y-75095238D01*
X98821428Y-75000000D01*
X98678571Y-74952380D01*
X98583333Y-74952380D01*
X98440476Y-75000000D01*
X98392857Y-75047619D01*
X97488095Y-74952380D02*
X97964285Y-74952380D01*
X98011904Y-75428571D01*
X97964285Y-75380952D01*
X97869047Y-75333333D01*
X97630952Y-75333333D01*
X97535714Y-75380952D01*
X97488095Y-75428571D01*
X97440476Y-75523809D01*
X97440476Y-75761904D01*
X97488095Y-75857142D01*
X97535714Y-75904761D01*
X97630952Y-75952380D01*
X97869047Y-75952380D01*
X97964285Y-75904761D01*
X98011904Y-75857142D01*
X96583333Y-74952380D02*
X96773809Y-74952380D01*
X96869047Y-75000000D01*
X96916666Y-75047619D01*
X97011904Y-75190476D01*
X97059523Y-75380952D01*
X97059523Y-75761904D01*
X97011904Y-75857142D01*
X96964285Y-75904761D01*
X96869047Y-75952380D01*
X96678571Y-75952380D01*
X96583333Y-75904761D01*
X96535714Y-75857142D01*
X96488095Y-75761904D01*
X96488095Y-75523809D01*
X96535714Y-75428571D01*
X96583333Y-75380952D01*
X96678571Y-75333333D01*
X96869047Y-75333333D01*
X96964285Y-75380952D01*
X97011904Y-75428571D01*
X97059523Y-75523809D01*
%TO.C,C57*%
X98392857Y-71357142D02*
X98440476Y-71404761D01*
X98583333Y-71452380D01*
X98678571Y-71452380D01*
X98821428Y-71404761D01*
X98916666Y-71309523D01*
X98964285Y-71214285D01*
X99011904Y-71023809D01*
X99011904Y-70880952D01*
X98964285Y-70690476D01*
X98916666Y-70595238D01*
X98821428Y-70500000D01*
X98678571Y-70452380D01*
X98583333Y-70452380D01*
X98440476Y-70500000D01*
X98392857Y-70547619D01*
X97488095Y-70452380D02*
X97964285Y-70452380D01*
X98011904Y-70928571D01*
X97964285Y-70880952D01*
X97869047Y-70833333D01*
X97630952Y-70833333D01*
X97535714Y-70880952D01*
X97488095Y-70928571D01*
X97440476Y-71023809D01*
X97440476Y-71261904D01*
X97488095Y-71357142D01*
X97535714Y-71404761D01*
X97630952Y-71452380D01*
X97869047Y-71452380D01*
X97964285Y-71404761D01*
X98011904Y-71357142D01*
X97107142Y-70452380D02*
X96440476Y-70452380D01*
X96869047Y-71452380D01*
%TD*%
%LPC*%
%TO.C,C1*%
G36*
G01*
X92618750Y-94800000D02*
X93181250Y-94800000D01*
G75*
G02*
X93425000Y-95043750I0J-243750D01*
G01*
X93425000Y-95531250D01*
G75*
G02*
X93181250Y-95775000I-243750J0D01*
G01*
X92618750Y-95775000D01*
G75*
G02*
X92375000Y-95531250I0J243750D01*
G01*
X92375000Y-95043750D01*
G75*
G02*
X92618750Y-94800000I243750J0D01*
G01*
G37*
G36*
G01*
X92618750Y-93225000D02*
X93181250Y-93225000D01*
G75*
G02*
X93425000Y-93468750I0J-243750D01*
G01*
X93425000Y-93956250D01*
G75*
G02*
X93181250Y-94200000I-243750J0D01*
G01*
X92618750Y-94200000D01*
G75*
G02*
X92375000Y-93956250I0J243750D01*
G01*
X92375000Y-93468750D01*
G75*
G02*
X92618750Y-93225000I243750J0D01*
G01*
G37*
%TD*%
%TO.C,C2*%
G36*
G01*
X81800000Y-102531250D02*
X81800000Y-101968750D01*
G75*
G02*
X82043750Y-101725000I243750J0D01*
G01*
X82531250Y-101725000D01*
G75*
G02*
X82775000Y-101968750I0J-243750D01*
G01*
X82775000Y-102531250D01*
G75*
G02*
X82531250Y-102775000I-243750J0D01*
G01*
X82043750Y-102775000D01*
G75*
G02*
X81800000Y-102531250I0J243750D01*
G01*
G37*
G36*
G01*
X80225000Y-102531250D02*
X80225000Y-101968750D01*
G75*
G02*
X80468750Y-101725000I243750J0D01*
G01*
X80956250Y-101725000D01*
G75*
G02*
X81200000Y-101968750I0J-243750D01*
G01*
X81200000Y-102531250D01*
G75*
G02*
X80956250Y-102775000I-243750J0D01*
G01*
X80468750Y-102775000D01*
G75*
G02*
X80225000Y-102531250I0J243750D01*
G01*
G37*
%TD*%
%TO.C,C3*%
G36*
G01*
X94531250Y-92275000D02*
X93968750Y-92275000D01*
G75*
G02*
X93725000Y-92031250I0J243750D01*
G01*
X93725000Y-91543750D01*
G75*
G02*
X93968750Y-91300000I243750J0D01*
G01*
X94531250Y-91300000D01*
G75*
G02*
X94775000Y-91543750I0J-243750D01*
G01*
X94775000Y-92031250D01*
G75*
G02*
X94531250Y-92275000I-243750J0D01*
G01*
G37*
G36*
G01*
X94531250Y-90700000D02*
X93968750Y-90700000D01*
G75*
G02*
X93725000Y-90456250I0J243750D01*
G01*
X93725000Y-89968750D01*
G75*
G02*
X93968750Y-89725000I243750J0D01*
G01*
X94531250Y-89725000D01*
G75*
G02*
X94775000Y-89968750I0J-243750D01*
G01*
X94775000Y-90456250D01*
G75*
G02*
X94531250Y-90700000I-243750J0D01*
G01*
G37*
%TD*%
%TO.C,C4*%
G36*
G01*
X92531250Y-105775000D02*
X91968750Y-105775000D01*
G75*
G02*
X91725000Y-105531250I0J243750D01*
G01*
X91725000Y-105043750D01*
G75*
G02*
X91968750Y-104800000I243750J0D01*
G01*
X92531250Y-104800000D01*
G75*
G02*
X92775000Y-105043750I0J-243750D01*
G01*
X92775000Y-105531250D01*
G75*
G02*
X92531250Y-105775000I-243750J0D01*
G01*
G37*
G36*
G01*
X92531250Y-104200000D02*
X91968750Y-104200000D01*
G75*
G02*
X91725000Y-103956250I0J243750D01*
G01*
X91725000Y-103468750D01*
G75*
G02*
X91968750Y-103225000I243750J0D01*
G01*
X92531250Y-103225000D01*
G75*
G02*
X92775000Y-103468750I0J-243750D01*
G01*
X92775000Y-103956250D01*
G75*
G02*
X92531250Y-104200000I-243750J0D01*
G01*
G37*
%TD*%
%TO.C,C5*%
G36*
G01*
X90218750Y-112550000D02*
X90781250Y-112550000D01*
G75*
G02*
X91025000Y-112793750I0J-243750D01*
G01*
X91025000Y-113281250D01*
G75*
G02*
X90781250Y-113525000I-243750J0D01*
G01*
X90218750Y-113525000D01*
G75*
G02*
X89975000Y-113281250I0J243750D01*
G01*
X89975000Y-112793750D01*
G75*
G02*
X90218750Y-112550000I243750J0D01*
G01*
G37*
G36*
G01*
X90218750Y-110975000D02*
X90781250Y-110975000D01*
G75*
G02*
X91025000Y-111218750I0J-243750D01*
G01*
X91025000Y-111706250D01*
G75*
G02*
X90781250Y-111950000I-243750J0D01*
G01*
X90218750Y-111950000D01*
G75*
G02*
X89975000Y-111706250I0J243750D01*
G01*
X89975000Y-111218750D01*
G75*
G02*
X90218750Y-110975000I243750J0D01*
G01*
G37*
%TD*%
%TO.C,C6*%
G36*
G01*
X85968750Y-110975000D02*
X86531250Y-110975000D01*
G75*
G02*
X86775000Y-111218750I0J-243750D01*
G01*
X86775000Y-111706250D01*
G75*
G02*
X86531250Y-111950000I-243750J0D01*
G01*
X85968750Y-111950000D01*
G75*
G02*
X85725000Y-111706250I0J243750D01*
G01*
X85725000Y-111218750D01*
G75*
G02*
X85968750Y-110975000I243750J0D01*
G01*
G37*
G36*
G01*
X85968750Y-112550000D02*
X86531250Y-112550000D01*
G75*
G02*
X86775000Y-112793750I0J-243750D01*
G01*
X86775000Y-113281250D01*
G75*
G02*
X86531250Y-113525000I-243750J0D01*
G01*
X85968750Y-113525000D01*
G75*
G02*
X85725000Y-113281250I0J243750D01*
G01*
X85725000Y-112793750D01*
G75*
G02*
X85968750Y-112550000I243750J0D01*
G01*
G37*
%TD*%
%TO.C,C7*%
G36*
G01*
X81800000Y-101031250D02*
X81800000Y-100468750D01*
G75*
G02*
X82043750Y-100225000I243750J0D01*
G01*
X82531250Y-100225000D01*
G75*
G02*
X82775000Y-100468750I0J-243750D01*
G01*
X82775000Y-101031250D01*
G75*
G02*
X82531250Y-101275000I-243750J0D01*
G01*
X82043750Y-101275000D01*
G75*
G02*
X81800000Y-101031250I0J243750D01*
G01*
G37*
G36*
G01*
X80225000Y-101031250D02*
X80225000Y-100468750D01*
G75*
G02*
X80468750Y-100225000I243750J0D01*
G01*
X80956250Y-100225000D01*
G75*
G02*
X81200000Y-100468750I0J-243750D01*
G01*
X81200000Y-101031250D01*
G75*
G02*
X80956250Y-101275000I-243750J0D01*
G01*
X80468750Y-101275000D01*
G75*
G02*
X80225000Y-101031250I0J243750D01*
G01*
G37*
%TD*%
%TO.C,C8*%
G36*
G01*
X80225000Y-97281250D02*
X80225000Y-96718750D01*
G75*
G02*
X80468750Y-96475000I243750J0D01*
G01*
X80956250Y-96475000D01*
G75*
G02*
X81200000Y-96718750I0J-243750D01*
G01*
X81200000Y-97281250D01*
G75*
G02*
X80956250Y-97525000I-243750J0D01*
G01*
X80468750Y-97525000D01*
G75*
G02*
X80225000Y-97281250I0J243750D01*
G01*
G37*
G36*
G01*
X81800000Y-97281250D02*
X81800000Y-96718750D01*
G75*
G02*
X82043750Y-96475000I243750J0D01*
G01*
X82531250Y-96475000D01*
G75*
G02*
X82775000Y-96718750I0J-243750D01*
G01*
X82775000Y-97281250D01*
G75*
G02*
X82531250Y-97525000I-243750J0D01*
G01*
X82043750Y-97525000D01*
G75*
G02*
X81800000Y-97281250I0J243750D01*
G01*
G37*
%TD*%
%TO.C,C9*%
G36*
G01*
X87281250Y-85775000D02*
X86718750Y-85775000D01*
G75*
G02*
X86475000Y-85531250I0J243750D01*
G01*
X86475000Y-85043750D01*
G75*
G02*
X86718750Y-84800000I243750J0D01*
G01*
X87281250Y-84800000D01*
G75*
G02*
X87525000Y-85043750I0J-243750D01*
G01*
X87525000Y-85531250D01*
G75*
G02*
X87281250Y-85775000I-243750J0D01*
G01*
G37*
G36*
G01*
X87281250Y-84200000D02*
X86718750Y-84200000D01*
G75*
G02*
X86475000Y-83956250I0J243750D01*
G01*
X86475000Y-83468750D01*
G75*
G02*
X86718750Y-83225000I243750J0D01*
G01*
X87281250Y-83225000D01*
G75*
G02*
X87525000Y-83468750I0J-243750D01*
G01*
X87525000Y-83956250D01*
G75*
G02*
X87281250Y-84200000I-243750J0D01*
G01*
G37*
%TD*%
%TO.C,C10*%
G36*
G01*
X92781250Y-84775000D02*
X92218750Y-84775000D01*
G75*
G02*
X91975000Y-84531250I0J243750D01*
G01*
X91975000Y-84043750D01*
G75*
G02*
X92218750Y-83800000I243750J0D01*
G01*
X92781250Y-83800000D01*
G75*
G02*
X93025000Y-84043750I0J-243750D01*
G01*
X93025000Y-84531250D01*
G75*
G02*
X92781250Y-84775000I-243750J0D01*
G01*
G37*
G36*
G01*
X92781250Y-83200000D02*
X92218750Y-83200000D01*
G75*
G02*
X91975000Y-82956250I0J243750D01*
G01*
X91975000Y-82468750D01*
G75*
G02*
X92218750Y-82225000I243750J0D01*
G01*
X92781250Y-82225000D01*
G75*
G02*
X93025000Y-82468750I0J-243750D01*
G01*
X93025000Y-82956250D01*
G75*
G02*
X92781250Y-83200000I-243750J0D01*
G01*
G37*
%TD*%
%TO.C,C11*%
G36*
G01*
X90025000Y-97968750D02*
X90025000Y-98531250D01*
G75*
G02*
X89781250Y-98775000I-243750J0D01*
G01*
X89293750Y-98775000D01*
G75*
G02*
X89050000Y-98531250I0J243750D01*
G01*
X89050000Y-97968750D01*
G75*
G02*
X89293750Y-97725000I243750J0D01*
G01*
X89781250Y-97725000D01*
G75*
G02*
X90025000Y-97968750I0J-243750D01*
G01*
G37*
G36*
G01*
X88450000Y-97968750D02*
X88450000Y-98531250D01*
G75*
G02*
X88206250Y-98775000I-243750J0D01*
G01*
X87718750Y-98775000D01*
G75*
G02*
X87475000Y-98531250I0J243750D01*
G01*
X87475000Y-97968750D01*
G75*
G02*
X87718750Y-97725000I243750J0D01*
G01*
X88206250Y-97725000D01*
G75*
G02*
X88450000Y-97968750I0J-243750D01*
G01*
G37*
%TD*%
%TO.C,C12*%
G36*
G01*
X94418750Y-94800000D02*
X94981250Y-94800000D01*
G75*
G02*
X95225000Y-95043750I0J-243750D01*
G01*
X95225000Y-95531250D01*
G75*
G02*
X94981250Y-95775000I-243750J0D01*
G01*
X94418750Y-95775000D01*
G75*
G02*
X94175000Y-95531250I0J243750D01*
G01*
X94175000Y-95043750D01*
G75*
G02*
X94418750Y-94800000I243750J0D01*
G01*
G37*
G36*
G01*
X94418750Y-93225000D02*
X94981250Y-93225000D01*
G75*
G02*
X95225000Y-93468750I0J-243750D01*
G01*
X95225000Y-93956250D01*
G75*
G02*
X94981250Y-94200000I-243750J0D01*
G01*
X94418750Y-94200000D01*
G75*
G02*
X94175000Y-93956250I0J243750D01*
G01*
X94175000Y-93468750D01*
G75*
G02*
X94418750Y-93225000I243750J0D01*
G01*
G37*
%TD*%
%TO.C,C13*%
G36*
G01*
X80781250Y-83775000D02*
X80218750Y-83775000D01*
G75*
G02*
X79975000Y-83531250I0J243750D01*
G01*
X79975000Y-83043750D01*
G75*
G02*
X80218750Y-82800000I243750J0D01*
G01*
X80781250Y-82800000D01*
G75*
G02*
X81025000Y-83043750I0J-243750D01*
G01*
X81025000Y-83531250D01*
G75*
G02*
X80781250Y-83775000I-243750J0D01*
G01*
G37*
G36*
G01*
X80781250Y-82200000D02*
X80218750Y-82200000D01*
G75*
G02*
X79975000Y-81956250I0J243750D01*
G01*
X79975000Y-81468750D01*
G75*
G02*
X80218750Y-81225000I243750J0D01*
G01*
X80781250Y-81225000D01*
G75*
G02*
X81025000Y-81468750I0J-243750D01*
G01*
X81025000Y-81956250D01*
G75*
G02*
X80781250Y-82200000I-243750J0D01*
G01*
G37*
%TD*%
%TO.C,C14*%
G36*
G01*
X79975000Y-105781250D02*
X79975000Y-105218750D01*
G75*
G02*
X80218750Y-104975000I243750J0D01*
G01*
X80706250Y-104975000D01*
G75*
G02*
X80950000Y-105218750I0J-243750D01*
G01*
X80950000Y-105781250D01*
G75*
G02*
X80706250Y-106025000I-243750J0D01*
G01*
X80218750Y-106025000D01*
G75*
G02*
X79975000Y-105781250I0J243750D01*
G01*
G37*
G36*
G01*
X81550000Y-105781250D02*
X81550000Y-105218750D01*
G75*
G02*
X81793750Y-104975000I243750J0D01*
G01*
X82281250Y-104975000D01*
G75*
G02*
X82525000Y-105218750I0J-243750D01*
G01*
X82525000Y-105781250D01*
G75*
G02*
X82281250Y-106025000I-243750J0D01*
G01*
X81793750Y-106025000D01*
G75*
G02*
X81550000Y-105781250I0J243750D01*
G01*
G37*
%TD*%
%TO.C,C15*%
G36*
G01*
X78031250Y-83775000D02*
X77468750Y-83775000D01*
G75*
G02*
X77225000Y-83531250I0J243750D01*
G01*
X77225000Y-83043750D01*
G75*
G02*
X77468750Y-82800000I243750J0D01*
G01*
X78031250Y-82800000D01*
G75*
G02*
X78275000Y-83043750I0J-243750D01*
G01*
X78275000Y-83531250D01*
G75*
G02*
X78031250Y-83775000I-243750J0D01*
G01*
G37*
G36*
G01*
X78031250Y-82200000D02*
X77468750Y-82200000D01*
G75*
G02*
X77225000Y-81956250I0J243750D01*
G01*
X77225000Y-81468750D01*
G75*
G02*
X77468750Y-81225000I243750J0D01*
G01*
X78031250Y-81225000D01*
G75*
G02*
X78275000Y-81468750I0J-243750D01*
G01*
X78275000Y-81956250D01*
G75*
G02*
X78031250Y-82200000I-243750J0D01*
G01*
G37*
%TD*%
%TO.C,C16*%
G36*
G01*
X80225000Y-99031250D02*
X80225000Y-98468750D01*
G75*
G02*
X80468750Y-98225000I243750J0D01*
G01*
X80956250Y-98225000D01*
G75*
G02*
X81200000Y-98468750I0J-243750D01*
G01*
X81200000Y-99031250D01*
G75*
G02*
X80956250Y-99275000I-243750J0D01*
G01*
X80468750Y-99275000D01*
G75*
G02*
X80225000Y-99031250I0J243750D01*
G01*
G37*
G36*
G01*
X81800000Y-99031250D02*
X81800000Y-98468750D01*
G75*
G02*
X82043750Y-98225000I243750J0D01*
G01*
X82531250Y-98225000D01*
G75*
G02*
X82775000Y-98468750I0J-243750D01*
G01*
X82775000Y-99031250D01*
G75*
G02*
X82531250Y-99275000I-243750J0D01*
G01*
X82043750Y-99275000D01*
G75*
G02*
X81800000Y-99031250I0J243750D01*
G01*
G37*
%TD*%
%TO.C,C17*%
G36*
G01*
X91968750Y-91300000D02*
X92531250Y-91300000D01*
G75*
G02*
X92775000Y-91543750I0J-243750D01*
G01*
X92775000Y-92031250D01*
G75*
G02*
X92531250Y-92275000I-243750J0D01*
G01*
X91968750Y-92275000D01*
G75*
G02*
X91725000Y-92031250I0J243750D01*
G01*
X91725000Y-91543750D01*
G75*
G02*
X91968750Y-91300000I243750J0D01*
G01*
G37*
G36*
G01*
X91968750Y-89725000D02*
X92531250Y-89725000D01*
G75*
G02*
X92775000Y-89968750I0J-243750D01*
G01*
X92775000Y-90456250D01*
G75*
G02*
X92531250Y-90700000I-243750J0D01*
G01*
X91968750Y-90700000D01*
G75*
G02*
X91725000Y-90456250I0J243750D01*
G01*
X91725000Y-89968750D01*
G75*
G02*
X91968750Y-89725000I243750J0D01*
G01*
G37*
%TD*%
%TO.C,C37*%
G36*
G01*
X84180000Y-91071250D02*
X84180000Y-90508750D01*
G75*
G02*
X84423750Y-90265000I243750J0D01*
G01*
X84911250Y-90265000D01*
G75*
G02*
X85155000Y-90508750I0J-243750D01*
G01*
X85155000Y-91071250D01*
G75*
G02*
X84911250Y-91315000I-243750J0D01*
G01*
X84423750Y-91315000D01*
G75*
G02*
X84180000Y-91071250I0J243750D01*
G01*
G37*
G36*
G01*
X82605000Y-91071250D02*
X82605000Y-90508750D01*
G75*
G02*
X82848750Y-90265000I243750J0D01*
G01*
X83336250Y-90265000D01*
G75*
G02*
X83580000Y-90508750I0J-243750D01*
G01*
X83580000Y-91071250D01*
G75*
G02*
X83336250Y-91315000I-243750J0D01*
G01*
X82848750Y-91315000D01*
G75*
G02*
X82605000Y-91071250I0J243750D01*
G01*
G37*
%TD*%
%TO.C,C38*%
G36*
G01*
X84180000Y-92571250D02*
X84180000Y-92008750D01*
G75*
G02*
X84423750Y-91765000I243750J0D01*
G01*
X84911250Y-91765000D01*
G75*
G02*
X85155000Y-92008750I0J-243750D01*
G01*
X85155000Y-92571250D01*
G75*
G02*
X84911250Y-92815000I-243750J0D01*
G01*
X84423750Y-92815000D01*
G75*
G02*
X84180000Y-92571250I0J243750D01*
G01*
G37*
G36*
G01*
X82605000Y-92571250D02*
X82605000Y-92008750D01*
G75*
G02*
X82848750Y-91765000I243750J0D01*
G01*
X83336250Y-91765000D01*
G75*
G02*
X83580000Y-92008750I0J-243750D01*
G01*
X83580000Y-92571250D01*
G75*
G02*
X83336250Y-92815000I-243750J0D01*
G01*
X82848750Y-92815000D01*
G75*
G02*
X82605000Y-92571250I0J243750D01*
G01*
G37*
%TD*%
%TO.C,C39*%
G36*
G01*
X88550000Y-104281250D02*
X88550000Y-103718750D01*
G75*
G02*
X88793750Y-103475000I243750J0D01*
G01*
X89281250Y-103475000D01*
G75*
G02*
X89525000Y-103718750I0J-243750D01*
G01*
X89525000Y-104281250D01*
G75*
G02*
X89281250Y-104525000I-243750J0D01*
G01*
X88793750Y-104525000D01*
G75*
G02*
X88550000Y-104281250I0J243750D01*
G01*
G37*
G36*
G01*
X86975000Y-104281250D02*
X86975000Y-103718750D01*
G75*
G02*
X87218750Y-103475000I243750J0D01*
G01*
X87706250Y-103475000D01*
G75*
G02*
X87950000Y-103718750I0J-243750D01*
G01*
X87950000Y-104281250D01*
G75*
G02*
X87706250Y-104525000I-243750J0D01*
G01*
X87218750Y-104525000D01*
G75*
G02*
X86975000Y-104281250I0J243750D01*
G01*
G37*
%TD*%
%TO.C,C40*%
G36*
G01*
X86975000Y-105781250D02*
X86975000Y-105218750D01*
G75*
G02*
X87218750Y-104975000I243750J0D01*
G01*
X87706250Y-104975000D01*
G75*
G02*
X87950000Y-105218750I0J-243750D01*
G01*
X87950000Y-105781250D01*
G75*
G02*
X87706250Y-106025000I-243750J0D01*
G01*
X87218750Y-106025000D01*
G75*
G02*
X86975000Y-105781250I0J243750D01*
G01*
G37*
G36*
G01*
X88550000Y-105781250D02*
X88550000Y-105218750D01*
G75*
G02*
X88793750Y-104975000I243750J0D01*
G01*
X89281250Y-104975000D01*
G75*
G02*
X89525000Y-105218750I0J-243750D01*
G01*
X89525000Y-105781250D01*
G75*
G02*
X89281250Y-106025000I-243750J0D01*
G01*
X88793750Y-106025000D01*
G75*
G02*
X88550000Y-105781250I0J243750D01*
G01*
G37*
%TD*%
%TO.C,C48*%
G36*
G01*
X69031250Y-99275000D02*
X68468750Y-99275000D01*
G75*
G02*
X68225000Y-99031250I0J243750D01*
G01*
X68225000Y-98543750D01*
G75*
G02*
X68468750Y-98300000I243750J0D01*
G01*
X69031250Y-98300000D01*
G75*
G02*
X69275000Y-98543750I0J-243750D01*
G01*
X69275000Y-99031250D01*
G75*
G02*
X69031250Y-99275000I-243750J0D01*
G01*
G37*
G36*
G01*
X69031250Y-97700000D02*
X68468750Y-97700000D01*
G75*
G02*
X68225000Y-97456250I0J243750D01*
G01*
X68225000Y-96968750D01*
G75*
G02*
X68468750Y-96725000I243750J0D01*
G01*
X69031250Y-96725000D01*
G75*
G02*
X69275000Y-96968750I0J-243750D01*
G01*
X69275000Y-97456250D01*
G75*
G02*
X69031250Y-97700000I-243750J0D01*
G01*
G37*
%TD*%
%TO.C,C49*%
G36*
G01*
X63968750Y-98300000D02*
X64531250Y-98300000D01*
G75*
G02*
X64775000Y-98543750I0J-243750D01*
G01*
X64775000Y-99031250D01*
G75*
G02*
X64531250Y-99275000I-243750J0D01*
G01*
X63968750Y-99275000D01*
G75*
G02*
X63725000Y-99031250I0J243750D01*
G01*
X63725000Y-98543750D01*
G75*
G02*
X63968750Y-98300000I243750J0D01*
G01*
G37*
G36*
G01*
X63968750Y-96725000D02*
X64531250Y-96725000D01*
G75*
G02*
X64775000Y-96968750I0J-243750D01*
G01*
X64775000Y-97456250D01*
G75*
G02*
X64531250Y-97700000I-243750J0D01*
G01*
X63968750Y-97700000D01*
G75*
G02*
X63725000Y-97456250I0J243750D01*
G01*
X63725000Y-96968750D01*
G75*
G02*
X63968750Y-96725000I243750J0D01*
G01*
G37*
%TD*%
%TO.C,C83*%
G36*
G01*
X84781250Y-60200000D02*
X84218750Y-60200000D01*
G75*
G02*
X83975000Y-59956250I0J243750D01*
G01*
X83975000Y-59468750D01*
G75*
G02*
X84218750Y-59225000I243750J0D01*
G01*
X84781250Y-59225000D01*
G75*
G02*
X85025000Y-59468750I0J-243750D01*
G01*
X85025000Y-59956250D01*
G75*
G02*
X84781250Y-60200000I-243750J0D01*
G01*
G37*
G36*
G01*
X84781250Y-61775000D02*
X84218750Y-61775000D01*
G75*
G02*
X83975000Y-61531250I0J243750D01*
G01*
X83975000Y-61043750D01*
G75*
G02*
X84218750Y-60800000I243750J0D01*
G01*
X84781250Y-60800000D01*
G75*
G02*
X85025000Y-61043750I0J-243750D01*
G01*
X85025000Y-61531250D01*
G75*
G02*
X84781250Y-61775000I-243750J0D01*
G01*
G37*
%TD*%
D13*
%TO.C,J1*%
X44000000Y-56500000D03*
D14*
X44000000Y-51420000D03*
%TD*%
%TO.C,J2*%
G36*
G01*
X95175000Y-44200000D02*
X95175000Y-44200000D01*
G75*
G02*
X94650000Y-44725000I-525000J0D01*
G01*
X94350000Y-44725000D01*
G75*
G02*
X93825000Y-44200000I0J525000D01*
G01*
X93825000Y-44200000D01*
G75*
G02*
X94350000Y-43675000I525000J0D01*
G01*
X94650000Y-43675000D01*
G75*
G02*
X95175000Y-44200000I0J-525000D01*
G01*
G37*
G36*
G01*
X90175000Y-44200000D02*
X90175000Y-44200000D01*
G75*
G02*
X89650000Y-44725000I-525000J0D01*
G01*
X89350000Y-44725000D01*
G75*
G02*
X88825000Y-44200000I0J525000D01*
G01*
X88825000Y-44200000D01*
G75*
G02*
X89350000Y-43675000I525000J0D01*
G01*
X89650000Y-43675000D01*
G75*
G02*
X90175000Y-44200000I0J-525000D01*
G01*
G37*
G36*
G01*
X96000000Y-41175000D02*
X96000000Y-41825000D01*
G75*
G02*
X95500000Y-42325000I-500000J0D01*
G01*
X95500000Y-42325000D01*
G75*
G02*
X95000000Y-41825000I0J500000D01*
G01*
X95000000Y-41175000D01*
G75*
G02*
X95500000Y-40675000I500000J0D01*
G01*
X95500000Y-40675000D01*
G75*
G02*
X96000000Y-41175000I0J-500000D01*
G01*
G37*
G36*
G01*
X89000000Y-41175000D02*
X89000000Y-41825000D01*
G75*
G02*
X88500000Y-42325000I-500000J0D01*
G01*
X88500000Y-42325000D01*
G75*
G02*
X88000000Y-41825000I0J500000D01*
G01*
X88000000Y-41175000D01*
G75*
G02*
X88500000Y-40675000I500000J0D01*
G01*
X88500000Y-40675000D01*
G75*
G02*
X89000000Y-41175000I0J-500000D01*
G01*
G37*
%TD*%
D15*
%TO.C,J3*%
X55067200Y-91744800D03*
X55067200Y-89204800D03*
X55067200Y-86664800D03*
X55067200Y-84124800D03*
X55067200Y-81584800D03*
X55067200Y-79044800D03*
X55067200Y-76504800D03*
D16*
X55067200Y-73964800D03*
%TD*%
%TO.C,J4*%
X55067200Y-96824800D03*
D15*
X55067200Y-99364800D03*
X55067200Y-101904800D03*
X55067200Y-104444800D03*
X55067200Y-106984800D03*
X55067200Y-109524800D03*
%TD*%
D16*
%TO.C,J5*%
X103327200Y-64820800D03*
D15*
X103327200Y-67360800D03*
X103327200Y-69900800D03*
X103327200Y-72440800D03*
X103327200Y-74980800D03*
X103327200Y-77520800D03*
X103327200Y-80060800D03*
X103327200Y-82600800D03*
X103327200Y-85140800D03*
X103327200Y-87680800D03*
%TD*%
D16*
%TO.C,J6*%
X103327200Y-91744800D03*
D15*
X103327200Y-94284800D03*
X103327200Y-96824800D03*
X103327200Y-99364800D03*
X103327200Y-101904800D03*
X103327200Y-104444800D03*
X103327200Y-106984800D03*
X103327200Y-109524800D03*
%TD*%
D16*
%TO.C,JP1*%
X74750000Y-42250000D03*
D15*
X72210000Y-42250000D03*
%TD*%
D16*
%TO.C,PMOD1*%
X107492800Y-119209820D03*
D15*
X110032800Y-119209820D03*
X107492800Y-116669820D03*
X110032800Y-116669820D03*
X107492800Y-114129820D03*
X110032800Y-114129820D03*
X107492800Y-111589820D03*
X110032800Y-111589820D03*
X107492800Y-109049820D03*
X110032800Y-109049820D03*
X107492800Y-106509820D03*
X110032800Y-106509820D03*
%TD*%
D16*
%TO.C,PMOD2*%
X107492800Y-96349820D03*
D15*
X110032800Y-96349820D03*
X107492800Y-93809820D03*
X110032800Y-93809820D03*
X107492800Y-91269820D03*
X110032800Y-91269820D03*
X107492800Y-88729820D03*
X110032800Y-88729820D03*
X107492800Y-86189820D03*
X110032800Y-86189820D03*
X107492800Y-83649820D03*
X110032800Y-83649820D03*
%TD*%
%TO.C,PMOD3*%
X110032800Y-60789820D03*
X107492800Y-60789820D03*
X110032800Y-63329820D03*
X107492800Y-63329820D03*
X110032800Y-65869820D03*
X107492800Y-65869820D03*
X110032800Y-68409820D03*
X107492800Y-68409820D03*
X110032800Y-70949820D03*
X107492800Y-70949820D03*
X110032800Y-73489820D03*
D16*
X107492800Y-73489820D03*
%TD*%
%TO.C,R15*%
G36*
G01*
X81911250Y-92815000D02*
X81348750Y-92815000D01*
G75*
G02*
X81105000Y-92571250I0J243750D01*
G01*
X81105000Y-92083750D01*
G75*
G02*
X81348750Y-91840000I243750J0D01*
G01*
X81911250Y-91840000D01*
G75*
G02*
X82155000Y-92083750I0J-243750D01*
G01*
X82155000Y-92571250D01*
G75*
G02*
X81911250Y-92815000I-243750J0D01*
G01*
G37*
G36*
G01*
X81911250Y-91240000D02*
X81348750Y-91240000D01*
G75*
G02*
X81105000Y-90996250I0J243750D01*
G01*
X81105000Y-90508750D01*
G75*
G02*
X81348750Y-90265000I243750J0D01*
G01*
X81911250Y-90265000D01*
G75*
G02*
X82155000Y-90508750I0J-243750D01*
G01*
X82155000Y-90996250D01*
G75*
G02*
X81911250Y-91240000I-243750J0D01*
G01*
G37*
%TD*%
%TO.C,R16*%
G36*
G01*
X85718750Y-105050000D02*
X86281250Y-105050000D01*
G75*
G02*
X86525000Y-105293750I0J-243750D01*
G01*
X86525000Y-105781250D01*
G75*
G02*
X86281250Y-106025000I-243750J0D01*
G01*
X85718750Y-106025000D01*
G75*
G02*
X85475000Y-105781250I0J243750D01*
G01*
X85475000Y-105293750D01*
G75*
G02*
X85718750Y-105050000I243750J0D01*
G01*
G37*
G36*
G01*
X85718750Y-103475000D02*
X86281250Y-103475000D01*
G75*
G02*
X86525000Y-103718750I0J-243750D01*
G01*
X86525000Y-104206250D01*
G75*
G02*
X86281250Y-104450000I-243750J0D01*
G01*
X85718750Y-104450000D01*
G75*
G02*
X85475000Y-104206250I0J243750D01*
G01*
X85475000Y-103718750D01*
G75*
G02*
X85718750Y-103475000I243750J0D01*
G01*
G37*
%TD*%
%TO.C,R42*%
G36*
G01*
X95050000Y-83031250D02*
X95050000Y-82468750D01*
G75*
G02*
X95293750Y-82225000I243750J0D01*
G01*
X95781250Y-82225000D01*
G75*
G02*
X96025000Y-82468750I0J-243750D01*
G01*
X96025000Y-83031250D01*
G75*
G02*
X95781250Y-83275000I-243750J0D01*
G01*
X95293750Y-83275000D01*
G75*
G02*
X95050000Y-83031250I0J243750D01*
G01*
G37*
G36*
G01*
X93475000Y-83031250D02*
X93475000Y-82468750D01*
G75*
G02*
X93718750Y-82225000I243750J0D01*
G01*
X94206250Y-82225000D01*
G75*
G02*
X94450000Y-82468750I0J-243750D01*
G01*
X94450000Y-83031250D01*
G75*
G02*
X94206250Y-83275000I-243750J0D01*
G01*
X93718750Y-83275000D01*
G75*
G02*
X93475000Y-83031250I0J243750D01*
G01*
G37*
%TD*%
%TO.C,R43*%
G36*
G01*
X91518750Y-66050000D02*
X92081250Y-66050000D01*
G75*
G02*
X92325000Y-66293750I0J-243750D01*
G01*
X92325000Y-66781250D01*
G75*
G02*
X92081250Y-67025000I-243750J0D01*
G01*
X91518750Y-67025000D01*
G75*
G02*
X91275000Y-66781250I0J243750D01*
G01*
X91275000Y-66293750D01*
G75*
G02*
X91518750Y-66050000I243750J0D01*
G01*
G37*
G36*
G01*
X91518750Y-64475000D02*
X92081250Y-64475000D01*
G75*
G02*
X92325000Y-64718750I0J-243750D01*
G01*
X92325000Y-65206250D01*
G75*
G02*
X92081250Y-65450000I-243750J0D01*
G01*
X91518750Y-65450000D01*
G75*
G02*
X91275000Y-65206250I0J243750D01*
G01*
X91275000Y-64718750D01*
G75*
G02*
X91518750Y-64475000I243750J0D01*
G01*
G37*
%TD*%
D14*
%TO.C,H1*%
X45000000Y-45000000D03*
%TD*%
%TO.C,H2*%
X45000000Y-135000000D03*
%TD*%
%TO.C,H3*%
X115000000Y-45000000D03*
%TD*%
%TO.C,H4*%
X115000000Y-135000000D03*
%TD*%
%TO.C,C54*%
G36*
G01*
X95050000Y-74281250D02*
X95050000Y-73718750D01*
G75*
G02*
X95293750Y-73475000I243750J0D01*
G01*
X95781250Y-73475000D01*
G75*
G02*
X96025000Y-73718750I0J-243750D01*
G01*
X96025000Y-74281250D01*
G75*
G02*
X95781250Y-74525000I-243750J0D01*
G01*
X95293750Y-74525000D01*
G75*
G02*
X95050000Y-74281250I0J243750D01*
G01*
G37*
G36*
G01*
X93475000Y-74281250D02*
X93475000Y-73718750D01*
G75*
G02*
X93718750Y-73475000I243750J0D01*
G01*
X94206250Y-73475000D01*
G75*
G02*
X94450000Y-73718750I0J-243750D01*
G01*
X94450000Y-74281250D01*
G75*
G02*
X94206250Y-74525000I-243750J0D01*
G01*
X93718750Y-74525000D01*
G75*
G02*
X93475000Y-74281250I0J243750D01*
G01*
G37*
%TD*%
%TO.C,C55*%
G36*
G01*
X93475000Y-72781250D02*
X93475000Y-72218750D01*
G75*
G02*
X93718750Y-71975000I243750J0D01*
G01*
X94206250Y-71975000D01*
G75*
G02*
X94450000Y-72218750I0J-243750D01*
G01*
X94450000Y-72781250D01*
G75*
G02*
X94206250Y-73025000I-243750J0D01*
G01*
X93718750Y-73025000D01*
G75*
G02*
X93475000Y-72781250I0J243750D01*
G01*
G37*
G36*
G01*
X95050000Y-72781250D02*
X95050000Y-72218750D01*
G75*
G02*
X95293750Y-71975000I243750J0D01*
G01*
X95781250Y-71975000D01*
G75*
G02*
X96025000Y-72218750I0J-243750D01*
G01*
X96025000Y-72781250D01*
G75*
G02*
X95781250Y-73025000I-243750J0D01*
G01*
X95293750Y-73025000D01*
G75*
G02*
X95050000Y-72781250I0J243750D01*
G01*
G37*
%TD*%
%TO.C,C56*%
G36*
G01*
X97450000Y-73718750D02*
X97450000Y-74281250D01*
G75*
G02*
X97206250Y-74525000I-243750J0D01*
G01*
X96718750Y-74525000D01*
G75*
G02*
X96475000Y-74281250I0J243750D01*
G01*
X96475000Y-73718750D01*
G75*
G02*
X96718750Y-73475000I243750J0D01*
G01*
X97206250Y-73475000D01*
G75*
G02*
X97450000Y-73718750I0J-243750D01*
G01*
G37*
G36*
G01*
X99025000Y-73718750D02*
X99025000Y-74281250D01*
G75*
G02*
X98781250Y-74525000I-243750J0D01*
G01*
X98293750Y-74525000D01*
G75*
G02*
X98050000Y-74281250I0J243750D01*
G01*
X98050000Y-73718750D01*
G75*
G02*
X98293750Y-73475000I243750J0D01*
G01*
X98781250Y-73475000D01*
G75*
G02*
X99025000Y-73718750I0J-243750D01*
G01*
G37*
%TD*%
%TO.C,C57*%
G36*
G01*
X99025000Y-72218750D02*
X99025000Y-72781250D01*
G75*
G02*
X98781250Y-73025000I-243750J0D01*
G01*
X98293750Y-73025000D01*
G75*
G02*
X98050000Y-72781250I0J243750D01*
G01*
X98050000Y-72218750D01*
G75*
G02*
X98293750Y-71975000I243750J0D01*
G01*
X98781250Y-71975000D01*
G75*
G02*
X99025000Y-72218750I0J-243750D01*
G01*
G37*
G36*
G01*
X97450000Y-72218750D02*
X97450000Y-72781250D01*
G75*
G02*
X97206250Y-73025000I-243750J0D01*
G01*
X96718750Y-73025000D01*
G75*
G02*
X96475000Y-72781250I0J243750D01*
G01*
X96475000Y-72218750D01*
G75*
G02*
X96718750Y-71975000I243750J0D01*
G01*
X97206250Y-71975000D01*
G75*
G02*
X97450000Y-72218750I0J-243750D01*
G01*
G37*
%TD*%
M02*
