<?xml version="1.0" standalone="no"?>
 <!DOCTYPE svg PUBLIC "-//W3C//DTD SVG 1.1//EN" 
 "http://www.w3.org/Graphics/SVG/1.1/DTD/svg11.dtd"> 
<svg
  xmlns:svg="http://www.w3.org/2000/svg"
  xmlns="http://www.w3.org/2000/svg"
  xmlns:xlink="http://www.w3.org/1999/xlink"
  version="1.1"
  width="29.700220cm" height="21.000720cm" viewBox="0 0 116930 82680">
<title>SVG Picture created as iceduino-B_SilkS.svg date 2020/06/19 13:02:31 </title>
  <desc>Picture generated by PCBNEW </desc>
<g style="fill:#000000; fill-opacity:1;stroke:#000000; stroke-opacity:1;
stroke-linecap:round; stroke-linejoin:round;"
 transform="translate(0 0) scale(1 1)">
</g>
<g style="fill:#000000; fill-opacity:0.0; 
stroke:#000000; stroke-width:-0.000393701; stroke-opacity:1; 
stroke-linecap:round; stroke-linejoin:round;">
</g>
<g style="fill:#000000; fill-opacity:0.0; 
stroke:#000000; stroke-width:59.0551; stroke-opacity:1; 
stroke-linecap:round; stroke-linejoin:round;">
<text x="31496.1" y="53628"
textLength="14565.1" font-size="524.934" lengthAdjust="spacingAndGlyphs"
text-anchor="middle" opacity="0">ICE40HX4K ICEduino educational breakout board</text>
<path d="M38723 53609
L38723 53215
" />
<path d="M38310 53571
L38329 53590
L38385 53609
L38423 53609
L38479 53590
L38517 53552
L38535 53515
L38554 53440
L38554 53384
L38535 53309
L38517 53271
L38479 53234
L38423 53215
L38385 53215
L38329 53234
L38310 53252
" />
<path d="M38142 53402
L38010 53402
" />
<path d="M37954 53609
L38142 53609
L38142 53215
L37954 53215
" />
<path d="M37617 53346
L37617 53609
" />
<path d="M37710 53196
L37804 53477
L37560 53477
" />
<path d="M37335 53215
L37298 53215
L37260 53234
L37242 53252
L37223 53290
L37204 53365
L37204 53459
L37223 53534
L37242 53571
L37260 53590
L37298 53609
L37335 53609
L37373 53590
L37392 53571
L37410 53534
L37429 53459
L37429 53365
L37410 53290
L37392 53252
L37373 53234
L37335 53215
" />
<path d="M37035 53609
L37035 53215
" />
<path d="M37035 53402
L36811 53402
" />
<path d="M36811 53609
L36811 53215
" />
<path d="M36661 53215
L36398 53609
" />
<path d="M36398 53215
L36661 53609
" />
<path d="M36079 53346
L36079 53609
" />
<path d="M36173 53196
L36267 53477
L36023 53477
" />
<path d="M35873 53609
L35873 53215
" />
<path d="M35648 53609
L35817 53384
" />
<path d="M35648 53215
L35873 53440
" />
<path d="M35179 53609
L35179 53215
" />
<path d="M34767 53571
L34786 53590
L34842 53609
L34880 53609
L34936 53590
L34973 53552
L34992 53515
L35011 53440
L35011 53384
L34992 53309
L34973 53271
L34936 53234
L34880 53215
L34842 53215
L34786 53234
L34767 53252
" />
<path d="M34598 53402
L34467 53402
" />
<path d="M34411 53609
L34598 53609
L34598 53215
L34411 53215
" />
<path d="M34073 53609
L34073 53215
" />
<path d="M34073 53590
L34111 53609
L34186 53609
L34223 53590
L34242 53571
L34261 53534
L34261 53421
L34242 53384
L34223 53365
L34186 53346
L34111 53346
L34073 53365
" />
<path d="M33717 53346
L33717 53609
" />
<path d="M33886 53346
L33886 53552
L33867 53590
L33830 53609
L33773 53609
L33736 53590
L33717 53571
" />
<path d="M33530 53609
L33530 53346
" />
<path d="M33530 53215
L33548 53234
L33530 53252
L33511 53234
L33530 53215
L33530 53252
" />
<path d="M33342 53346
L33342 53609
" />
<path d="M33342 53384
L33323 53365
L33286 53346
L33230 53346
L33192 53365
L33173 53402
L33173 53609
" />
<path d="M32930 53609
L32967 53590
L32986 53571
L33005 53534
L33005 53421
L32986 53384
L32967 53365
L32930 53346
L32874 53346
L32836 53365
L32817 53384
L32799 53421
L32799 53534
L32817 53571
L32836 53590
L32874 53609
L32930 53609
" />
<path d="M32180 53590
L32217 53609
L32292 53609
L32330 53590
L32349 53552
L32349 53402
L32330 53365
L32292 53346
L32217 53346
L32180 53365
L32161 53402
L32161 53440
L32349 53477
" />
<path d="M31824 53609
L31824 53215
" />
<path d="M31824 53590
L31861 53609
L31936 53609
L31974 53590
L31992 53571
L32011 53534
L32011 53421
L31992 53384
L31974 53365
L31936 53346
L31861 53346
L31824 53365
" />
<path d="M31467 53346
L31467 53609
" />
<path d="M31636 53346
L31636 53552
L31617 53590
L31580 53609
L31524 53609
L31486 53590
L31467 53571
" />
<path d="M31111 53590
L31149 53609
L31224 53609
L31261 53590
L31280 53571
L31299 53534
L31299 53421
L31280 53384
L31261 53365
L31224 53346
L31149 53346
L31111 53365
" />
<path d="M30774 53609
L30774 53402
L30793 53365
L30830 53346
L30905 53346
L30943 53365
" />
<path d="M30774 53590
L30811 53609
L30905 53609
L30943 53590
L30961 53552
L30961 53515
L30943 53477
L30905 53459
L30811 53459
L30774 53440
" />
<path d="M30643 53346
L30493 53346
" />
<path d="M30586 53215
L30586 53552
L30568 53590
L30530 53609
L30493 53609
" />
<path d="M30361 53609
L30361 53346
" />
<path d="M30361 53215
L30380 53234
L30361 53252
L30343 53234
L30361 53215
L30361 53252
" />
<path d="M30118 53609
L30155 53590
L30174 53571
L30193 53534
L30193 53421
L30174 53384
L30155 53365
L30118 53346
L30061 53346
L30024 53365
L30005 53384
L29986 53421
L29986 53534
L30005 53571
L30024 53590
L30061 53609
L30118 53609
" />
<path d="M29818 53346
L29818 53609
" />
<path d="M29818 53384
L29799 53365
L29761 53346
L29705 53346
L29668 53365
L29649 53402
L29649 53609
" />
<path d="M29293 53609
L29293 53402
L29311 53365
L29349 53346
L29424 53346
L29461 53365
" />
<path d="M29293 53590
L29330 53609
L29424 53609
L29461 53590
L29480 53552
L29480 53515
L29461 53477
L29424 53459
L29330 53459
L29293 53440
" />
<path d="M29049 53609
L29086 53590
L29105 53552
L29105 53215
" />
<path d="M28599 53609
L28599 53215
" />
<path d="M28599 53365
L28562 53346
L28487 53346
L28449 53365
L28430 53384
L28412 53421
L28412 53534
L28430 53571
L28449 53590
L28487 53609
L28562 53609
L28599 53590
" />
<path d="M28243 53609
L28243 53346
" />
<path d="M28243 53421
L28224 53384
L28205 53365
L28168 53346
L28130 53346
" />
<path d="M27849 53590
L27887 53609
L27962 53609
L27999 53590
L28018 53552
L28018 53402
L27999 53365
L27962 53346
L27887 53346
L27849 53365
L27830 53402
L27830 53440
L28018 53477
" />
<path d="M27493 53609
L27493 53402
L27512 53365
L27549 53346
L27624 53346
L27662 53365
" />
<path d="M27493 53590
L27530 53609
L27624 53609
L27662 53590
L27680 53552
L27680 53515
L27662 53477
L27624 53459
L27530 53459
L27493 53440
" />
<path d="M27305 53609
L27305 53215
" />
<path d="M27268 53459
L27155 53609
" />
<path d="M27155 53346
L27305 53496
" />
<path d="M26931 53609
L26968 53590
L26987 53571
L27005 53534
L27005 53421
L26987 53384
L26968 53365
L26931 53346
L26874 53346
L26837 53365
L26818 53384
L26799 53421
L26799 53534
L26818 53571
L26837 53590
L26874 53609
L26931 53609
" />
<path d="M26462 53346
L26462 53609
" />
<path d="M26631 53346
L26631 53552
L26612 53590
L26574 53609
L26518 53609
L26481 53590
L26462 53571
" />
<path d="M26331 53346
L26181 53346
" />
<path d="M26274 53215
L26274 53552
L26256 53590
L26218 53609
L26181 53609
" />
<path d="M25749 53609
L25749 53215
" />
<path d="M25749 53365
L25712 53346
L25637 53346
L25599 53365
L25581 53384
L25562 53421
L25562 53534
L25581 53571
L25599 53590
L25637 53609
L25712 53609
L25749 53590
" />
<path d="M25337 53609
L25374 53590
L25393 53571
L25412 53534
L25412 53421
L25393 53384
L25374 53365
L25337 53346
L25281 53346
L25243 53365
L25224 53384
L25206 53421
L25206 53534
L25224 53571
L25243 53590
L25281 53609
L25337 53609
" />
<path d="M24868 53609
L24868 53402
L24887 53365
L24925 53346
L25000 53346
L25037 53365
" />
<path d="M24868 53590
L24906 53609
L25000 53609
L25037 53590
L25056 53552
L25056 53515
L25037 53477
L25000 53459
L24906 53459
L24868 53440
" />
<path d="M24681 53609
L24681 53346
" />
<path d="M24681 53421
L24662 53384
L24643 53365
L24606 53346
L24568 53346
" />
<path d="M24268 53609
L24268 53215
" />
<path d="M24268 53590
L24306 53609
L24381 53609
L24418 53590
L24437 53571
L24456 53534
L24456 53421
L24437 53384
L24418 53365
L24381 53346
L24306 53346
L24268 53365
" />
<text x="31496.1" y="54277.6"
textLength="4478.91" font-size="524.934" lengthAdjust="spacingAndGlyphs"
text-anchor="middle" opacity="0">20200619_rev1</text>
<path d="M33698 53902
L33680 53883
L33642 53865
L33548 53865
L33511 53883
L33492 53902
L33473 53940
L33473 53977
L33492 54033
L33717 54258
L33473 54258
" />
<path d="M33230 53865
L33192 53865
L33155 53883
L33136 53902
L33117 53940
L33098 54015
L33098 54108
L33117 54183
L33136 54221
L33155 54240
L33192 54258
L33230 54258
L33267 54240
L33286 54221
L33305 54183
L33323 54108
L33323 54015
L33305 53940
L33286 53902
L33267 53883
L33230 53865
" />
<path d="M32949 53902
L32930 53883
L32892 53865
L32799 53865
L32761 53883
L32742 53902
L32724 53940
L32724 53977
L32742 54033
L32967 54258
L32724 54258
" />
<path d="M32480 53865
L32442 53865
L32405 53883
L32386 53902
L32367 53940
L32349 54015
L32349 54108
L32367 54183
L32386 54221
L32405 54240
L32442 54258
L32480 54258
L32517 54240
L32536 54221
L32555 54183
L32574 54108
L32574 54015
L32555 53940
L32536 53902
L32517 53883
L32480 53865
" />
<path d="M32105 53865
L32067 53865
L32030 53883
L32011 53902
L31992 53940
L31974 54015
L31974 54108
L31992 54183
L32011 54221
L32030 54240
L32067 54258
L32105 54258
L32142 54240
L32161 54221
L32180 54183
L32199 54108
L32199 54015
L32180 53940
L32161 53902
L32142 53883
L32105 53865
" />
<path d="M31636 53865
L31711 53865
L31749 53883
L31767 53902
L31805 53958
L31824 54033
L31824 54183
L31805 54221
L31786 54240
L31749 54258
L31674 54258
L31636 54240
L31617 54221
L31599 54183
L31599 54090
L31617 54052
L31636 54033
L31674 54015
L31749 54015
L31786 54033
L31805 54052
L31824 54090
" />
<path d="M31224 54258
L31449 54258
" />
<path d="M31336 54258
L31336 53865
L31374 53921
L31411 53958
L31449 53977
" />
<path d="M31036 54258
L30961 54258
L30924 54240
L30905 54221
L30868 54165
L30849 54090
L30849 53940
L30868 53902
L30886 53883
L30924 53865
L30999 53865
L31036 53883
L31055 53902
L31074 53940
L31074 54033
L31055 54071
L31036 54090
L30999 54108
L30924 54108
L30886 54090
L30868 54071
L30849 54033
" />
<path d="M30774 54296
L30474 54296
" />
<path d="M30380 54258
L30380 53996
" />
<path d="M30380 54071
L30361 54033
L30343 54015
L30305 53996
L30268 53996
" />
<path d="M29986 54240
L30024 54258
L30099 54258
L30136 54240
L30155 54202
L30155 54052
L30136 54015
L30099 53996
L30024 53996
L29986 54015
L29968 54052
L29968 54090
L30155 54127
" />
<path d="M29836 53996
L29743 54258
L29649 53996
" />
<path d="M29293 54258
L29518 54258
" />
<path d="M29405 54258
L29405 53865
L29443 53921
L29480 53958
L29518 53977
" />
</g>
<g style="fill:#000000; fill-opacity:1.0; 
stroke:#000000; stroke-width:3.93701; stroke-opacity:1; 
stroke-linecap:round; stroke-linejoin:round;">
<path style="fill:#000000; fill-opacity:1.0; 
stroke:#000000; stroke-width:3.93701; stroke-opacity:1; 
stroke-linecap:round; stroke-linejoin:round;fill-rule:evenodd;"
d="M 21866,16718.1
21864.5,16722.8
21861.9,16733.3
21858.4,16749.2
21854.1,16769.6
21849.2,16794.1
21843.7,16821.9
21837.8,16852.4
21831.7,16885
21829.4,16897
21822.6,16933.4
21816.2,16966.6
21810.4,16996.2
21805.2,17021.8
21800.8,17042.7
21797.2,17058.5
21794.6,17068.7
21793.1,17072.9
21788.7,17075.4
21779,17080
21764.8,17086.3
21746.9,17094
21726,17102.8
21703.2,17112.3
21679.2,17122.2
21654.8,17132.1
21630.9,17141.7
21608.3,17150.7
21587.9,17158.7
21570.5,17165.3
21556.9,17170.3
21548,17173.2
21544.9,17173.9
21539.9,17172
21529.6,17166.2
21514,17156.5
21493.2,17143
21467.3,17125.8
21436.3,17104.9
21400.3,17080.3
21392.7,17075.1
21364.9,17056.1
21338.6,17038.2
21314.3,17021.8
21292.5,17007.3
21273.9,16995
21258.9,16985.3
21248.1,16978.5
21242.1,16975
21241.1,16974.7
21238.8,16974.9
21235.3,16976.5
21230.4,16980
21223.5,16985.6
21214.4,16993.8
21202.7,17004.8
21187.9,17019
21169.7,17036.8
21147.7,17058.5
21121.6,17084.4
21111.7,17094.3
21088,17118
21065.8,17140.4
21045.4,17161.1
21027.3,17179.7
21012,17195.6
21000,17208.4
20991.6,17217.5
20987.4,17222.7
20987,17223.3
20985.8,17233.1
20987.2,17237.1
20989.6,17241
20995.5,17249.8
21004.4,17263
21016,17280.1
21029.9,17300.5
21045.7,17323.6
21063,17348.9
21081.5,17375.8
21085.5,17381.7
21109,17416.1
21128.8,17445.3
21145.1,17469.8
21158.1,17489.6
21168,17505.2
21174.9,17516.8
21179,17524.7
21180.6,17529.2
21180.6,17529.6
21179.3,17535
21175.6,17545.6
21169.9,17560.6
21162.5,17579.2
21153.8,17600.6
21144.1,17623.9
21133.8,17648.3
21123.3,17673
21112.9,17697
21102.9,17719.7
21093.7,17740.2
21085.7,17757.6
21079.2,17771.1
21074.6,17779.9
21072.6,17782.8
21070.1,17784.7
21065.9,17786.7
21059.5,17788.8
21050.4,17791.3
21037.8,17794.2
21021.3,17797.7
21000.3,17801.8
20974.3,17806.8
20942.6,17812.8
20918.9,17817.2
20887.7,17823
20857.9,17828.5
20830.2,17833.6
20805.4,17838.2
20784.3,17842.1
20767.8,17845.1
20756.4,17847.2
20752.2,17847.9
20745.4,17848.9
20739.6,17849.8
20734.8,17851
20730.9,17853
20727.7,17856.4
20725.3,17861.8
20723.5,17869.6
20722.2,17880.4
20721.3,17894.6
20720.8,17912.9
20720.6,17935.8
20720.5,17963.7
20720.5,17997.2
20720.6,18036.9
20720.6,18213.8
20728.1,18218.5
20732.8,18220
20743.4,18222.6
20759.2,18226.1
20779.6,18230.3
20803.8,18235.2
20831.3,18240.6
20861.3,18246.3
20893.2,18252.3
20895.5,18252.7
20933.7,18259.8
20965.8,18265.9
20992.3,18271
21013.8,18275.3
21030.7,18279
21043.5,18282
21052.7,18284.5
21058.8,18286.6
21062.4,18288.5
21063,18288.9
21065.9,18293.5
21070.9,18303.5
21077.5,18318.1
21085.6,18336.4
21094.7,18357.8
21104.6,18381.3
21114.9,18406.1
21125.2,18431.5
21135.2,18456.6
21144.7,18480.6
21153.2,18502.7
21160.5,18522
21166.2,18537.9
21169.9,18549.4
21171.4,18555.7
21171.5,18555.9
21170.9,18559.3
21168.9,18564.4
21165.1,18571.7
21159.2,18581.7
21151,18594.8
21140.2,18611.4
21126.4,18631.9
21109.5,18656.9
21089.2,18686.8
21081.8,18697.6
21063.6,18724.2
21046.4,18749.3
21030.7,18772.3
21016.9,18792.7
21005.3,18809.9
20996.3,18823.3
20990.3,18832.3
20987.7,18836.4
20985.5,18843.5
20987.5,18851
20988.6,18853.1
20991.9,18857.3
20999.5,18865.6
21010.7,18877.4
21024.9,18892.2
21041.7,18909.4
21060.4,18928.3
21080.5,18948.6
21101.4,18969.6
21122.6,18990.7
21143.4,19011.4
21163.4,19031.1
21182,19049.2
21198.5,19065.3
21212.5,19078.6
21223.4,19088.8
21230.5,19095.1
21233.1,19097
21241.4,19099.1
21247.9,19096.9
21252.1,19094.3
21261.2,19088.3
21274.6,19079.2
21291.8,19067.6
21312.1,19053.8
21335,19038.2
21360,19021.1
21383.3,19005.1
21415.2,18983.3
21442.1,18965.1
21464.4,18950.2
21482.4,18938.5
21496.5,18929.6
21507.2,18923.3
21514.9,18919.3
21519.9,18917.5
21521.5,18917.3
21528.5,18919
21540.7,18923.9
21557.5,18931.9
21578.6,18942.6
21590.6,18948.9
21608.8,18958.6
21625.3,18967.1
21639.1,18973.9
21649,18978.5
21654.3,18980.6
21654.7,18980.6
21661.2,18978.2
21663.1,18976.4
21664.9,18972.8
21669,18963.5
21675.2,18948.8
21683.5,18929.3
21693.6,18905.4
21705.3,18877.5
21718.4,18846
21732.8,18811.5
21748.3,18774.2
21764.7,18734.7
21781.8,18693.4
21785.3,18684.8
21806.1,18634.6
21824.4,18590.1
21840.4,18551.2
21854.2,18517.4
21865.9,18488.4
21875.7,18463.9
21883.7,18443.6
21890,18427.2
21894.7,18414.3
21898,18404.5
21900.1,18397.6
21901,18393.2
21900.8,18391.1
21900.8,18391.1
21896.3,18386
21888,18379.2
21879.8,18373.6
21833.4,18341.1
21793.4,18307
21759.5,18270.8
21731.7,18232.5
21709.8,18191.7
21693.7,18148.2
21683.2,18101.8
21678.2,18053.7
21679.1,18005.6
21686.3,17958.6
21699.4,17913.3
21718.1,17870.2
21742.1,17829.9
21770.9,17792.8
21804.3,17759.6
21841.9,17730.8
21883.3,17706.9
21908.9,17695.6
21956,17680.3
22003.7,17671.4
22051.7,17668.9
22099.2,17672.5
22145.8,17682.2
22190.8,17697.9
22233.7,17719.4
22274,17746.7
22302,17770.8
22335.1,17806.7
22362.7,17845.7
22384.7,17887.4
22401.1,17931.2
22411.7,17976.4
22416.7,18022.5
22415.8,18068.9
22409.1,18115
22396.6,18160.3
22378.1,18204.2
22353.6,18246.1
22342.3,18262.1
22316,18292.8
22283.8,18322.8
22245.5,18352.4
22216.5,18371.8
22206.2,18379.1
22198,18386
22193.9,18390.7
22193.6,18392.7
22194.2,18396.4
22195.7,18402.3
22198.4,18410.5
22202.4,18421.6
22207.8,18435.9
22214.7,18453.6
22223.2,18475.2
22233.6,18501
22245.9,18531.3
22260.3,18566.4
22277,18606.9
22296,18652.9
22309.1,18684.8
22326.4,18726.4
22342.9,18766.3
22358.6,18804.1
22373.3,18839.2
22386.7,18871.4
22398.7,18900
22409.1,18924.8
22417.7,18945.2
22424.4,18960.9
22429,18971.4
22431.2,18976.2
22431.4,18976.4
22437.2,18980.2
22439.6,18980.6
22443.9,18979.1
22453.1,18974.9
22466.2,18968.4
22482.3,18960.2
22500.3,18950.7
22503.6,18948.9
22526.6,18936.9
22545.7,18927.5
22560.3,18921
22569.9,18917.7
22572.7,18917.3
22577.2,18918.3
22584.2,18921.5
22594.3,18927.1
22608,18935.6
22625.6,18947.1
22647.8,18962
22670.8,18977.7
22707.7,19003
22739.4,19024.7
22766.3,19043.1
22788.8,19058.5
22807.3,19071
22822.1,19081
22833.5,19088.6
22842,19094.1
22847.8,19097.8
22851.4,19099.9
22853.1,19100.6
22853.1,19100.6
22857.4,19099
22864.5,19095
22865.6,19094.3
22870,19090.7
22878.5,19082.9
22890.4,19071.4
22905.3,19056.9
22922.6,19039.9
22941.7,19021
22961.9,19000.8
22982.8,18979.8
23003.8,18958.7
23024.3,18938
23043.7,18918.3
23061.4,18900.1
23076.9,18884
23089.6,18870.7
23099,18860.7
23104.4,18854.5
23105.3,18853.3
23109,18845.9
23108.4,18839.7
23106.9,18836.7
23104.3,18832.4
23098.2,18823.2
23089.1,18809.7
23077.5,18792.5
23063.6,18772
23047.8,18748.9
23030.7,18723.7
23012.7,18697.6
22991.2,18666.1
22973.2,18639.6
22958.5,18617.7
22946.8,18599.9
22937.7,18585.8
22931.1,18574.8
22926.7,18566.7
22924.1,18560.9
22923.1,18556.9
22923,18555.9
22924.3,18550.6
22927.9,18539.9
22933.5,18524.5
22940.8,18505
22949.5,18482.2
22959.5,18456.9
22970.3,18429.7
22974.5,18419.2
22988.1,18385.9
22999.5,18358.2
23008.9,18335.9
23016.5,18318.4
23022.7,18305.2
23027.5,18295.9
23031.2,18290
23033.9,18287
23039.1,18284.9
23050.1,18281.9
23066.9,18278
23089.8,18273.2
23118.8,18267.5
23154.1,18260.7
23195.8,18253
23200.6,18252.1
23232.4,18246.2
23262.4,18240.5
23290,18235.2
23314.3,18230.3
23334.8,18226.1
23350.7,18222.6
23361.5,18220
23366.4,18218.5
23366.4,18218.4
23373.9,18213.8
23373.9,18037.7
23373.9,17998.8
23373.9,17966.1
23373.7,17938.9
23373.6,17916.7
23373.3,17899.1
23373,17885.4
23372.5,17875.2
23371.8,17867.8
23371,17862.7
23370.1,17859.5
23368.9,17857.5
23368.1,17856.6
23363.4,17854.8
23352.3,17851.9
23335.3,17848.1
23312.6,17843.3
23284.4,17837.7
23251.1,17831.2
23213,17824.1
23195.6,17820.8
23157.5,17813.8
23125.5,17807.8
23099,17802.7
23077.4,17798.4
23060.3,17794.9
23047.1,17791.9
23037.2,17789.4
23030.3,17787.3
23025.6,17785.3
23022.7,17783.5
23021.9,17782.8
23018.8,17778
23013.7,17767.8
23006.7,17753.1
22998.3,17734.8
22988.9,17713.6
22978.8,17690.4
22968.3,17666.1
22957.8,17641.4
22947.6,17617.3
22938.2,17594.4
22929.8,17573.7
22922.8,17556
22917.6,17542.2
22914.6,17532.9
22913.9,17529.6
22915.2,17525.5
22919,17517.9
22925.7,17506.6
22935.3,17491.3
22948.1,17471.7
22964.3,17447.5
22983.9,17418.5
23007.3,17384.4
23008.1,17383.2
23026.7,17356.1
23044.3,17330.4
23060.4,17306.8
23074.7,17285.7
23086.9,17267.9
23096.4,17253.7
23103,17243.9
23106.2,17238.9
23106.4,17238.6
23108.8,17228.3
23107.5,17223.3
23104.6,17219.5
23097.4,17211.5
23086.4,17199.8
23072,17184.7
23054.8,17166.9
23035,17146.8
23013.3,17124.9
22990,17101.5
22982.8,17094.3
22955.1,17066.8
22931.7,17043.6
22912.3,17024.5
22896.4,17009.1
22883.6,16997.1
22873.6,16988
22866.1,16981.5
22860.5,16977.4
22856.6,16975.2
22853.9,16974.5
22853.4,16974.6
22849.2,16976.7
22840.1,16982.3
22826.5,16991
22809.2,17002.4
22788.5,17016.1
22765.1,17031.8
22739.4,17049.2
22712.1,17067.9
22701.7,17075
22664,17100.8
22631.6,17122.7
22604.6,17140.7
22583,17154.8
22566.6,17165
22555.5,17171.4
22549.7,17173.9
22549.3,17173.9
22544.3,17172.7
22534,17169.2
22519.3,17163.7
22501,17156.7
22479.9,17148.4
22456.9,17139.3
22432.8,17129.6
22408.4,17119.6
22384.6,17109.8
22362.3,17100.5
22342.2,17091.9
22325.3,17084.5
22312.3,17078.7
22304,17074.6
22301.6,17073
22299.9,17068.6
22297.1,17057.9
22293.3,17041.2
22288.5,17018.7
22282.9,16990.9
22276.5,16957.9
22269.3,16920.1
22265,16896.9
22258.8,16863.8
22252.8,16832.5
22247.2,16803.7
22242,16777.9
22237.5,16756
22233.7,16738.4
22230.8,16725.9
22228.9,16719
22228.5,16718.1
22223.8,16710.6
21870.7,16710.6
Z" /> 
<path style="fill:#000000; fill-opacity:1.0; 
stroke:#000000; stroke-width:3.93701; stroke-opacity:1; 
stroke-linecap:round; stroke-linejoin:round;fill-rule:evenodd;"
d="M 21008.9,19372.4
20993.1,19372.8
20981.6,19374
20972,19376.5
20961.7,19380.8
20960.1,19381.6
20948,19387.7
20940.4,19392.6
20937.2,19397.7
20938.5,19404
20944.1,19412.7
20954.1,19424.9
20958.7,19430.3
20984.1,19460.3
20999.5,19452.1
21017.9,19445.6
21037.3,19444.3
21056.1,19447.9
21072.6,19456.1
21084.7,19467.7
21088.8,19473.5
21092.1,19479.2
21094.7,19485.6
21096.7,19493.5
21098.2,19503.5
21099.3,19516.4
21100,19532.9
21100.4,19553.7
21100.5,19579.7
21100.6,19611.5
21100.6,19616.1
21100.6,19730.6
21173.9,19730.6
21173.9,19373.9
21100.6,19373.9
21100.6,19411.3
21088.2,19400.5
21077.9,19392.8
21065.1,19384.9
21057.4,19381
21046.8,19376.6
21036.9,19374
21025.1,19372.7
21009.2,19372.4
Z" /> 
<path style="fill:#000000; fill-opacity:1.0; 
stroke:#000000; stroke-width:3.93701; stroke-opacity:1; 
stroke-linecap:round; stroke-linejoin:round;fill-rule:evenodd;"
d="M 22533.6,19372.6
22522.5,19373.6
22513.1,19375.9
22502.9,19380.1
22496.6,19383.2
22473.3,19398.1
22453.9,19417.4
22439.5,19440.1
22436.6,19446.6
22434.7,19451.6
22433.1,19456.4
22431.8,19461.9
22430.8,19468.7
22430,19477.5
22429.4,19489
22429,19504
22428.6,19523
22428.4,19546.9
22428.1,19576.3
22427.9,19598.1
22426.9,19730.6
22500.3,19730.6
22501.3,19611.4
22501.5,19580.1
22501.8,19554.7
22502.1,19534.5
22502.5,19518.8
22503.1,19506.8
22503.8,19498
22504.8,19491.4
22506,19486.5
22507.6,19482.5
22509.6,19478.6
22509.8,19478.1
22517.5,19467.3
22527.8,19457.3
22531.2,19454.8
22540,19449.7
22548.4,19446.9
22559.3,19445.8
22568.7,19445.6
22589.7,19447.3
22606.1,19452.8
22619.2,19462.9
22628.9,19475.6
22638.9,19491.7
22640.9,19730.6
22714,19730.6
22712.2,19375.6
22676.4,19374.7
22640.6,19373.7
22640.6,19411
22626.1,19399.2
22608,19386.2
22590.3,19378
22570.7,19373.6
22548.8,19372.4
Z" /> 
<path style="fill:#000000; fill-opacity:1.0; 
stroke:#000000; stroke-width:3.93701; stroke-opacity:1; 
stroke-linecap:round; stroke-linejoin:round;fill-rule:evenodd;"
d="M 20465.7,19372.8
20438.1,19379.3
20412.5,19391
20389.7,19407.5
20370.4,19428.4
20355.3,19453.5
20346.7,19476.6
20343.4,19491.9
20341.4,19509.8
20340.6,19532.1
20340.6,19539.7
20340.6,19580.6
20560.6,19580.6
20560.6,19591.9
20557.7,19610.4
20549.9,19628.9
20538.2,19644.7
20538.2,19644.7
20521.4,19657.4
20501.4,19664.8
20479.4,19667.2
20456.3,19664.4
20433.1,19656.6
20411,19643.6
20408.8,19642
20398.7,19634.3
20372.6,19656.5
20346.4,19678.7
20362.6,19693.5
20382,19708
20405.3,19720.5
20429.8,19729.7
20447.2,19733.8
20466.4,19736.2
20483,19736.6
20500.8,19735
20510.6,19733.5
20540.2,19725.5
20566.1,19712.1
20588.1,19693.6
20606,19670.3
20619.6,19642.3
20628.8,19610
20633.4,19573.7
20633.9,19556.7
20631.6,19517.4
20630.4,19511
20560.6,19511
20560.6,19520.6
20413,19520.6
20415.1,19505.5
20421,19483.1
20431.7,19465
20446.8,19451.6
20465.7,19443.3
20487.2,19440.6
20509,19443.2
20527.4,19451.2
20541.3,19462.8
20549.9,19475.1
20556.6,19490.7
20560.3,19506.2
20560.6,19511
20630.4,19511
20624.9,19482.3
20613.7,19451.6
20598.3,19425.6
20578.6,19404.4
20554.9,19388.4
20552.3,19387
20523.5,19376.3
20494.4,19371.6
Z" /> 
<path style="fill:#000000; fill-opacity:1.0; 
stroke:#000000; stroke-width:3.93701; stroke-opacity:1; 
stroke-linecap:round; stroke-linejoin:round;fill-rule:evenodd;"
d="M 20745.6,19375
20717.3,19384.7
20709.1,19388.6
20696.6,19395.6
20683.8,19404.2
20672,19413.2
20662.4,19421.8
20656.1,19428.9
20654.4,19433.6
20654.4,19433.7
20657.3,19437.3
20664.1,19444.1
20673.6,19452.9
20680.4,19459
20705.1,19480.8
20717,19469.4
20730.1,19458.2
20742.5,19451
20756.5,19447.2
20774.2,19445.7
20780.6,19445.7
20796.5,19446.1
20808,19447.5
20817.2,19450.4
20822.7,19453
20839.5,19464.7
20852.1,19480.2
20861.1,19500.1
20866.7,19525.1
20867.3,19529.8
20868.8,19554.8
20867,19579.9
20862.3,19602.9
20855.7,19620.3
20843.3,19638
20826.9,19651.2
20807.6,19659.8
20786.6,19663.5
20764.9,19662.2
20743.6,19655.8
20723.9,19644.1
20719.4,19640.4
20704,19626.8
20678.9,19649.2
20668.4,19658.9
20660.1,19667
20655,19672.5
20653.9,19674.2
20656.5,19678.6
20663.4,19685.6
20673.2,19694.1
20684.7,19703
20696.5,19711.4
20707.3,19718.1
20711.6,19720.3
20730.3,19727.5
20751.6,19733.1
20772.5,19736.4
20785.6,19737
20794.2,19736.1
20806.3,19734.2
20817,19732.1
20847.9,19722.3
20874.5,19707.5
20896.9,19687.7
20914.8,19663.2
20928.1,19634.3
20936.7,19601
20940.4,19563.7
20940.6,19553.9
20938.1,19515.4
20930.7,19481
20918.6,19450.9
20901.9,19425.3
20880.7,19404.4
20855.1,19388.4
20825.4,19377.5
20804.5,19373.2
20774,19371.3
Z" /> 
<path style="fill:#000000; fill-opacity:1.0; 
stroke:#000000; stroke-width:3.93701; stroke-opacity:1; 
stroke-linecap:round; stroke-linejoin:round;fill-rule:evenodd;"
d="M 21463.9,19485.7
21463.8,19522.9
21463.4,19554
21462.7,19578.8
21461.9,19597.4
21460.7,19609.4
21460.1,19612.9
21453.6,19628
21442.8,19642.2
21429.4,19653.6
21415.6,19660.2
21393.8,19663.3
21373.3,19660.6
21355.1,19652.4
21340.3,19639.2
21334.7,19631.1
21325.6,19615.6
21324.6,19494.8
21323.6,19373.9
21250.6,19373.9
21250.6,19730.6
21323.9,19730.6
21323.9,19696.8
21338.7,19709
21359.6,19722.2
21383.8,19731.3
21409.3,19735.7
21434.1,19734.9
21439.4,19734
21463.9,19725.7
21486.7,19712
21506.2,19694.1
21521,19673.1
21522,19671.2
21525.8,19662.8
21529,19654
21531.5,19644.1
21533.5,19632.3
21535,19617.9
21535.9,19600.3
21536.5,19578.6
21536.8,19552.2
21536.7,19520.3
21536.5,19493.9
21535.6,19375.6
21463.9,19373.7
Z" /> 
<path style="fill:#000000; fill-opacity:1.0; 
stroke:#000000; stroke-width:3.93701; stroke-opacity:1; 
stroke-linecap:round; stroke-linejoin:round;fill-rule:evenodd;"
d="M 21724.7,19372
21694.9,19378.7
21667.4,19391.6
21642.6,19410.6
21642.2,19410.9
21627.8,19426.4
21616.5,19442.9
21608.2,19461.5
21602.5,19483.2
21599,19508.9
21597.5,19539.8
21597.4,19553.9
21598,19585.8
21600.3,19612.2
21604.4,19634.3
21610.7,19653.1
21619.6,19669.7
21631.2,19685.3
21637.6,19692.3
21659.5,19711.3
21684.2,19724.7
21709.6,19732.4
21728.1,19735.6
21744,19736.6
21760.9,19735.4
21773.3,19733.5
21799.6,19726
21824.4,19712.7
21846.5,19694.8
21864.5,19673.1
21874,19656.4
21881.9,19635.1
21887.1,19609.9
21889.8,19580.1
21889.9,19552.4
21815.6,19552.4
21815.5,19573.3
21815.3,19588.7
21814.7,19600
21813.7,19608.2
21812,19614.7
21809.6,19620.6
21807.2,19625.3
21797.2,19640.8
21784.8,19651.5
21768.7,19659
21752.8,19663
21737.1,19663.1
21718.9,19659.1
21718,19658.9
21700.8,19650.4
21686.5,19636.8
21676.3,19619.4
21674.1,19613.2
21672.2,19603
21670.9,19588
21670.1,19569.8
21669.9,19550.2
21670.2,19530.8
21671.1,19513.5
21672.6,19500
21673.7,19494.7
21681.8,19476.8
21694.9,19461.8
21711.8,19450.8
21730.9,19444.8
21740.6,19444
21763.8,19446.5
21783,19454.3
21798.5,19467.5
21808.2,19481.9
21810.9,19487.4
21812.9,19493.2
21814.2,19500.3
21815,19510
21815.4,19523.5
21815.6,19541.8
21815.6,19552.4
21889.9,19552.4
21890,19545
21889.6,19533.9
21888.1,19509.1
21885.9,19489.5
21882.7,19473.7
21880.8,19467.3
21868.9,19440.4
21851.7,19417.2
21830,19398.1
21804.5,19383.6
21776,19374.4
21756.6,19371.5
Z" /> 
<path style="fill:#000000; fill-opacity:1.0; 
stroke:#000000; stroke-width:3.93701; stroke-opacity:1; 
stroke-linecap:round; stroke-linejoin:round;fill-rule:evenodd;"
d="M 22049.6,19372.7
22021.1,19378.4
21993.5,19387.3
21968.8,19398.7
21949,19411.8
21939.1,19419.8
21951.2,19434.4
21960.2,19445.1
21969.3,19455.9
21973,19460.3
21982.8,19471.8
22000.8,19461.5
22027.4,19449.1
22054.2,19442.5
22083.5,19441
22085.7,19441.1
22101.2,19442.2
22111.9,19444
22119.5,19447.1
22122.8,19449.3
22131.9,19459.2
22137.4,19471.7
22138.6,19484.5
22137,19491.1
22132,19499.5
22124.1,19505.7
22112.3,19510
22095.5,19513.1
22086.2,19514.2
22059.5,19517.1
22038.5,19519.4
22022.3,19521.5
22010,19523.4
22000.7,19525.3
21993.5,19527.4
21987.5,19529.7
21984.8,19531
21964,19544.4
21948.3,19562
21937.6,19583.8
21932,19610
21931.5,19615.4
21932.4,19642.1
21939.3,19666
21952,19686.9
21970.4,19704.5
21994.3,19718.8
22019.8,19728.4
22036.6,19732
22057.2,19734.5
22078.8,19735.6
22098.6,19735.2
22108.9,19734.1
22140.6,19726.7
22171.3,19715.1
22199.1,19700.2
22219.9,19684.8
22234.3,19672.3
22184.8,19623.3
22166.9,19637
22144.1,19651.5
22119.8,19660.8
22092.2,19665.7
22083.9,19666.4
22060.2,19666.6
22041.6,19663.9
22026.8,19658.1
22014.9,19649
22007.7,19640.5
22004.5,19632.2
22003.9,19622.9
22004.7,19612.3
22008.1,19605.2
22013.8,19599.6
22017.9,19596.3
22022.5,19593.8
22028.5,19591.8
22036.8,19590
22048.6,19588.3
22064.7,19586.5
22086.3,19584.3
22091.7,19583.8
22108.4,19581.8
22124.4,19579.4
22137.4,19576.7
22143.1,19575.1
22167.1,19564
22186.3,19548.6
22200.3,19529.2
22205.7,19516.9
22209.2,19501.2
22210.4,19482.1
22209.3,19462.5
22206.1,19445.4
22205.3,19442.9
22194.9,19422.4
22179,19404.7
22158.4,19390.2
22133.8,19379.5
22106,19372.8
22077.1,19370.6
Z" /> 
<path style="fill:#000000; fill-opacity:1.0; 
stroke:#000000; stroke-width:3.93701; stroke-opacity:1; 
stroke-linecap:round; stroke-linejoin:round;fill-rule:evenodd;"
d="M 22904.4,19372.2
22896.4,19373.3
22867.1,19381
22841.6,19393.8
22818.6,19412.2
22816.8,19413.9
22801.5,19431.1
22790,19448.8
22782,19468.3
22776.9,19490.9
22774.4,19517.8
22773.9,19539.6
22773.9,19580.6
22994.8,19580.6
22992.9,19597
22987.4,19619.2
22977.1,19637.4
22962.8,19651.5
22945.2,19661.3
22925.1,19666.5
22903.3,19666.9
22880.6,19662.3
22857.7,19652.3
22841.8,19642
22831.4,19634.2
22805.8,19656.2
22780.2,19678.1
22789.5,19688.1
22810.4,19705.8
22835.7,19719.7
22864.3,19729.6
22894.8,19735
22926,19735.5
22942,19733.8
22971.8,19726.1
22997.9,19713
23020.1,19694.9
23038.1,19672
23051.9,19644.4
23061.2,19612.6
23066,19576.8
23066.1,19540.6
23064.6,19520.6
22994.8,19520.6
22847.2,19520.6
22847.2,19511.8
22850.4,19492.6
22858.9,19474.2
22871.8,19458.4
22887.4,19447.2
22902.9,19442.2
22921,19440.5
22939,19442.3
22953.2,19446.9
22970.8,19459.5
22983.6,19476.6
22991.4,19497.8
22992.8,19505.5
22994.8,19520.6
23064.6,19520.6
23064.2,19514.5
23060.9,19492.9
23055.9,19473.8
23048.7,19455
23046.5,19450.1
23031.6,19425.4
23012,19404.8
22988.6,19388.8
22962.2,19377.7
22933.9,19372
Z" /> 
<path style="fill:#000000; fill-opacity:1.0; 
stroke:#000000; stroke-width:3.93701; stroke-opacity:1; 
stroke-linecap:round; stroke-linejoin:round;fill-rule:evenodd;"
d="M 23585,19372.1
23557.1,19379.1
23531.4,19391.2
23508.7,19408.1
23489.7,19429.2
23475.1,19454.1
23465.7,19482.4
23464.1,19490.7
23462.2,19507.9
23461.1,19529.3
23460.8,19552.7
23461.2,19576.2
23462.5,19597.8
23464.4,19615.7
23465.6,19621.9
23472.3,19646.4
23481.8,19666.7
23495.1,19685
23503.7,19694.2
23527.6,19713.5
23554.4,19727.1
23583.6,19734.8
23614.3,19736.3
23640.6,19732.7
23668.5,19723.7
23693.2,19709.4
23710.8,19694.1
23725.3,19677.5
23736.4,19659.7
23744.5,19639.5
23749.9,19616
23752.9,19588.1
23753.8,19555.6
23753.8,19552.8
23680.2,19552.8
23680,19563.9
23679.4,19583.7
23678.6,19598.1
23677.4,19608.5
23675.6,19616.3
23673.1,19622.9
23671.4,19626.2
23658.9,19643.1
23642.5,19655.1
23623.1,19661.9
23601.6,19663.1
23585.6,19660.3
23566.5,19651.7
23550.9,19637.9
23543.1,19626.2
23540.1,19619.8
23538,19612.8
23536.5,19603.9
23535.5,19591.8
23534.8,19575
23534.5,19563.9
23534.3,19540.3
23534.8,19520
23536.1,19504.4
23537.2,19497.9
23544.5,19479
23556.4,19463.8
23571.7,19452.7
23589.4,19445.9
23608.4,19443.7
23627.4,19446.5
23645.5,19454.4
23659.4,19465.7
23667.1,19474.8
23672.8,19484.6
23676.7,19496.2
23679.1,19510.7
23680.2,19529.2
23680.2,19552.8
23753.8,19552.8
23753,19521.5
23750.1,19492.9
23745,19468.9
23737.3,19448.5
23726.7,19430.8
23713,19414.9
23709.6,19411.6
23690.3,19395.5
23670.4,19384.2
23647.2,19376.2
23645,19375.6
23614.6,19370.8
Z" /> 
<path style="fill:#000000; fill-opacity:1.0; 
stroke:#000000; stroke-width:3.93701; stroke-opacity:1; 
stroke-linecap:round; stroke-linejoin:round;fill-rule:evenodd;"
d="M 21080.3,19935.3
21055.3,19941.3
21035.6,19950.9
21020.2,19960.7
21045.6,19990.6
21055.7,20002.4
21064.4,20011.9
21070.6,20018.3
21073.4,20020.6
21077.6,20019.2
21085.4,20015.7
21088.9,20013.9
21103.3,20009.2
21120.4,20007.3
21137.3,20008.4
21151.3,20012.5
21151.6,20012.7
21165.2,20021
21175,20031.3
21181.8,20042.3
21183.7,20046
21185.2,20050.1
21186.4,20055.1
21187.4,20061.8
21188.1,20070.9
21188.6,20083.2
21189.1,20099.3
21189.4,20120
21189.7,20146
21190,20174.8
21191,20293.9
21260.6,20293.9
21260.6,19937.3
21190.6,19937.3
21190.6,19974.6
21178.2,19963.8
21156.7,19949
21132.3,19939.2
21106.4,19934.6
Z" /> 
<path style="fill:#000000; fill-opacity:1.0; 
stroke:#000000; stroke-width:3.93701; stroke-opacity:1; 
stroke-linecap:round; stroke-linejoin:round;fill-rule:evenodd;"
d="M 22098,19938
22059.3,19938.9
22026,20061.5
22018.5,20088.7
22011.5,20113.7
22005.1,20135.8
21999.6,20154.3
21995.2,20168.6
21992.1,20177.8
21990.5,20181.5
21990.3,20181.5
21988.1,20177
21984.9,20168.5
21982.9,20162.3
21980.6,20155
21976.5,20142.4
21971,20125.2
21964.3,20104.4
21956.7,20080.9
21948.5,20055.5
21943.9,20041.4
21910.2,19937.3
21857.6,19937.3
21845.5,19974.8
21841,19988.7
21835,20007.5
21827.8,20029.9
21819.9,20054.3
21811.8,20079.5
21806.6,20095.6
21799.4,20118
21792.7,20138.3
21786.9,20155.7
21782.2,20169.2
21779,20178.1
21777.6,20181.3
21776.3,20178.8
21773.5,20170.5
21769.3,20157.1
21764,20139.3
21757.8,20117.8
21750.9,20093.2
21743.5,20066.3
21742.1,20061.3
21708.8,19938.9
21671.4,19938
21653.8,19937.8
21642.2,19938.2
21635.8,19939.3
21633.9,19941.1
21634.9,19944.9
21637.7,19954.5
21642.2,19969.3
21648.2,19988.6
21655.5,20011.9
21663.9,20038.7
21673.3,20068.2
21683.3,20099.9
21689.6,20119.5
21745.2,20293.9
21809.4,20293.9
21845.7,20172.3
21853.9,20145.1
21861.6,20120
21868.4,20097.8
21874.3,20079
21879,20064.5
21882.3,20054.8
21884,20050.7
21884.1,20050.6
21885.5,20053.7
21888.5,20062.5
21893,20076.3
21898.7,20094.4
21905.4,20116.1
21912.9,20140.7
21921,20167.6
21922.4,20172.3
21958.6,20293.9
22022.7,20293.9
22067.3,20154.8
22077.1,20123.9
22086.8,20093.5
22096.1,20064.5
22104.6,20037.9
22112.1,20014.4
22118.2,19995.1
22122.8,19980.9
22124.2,19976.3
22136.6,19937.1
Z" /> 
<path style="fill:#000000; fill-opacity:1.0; 
stroke:#000000; stroke-width:3.93701; stroke-opacity:1; 
stroke-linecap:round; stroke-linejoin:round;fill-rule:evenodd;"
d="M 22521.7,19935.8
22510.4,19936.7
22501.2,19938.8
22491.6,19942.5
22482.8,19946.7
22472.2,19952.4
22464.5,19957.4
22461.3,19960.7
22461.3,19961.1
22463.7,19964.8
22469.6,19972.4
22477.9,19982.9
22486.9,19993.7
22511.4,20023.1
22525.1,20015.2
22539.9,20009.7
22557.7,20007.2
22575.4,20008.1
22586.2,20010.8
22600.1,20019.1
22612.6,20031.9
22620.9,20045.6
22622.6,20049.6
22623.9,20054.3
22624.9,20060.4
22625.7,20068.6
22626.3,20079.7
22626.7,20094.3
22627,20113.2
22627.1,20137.1
22627.2,20166.7
22627.2,20176.4
22627.2,20293.9
22700.6,20293.9
22700.6,19937.3
22627.2,19937.3
22627.2,19974.7
22613.5,19962.3
22598.1,19950.1
22582.8,19942.1
22565.6,19937.5
22544.5,19935.7
22537.2,19935.6
Z" /> 
<path style="fill:#000000; fill-opacity:1.0; 
stroke:#000000; stroke-width:3.93701; stroke-opacity:1; 
stroke-linecap:round; stroke-linejoin:round;fill-rule:evenodd;"
d="M 23218,19372.9
23206,19374.4
23195.6,19377.4
23187.2,19381
23162.4,19395.8
23143,19414.4
23129.1,19436.9
23122.2,19456.2
23119.6,19470.1
23117.5,19489.1
23115.9,19511.7
23114.9,19536.4
23114.6,19561.7
23115,19585.9
23116.1,19607.6
23116.8,19615.3
23120.6,19641.4
23126.2,19662.5
23134.2,19679.9
23145.3,19695.2
23151.2,19701.4
23172.8,19718.6
23196.8,19729.9
23222.3,19735.4
23248.6,19735
23274.6,19728.6
23299.6,19716.3
23311.9,19707.6
23319.5,19701.7
23324.8,19697.9
23326,19697.3
23326.3,19700.5
23326.5,19709.7
23326.7,19724.2
23326.9,19743.2
23327.1,19766.2
23327.2,19792.4
23327.2,19821.1
23327.2,19836
23327.2,19974.7
23316.5,19964.2
23307.3,19956.7
23295.2,19948.9
23287.3,19944.6
23277.8,19940.4
23269.2,19937.7
23259.3,19936.2
23246.1,19935.7
23235.6,19935.6
23219.6,19935.8
23208.2,19936.6
23199.2,19938.4
23190.7,19941.6
23182.8,19945.5
23162.8,19958.6
23144.7,19976.2
23130.1,19996.3
23123.4,20009.8
23121.4,20014.8
23119.9,20019.7
23118.6,20025.2
23117.6,20032
23116.8,20040.8
23116.2,20052.4
23115.7,20067.3
23115.4,20086.4
23115.1,20110.3
23114.8,20139.7
23114.6,20161.4
23113.5,20293.9
23187.2,20293.9
23187.3,20181.4
23187.4,20152
23187.7,20125.1
23188.1,20101.6
23188.7,20082.2
23189.4,20067.7
23190.3,20058.7
23190.6,20056.9
23199.2,20036.9
23212.1,20021.9
23229.2,20012
23250,20007.6
23256.5,20007.3
23278.9,20010
23297.4,20018.1
23311.9,20031.4
23322.1,20049.9
23323.5,20053.6
23324.7,20060.9
23325.7,20074.6
23326.4,20094.8
23326.9,20121.5
23327.2,20154.9
23327.2,20179.4
23327.2,20293.9
23400.6,20293.9
23399.8,19834.8
23399.2,19553.9
23325.6,19553.9
23325.5,19574.7
23325.2,19590.1
23324.5,19601.4
23323.3,19609.9
23321.5,19616.9
23318.8,19623.8
23317.6,19626.5
23307.7,19643.2
23295.1,19654.5
23278.9,19660.9
23258.4,19662.8
23251.3,19662.6
23235.3,19660.5
23222.9,19656
23217.7,19652.9
23206.4,19642.8
23197.9,19629
23192,19610.9
23188.7,19587.9
23187.7,19559.5
23188.2,19540.6
23189.5,19518
23191.5,19500.6
23194.5,19487.1
23198.9,19476
23204.9,19466
23216.2,19455.3
23231.6,19448
23249.6,19444.4
23268.4,19444.8
23286.2,19449.4
23290.7,19451.4
23300.1,19457.2
23307.3,19464.6
23314,19475.8
23315.6,19478.9
23319.3,19486.5
23321.9,19493
23323.7,19499.8
23324.8,19508
23325.3,19519.1
23325.5,19534.4
23325.6,19553.9
23399.2,19553.9
23398.9,19375.6
23327.2,19373.7
23327.2,19411.1
23313.3,19399.2
23292.9,19385.3
23270,19376.6
23243.5,19372.8
23233.9,19372.5
Z" /> 
<path style="fill:#000000; fill-opacity:1.0; 
stroke:#000000; stroke-width:3.93701; stroke-opacity:1; 
stroke-linecap:round; stroke-linejoin:round;fill-rule:evenodd;"
d="M 20855.8,19935.7
20844.1,19936.3
20834.9,19937.8
20826.4,19940.5
20816.4,19944.9
20810.6,19947.7
20783.6,19964
20761.9,19984.2
20745.3,20008.7
20733.8,20036.8
20730.7,20048.7
20728.7,20061.6
20727.6,20077.5
20727.2,20097.9
20727.2,20101
20727.2,20143.9
20948.2,20143.9
20946.2,20160.9
20940.5,20183.1
20929.3,20201.7
20913.2,20216
20892.4,20225.7
20891.5,20226
20868.9,20230.1
20846.5,20228.4
20823.7,20220.9
20799.8,20207.2
20788.8,20199.2
20784.3,20199.6
20775.9,20204.7
20763.3,20214.7
20760.2,20217.3
20749.6,20226.5
20741,20234.3
20735.7,20239.4
20734.6,20240.8
20736.4,20244.3
20742.4,20250.4
20751.3,20258.1
20761.7,20266.2
20772.4,20273.7
20780.8,20278.7
20793.1,20284.4
20807.7,20289.8
20815.7,20292.2
20831.9,20295
20851.7,20296.6
20872.7,20296.7
20892.5,20295.6
20908.5,20293
20910.6,20292.5
20939.8,20281.2
20964.7,20264.8
20985.3,20243.4
21001.4,20217.1
21012.9,20186
21014.4,20180.6
21016.8,20165.6
21018.4,20145.9
21018.9,20123.5
21018.5,20100.3
21017.2,20078.2
21016.8,20074.4
20947.2,20074.4
20947.2,20083.9
20799.6,20083.9
20801.7,20066.9
20807.2,20045.8
20817.9,20027.6
20833.1,20013.7
20836.3,20011.7
20854.7,20004.3
20874.5,20002.1
20894.2,20004.7
20912.2,20012
20926.9,20023.5
20930.5,20027.8
20938.1,20041
20944,20056.3
20947.1,20070.7
20947.2,20074.4
21016.8,20074.4
21015.1,20059.2
21012.6,20047.3
21000.8,20015.4
20984.1,19988.1
20966.8,19969.1
20950.3,19955.4
20934,19945.8
20916.3,19939.7
20895.4,19936.5
20872.2,19935.7
Z" /> 
<path style="fill:#000000; fill-opacity:1.0; 
stroke:#000000; stroke-width:3.93701; stroke-opacity:1; 
stroke-linecap:round; stroke-linejoin:round;fill-rule:evenodd;"
d="M 21467,19935.8
21451.8,19936.3
21439.9,19937.4
21429.7,19939.2
21419.5,19942
21414.7,19943.5
21389.5,19954.9
21369,19970.9
21353.3,19991.5
21351.3,19995.2
21342.2,20012.3
21341.3,20153.1
21340.3,20293.9
21413.9,20293.9
21413.9,20266
21423.1,20274.6
21433.2,20283.1
21443.4,20289
21455.1,20292.9
21470.1,20295.1
21489.8,20296.2
21493.9,20296.3
21517.3,20296.2
21535,20294.9
21545.6,20292.8
21572.6,20280.9
21594.4,20265
21611,20245
21617.9,20232.3
21623.8,20212.8
21625.8,20191.1
21557.1,20191.1
21552.4,20204
21543,20215.4
21529,20223.9
21524.5,20225.6
21511.6,20228.2
21495.1,20229.5
21477,20229.4
21459.4,20228.2
21444.4,20225.8
21434.1,20222.4
21424.6,20214.8
21418.2,20203.3
21414.8,20187.1
21413.9,20169
21413.9,20143.9
21464.4,20143.9
21484.6,20144.2
21502.7,20145
21517.2,20146.1
21526.8,20147.6
21527.9,20147.9
21542.5,20155
21552.2,20165.4
21557,20177.8
21557.1,20191.1
21625.8,20191.1
21625.9,20190.5
21624.2,20167.8
21618.7,20147.3
21617.5,20144.7
21605,20124.5
21587.5,20107.6
21566.2,20094.9
21554.9,20090.6
21545.7,20088.1
21536.3,20086.3
21525.1,20085.1
21511.1,20084.4
21492.7,20084
21473.6,20083.9
21413.9,20083.9
21413.9,20056.1
21414.2,20041.2
21415.3,20031.3
21417.6,20024.4
21420.6,20019.6
21430,20011.6
21443.8,20006.2
21462.6,20003.3
21478.9,20002.6
21500,20002.9
21515.9,20004.8
21528.2,20008.6
21538.4,20014.6
21542.2,20017.7
21553.7,20027.8
21580.5,20007.4
21591.7,19998.5
21600.6,19991
21606.1,19985.8
21607.2,19984.1
21604.6,19979.3
21597.6,19972.3
21587.8,19964.1
21576.4,19955.8
21565,19948.6
21555,19943.6
21554.6,19943.4
21546.1,19940.3
21537.7,19938.2
21528,19936.9
21515.3,19936.1
21498.3,19935.8
21487.2,19935.7
Z" /> 
<path style="fill:#000000; fill-opacity:1.0; 
stroke:#000000; stroke-width:3.93701; stroke-opacity:1; 
stroke-linecap:round; stroke-linejoin:round;fill-rule:evenodd;"
d="M 22173.9,20293.9
22247.2,20293.9
22247.2,20260
22260.8,20270.8
22284.8,20285.8
22311,20294.5
22337.2,20297
22351.8,20296.3
22365.9,20294.7
22376.2,20292.5
22396.7,20283.2
22416.1,20269.4
22432.6,20252.5
22444.9,20233.9
22448.8,20224.8
22452,20211.5
22454.6,20193
22456.5,20170.5
22457.7,20145.4
22458.3,20119
22458.3,20115.6
22385.4,20115.6
22385.2,20137.4
22384.5,20154
22383.3,20166.5
22381.3,20176.5
22379.4,20182.9
22370.9,20199.9
22358.7,20212.9
22344.1,20220.9
22338.1,20222.4
22329.1,20224
22322.9,20225.4
22322.2,20225.6
22314.3,20226
22302.8,20224.2
22290.4,20220.8
22279.8,20216.2
22279.7,20216.2
22269.5,20208.4
22261,20196.5
22258,20190.8
22254.3,20182.6
22251.7,20175
22250,20166.3
22248.9,20155
22248.1,20139.5
22247.8,20127.1
22247.9,20094.5
22250.3,20067.9
22255.2,20046.7
22262.9,20030.6
22273.5,20019.1
22287.3,20011.7
22304.5,20008.1
22307.1,20007.9
22327.2,20007.6
22342.7,20010
22355.2,20015.7
22362.1,20020.9
22370.3,20029.6
22376.4,20039.8
22380.7,20052.7
22383.5,20069.3
22385,20090.5
22385.4,20115.6
22458.3,20115.6
22458.2,20092.5
22457.3,20067.2
22455.8,20044.5
22453.6,20025.7
22450.7,20012
22450.2,20010.6
22438.9,19987.9
22422.1,19967.5
22400.6,19950.7
22390.6,19945
22381,19940.5
22372.4,19937.7
22362.6,19936.2
22349.5,19935.7
22340.6,19935.6
22324.3,19935.9
22312.5,19936.9
22302.9,19939.2
22293.1,19943
22290.4,19944.3
22277.8,19951.1
22265.5,19959.2
22259.6,19963.8
22247.2,19974.6
22247.2,19793.9
22173.9,19793.9
Z" /> 
<path style="fill:#000000; fill-opacity:1.0; 
stroke:#000000; stroke-width:3.93701; stroke-opacity:1; 
stroke-linecap:round; stroke-linejoin:round;fill-rule:evenodd;"
d="M 22910.1,19934.9
22888.5,19936.4
22869.3,19938.9
22855.1,19942
22830.2,19952.9
22809.7,19968.6
22794,19988.6
22783.6,20012.4
22781.1,20022.7
22779.9,20032.2
22779,20048.1
22778.2,20070.2
22777.7,20098.1
22777.3,20131.7
22777.2,20167.8
22777.2,20293.9
22850.6,20293.9
22850.6,20263.7
22862.2,20275.4
22876.2,20285.7
22891.2,20292.1
22905.9,20295
22924.8,20296.6
22945.3,20296.9
22964.9,20295.8
22981.3,20293.4
22984.1,20292.7
23009.6,20282.7
23030.8,20267.7
23047.7,20247.5
23056.1,20232.3
23060.5,20220.9
23062.9,20209.1
23063.8,20194
23063.9,20188.6
23063.7,20182.3
22996.9,20182.3
22995.5,20196.9
22988.3,20209.7
22975.9,20220.1
22958.6,20227.1
22958.1,20227.2
22947.5,20228.7
22933,20229.3
22916.8,20229.1
22900.6,20228
22886.7,20226.3
22876.9,20224.1
22875.2,20223.4
22865.1,20216.7
22858.1,20207.6
22853.8,20194.8
22851.5,20177.1
22851.2,20172.3
22849.7,20143.9
22904.3,20144
22930,20144.4
22950,20145.6
22965.1,20147.8
22976.1,20151.4
22984.1,20156.4
22989.9,20163.2
22992,20166.8
22996.9,20182.3
23063.7,20182.3
23063.5,20173.7
23062.1,20162.5
23058.9,20152.4
23053.7,20141.3
23043.4,20124.1
23031.1,20110.9
23015,20099.9
23003.9,20094.2
22997.4,20091.3
22991.3,20089.1
22984.5,20087.5
22975.8,20086.4
22964.3,20085.6
22948.8,20085.1
22928.2,20084.7
22917.7,20084.5
22849.9,20083.4
22851.1,20055.6
22851.9,20041.2
22853.4,20031.6
22855.8,20025.1
22859.7,20019.8
22860.2,20019.3
22869.7,20011.6
22881.9,20006.5
22898.1,20003.6
22919.4,20002.5
22923.9,20002.5
22940.3,20002.9
22952.1,20004
22961.1,20006.2
22969.5,20009.9
22969.9,20010.1
22978.8,20015.5
22984.9,20020.7
22986.2,20022.6
22988,20025.4
22991.3,20025.9
22996.8,20023.4
23005.4,20017.7
23018,20008.3
23022.2,20005.1
23033.6,19996.2
23040.5,19990.2
23043.7,19986.1
23043.9,19982.7
23042,19979.1
23041.7,19978.6
23030.4,19966.2
23014,19954.7
22994.3,19945
22972.8,19938.2
22967.9,19937.1
22951.9,19935.2
22932,19934.5
Z" /> 
</g>
<g style="fill:#000000; fill-opacity:1.0; 
stroke:#000000; stroke-width:47.2441; stroke-opacity:1; 
stroke-linecap:round; stroke-linejoin:round;">
</g>
<g style="fill:#000000; fill-opacity:0.0; 
stroke:#000000; stroke-width:47.2441; stroke-opacity:1; 
stroke-linecap:round; stroke-linejoin:round;">
<path d="M36374 37140
L36374 37268
" />
<path d="M36775 37140
L36775 37268
" />
<path d="M32022 40456
L32150 40456
" />
<path d="M32022 40055
L32150 40055
" />
<path d="M36905 35890
L36905 35762
" />
<path d="M37307 35890
L37307 35762
" />
<path d="M36118 41205
L36118 41077
" />
<path d="M36519 41205
L36519 41077
" />
<path d="M35429 44128
L35429 44256
" />
<path d="M35830 44128
L35830 44256
" />
<path d="M34157 44128
L34157 44256
" />
<path d="M33755 44128
L33755 44256
" />
<path d="M32022 39866
L32150 39866
" />
<path d="M32022 39464
L32150 39464
" />
<path d="M32022 37988
L32150 37988
" />
<path d="M32022 38389
L32150 38389
" />
<path d="M34051 33331
L34051 33203
" />
<path d="M34452 33331
L34452 33203
" />
<path d="M36216 32938
L36216 32809
" />
<path d="M36618 32938
L36618 32809
" />
<path d="M35005 38881
L34876 38881
" />
<path d="M35005 38480
L34876 38480
" />
<path d="M37082 37140
L37082 37268
" />
<path d="M37484 37140
L37484 37268
" />
<path d="M31492 32544
L31492 32416
" />
<path d="M31893 32544
L31893 32416
" />
<path d="M31924 41334
L32052 41334
" />
<path d="M31924 41736
L32052 41736
" />
<path d="M30409 32544
L30409 32416
" />
<path d="M30811 32544
L30811 32416
" />
<path d="M32022 38677
L32150 38677
" />
<path d="M32022 39078
L32150 39078
" />
<path d="M36118 35762
L36118 35890
" />
<path d="M36519 35762
L36519 35890
" />
<path d="M32959 35944
L33087 35944
" />
<path d="M32959 35543
L33087 35543
" />
<path d="M32959 36535
L33087 36535
" />
<path d="M32959 36133
L33087 36133
" />
<path d="M34680 41145
L34808 41145
" />
<path d="M34680 40744
L34808 40744
" />
<path d="M34680 41334
L34808 41334
" />
<path d="M34680 41736
L34808 41736
" />
<path d="M26866 38646
L26866 38518
" />
<path d="M27267 38646
L27267 38518
" />
<path d="M25094 38518
L25094 38646
" />
<path d="M25496 38518
L25496 38646
" />
<path d="M33468 23882
L33468 23754
" />
<path d="M33066 23882
L33066 23754
" />
<path d="M31937 36103
L31937 35975
" />
<path d="M32338 36103
L32338 35975
" />
<path d="M33657 41176
L33657 41304
" />
<path d="M34059 41176
L34059 41304
" />
<path d="M37239 32779
L37367 32779
" />
<path d="M37239 32377
L37367 32377
" />
<path d="M35940 25821
L35940 25949
" />
<path d="M36342 25821
L36342 25949
" />
<path d="M37239 28933
L37367 28933
" />
<path d="M37239 29334
L37367 29334
" />
<path d="M37239 28744
L37367 28744
" />
<path d="M37239 28342
L37367 28342
" />
<path d="M38548 29334
L38420 29334
" />
<path d="M38548 28933
L38420 28933
" />
<path d="M38548 28342
L38420 28342
" />
<path d="M38548 28744
L38420 28744
" />
</g>
<g style="fill:#000000; fill-opacity:0.0; 
stroke:#000000; stroke-width:59.0551; stroke-opacity:1; 
stroke-linecap:round; stroke-linejoin:round;">
<text x="36515.7" y="38385.8"
textLength="691.882" font-size="524.934" lengthAdjust="spacingAndGlyphs"
text-anchor="middle" opacity="0">C1</text>
<path d="M36581 38329
L36600 38348
L36656 38367
L36693 38367
L36750 38348
L36787 38310
L36806 38273
L36825 38198
L36825 38142
L36806 38067
L36787 38029
L36750 37992
L36693 37973
L36656 37973
L36600 37992
L36581 38010
" />
<path d="M36206 38367
L36431 38367
" />
<path d="M36318 38367
L36318 37973
L36356 38029
L36393 38067
L36431 38085
" />
<text x="30708.7" y="40452.8"
textLength="691.882" font-size="524.934" lengthAdjust="spacingAndGlyphs"
text-anchor="middle" opacity="0">C2</text>
<path d="M30774 40396
L30793 40415
L30849 40434
L30886 40434
L30943 40415
L30980 40377
L30999 40340
L31017 40265
L31017 40209
L30999 40134
L30980 40096
L30943 40059
L30886 40040
L30849 40040
L30793 40059
L30774 40077
" />
<path d="M30624 40077
L30605 40059
L30568 40040
L30474 40040
L30436 40059
L30418 40077
L30399 40115
L30399 40152
L30418 40209
L30643 40434
L30399 40434
" />
<g transform="rotate(-90 37669.3 35826.8)">
<text x="37669.3" y="36023.6"
textLength="691.882" font-size="524.934" lengthAdjust="spacingAndGlyphs"
text-anchor="middle" opacity="0">C3</text>
</g>
<path d="M37809 35761
L37828 35742
L37847 35686
L37847 35648
L37828 35592
L37791 35554
L37753 35536
L37678 35517
L37622 35517
L37547 35536
L37509 35554
L37472 35592
L37453 35648
L37453 35686
L37472 35742
L37491 35761
" />
<path d="M37453 35892
L37453 36136
L37603 36004
L37603 36061
L37622 36098
L37641 36117
L37678 36136
L37772 36136
L37809 36117
L37828 36098
L37847 36061
L37847 35948
L37828 35911
L37809 35892
" />
<g transform="rotate(-90 37401.6 41141.7)">
<text x="37401.6" y="41338.6"
textLength="691.882" font-size="524.934" lengthAdjust="spacingAndGlyphs"
text-anchor="middle" opacity="0">C4</text>
</g>
<path d="M37542 41076
L37560 41057
L37579 41001
L37579 40963
L37560 40907
L37523 40869
L37485 40851
L37410 40832
L37354 40832
L37279 40851
L37242 40869
L37204 40907
L37185 40963
L37185 41001
L37204 41057
L37223 41076
" />
<path d="M37317 41413
L37579 41413
" />
<path d="M37167 41319
L37448 41226
L37448 41469
" />
<g transform="rotate(-90 36614.2 44094.5)">
<text x="36614.2" y="44291.3"
textLength="691.882" font-size="524.934" lengthAdjust="spacingAndGlyphs"
text-anchor="middle" opacity="0">C5</text>
</g>
<path d="M36754 44028
L36773 44010
L36792 43953
L36792 43916
L36773 43860
L36736 43822
L36698 43803
L36623 43785
L36567 43785
L36492 43803
L36454 43822
L36417 43860
L36398 43916
L36398 43953
L36417 44010
L36436 44028
" />
<path d="M36398 44385
L36398 44197
L36586 44178
L36567 44197
L36548 44235
L36548 44328
L36567 44366
L36586 44385
L36623 44403
L36717 44403
L36754 44385
L36773 44366
L36792 44328
L36792 44235
L36773 44197
L36754 44178
" />
<g transform="rotate(-90 33393.7 44192.9)">
<text x="33393.7" y="44389.8"
textLength="691.882" font-size="524.934" lengthAdjust="spacingAndGlyphs"
text-anchor="middle" opacity="0">C6</text>
</g>
<path d="M33534 44127
L33553 44108
L33571 44052
L33571 44014
L33553 43958
L33515 43921
L33478 43902
L33403 43883
L33346 43883
L33271 43902
L33234 43921
L33196 43958
L33178 44014
L33178 44052
L33196 44108
L33215 44127
" />
<path d="M33178 44464
L33178 44389
L33196 44352
L33215 44333
L33271 44296
L33346 44277
L33496 44277
L33534 44296
L33553 44314
L33571 44352
L33571 44427
L33553 44464
L33534 44483
L33496 44502
L33403 44502
L33365 44483
L33346 44464
L33328 44427
L33328 44352
L33346 44314
L33365 44296
L33403 44277
" />
<text x="30708.7" y="39862.2"
textLength="691.882" font-size="524.934" lengthAdjust="spacingAndGlyphs"
text-anchor="middle" opacity="0">C7</text>
<path d="M30774 39805
L30793 39824
L30849 39843
L30886 39843
L30943 39824
L30980 39787
L30999 39749
L31017 39674
L31017 39618
L30999 39543
L30980 39505
L30943 39468
L30886 39449
L30849 39449
L30793 39468
L30774 39487
" />
<path d="M30643 39449
L30380 39449
L30549 39843
" />
<text x="30708.7" y="38385.8"
textLength="691.882" font-size="524.934" lengthAdjust="spacingAndGlyphs"
text-anchor="middle" opacity="0">C8</text>
<path d="M30774 38329
L30793 38348
L30849 38367
L30886 38367
L30943 38348
L30980 38310
L30999 38273
L31017 38198
L31017 38142
L30999 38067
L30980 38029
L30943 37992
L30886 37973
L30849 37973
L30793 37992
L30774 38010
" />
<path d="M30549 38142
L30586 38123
L30605 38104
L30624 38067
L30624 38048
L30605 38010
L30586 37992
L30549 37973
L30474 37973
L30436 37992
L30418 38010
L30399 38048
L30399 38067
L30418 38104
L30436 38123
L30474 38142
L30549 38142
L30586 38160
L30605 38179
L30624 38217
L30624 38292
L30605 38329
L30586 38348
L30549 38367
L30474 38367
L30436 38348
L30418 38329
L30399 38292
L30399 38217
L30418 38179
L30436 38160
L30474 38142
" />
<g transform="rotate(-90 33661.4 33267.7)">
<text x="33661.4" y="33464.6"
textLength="691.882" font-size="524.934" lengthAdjust="spacingAndGlyphs"
text-anchor="middle" opacity="0">C9</text>
</g>
<path d="M33802 33202
L33820 33183
L33839 33127
L33839 33089
L33820 33033
L33783 32995
L33745 32977
L33670 32958
L33614 32958
L33539 32977
L33502 32995
L33464 33033
L33445 33089
L33445 33127
L33464 33183
L33483 33202
" />
<path d="M33839 33389
L33839 33464
L33820 33502
L33802 33520
L33745 33558
L33670 33577
L33520 33577
L33483 33558
L33464 33539
L33445 33502
L33445 33427
L33464 33389
L33483 33370
L33520 33352
L33614 33352
L33652 33370
L33670 33389
L33689 33427
L33689 33502
L33670 33539
L33652 33558
L33614 33577
" />
<g transform="rotate(-90 35826.8 32874)">
<text x="35826.8" y="33070.9"
textLength="1066.84" font-size="524.934" lengthAdjust="spacingAndGlyphs"
text-anchor="middle" opacity="0">C10</text>
</g>
<path d="M35967 32620
L35986 32602
L36004 32545
L36004 32508
L35986 32452
L35948 32414
L35911 32395
L35836 32377
L35779 32377
L35704 32395
L35667 32414
L35629 32452
L35611 32508
L35611 32545
L35629 32602
L35648 32620
" />
<path d="M36004 32995
L36004 32770
" />
<path d="M36004 32883
L35611 32883
L35667 32845
L35704 32808
L35723 32770
" />
<path d="M35611 33239
L35611 33277
L35629 33314
L35648 33333
L35686 33352
L35761 33370
L35854 33370
L35929 33352
L35967 33333
L35986 33314
L36004 33277
L36004 33239
L35986 33202
L35967 33183
L35929 33164
L35854 33145
L35761 33145
L35686 33164
L35648 33183
L35629 33202
L35611 33239
" />
<text x="35137.8" y="39468.5"
textLength="1066.84" font-size="524.934" lengthAdjust="spacingAndGlyphs"
text-anchor="middle" opacity="0">C11</text>
<path d="M35390 39412
L35409 39431
L35465 39449
L35503 39449
L35559 39431
L35597 39393
L35615 39356
L35634 39281
L35634 39224
L35615 39149
L35597 39112
L35559 39074
L35503 39056
L35465 39056
L35409 39074
L35390 39093
" />
<path d="M35015 39449
L35240 39449
" />
<path d="M35128 39449
L35128 39056
L35165 39112
L35203 39149
L35240 39168
" />
<path d="M34640 39449
L34865 39449
" />
<path d="M34753 39449
L34753 39056
L34790 39112
L34828 39149
L34865 39168
" />
<g transform="rotate(-90 37893.7 37500)">
<text x="37893.7" y="37696.9"
textLength="1066.84" font-size="524.934" lengthAdjust="spacingAndGlyphs"
text-anchor="middle" opacity="0">C12</text>
</g>
<path d="M38034 37246
L38053 37228
L38071 37171
L38071 37134
L38053 37078
L38015 37040
L37978 37021
L37903 37003
L37846 37003
L37771 37021
L37734 37040
L37696 37078
L37678 37134
L37678 37171
L37696 37228
L37715 37246
" />
<path d="M38071 37621
L38071 37396
" />
<path d="M38071 37509
L37678 37509
L37734 37471
L37771 37434
L37790 37396
" />
<path d="M37715 37771
L37696 37790
L37678 37828
L37678 37921
L37696 37959
L37715 37978
L37753 37996
L37790 37996
L37846 37978
L38071 37753
L38071 37996
" />
<g transform="rotate(-90 32283.5 32480.3)">
<text x="32283.5" y="32677.2"
textLength="1066.84" font-size="524.934" lengthAdjust="spacingAndGlyphs"
text-anchor="middle" opacity="0">C13</text>
</g>
<path d="M32424 32227
L32442 32208
L32461 32152
L32461 32114
L32442 32058
L32405 32020
L32367 32002
L32292 31983
L32236 31983
L32161 32002
L32124 32020
L32086 32058
L32067 32114
L32067 32152
L32086 32208
L32105 32227
" />
<path d="M32461 32602
L32461 32377
" />
<path d="M32461 32489
L32067 32489
L32124 32452
L32161 32414
L32180 32377
" />
<path d="M32067 32733
L32067 32977
L32217 32845
L32217 32902
L32236 32939
L32255 32958
L32292 32977
L32386 32977
L32424 32958
L32442 32939
L32461 32902
L32461 32789
L32442 32752
L32424 32733
" />
<text x="31988.2" y="42295.3"
textLength="1066.84" font-size="524.934" lengthAdjust="spacingAndGlyphs"
text-anchor="middle" opacity="0">C14</text>
<path d="M32241 42239
L32260 42257
L32316 42276
L32353 42276
L32410 42257
L32447 42220
L32466 42182
L32485 42107
L32485 42051
L32466 41976
L32447 41939
L32410 41901
L32353 41882
L32316 41882
L32260 41901
L32241 41920
" />
<path d="M31866 42276
L32091 42276
" />
<path d="M31978 42276
L31978 41882
L32016 41939
L32053 41976
L32091 41995
" />
<path d="M31528 42014
L31528 42276
" />
<path d="M31622 41864
L31716 42145
L31472 42145
" />
<g transform="rotate(-90 30019.7 32480.3)">
<text x="30019.7" y="32677.2"
textLength="1066.84" font-size="524.934" lengthAdjust="spacingAndGlyphs"
text-anchor="middle" opacity="0">C15</text>
</g>
<path d="M30160 32227
L30179 32208
L30197 32152
L30197 32114
L30179 32058
L30141 32020
L30104 32002
L30029 31983
L29972 31983
L29897 32002
L29860 32020
L29822 32058
L29804 32114
L29804 32152
L29822 32208
L29841 32227
" />
<path d="M30197 32602
L30197 32377
" />
<path d="M30197 32489
L29804 32489
L29860 32452
L29897 32414
L29916 32377
" />
<path d="M29804 32958
L29804 32770
L29991 32752
L29972 32770
L29954 32808
L29954 32902
L29972 32939
L29991 32958
L30029 32977
L30122 32977
L30160 32958
L30179 32939
L30197 32902
L30197 32808
L30179 32770
L30160 32752
" />
<text x="30610.2" y="39074.8"
textLength="1066.84" font-size="524.934" lengthAdjust="spacingAndGlyphs"
text-anchor="middle" opacity="0">C16</text>
<path d="M30863 39018
L30882 39037
L30938 39056
L30975 39056
L31032 39037
L31069 38999
L31088 38962
L31107 38887
L31107 38831
L31088 38756
L31069 38718
L31032 38681
L30975 38662
L30938 38662
L30882 38681
L30863 38699
" />
<path d="M30488 39056
L30713 39056
" />
<path d="M30600 39056
L30600 38662
L30638 38718
L30675 38756
L30713 38774
" />
<path d="M30150 38662
L30225 38662
L30263 38681
L30282 38699
L30319 38756
L30338 38831
L30338 38981
L30319 39018
L30300 39037
L30263 39056
L30188 39056
L30150 39037
L30132 39018
L30113 38981
L30113 38887
L30132 38849
L30150 38831
L30188 38812
L30263 38812
L30300 38831
L30319 38849
L30338 38887
" />
<g transform="rotate(-90 35728.3 35137.8)">
<text x="35728.3" y="35334.6"
textLength="1066.84" font-size="524.934" lengthAdjust="spacingAndGlyphs"
text-anchor="middle" opacity="0">C17</text>
</g>
<path d="M35868 34884
L35887 34865
L35906 34809
L35906 34772
L35887 34715
L35850 34678
L35812 34659
L35737 34640
L35681 34640
L35606 34659
L35568 34678
L35531 34715
L35512 34772
L35512 34809
L35531 34865
L35550 34884
" />
<path d="M35906 35259
L35906 35034
" />
<path d="M35906 35147
L35512 35147
L35568 35109
L35606 35072
L35625 35034
" />
<path d="M35512 35390
L35512 35653
L35906 35484
" />
<text x="34153.5" y="35728.3"
textLength="1066.84" font-size="524.934" lengthAdjust="spacingAndGlyphs"
text-anchor="middle" opacity="0">C37</text>
<path d="M34406 35672
L34425 35690
L34481 35709
L34519 35709
L34575 35690
L34612 35653
L34631 35615
L34650 35540
L34650 35484
L34631 35409
L34612 35372
L34575 35334
L34519 35315
L34481 35315
L34425 35334
L34406 35353
" />
<path d="M34275 35315
L34031 35315
L34162 35465
L34106 35465
L34069 35484
L34050 35503
L34031 35540
L34031 35634
L34050 35672
L34069 35690
L34106 35709
L34219 35709
L34256 35690
L34275 35672
" />
<path d="M33900 35315
L33637 35315
L33806 35709
" />
<text x="34153.5" y="36712.6"
textLength="1066.84" font-size="524.934" lengthAdjust="spacingAndGlyphs"
text-anchor="middle" opacity="0">C38</text>
<path d="M34406 36656
L34425 36675
L34481 36693
L34519 36693
L34575 36675
L34612 36637
L34631 36600
L34650 36525
L34650 36468
L34631 36393
L34612 36356
L34575 36318
L34519 36300
L34481 36300
L34425 36318
L34406 36337
" />
<path d="M34275 36300
L34031 36300
L34162 36450
L34106 36450
L34069 36468
L34050 36487
L34031 36525
L34031 36618
L34050 36656
L34069 36675
L34106 36693
L34219 36693
L34256 36675
L34275 36656
" />
<path d="M33806 36468
L33844 36450
L33862 36431
L33881 36393
L33881 36375
L33862 36337
L33844 36318
L33806 36300
L33731 36300
L33694 36318
L33675 36337
L33656 36375
L33656 36393
L33675 36431
L33694 36450
L33731 36468
L33806 36468
L33844 36487
L33862 36506
L33881 36543
L33881 36618
L33862 36656
L33844 36675
L33806 36693
L33731 36693
L33694 36675
L33675 36656
L33656 36618
L33656 36543
L33675 36506
L33694 36487
L33731 36468
" />
<text x="34744.1" y="40551.2"
textLength="1066.84" font-size="524.934" lengthAdjust="spacingAndGlyphs"
text-anchor="middle" opacity="0">C39</text>
<path d="M34997 40494
L35015 40513
L35072 40532
L35109 40532
L35165 40513
L35203 40476
L35222 40438
L35240 40363
L35240 40307
L35222 40232
L35203 40194
L35165 40157
L35109 40138
L35072 40138
L35015 40157
L34997 40176
" />
<path d="M34865 40138
L34622 40138
L34753 40288
L34697 40288
L34659 40307
L34640 40326
L34622 40363
L34622 40457
L34640 40494
L34659 40513
L34697 40532
L34809 40532
L34847 40513
L34865 40494
" />
<path d="M34434 40532
L34359 40532
L34322 40513
L34303 40494
L34266 40438
L34247 40363
L34247 40213
L34266 40176
L34284 40157
L34322 40138
L34397 40138
L34434 40157
L34453 40176
L34472 40213
L34472 40307
L34453 40344
L34434 40363
L34397 40382
L34322 40382
L34284 40363
L34266 40344
L34247 40307
" />
<text x="34744.1" y="42716.5"
textLength="1066.84" font-size="524.934" lengthAdjust="spacingAndGlyphs"
text-anchor="middle" opacity="0">C40</text>
<path d="M34997 42660
L35015 42679
L35072 42697
L35109 42697
L35165 42679
L35203 42641
L35222 42604
L35240 42529
L35240 42472
L35222 42397
L35203 42360
L35165 42322
L35109 42304
L35072 42304
L35015 42322
L34997 42341
" />
<path d="M34659 42435
L34659 42697
" />
<path d="M34753 42285
L34847 42566
L34603 42566
" />
<path d="M34378 42304
L34341 42304
L34303 42322
L34284 42341
L34266 42379
L34247 42454
L34247 42547
L34266 42622
L34284 42660
L34303 42679
L34341 42697
L34378 42697
L34416 42679
L34434 42660
L34453 42622
L34472 42547
L34472 42454
L34453 42379
L34434 42341
L34416 42322
L34378 42304
" />
<g transform="rotate(-90 28248 38582.7)">
<text x="28248" y="38779.5"
textLength="1066.84" font-size="524.934" lengthAdjust="spacingAndGlyphs"
text-anchor="middle" opacity="0">C48</text>
</g>
<path d="M28388 38329
L28407 38310
L28426 38254
L28426 38217
L28407 38160
L28369 38123
L28332 38104
L28257 38085
L28201 38085
L28126 38104
L28088 38123
L28051 38160
L28032 38217
L28032 38254
L28051 38310
L28069 38329
" />
<path d="M28163 38667
L28426 38667
" />
<path d="M28013 38573
L28294 38479
L28294 38723
" />
<path d="M28201 38929
L28182 38892
L28163 38873
L28126 38854
L28107 38854
L28069 38873
L28051 38892
L28032 38929
L28032 39004
L28051 39041
L28069 39060
L28107 39079
L28126 39079
L28163 39060
L28182 39041
L28201 39004
L28201 38929
L28219 38892
L28238 38873
L28276 38854
L28351 38854
L28388 38873
L28407 38892
L28426 38929
L28426 39004
L28407 39041
L28388 39060
L28351 39079
L28276 39079
L28238 39060
L28219 39041
L28201 39004
" />
<g transform="rotate(-90 24015.7 38582.7)">
<text x="24015.7" y="38779.5"
textLength="1066.84" font-size="524.934" lengthAdjust="spacingAndGlyphs"
text-anchor="middle" opacity="0">C49</text>
</g>
<path d="M24156 38329
L24175 38310
L24193 38254
L24193 38217
L24175 38160
L24137 38123
L24100 38104
L24025 38085
L23968 38085
L23893 38104
L23856 38123
L23818 38160
L23800 38217
L23800 38254
L23818 38310
L23837 38329
" />
<path d="M23931 38667
L24193 38667
" />
<path d="M23781 38573
L24062 38479
L24062 38723
" />
<path d="M24193 38892
L24193 38967
L24175 39004
L24156 39023
L24100 39060
L24025 39079
L23875 39079
L23837 39060
L23818 39041
L23800 39004
L23800 38929
L23818 38892
L23837 38873
L23875 38854
L23968 38854
L24006 38873
L24025 38892
L24043 38929
L24043 39004
L24025 39041
L24006 39060
L23968 39079
" />
<g transform="rotate(-90 32677.2 24409.4)">
<text x="32677.2" y="24606.3"
textLength="1066.84" font-size="524.934" lengthAdjust="spacingAndGlyphs"
text-anchor="middle" opacity="0">C83</text>
</g>
<path d="M32817 24156
L32836 24137
L32855 24081
L32855 24043
L32836 23987
L32799 23950
L32761 23931
L32686 23912
L32630 23912
L32555 23931
L32517 23950
L32480 23987
L32461 24043
L32461 24081
L32480 24137
L32499 24156
" />
<path d="M32630 24381
L32611 24343
L32592 24325
L32555 24306
L32536 24306
L32499 24325
L32480 24343
L32461 24381
L32461 24456
L32480 24493
L32499 24512
L32536 24531
L32555 24531
L32592 24512
L32611 24493
L32630 24456
L32630 24381
L32649 24343
L32667 24325
L32705 24306
L32780 24306
L32817 24325
L32836 24343
L32855 24381
L32855 24456
L32836 24493
L32817 24512
L32780 24531
L32705 24531
L32667 24512
L32649 24493
L32630 24456
" />
<path d="M32461 24662
L32461 24906
L32611 24775
L32611 24831
L32630 24868
L32649 24887
L32686 24906
L32780 24906
L32817 24887
L32836 24868
L32855 24831
L32855 24718
L32836 24681
L32817 24662
" />
<g transform="rotate(-90 31547.2 35925.2)">
<text x="31547.2" y="36122"
textLength="1066.84" font-size="524.934" lengthAdjust="spacingAndGlyphs"
text-anchor="middle" opacity="0">R15</text>
</g>
<path d="M31725 35672
L31537 35540
" />
<path d="M31725 35447
L31331 35447
L31331 35597
L31350 35634
L31369 35653
L31406 35672
L31462 35672
L31500 35653
L31519 35634
L31537 35597
L31537 35447
" />
<path d="M31725 36047
L31725 35822
" />
<path d="M31725 35934
L31331 35934
L31387 35897
L31425 35859
L31444 35822
" />
<path d="M31331 36403
L31331 36215
L31519 36197
L31500 36215
L31481 36253
L31481 36347
L31500 36384
L31519 36403
L31556 36422
L31650 36422
L31687 36403
L31706 36384
L31725 36347
L31725 36253
L31706 36215
L31687 36197
" />
<g transform="rotate(-90 33267.7 41535.4)">
<text x="33267.7" y="41732.3"
textLength="1066.84" font-size="524.934" lengthAdjust="spacingAndGlyphs"
text-anchor="middle" opacity="0">R16</text>
</g>
<path d="M33445 41282
L33258 41151
" />
<path d="M33445 41057
L33052 41057
L33052 41207
L33070 41244
L33089 41263
L33127 41282
L33183 41282
L33220 41263
L33239 41244
L33258 41207
L33258 41057
" />
<path d="M33445 41657
L33445 41432
" />
<path d="M33445 41544
L33052 41544
L33108 41507
L33145 41469
L33164 41432
" />
<path d="M33052 41994
L33052 41919
L33070 41882
L33089 41863
L33145 41826
L33220 41807
L33370 41807
L33408 41826
L33427 41844
L33445 41882
L33445 41957
L33427 41994
L33408 42013
L33370 42032
L33277 42032
L33239 42013
L33220 41994
L33202 41957
L33202 41882
L33220 41844
L33239 41826
L33277 41807
" />
<text x="37303.1" y="32185"
textLength="1066.84" font-size="524.934" lengthAdjust="spacingAndGlyphs"
text-anchor="middle" opacity="0">R42</text>
<path d="M37556 32166
L37687 31978
" />
<path d="M37781 32166
L37781 31772
L37631 31772
L37593 31791
L37574 31810
L37556 31847
L37556 31903
L37574 31941
L37593 31960
L37631 31978
L37781 31978
" />
<path d="M37218 31903
L37218 32166
" />
<path d="M37312 31753
L37406 32035
L37162 32035
" />
<path d="M37031 31810
L37012 31791
L36975 31772
L36881 31772
L36843 31791
L36825 31810
L36806 31847
L36806 31885
L36825 31941
L37050 32166
L36806 32166
" />
<g transform="rotate(-90 36811 25885.8)">
<text x="36811" y="26082.7"
textLength="1066.84" font-size="524.934" lengthAdjust="spacingAndGlyphs"
text-anchor="middle" opacity="0">R43</text>
</g>
<path d="M36989 25632
L36801 25501
" />
<path d="M36989 25407
L36595 25407
L36595 25557
L36614 25595
L36632 25613
L36670 25632
L36726 25632
L36764 25613
L36782 25595
L36801 25557
L36801 25407
" />
<path d="M36726 25970
L36989 25970
" />
<path d="M36576 25876
L36857 25782
L36857 26026
" />
<path d="M36595 26138
L36595 26382
L36745 26251
L36745 26307
L36764 26345
L36782 26363
L36820 26382
L36914 26382
L36951 26363
L36970 26345
L36989 26307
L36989 26195
L36970 26157
L36951 26138
" />
<text x="36515.7" y="29921.3"
textLength="1066.84" font-size="524.934" lengthAdjust="spacingAndGlyphs"
text-anchor="middle" opacity="0">C54</text>
<path d="M36768 29865
L36787 29883
L36843 29902
L36881 29902
L36937 29883
L36975 29846
L36993 29808
L37012 29733
L37012 29677
L36993 29602
L36975 29565
L36937 29527
L36881 29508
L36843 29508
L36787 29527
L36768 29546
" />
<path d="M36412 29508
L36600 29508
L36618 29696
L36600 29677
L36562 29658
L36468 29658
L36431 29677
L36412 29696
L36393 29733
L36393 29827
L36412 29865
L36431 29883
L36468 29902
L36562 29902
L36600 29883
L36618 29865
" />
<path d="M36056 29640
L36056 29902
" />
<path d="M36150 29490
L36243 29771
L36000 29771
" />
<text x="37303.1" y="28149.6"
textLength="1066.84" font-size="524.934" lengthAdjust="spacingAndGlyphs"
text-anchor="middle" opacity="0">C55</text>
<path d="M37556 28093
L37574 28112
L37631 28130
L37668 28130
L37724 28112
L37762 28074
L37781 28037
L37799 27962
L37799 27905
L37781 27830
L37762 27793
L37724 27755
L37668 27737
L37631 27737
L37574 27755
L37556 27774
" />
<path d="M37200 27737
L37387 27737
L37406 27924
L37387 27905
L37350 27887
L37256 27887
L37218 27905
L37200 27924
L37181 27962
L37181 28055
L37200 28093
L37218 28112
L37256 28130
L37350 28130
L37387 28112
L37406 28093
" />
<path d="M36825 27737
L37012 27737
L37031 27924
L37012 27905
L36975 27887
L36881 27887
L36843 27905
L36825 27924
L36806 27962
L36806 28055
L36825 28093
L36843 28112
L36881 28130
L36975 28130
L37012 28112
L37031 28093
" />
<text x="38484.3" y="29921.3"
textLength="1066.84" font-size="524.934" lengthAdjust="spacingAndGlyphs"
text-anchor="middle" opacity="0">C56</text>
<path d="M38737 29865
L38756 29883
L38812 29902
L38849 29902
L38906 29883
L38943 29846
L38962 29808
L38981 29733
L38981 29677
L38962 29602
L38943 29565
L38906 29527
L38849 29508
L38812 29508
L38756 29527
L38737 29546
" />
<path d="M38381 29508
L38568 29508
L38587 29696
L38568 29677
L38531 29658
L38437 29658
L38399 29677
L38381 29696
L38362 29733
L38362 29827
L38381 29865
L38399 29883
L38437 29902
L38531 29902
L38568 29883
L38587 29865
" />
<path d="M38024 29508
L38099 29508
L38137 29527
L38156 29546
L38193 29602
L38212 29677
L38212 29827
L38193 29865
L38174 29883
L38137 29902
L38062 29902
L38024 29883
L38006 29865
L37987 29827
L37987 29733
L38006 29696
L38024 29677
L38062 29658
L38137 29658
L38174 29677
L38193 29696
L38212 29733
" />
<text x="38484.3" y="28149.6"
textLength="1066.84" font-size="524.934" lengthAdjust="spacingAndGlyphs"
text-anchor="middle" opacity="0">C57</text>
<path d="M38737 28093
L38756 28112
L38812 28130
L38849 28130
L38906 28112
L38943 28074
L38962 28037
L38981 27962
L38981 27905
L38962 27830
L38943 27793
L38906 27755
L38849 27737
L38812 27737
L38756 27755
L38737 27774
" />
<path d="M38381 27737
L38568 27737
L38587 27924
L38568 27905
L38531 27887
L38437 27887
L38399 27905
L38381 27924
L38362 27962
L38362 28055
L38381 28093
L38399 28112
L38437 28130
L38531 28130
L38568 28112
L38587 28093
" />
<path d="M38231 27737
L37968 27737
L38137 28130
" />
<g >
</g>
</g> 
</svg>
