<?xml version="1.0" standalone="no"?>
 <!DOCTYPE svg PUBLIC "-//W3C//DTD SVG 1.1//EN" 
 "http://www.w3.org/Graphics/SVG/1.1/DTD/svg11.dtd"> 
<svg
  xmlns:svg="http://www.w3.org/2000/svg"
  xmlns="http://www.w3.org/2000/svg"
  xmlns:xlink="http://www.w3.org/1999/xlink"
  version="1.1"
  width="29.700220cm" height="21.000720cm" viewBox="0 0 116930 82680">
<title>SVG Picture created as pll_power-Power-PLL_POWER.svg date 2020/06/19 12:48:32 </title>
  <desc>Picture generated by Eeschema-SVG </desc>
<g style="fill:#000000; fill-opacity:1;stroke:#000000; stroke-opacity:1;
stroke-linecap:round; stroke-linejoin:round;"
 transform="translate(0 0) scale(1 1)">
</g>
<g style="fill:#000000; fill-opacity:0.0; 
stroke:#000000; stroke-width:-10; stroke-opacity:1; 
stroke-linecap:round; stroke-linejoin:round;">
</g>
<g style="fill:#840000; fill-opacity:0.0; 
stroke:#840000; stroke-width:-10; stroke-opacity:1; 
stroke-linecap:round; stroke-linejoin:round;">
</g>
<g style="fill:#840000; fill-opacity:0.0; 
stroke:#840000; stroke-width:100; stroke-opacity:1; 
stroke-linecap:round; stroke-linejoin:round;">
</g>
<g style="fill:#840000; fill-opacity:0.0; 
stroke:#840000; stroke-width:60; stroke-opacity:1; 
stroke-linecap:round; stroke-linejoin:round;">
<rect x="69690" y="65360" width="42520" height="12600" rx="0" />
</g>
<g style="fill:#840000; fill-opacity:0.0; 
stroke:#840000; stroke-width:100; stroke-opacity:1; 
stroke-linecap:round; stroke-linejoin:round;">
</g>
<g style="fill:#840000; fill-opacity:0.0; 
stroke:#840000; stroke-width:60; stroke-opacity:1; 
stroke-linecap:round; stroke-linejoin:round;">
<rect x="3940" y="3940" width="109050" height="74800" rx="0" />
</g>
<g style="fill:#840000; fill-opacity:0.0; 
stroke:#840000; stroke-width:100; stroke-opacity:1; 
stroke-linecap:round; stroke-linejoin:round;">
</g>
<g style="fill:#840000; fill-opacity:0.0; 
stroke:#840000; stroke-width:60; stroke-opacity:1; 
stroke-linecap:round; stroke-linejoin:round;">
<rect x="4720" y="4720" width="107490" height="73240" rx="0" />
</g>
<g style="fill:#840000; fill-opacity:0.0; 
stroke:#840000; stroke-width:100; stroke-opacity:1; 
stroke-linecap:round; stroke-linejoin:round;">
</g>
<g style="fill:#840000; fill-opacity:0.0; 
stroke:#840000; stroke-width:60; stroke-opacity:1; 
stroke-linecap:round; stroke-linejoin:round;">
<path d="M23620 4720
L23620 3940
" />
</g>
<g style="fill:#840000; fill-opacity:0.0; 
stroke:#840000; stroke-width:100; stroke-opacity:1; 
stroke-linecap:round; stroke-linejoin:round;">
</g>
<g style="fill:#840000; fill-opacity:0.0; 
stroke:#840000; stroke-width:60; stroke-opacity:1; 
stroke-linecap:round; stroke-linejoin:round;">
<path d="M43310 4720
L43310 3940
" />
</g>
<g style="fill:#840000; fill-opacity:0.0; 
stroke:#840000; stroke-width:100; stroke-opacity:1; 
stroke-linecap:round; stroke-linejoin:round;">
</g>
<g style="fill:#840000; fill-opacity:0.0; 
stroke:#840000; stroke-width:60; stroke-opacity:1; 
stroke-linecap:round; stroke-linejoin:round;">
<path d="M62990 4720
L62990 3940
" />
</g>
<g style="fill:#840000; fill-opacity:0.0; 
stroke:#840000; stroke-width:100; stroke-opacity:1; 
stroke-linecap:round; stroke-linejoin:round;">
</g>
<g style="fill:#840000; fill-opacity:0.0; 
stroke:#840000; stroke-width:60; stroke-opacity:1; 
stroke-linecap:round; stroke-linejoin:round;">
<path d="M82680 4720
L82680 3940
" />
</g>
<g style="fill:#840000; fill-opacity:0.0; 
stroke:#840000; stroke-width:100; stroke-opacity:1; 
stroke-linecap:round; stroke-linejoin:round;">
</g>
<g style="fill:#840000; fill-opacity:0.0; 
stroke:#840000; stroke-width:60; stroke-opacity:1; 
stroke-linecap:round; stroke-linejoin:round;">
<path d="M102360 4720
L102360 3940
" />
</g>
<g style="fill:#840000; fill-opacity:0.0; 
stroke:#840000; stroke-width:100; stroke-opacity:1; 
stroke-linecap:round; stroke-linejoin:round;">
</g>
<g style="fill:#840000; fill-opacity:0.0; 
stroke:#840000; stroke-width:60; stroke-opacity:1; 
stroke-linecap:round; stroke-linejoin:round;">
<text x="13780" y="4580"
textLength="550" font-size="680" lengthAdjust="spacingAndGlyphs"
text-anchor="start" opacity="0">1</text>
<path d="M14190 4560
L13900 4560
" />
<path d="M14050 4560
L14050 4050
L14000 4120
L13950 4170
L13900 4190
" />
</g>
<g style="fill:#840000; fill-opacity:0.0; 
stroke:#840000; stroke-width:100; stroke-opacity:1; 
stroke-linecap:round; stroke-linejoin:round;">
</g>
<g style="fill:#840000; fill-opacity:0.0; 
stroke:#840000; stroke-width:60; stroke-opacity:1; 
stroke-linecap:round; stroke-linejoin:round;">
<text x="33460" y="4580"
textLength="550" font-size="680" lengthAdjust="spacingAndGlyphs"
text-anchor="start" opacity="0">2</text>
<path d="M33580 4090
L33610 4070
L33660 4050
L33780 4050
L33830 4070
L33850 4090
L33870 4140
L33870 4190
L33850 4260
L33560 4560
L33870 4560
" />
</g>
<g style="fill:#840000; fill-opacity:0.0; 
stroke:#840000; stroke-width:100; stroke-opacity:1; 
stroke-linecap:round; stroke-linejoin:round;">
</g>
<g style="fill:#840000; fill-opacity:0.0; 
stroke:#840000; stroke-width:60; stroke-opacity:1; 
stroke-linecap:round; stroke-linejoin:round;">
<text x="53150" y="4580"
textLength="550" font-size="680" lengthAdjust="spacingAndGlyphs"
text-anchor="start" opacity="0">3</text>
<path d="M53250 4050
L53560 4050
L53390 4240
L53470 4240
L53520 4260
L53540 4290
L53560 4340
L53560 4460
L53540 4510
L53520 4530
L53470 4560
L53320 4560
L53270 4530
L53250 4510
" />
</g>
<g style="fill:#840000; fill-opacity:0.0; 
stroke:#840000; stroke-width:100; stroke-opacity:1; 
stroke-linecap:round; stroke-linejoin:round;">
</g>
<g style="fill:#840000; fill-opacity:0.0; 
stroke:#840000; stroke-width:60; stroke-opacity:1; 
stroke-linecap:round; stroke-linejoin:round;">
<text x="72830" y="4580"
textLength="550" font-size="680" lengthAdjust="spacingAndGlyphs"
text-anchor="start" opacity="0">4</text>
<path d="M73200 4220
L73200 4560
" />
<path d="M73070 4020
L72950 4390
L73270 4390
" />
</g>
<g style="fill:#840000; fill-opacity:0.0; 
stroke:#840000; stroke-width:100; stroke-opacity:1; 
stroke-linecap:round; stroke-linejoin:round;">
</g>
<g style="fill:#840000; fill-opacity:0.0; 
stroke:#840000; stroke-width:60; stroke-opacity:1; 
stroke-linecap:round; stroke-linejoin:round;">
<text x="92520" y="4580"
textLength="550" font-size="680" lengthAdjust="spacingAndGlyphs"
text-anchor="start" opacity="0">5</text>
<path d="M92910 4050
L92670 4050
L92640 4290
L92670 4260
L92720 4240
L92840 4240
L92890 4260
L92910 4290
L92930 4340
L92930 4460
L92910 4510
L92890 4530
L92840 4560
L92720 4560
L92670 4530
L92640 4510
" />
</g>
<g style="fill:#840000; fill-opacity:0.0; 
stroke:#840000; stroke-width:100; stroke-opacity:1; 
stroke-linecap:round; stroke-linejoin:round;">
</g>
<g style="fill:#840000; fill-opacity:0.0; 
stroke:#840000; stroke-width:60; stroke-opacity:1; 
stroke-linecap:round; stroke-linejoin:round;">
<text x="112200" y="4580"
textLength="550" font-size="680" lengthAdjust="spacingAndGlyphs"
text-anchor="start" opacity="0">6</text>
<path d="M112570 4050
L112470 4050
L112420 4070
L112400 4090
L112350 4170
L112320 4260
L112320 4460
L112350 4510
L112370 4530
L112420 4560
L112520 4560
L112570 4530
L112590 4510
L112610 4460
L112610 4340
L112590 4290
L112570 4260
L112520 4240
L112420 4240
L112370 4260
L112350 4290
L112320 4340
" />
</g>
<g style="fill:#840000; fill-opacity:0.0; 
stroke:#840000; stroke-width:100; stroke-opacity:1; 
stroke-linecap:round; stroke-linejoin:round;">
</g>
<g style="fill:#840000; fill-opacity:0.0; 
stroke:#840000; stroke-width:60; stroke-opacity:1; 
stroke-linecap:round; stroke-linejoin:round;">
<path d="M23620 77960
L23620 78740
" />
</g>
<g style="fill:#840000; fill-opacity:0.0; 
stroke:#840000; stroke-width:100; stroke-opacity:1; 
stroke-linecap:round; stroke-linejoin:round;">
</g>
<g style="fill:#840000; fill-opacity:0.0; 
stroke:#840000; stroke-width:60; stroke-opacity:1; 
stroke-linecap:round; stroke-linejoin:round;">
<path d="M43310 77960
L43310 78740
" />
</g>
<g style="fill:#840000; fill-opacity:0.0; 
stroke:#840000; stroke-width:100; stroke-opacity:1; 
stroke-linecap:round; stroke-linejoin:round;">
</g>
<g style="fill:#840000; fill-opacity:0.0; 
stroke:#840000; stroke-width:60; stroke-opacity:1; 
stroke-linecap:round; stroke-linejoin:round;">
<path d="M62990 77960
L62990 78740
" />
</g>
<g style="fill:#840000; fill-opacity:0.0; 
stroke:#840000; stroke-width:100; stroke-opacity:1; 
stroke-linecap:round; stroke-linejoin:round;">
</g>
<g style="fill:#840000; fill-opacity:0.0; 
stroke:#840000; stroke-width:60; stroke-opacity:1; 
stroke-linecap:round; stroke-linejoin:round;">
<path d="M82680 77960
L82680 78740
" />
</g>
<g style="fill:#840000; fill-opacity:0.0; 
stroke:#840000; stroke-width:100; stroke-opacity:1; 
stroke-linecap:round; stroke-linejoin:round;">
</g>
<g style="fill:#840000; fill-opacity:0.0; 
stroke:#840000; stroke-width:60; stroke-opacity:1; 
stroke-linecap:round; stroke-linejoin:round;">
<path d="M102360 77960
L102360 78740
" />
</g>
<g style="fill:#840000; fill-opacity:0.0; 
stroke:#840000; stroke-width:100; stroke-opacity:1; 
stroke-linecap:round; stroke-linejoin:round;">
</g>
<g style="fill:#840000; fill-opacity:0.0; 
stroke:#840000; stroke-width:60; stroke-opacity:1; 
stroke-linecap:round; stroke-linejoin:round;">
<text x="13780" y="78600"
textLength="550" font-size="680" lengthAdjust="spacingAndGlyphs"
text-anchor="start" opacity="0">1</text>
<path d="M14190 78580
L13900 78580
" />
<path d="M14050 78580
L14050 78070
L14000 78140
L13950 78190
L13900 78210
" />
</g>
<g style="fill:#840000; fill-opacity:0.0; 
stroke:#840000; stroke-width:100; stroke-opacity:1; 
stroke-linecap:round; stroke-linejoin:round;">
</g>
<g style="fill:#840000; fill-opacity:0.0; 
stroke:#840000; stroke-width:60; stroke-opacity:1; 
stroke-linecap:round; stroke-linejoin:round;">
<text x="33460" y="78600"
textLength="550" font-size="680" lengthAdjust="spacingAndGlyphs"
text-anchor="start" opacity="0">2</text>
<path d="M33580 78110
L33610 78090
L33660 78070
L33780 78070
L33830 78090
L33850 78110
L33870 78160
L33870 78210
L33850 78280
L33560 78580
L33870 78580
" />
</g>
<g style="fill:#840000; fill-opacity:0.0; 
stroke:#840000; stroke-width:100; stroke-opacity:1; 
stroke-linecap:round; stroke-linejoin:round;">
</g>
<g style="fill:#840000; fill-opacity:0.0; 
stroke:#840000; stroke-width:60; stroke-opacity:1; 
stroke-linecap:round; stroke-linejoin:round;">
<text x="53150" y="78600"
textLength="550" font-size="680" lengthAdjust="spacingAndGlyphs"
text-anchor="start" opacity="0">3</text>
<path d="M53250 78070
L53560 78070
L53390 78260
L53470 78260
L53520 78280
L53540 78310
L53560 78360
L53560 78480
L53540 78530
L53520 78550
L53470 78580
L53320 78580
L53270 78550
L53250 78530
" />
</g>
<g style="fill:#840000; fill-opacity:0.0; 
stroke:#840000; stroke-width:100; stroke-opacity:1; 
stroke-linecap:round; stroke-linejoin:round;">
</g>
<g style="fill:#840000; fill-opacity:0.0; 
stroke:#840000; stroke-width:60; stroke-opacity:1; 
stroke-linecap:round; stroke-linejoin:round;">
<text x="72830" y="78600"
textLength="550" font-size="680" lengthAdjust="spacingAndGlyphs"
text-anchor="start" opacity="0">4</text>
<path d="M73200 78240
L73200 78580
" />
<path d="M73070 78040
L72950 78410
L73270 78410
" />
</g>
<g style="fill:#840000; fill-opacity:0.0; 
stroke:#840000; stroke-width:100; stroke-opacity:1; 
stroke-linecap:round; stroke-linejoin:round;">
</g>
<g style="fill:#840000; fill-opacity:0.0; 
stroke:#840000; stroke-width:60; stroke-opacity:1; 
stroke-linecap:round; stroke-linejoin:round;">
<text x="92520" y="78600"
textLength="550" font-size="680" lengthAdjust="spacingAndGlyphs"
text-anchor="start" opacity="0">5</text>
<path d="M92910 78070
L92670 78070
L92640 78310
L92670 78280
L92720 78260
L92840 78260
L92890 78280
L92910 78310
L92930 78360
L92930 78480
L92910 78530
L92890 78550
L92840 78580
L92720 78580
L92670 78550
L92640 78530
" />
</g>
<g style="fill:#840000; fill-opacity:0.0; 
stroke:#840000; stroke-width:100; stroke-opacity:1; 
stroke-linecap:round; stroke-linejoin:round;">
</g>
<g style="fill:#840000; fill-opacity:0.0; 
stroke:#840000; stroke-width:60; stroke-opacity:1; 
stroke-linecap:round; stroke-linejoin:round;">
<text x="112200" y="78600"
textLength="550" font-size="680" lengthAdjust="spacingAndGlyphs"
text-anchor="start" opacity="0">6</text>
<path d="M112570 78070
L112470 78070
L112420 78090
L112400 78110
L112350 78190
L112320 78280
L112320 78480
L112350 78530
L112370 78550
L112420 78580
L112520 78580
L112570 78550
L112590 78530
L112610 78480
L112610 78360
L112590 78310
L112570 78280
L112520 78260
L112420 78260
L112370 78280
L112350 78310
L112320 78360
" />
</g>
<g style="fill:#840000; fill-opacity:0.0; 
stroke:#840000; stroke-width:100; stroke-opacity:1; 
stroke-linecap:round; stroke-linejoin:round;">
</g>
<g style="fill:#840000; fill-opacity:0.0; 
stroke:#840000; stroke-width:60; stroke-opacity:1; 
stroke-linecap:round; stroke-linejoin:round;">
<path d="M3940 23620
L4720 23620
" />
</g>
<g style="fill:#840000; fill-opacity:0.0; 
stroke:#840000; stroke-width:100; stroke-opacity:1; 
stroke-linecap:round; stroke-linejoin:round;">
</g>
<g style="fill:#840000; fill-opacity:0.0; 
stroke:#840000; stroke-width:60; stroke-opacity:1; 
stroke-linecap:round; stroke-linejoin:round;">
<path d="M3940 43310
L4720 43310
" />
</g>
<g style="fill:#840000; fill-opacity:0.0; 
stroke:#840000; stroke-width:100; stroke-opacity:1; 
stroke-linecap:round; stroke-linejoin:round;">
</g>
<g style="fill:#840000; fill-opacity:0.0; 
stroke:#840000; stroke-width:60; stroke-opacity:1; 
stroke-linecap:round; stroke-linejoin:round;">
<path d="M3940 62990
L4720 62990
" />
</g>
<g style="fill:#840000; fill-opacity:0.0; 
stroke:#840000; stroke-width:100; stroke-opacity:1; 
stroke-linecap:round; stroke-linejoin:round;">
</g>
<g style="fill:#840000; fill-opacity:0.0; 
stroke:#840000; stroke-width:60; stroke-opacity:1; 
stroke-linecap:round; stroke-linejoin:round;">
<text x="4330" y="14030"
textLength="500" font-size="680" lengthAdjust="spacingAndGlyphs"
text-anchor="middle" opacity="0">A</text>
<path d="M4200 13860
L4450 13860
" />
<path d="M4160 14010
L4330 13500
L4500 14010
" />
</g>
<g style="fill:#840000; fill-opacity:0.0; 
stroke:#840000; stroke-width:100; stroke-opacity:1; 
stroke-linecap:round; stroke-linejoin:round;">
</g>
<g style="fill:#840000; fill-opacity:0.0; 
stroke:#840000; stroke-width:60; stroke-opacity:1; 
stroke-linecap:round; stroke-linejoin:round;">
<text x="4330" y="33710"
textLength="570" font-size="680" lengthAdjust="spacingAndGlyphs"
text-anchor="middle" opacity="0">B</text>
<path d="M4360 33420
L4430 33440
L4460 33470
L4480 33520
L4480 33590
L4460 33640
L4430 33660
L4390 33690
L4190 33690
L4190 33180
L4360 33180
L4410 33200
L4430 33220
L4460 33270
L4460 33320
L4430 33370
L4410 33390
L4360 33420
L4190 33420
" />
</g>
<g style="fill:#840000; fill-opacity:0.0; 
stroke:#840000; stroke-width:100; stroke-opacity:1; 
stroke-linecap:round; stroke-linejoin:round;">
</g>
<g style="fill:#840000; fill-opacity:0.0; 
stroke:#840000; stroke-width:60; stroke-opacity:1; 
stroke-linecap:round; stroke-linejoin:round;">
<text x="4330" y="53400"
textLength="570" font-size="680" lengthAdjust="spacingAndGlyphs"
text-anchor="middle" opacity="0">C</text>
<path d="M4480 53330
L4460 53350
L4390 53380
L4340 53380
L4260 53350
L4220 53300
L4190 53250
L4170 53160
L4170 53080
L4190 52990
L4220 52940
L4260 52890
L4340 52870
L4390 52870
L4460 52890
L4480 52910
" />
</g>
<g style="fill:#840000; fill-opacity:0.0; 
stroke:#840000; stroke-width:100; stroke-opacity:1; 
stroke-linecap:round; stroke-linejoin:round;">
</g>
<g style="fill:#840000; fill-opacity:0.0; 
stroke:#840000; stroke-width:60; stroke-opacity:1; 
stroke-linecap:round; stroke-linejoin:round;">
<text x="4330" y="73080"
textLength="570" font-size="680" lengthAdjust="spacingAndGlyphs"
text-anchor="middle" opacity="0">D</text>
<path d="M4190 73060
L4190 72550
L4310 72550
L4390 72570
L4430 72620
L4460 72670
L4480 72760
L4480 72840
L4460 72930
L4430 72980
L4390 73030
L4310 73060
L4190 73060
" />
</g>
<g style="fill:#840000; fill-opacity:0.0; 
stroke:#840000; stroke-width:100; stroke-opacity:1; 
stroke-linecap:round; stroke-linejoin:round;">
</g>
<g style="fill:#840000; fill-opacity:0.0; 
stroke:#840000; stroke-width:60; stroke-opacity:1; 
stroke-linecap:round; stroke-linejoin:round;">
<path d="M112990 23620
L112210 23620
" />
</g>
<g style="fill:#840000; fill-opacity:0.0; 
stroke:#840000; stroke-width:100; stroke-opacity:1; 
stroke-linecap:round; stroke-linejoin:round;">
</g>
<g style="fill:#840000; fill-opacity:0.0; 
stroke:#840000; stroke-width:60; stroke-opacity:1; 
stroke-linecap:round; stroke-linejoin:round;">
<path d="M112990 43310
L112210 43310
" />
</g>
<g style="fill:#840000; fill-opacity:0.0; 
stroke:#840000; stroke-width:100; stroke-opacity:1; 
stroke-linecap:round; stroke-linejoin:round;">
</g>
<g style="fill:#840000; fill-opacity:0.0; 
stroke:#840000; stroke-width:60; stroke-opacity:1; 
stroke-linecap:round; stroke-linejoin:round;">
<path d="M112990 62990
L112210 62990
" />
</g>
<g style="fill:#840000; fill-opacity:0.0; 
stroke:#840000; stroke-width:100; stroke-opacity:1; 
stroke-linecap:round; stroke-linejoin:round;">
</g>
<g style="fill:#840000; fill-opacity:0.0; 
stroke:#840000; stroke-width:60; stroke-opacity:1; 
stroke-linecap:round; stroke-linejoin:round;">
<text x="112600" y="14030"
textLength="500" font-size="680" lengthAdjust="spacingAndGlyphs"
text-anchor="middle" opacity="0">A</text>
<path d="M112470 13860
L112720 13860
" />
<path d="M112430 14010
L112600 13500
L112770 14010
" />
</g>
<g style="fill:#840000; fill-opacity:0.0; 
stroke:#840000; stroke-width:100; stroke-opacity:1; 
stroke-linecap:round; stroke-linejoin:round;">
</g>
<g style="fill:#840000; fill-opacity:0.0; 
stroke:#840000; stroke-width:60; stroke-opacity:1; 
stroke-linecap:round; stroke-linejoin:round;">
<text x="112600" y="33710"
textLength="570" font-size="680" lengthAdjust="spacingAndGlyphs"
text-anchor="middle" opacity="0">B</text>
<path d="M112630 33420
L112700 33440
L112730 33470
L112750 33520
L112750 33590
L112730 33640
L112700 33660
L112660 33690
L112460 33690
L112460 33180
L112630 33180
L112680 33200
L112700 33220
L112730 33270
L112730 33320
L112700 33370
L112680 33390
L112630 33420
L112460 33420
" />
</g>
<g style="fill:#840000; fill-opacity:0.0; 
stroke:#840000; stroke-width:100; stroke-opacity:1; 
stroke-linecap:round; stroke-linejoin:round;">
</g>
<g style="fill:#840000; fill-opacity:0.0; 
stroke:#840000; stroke-width:60; stroke-opacity:1; 
stroke-linecap:round; stroke-linejoin:round;">
<text x="112600" y="53400"
textLength="570" font-size="680" lengthAdjust="spacingAndGlyphs"
text-anchor="middle" opacity="0">C</text>
<path d="M112750 53330
L112730 53350
L112660 53380
L112610 53380
L112530 53350
L112490 53300
L112460 53250
L112440 53160
L112440 53080
L112460 52990
L112490 52940
L112530 52890
L112610 52870
L112660 52870
L112730 52890
L112750 52910
" />
</g>
<g style="fill:#840000; fill-opacity:0.0; 
stroke:#840000; stroke-width:100; stroke-opacity:1; 
stroke-linecap:round; stroke-linejoin:round;">
</g>
<g style="fill:#840000; fill-opacity:0.0; 
stroke:#840000; stroke-width:60; stroke-opacity:1; 
stroke-linecap:round; stroke-linejoin:round;">
<text x="112600" y="73080"
textLength="570" font-size="680" lengthAdjust="spacingAndGlyphs"
text-anchor="middle" opacity="0">D</text>
<path d="M112460 73060
L112460 72550
L112580 72550
L112660 72570
L112700 72620
L112730 72670
L112750 72760
L112750 72840
L112730 72930
L112700 72980
L112660 73030
L112580 73060
L112460 73060
" />
</g>
<g style="fill:#840000; fill-opacity:0.0; 
stroke:#840000; stroke-width:100; stroke-opacity:1; 
stroke-linecap:round; stroke-linejoin:round;">
</g>
<g style="fill:#840000; fill-opacity:0.0; 
stroke:#840000; stroke-width:60; stroke-opacity:1; 
stroke-linecap:round; stroke-linejoin:round;">
<text x="78740" y="76320"
textLength="8710" font-size="780" lengthAdjust="spacingAndGlyphs"
text-anchor="start" opacity="0">Date: 2020-06-19</text>
<path d="M78910 76290
L78910 75700
L79050 75700
L79130 75730
L79190 75790
L79210 75840
L79240 75950
L79240 76040
L79210 76150
L79190 76210
L79130 76260
L79050 76290
L78910 76290
" />
<path d="M79750 76290
L79750 75980
L79720 75930
L79660 75900
L79550 75900
L79500 75930
" />
<path d="M79750 76260
L79690 76290
L79550 76290
L79500 76260
L79470 76210
L79470 76150
L79500 76100
L79550 76070
L79690 76070
L79750 76040
" />
<path d="M79950 75900
L80170 75900
" />
<path d="M80030 75700
L80030 76210
L80060 76260
L80110 76290
L80170 76290
" />
<path d="M80590 76260
L80540 76290
L80420 76290
L80370 76260
L80340 76210
L80340 75980
L80370 75930
L80420 75900
L80540 75900
L80590 75930
L80620 75980
L80620 76040
L80340 76100
" />
<path d="M80870 76240
L80900 76260
L80870 76290
L80840 76260
L80870 76240
L80870 76290
" />
<path d="M80870 75930
L80900 75950
L80870 75980
L80840 75950
L80870 75930
L80870 75980
" />
<path d="M81570 75760
L81600 75730
L81660 75700
L81800 75700
L81860 75730
L81880 75760
L81910 75810
L81910 75870
L81880 75950
L81550 76290
L81910 76290
" />
<path d="M82280 75700
L82330 75700
L82390 75730
L82420 75760
L82450 75810
L82470 75930
L82470 76070
L82450 76180
L82420 76240
L82390 76260
L82330 76290
L82280 76290
L82220 76260
L82190 76240
L82160 76180
L82140 76070
L82140 75930
L82160 75810
L82190 75760
L82220 75730
L82280 75700
" />
<path d="M82700 75760
L82730 75730
L82780 75700
L82920 75700
L82980 75730
L83010 75760
L83040 75810
L83040 75870
L83010 75950
L82670 76290
L83040 76290
" />
<path d="M83400 75700
L83460 75700
L83510 75730
L83540 75760
L83570 75810
L83600 75930
L83600 76070
L83570 76180
L83540 76240
L83510 76260
L83460 76290
L83400 76290
L83340 76260
L83320 76240
L83290 76180
L83260 76070
L83260 75930
L83290 75810
L83320 75760
L83340 75730
L83400 75700
" />
<path d="M83850 76070
L84300 76070
" />
<path d="M84690 75700
L84750 75700
L84810 75730
L84830 75760
L84860 75810
L84890 75930
L84890 76070
L84860 76180
L84830 76240
L84810 76260
L84750 76290
L84690 76290
L84640 76260
L84610 76240
L84580 76180
L84550 76070
L84550 75930
L84580 75810
L84610 75760
L84640 75730
L84690 75700
" />
<path d="M85400 75700
L85280 75700
L85230 75730
L85200 75760
L85140 75840
L85110 75950
L85110 76180
L85140 76240
L85170 76260
L85230 76290
L85340 76290
L85400 76260
L85420 76240
L85450 76180
L85450 76040
L85420 75980
L85400 75950
L85340 75930
L85230 75930
L85170 75950
L85140 75980
L85110 76040
" />
<path d="M85700 76070
L86150 76070
" />
<path d="M86740 76290
L86410 76290
" />
<path d="M86580 76290
L86580 75700
L86520 75790
L86460 75840
L86410 75870
" />
<path d="M87030 76290
L87140 76290
L87190 76260
L87220 76240
L87280 76150
L87310 76040
L87310 75810
L87280 75760
L87250 75730
L87190 75700
L87080 75700
L87030 75730
L87000 75760
L86970 75810
L86970 75950
L87000 76010
L87030 76040
L87080 76070
L87190 76070
L87250 76040
L87280 76010
L87310 75950
" />
</g>
<g style="fill:#840000; fill-opacity:0.0; 
stroke:#840000; stroke-width:100; stroke-opacity:1; 
stroke-linecap:round; stroke-linejoin:round;">
</g>
<g style="fill:#840000; fill-opacity:0.0; 
stroke:#840000; stroke-width:60; stroke-opacity:1; 
stroke-linecap:round; stroke-linejoin:round;">
<path d="M69690 76580
L112210 76580
" />
</g>
<g style="fill:#840000; fill-opacity:0.0; 
stroke:#840000; stroke-width:100; stroke-opacity:1; 
stroke-linecap:round; stroke-linejoin:round;">
</g>
<g style="fill:#840000; fill-opacity:0.0; 
stroke:#840000; stroke-width:60; stroke-opacity:1; 
stroke-linecap:round; stroke-linejoin:round;">
<text x="70080" y="77420"
textLength="13520" font-size="780" lengthAdjust="spacingAndGlyphs"
text-anchor="start" opacity="0">KiCad E.D.A.  kicad (5.1.6)-1</text>
<path d="M70250 77390
L70250 76800
" />
<path d="M70580 77390
L70330 77050
" />
<path d="M70580 76800
L70250 77140
" />
<path d="M70840 77390
L70840 77000
" />
<path d="M70840 76800
L70810 76830
L70840 76860
L70860 76830
L70840 76800
L70840 76860
" />
<path d="M71450 77340
L71430 77360
L71340 77390
L71290 77390
L71200 77360
L71140 77310
L71120 77250
L71090 77140
L71090 77050
L71120 76940
L71140 76890
L71200 76830
L71290 76800
L71340 76800
L71430 76830
L71450 76860
" />
<path d="M71960 77390
L71960 77080
L71930 77030
L71880 77000
L71760 77000
L71710 77030
" />
<path d="M71960 77360
L71900 77390
L71760 77390
L71710 77360
L71680 77310
L71680 77250
L71710 77200
L71760 77170
L71900 77170
L71960 77140
" />
<path d="M72490 77390
L72490 76800
" />
<path d="M72490 77360
L72440 77390
L72320 77390
L72270 77360
L72240 77340
L72210 77280
L72210 77110
L72240 77050
L72270 77030
L72320 77000
L72440 77000
L72490 77030
" />
<path d="M73220 77080
L73420 77080
" />
<path d="M73500 77390
L73220 77390
L73220 76800
L73500 76800
" />
<path d="M73760 77340
L73790 77360
L73760 77390
L73730 77360
L73760 77340
L73760 77390
" />
<path d="M74040 77390
L74040 76800
L74180 76800
L74260 76830
L74320 76890
L74350 76940
L74380 77050
L74380 77140
L74350 77250
L74320 77310
L74260 77360
L74180 77390
L74040 77390
" />
<path d="M74630 77340
L74660 77360
L74630 77390
L74600 77360
L74630 77340
L74630 77390
" />
<path d="M74880 77220
L75160 77220
" />
<path d="M74830 77390
L75020 76800
L75220 77390
" />
<path d="M75420 77340
L75440 77360
L75420 77390
L75390 77360
L75420 77340
L75420 77390
" />
<path d="M76600 77390
L76600 76800
" />
<path d="M76650 77170
L76820 77390
" />
<path d="M76820 77000
L76600 77220
" />
<path d="M77070 77390
L77070 77000
" />
<path d="M77070 76800
L77040 76830
L77070 76860
L77100 76830
L77070 76800
L77070 76860
" />
<path d="M77610 77360
L77550 77390
L77440 77390
L77380 77360
L77350 77340
L77330 77280
L77330 77110
L77350 77050
L77380 77030
L77440 77000
L77550 77000
L77610 77030
" />
<path d="M78110 77390
L78110 77080
L78080 77030
L78030 77000
L77920 77000
L77860 77030
" />
<path d="M78110 77360
L78060 77390
L77920 77390
L77860 77360
L77830 77310
L77830 77250
L77860 77200
L77920 77170
L78060 77170
L78110 77140
" />
<path d="M78650 77390
L78650 76800
" />
<path d="M78650 77360
L78590 77390
L78480 77390
L78420 77360
L78390 77340
L78370 77280
L78370 77110
L78390 77050
L78420 77030
L78480 77000
L78590 77000
L78650 77030
" />
<path d="M79550 77620
L79520 77590
L79460 77500
L79430 77450
L79400 77360
L79380 77220
L79380 77110
L79400 76970
L79430 76890
L79460 76830
L79520 76750
L79550 76720
" />
<path d="M80050 76800
L79770 76800
L79740 77080
L79770 77050
L79830 77030
L79970 77030
L80020 77050
L80050 77080
L80080 77140
L80080 77280
L80050 77340
L80020 77360
L79970 77390
L79830 77390
L79770 77360
L79740 77340
" />
<path d="M80330 77340
L80360 77360
L80330 77390
L80300 77360
L80330 77340
L80330 77390
" />
<path d="M80920 77390
L80580 77390
" />
<path d="M80750 77390
L80750 76800
L80700 76890
L80640 76940
L80580 76970
" />
<path d="M81170 77340
L81200 77360
L81170 77390
L81150 77360
L81170 77340
L81170 77390
" />
<path d="M81710 76800
L81600 76800
L81540 76830
L81510 76860
L81460 76940
L81430 77050
L81430 77280
L81460 77340
L81480 77360
L81540 77390
L81650 77390
L81710 77360
L81740 77340
L81760 77280
L81760 77140
L81740 77080
L81710 77050
L81650 77030
L81540 77030
L81480 77050
L81460 77080
L81430 77140
" />
<path d="M81960 77620
L81990 77590
L82050 77500
L82070 77450
L82100 77360
L82130 77220
L82130 77110
L82100 76970
L82070 76890
L82050 76830
L81990 76750
L81960 76720
" />
<path d="M82410 77170
L82860 77170
" />
<path d="M83450 77390
L83110 77390
" />
<path d="M83280 77390
L83280 76800
L83230 76890
L83170 76940
L83110 76970
" />
</g>
<g style="fill:#840000; fill-opacity:0.0; 
stroke:#840000; stroke-width:100; stroke-opacity:1; 
stroke-linecap:round; stroke-linejoin:round;">
</g>
<g style="fill:#840000; fill-opacity:0.0; 
stroke:#840000; stroke-width:60; stroke-opacity:1; 
stroke-linecap:round; stroke-linejoin:round;">
<path d="M69690 75400
L112210 75400
" />
</g>
<g style="fill:#840000; fill-opacity:0.0; 
stroke:#840000; stroke-width:100; stroke-opacity:1; 
stroke-linecap:round; stroke-linejoin:round;">
</g>
<g style="fill:#840000; fill-opacity:0.0; 
stroke:#840000; stroke-width:120; stroke-opacity:1; 
stroke-linecap:round; stroke-linejoin:round;">
<text x="103540" y="76320"
textLength="2900" font-size="780" lengthAdjust="spacingAndGlyphs"
text-anchor="start" opacity="0">Rev: 1</text>
<path d="M104090 76290
L103890 76010
" />
<path d="M103750 76290
L103750 75700
L103980 75700
L104030 75730
L104060 75760
L104090 75810
L104090 75900
L104060 75950
L104030 75980
L103980 76010
L103750 76010
" />
<path d="M104570 76260
L104510 76290
L104400 76290
L104340 76260
L104320 76210
L104320 75980
L104340 75930
L104400 75900
L104510 75900
L104570 75930
L104600 75980
L104600 76040
L104320 76100
" />
<path d="M104790 75900
L104930 76290
L105070 75900
" />
<path d="M105300 76240
L105330 76260
L105300 76290
L105270 76260
L105300 76240
L105300 76290
" />
<path d="M105300 75930
L105330 75950
L105300 75980
L105270 75950
L105300 75930
L105300 75980
" />
<path d="M106340 76290
L106000 76290
" />
<path d="M106170 76290
L106170 75700
L106110 75790
L106060 75840
L106000 75870
" />
</g>
<g style="fill:#840000; fill-opacity:0.0; 
stroke:#840000; stroke-width:100; stroke-opacity:1; 
stroke-linecap:round; stroke-linejoin:round;">
</g>
<g style="fill:#840000; fill-opacity:0.0; 
stroke:#840000; stroke-width:60; stroke-opacity:1; 
stroke-linecap:round; stroke-linejoin:round;">
<text x="70080" y="76320"
textLength="3780" font-size="780" lengthAdjust="spacingAndGlyphs"
text-anchor="start" opacity="0">Size: A4</text>
<path d="M70220 76260
L70300 76290
L70440 76290
L70500 76260
L70530 76240
L70550 76180
L70550 76120
L70530 76070
L70500 76040
L70440 76010
L70330 75980
L70270 75950
L70250 75930
L70220 75870
L70220 75810
L70250 75760
L70270 75730
L70330 75700
L70470 75700
L70550 75730
" />
<path d="M70810 76290
L70810 75900
" />
<path d="M70810 75700
L70780 75730
L70810 75760
L70840 75730
L70810 75700
L70810 75760
" />
<path d="M71030 75900
L71340 75900
L71030 76290
L71340 76290
" />
<path d="M71790 76260
L71730 76290
L71620 76290
L71570 76260
L71540 76210
L71540 75980
L71570 75930
L71620 75900
L71730 75900
L71790 75930
L71820 75980
L71820 76040
L71540 76100
" />
<path d="M72070 76240
L72100 76260
L72070 76290
L72040 76260
L72070 76240
L72070 76290
" />
<path d="M72070 75930
L72100 75950
L72070 75980
L72040 75950
L72070 75930
L72070 75980
" />
<path d="M72770 76120
L73060 76120
" />
<path d="M72720 76290
L72910 75700
L73110 76290
" />
<path d="M73560 75900
L73560 76290
" />
<path d="M73420 75670
L73280 76100
L73650 76100
" />
</g>
<g style="fill:#840000; fill-opacity:0.0; 
stroke:#840000; stroke-width:100; stroke-opacity:1; 
stroke-linecap:round; stroke-linejoin:round;">
</g>
<g style="fill:#840000; fill-opacity:0.0; 
stroke:#840000; stroke-width:60; stroke-opacity:1; 
stroke-linecap:round; stroke-linejoin:round;">
<text x="103540" y="77420"
textLength="3910" font-size="780" lengthAdjust="spacingAndGlyphs"
text-anchor="start" opacity="0">Id: 7/14</text>
<path d="M103710 77390
L103710 76800
" />
<path d="M104240 77390
L104240 76800
" />
<path d="M104240 77360
L104180 77390
L104070 77390
L104010 77360
L103990 77340
L103960 77280
L103960 77110
L103990 77050
L104010 77030
L104070 77000
L104180 77000
L104240 77030
" />
<path d="M104520 77340
L104550 77360
L104520 77390
L104490 77360
L104520 77340
L104520 77390
" />
<path d="M104520 77030
L104550 77050
L104520 77080
L104490 77050
L104520 77030
L104520 77080
" />
<path d="M105190 76800
L105590 76800
L105340 77390
" />
<path d="M106230 76770
L105730 77530
" />
<path d="M106740 77390
L106400 77390
" />
<path d="M106570 77390
L106570 76800
L106520 76890
L106460 76940
L106400 76970
" />
<path d="M107250 77000
L107250 77390
" />
<path d="M107110 76770
L106960 77200
L107330 77200
" />
</g>
<g style="fill:#840000; fill-opacity:0.0; 
stroke:#840000; stroke-width:100; stroke-opacity:1; 
stroke-linecap:round; stroke-linejoin:round;">
</g>
<g style="fill:#840000; fill-opacity:0.0; 
stroke:#840000; stroke-width:60; stroke-opacity:1; 
stroke-linecap:round; stroke-linejoin:round;">
<path d="M69690 73820
L112210 73820
" />
</g>
<g style="fill:#840000; fill-opacity:0.0; 
stroke:#840000; stroke-width:100; stroke-opacity:1; 
stroke-linecap:round; stroke-linejoin:round;">
</g>
<g style="fill:#840000; fill-opacity:0.0; 
stroke:#840000; stroke-width:160; stroke-opacity:1; 
stroke-linecap:round; stroke-linejoin:round;">
<text x="70080" y="74920"
textLength="33090" font-size="1050" lengthAdjust="spacingAndGlyphs"
text-anchor="start" opacity="0">Title: ICE40HX4K ICEduino educational breakout board</text>
<path d="M70360 74090
L70810 74090
" />
<path d="M70480 74880
L70580 74090
" />
<path d="M70970 74880
L71040 74360
" />
<path d="M71070 74090
L71030 74130
L71060 74170
L71110 74130
L71070 74090
L71060 74170
" />
<path d="M71300 74360
L71600 74360
" />
<path d="M71450 74090
L71360 74770
L71390 74840
L71460 74880
L71540 74880
" />
<path d="M71910 74880
L71840 74840
L71820 74770
L71900 74090
" />
<path d="M72520 74840
L72440 74880
L72290 74880
L72220 74840
L72190 74770
L72230 74470
L72280 74390
L72360 74360
L72510 74360
L72580 74390
L72610 74470
L72600 74540
L72210 74620
" />
<path d="M72900 74810
L72930 74840
L72890 74880
L72860 74840
L72900 74810
L72890 74880
" />
<path d="M72950 74390
L72990 74430
L72940 74470
L72910 74430
L72950 74390
L72940 74470
" />
<path d="M73870 74880
L73970 74090
" />
<path d="M74710 74810
L74670 74840
L74550 74880
L74470 74880
L74360 74840
L74300 74770
L74270 74690
L74250 74540
L74270 74430
L74320 74280
L74370 74210
L74450 74130
L74570 74090
L74650 74090
L74750 74130
L74790 74170
" />
<path d="M75090 74470
L75350 74470
" />
<path d="M75410 74880
L75040 74880
L75140 74090
L75510 74090
" />
<path d="M76160 74360
L76090 74880
" />
<path d="M76010 74050
L75750 74620
L76240 74620
" />
<path d="M76750 74090
L76830 74090
L76900 74130
L76930 74170
L76960 74240
L76980 74390
L76960 74580
L76900 74730
L76850 74810
L76810 74840
L76730 74880
L76650 74880
L76580 74840
L76550 74810
L76520 74730
L76500 74580
L76530 74390
L76580 74240
L76630 74170
L76670 74130
L76750 74090
" />
<path d="M77260 74880
L77350 74090
" />
<path d="M77310 74470
L77760 74470
" />
<path d="M77710 74880
L77810 74090
" />
<path d="M78110 74090
L78540 74880
" />
<path d="M78630 74090
L78010 74880
" />
<path d="M79240 74360
L79170 74880
" />
<path d="M79090 74050
L78830 74620
L79320 74620
" />
<path d="M79590 74880
L79690 74090
" />
<path d="M80040 74880
L79760 74430
" />
<path d="M80140 74090
L79630 74540
" />
<path d="M80980 74880
L81080 74090
" />
<path d="M81820 74810
L81780 74840
L81660 74880
L81580 74880
L81470 74840
L81410 74770
L81380 74690
L81360 74540
L81380 74430
L81430 74280
L81480 74210
L81560 74130
L81680 74090
L81760 74090
L81860 74130
L81900 74170
" />
<path d="M82200 74470
L82460 74470
" />
<path d="M82520 74880
L82150 74880
L82250 74090
L82620 74090
" />
<path d="M83200 74880
L83300 74090
" />
<path d="M83200 74840
L83120 74880
L82970 74880
L82900 74840
L82870 74810
L82840 74730
L82870 74510
L82920 74430
L82960 74390
L83040 74360
L83190 74360
L83260 74390
" />
<path d="M83980 74360
L83910 74880
" />
<path d="M83640 74360
L83590 74770
L83620 74840
L83690 74880
L83800 74880
L83880 74840
L83920 74810
" />
<path d="M84290 74880
L84360 74360
" />
<path d="M84390 74090
L84350 74130
L84380 74170
L84420 74130
L84390 74090
L84380 74170
" />
<path d="M84730 74360
L84670 74880
" />
<path d="M84720 74430
L84770 74390
L84850 74360
L84960 74360
L85030 74390
L85060 74470
L85010 74880
" />
<path d="M85490 74880
L85420 74840
L85390 74810
L85360 74730
L85390 74510
L85440 74430
L85480 74390
L85560 74360
L85670 74360
L85740 74390
L85780 74430
L85810 74510
L85780 74730
L85730 74810
L85690 74840
L85610 74880
L85490 74880
" />
<path d="M87000 74840
L86920 74880
L86770 74880
L86700 74840
L86670 74770
L86710 74470
L86760 74390
L86840 74360
L86990 74360
L87060 74390
L87090 74470
L87080 74540
L86690 74620
" />
<path d="M87710 74880
L87810 74090
" />
<path d="M87720 74840
L87640 74880
L87490 74880
L87420 74840
L87390 74810
L87360 74730
L87390 74510
L87430 74430
L87470 74390
L87550 74360
L87700 74360
L87780 74390
" />
<path d="M88490 74360
L88430 74880
" />
<path d="M88160 74360
L88100 74770
L88130 74840
L88200 74880
L88320 74880
L88400 74840
L88440 74810
" />
<path d="M89150 74840
L89070 74880
L88920 74880
L88850 74840
L88810 74810
L88790 74730
L88810 74510
L88860 74430
L88900 74390
L88980 74360
L89130 74360
L89200 74390
" />
<path d="M89820 74880
L89870 74470
L89840 74390
L89770 74360
L89620 74360
L89540 74390
" />
<path d="M89830 74840
L89750 74880
L89560 74880
L89490 74840
L89460 74770
L89470 74690
L89520 74620
L89600 74580
L89780 74580
L89860 74540
" />
<path d="M90150 74360
L90450 74360
" />
<path d="M90300 74090
L90210 74770
L90240 74840
L90310 74880
L90390 74880
" />
<path d="M90650 74880
L90710 74360
" />
<path d="M90750 74090
L90700 74130
L90740 74170
L90780 74130
L90750 74090
L90740 74170
" />
<path d="M91140 74880
L91070 74840
L91030 74810
L91010 74730
L91030 74510
L91080 74430
L91120 74390
L91200 74360
L91320 74360
L91390 74390
L91420 74430
L91450 74510
L91420 74730
L91370 74810
L91330 74840
L91250 74880
L91140 74880
" />
<path d="M91810 74360
L91740 74880
" />
<path d="M91800 74430
L91840 74390
L91920 74360
L92030 74360
L92100 74390
L92130 74470
L92080 74880
" />
<path d="M92790 74880
L92840 74470
L92820 74390
L92750 74360
L92600 74360
L92520 74390
" />
<path d="M92800 74840
L92720 74880
L92530 74880
L92460 74840
L92430 74770
L92440 74690
L92490 74620
L92570 74580
L92760 74580
L92840 74540
" />
<path d="M93280 74880
L93210 74840
L93180 74770
L93270 74090
" />
<path d="M94180 74880
L94280 74090
" />
<path d="M94250 74390
L94330 74360
L94480 74360
L94550 74390
L94580 74430
L94610 74510
L94580 74730
L94530 74810
L94490 74840
L94410 74880
L94260 74880
L94190 74840
" />
<path d="M94900 74880
L94970 74360
" />
<path d="M94950 74510
L94990 74430
L95040 74390
L95120 74360
L95190 74360
" />
<path d="M95690 74840
L95610 74880
L95460 74880
L95390 74840
L95360 74770
L95400 74470
L95450 74390
L95530 74360
L95680 74360
L95750 74390
L95780 74470
L95770 74540
L95380 74620
" />
<path d="M96400 74880
L96460 74470
L96430 74390
L96360 74360
L96210 74360
L96130 74390
" />
<path d="M96410 74840
L96330 74880
L96140 74880
L96070 74840
L96040 74770
L96050 74690
L96100 74620
L96180 74580
L96370 74580
L96450 74540
" />
<path d="M96780 74880
L96880 74090
" />
<path d="M96890 74580
L97080 74880
" />
<path d="M97150 74360
L96810 74660
" />
<path d="M97530 74880
L97460 74840
L97430 74810
L97400 74730
L97430 74510
L97480 74430
L97520 74390
L97600 74360
L97710 74360
L97780 74390
L97810 74430
L97840 74510
L97810 74730
L97770 74810
L97730 74840
L97650 74880
L97530 74880
" />
<path d="M98540 74360
L98470 74880
" />
<path d="M98200 74360
L98150 74770
L98180 74840
L98250 74880
L98360 74880
L98440 74840
L98480 74810
" />
<path d="M98800 74360
L99100 74360
" />
<path d="M98950 74090
L98860 74770
L98890 74840
L98960 74880
L99040 74880
" />
<path d="M99900 74880
L100000 74090
" />
<path d="M99960 74390
L100040 74360
L100190 74360
L100260 74390
L100300 74430
L100330 74510
L100300 74730
L100250 74810
L100210 74840
L100130 74880
L99980 74880
L99910 74840
" />
<path d="M100730 74880
L100660 74840
L100630 74810
L100600 74730
L100630 74510
L100670 74430
L100720 74390
L100800 74360
L100910 74360
L100980 74390
L101010 74430
L101040 74510
L101010 74730
L100970 74810
L100920 74840
L100840 74880
L100730 74880
" />
<path d="M101670 74880
L101720 74470
L101690 74390
L101620 74360
L101470 74360
L101390 74390
" />
<path d="M101680 74840
L101600 74880
L101410 74880
L101340 74840
L101310 74770
L101320 74690
L101370 74620
L101450 74580
L101630 74580
L101710 74540
" />
<path d="M102050 74880
L102110 74360
" />
<path d="M102090 74510
L102140 74430
L102180 74390
L102260 74360
L102340 74360
" />
<path d="M102870 74880
L102970 74090
" />
<path d="M102880 74840
L102800 74880
L102650 74880
L102580 74840
L102550 74810
L102520 74730
L102550 74510
L102590 74430
L102630 74390
L102710 74360
L102870 74360
L102940 74390
" />
</g>
<g style="fill:#840000; fill-opacity:0.0; 
stroke:#840000; stroke-width:100; stroke-opacity:1; 
stroke-linecap:round; stroke-linejoin:round;">
</g>
<g style="fill:#840000; fill-opacity:0.0; 
stroke:#840000; stroke-width:60; stroke-opacity:1; 
stroke-linecap:round; stroke-linejoin:round;">
<text x="70080" y="73400"
textLength="8500" font-size="780" lengthAdjust="spacingAndGlyphs"
text-anchor="start" opacity="0">File: pll_power.sch</text>
<path d="M70440 73060
L70250 73060
" />
<path d="M70250 73370
L70250 72780
L70530 72780
" />
<path d="M70750 73370
L70750 72980
" />
<path d="M70750 72780
L70720 72810
L70750 72840
L70780 72810
L70750 72780
L70750 72840
" />
<path d="M71120 73370
L71060 73340
L71030 73290
L71030 72780
" />
<path d="M71570 73340
L71510 73370
L71400 73370
L71340 73340
L71310 73290
L71310 73060
L71340 73010
L71400 72980
L71510 72980
L71570 73010
L71590 73060
L71590 73120
L71310 73180
" />
<path d="M71850 73320
L71880 73340
L71850 73370
L71820 73340
L71850 73320
L71850 73370
" />
<path d="M71850 73010
L71880 73030
L71850 73060
L71820 73030
L71850 73010
L71850 73060
" />
<path d="M72580 72980
L72580 73570
" />
<path d="M72580 73010
L72630 72980
L72750 72980
L72800 73010
L72830 73030
L72860 73090
L72860 73260
L72830 73320
L72800 73340
L72750 73370
L72630 73370
L72580 73340
" />
<path d="M73200 73370
L73140 73340
L73110 73290
L73110 72780
" />
<path d="M73500 73370
L73450 73340
L73420 73290
L73420 72780
" />
<path d="M73590 73430
L74040 73430
" />
<path d="M74180 72980
L74180 73570
" />
<path d="M74180 73010
L74240 72980
L74350 72980
L74400 73010
L74430 73030
L74460 73090
L74460 73260
L74430 73320
L74400 73340
L74350 73370
L74240 73370
L74180 73340
" />
<path d="M74800 73370
L74740 73340
L74710 73320
L74680 73260
L74680 73090
L74710 73030
L74740 73010
L74800 72980
L74880 72980
L74940 73010
L74970 73030
L74990 73090
L74990 73260
L74970 73320
L74940 73340
L74880 73370
L74800 73370
" />
<path d="M75190 72980
L75300 73370
L75420 73090
L75530 73370
L75640 72980
" />
<path d="M76090 73340
L76030 73370
L75920 73370
L75860 73340
L75840 73290
L75840 73060
L75860 73010
L75920 72980
L76030 72980
L76090 73010
L76120 73060
L76120 73120
L75840 73180
" />
<path d="M76370 73370
L76370 72980
" />
<path d="M76370 73090
L76400 73030
L76430 73010
L76480 72980
L76540 72980
" />
<path d="M76740 73320
L76760 73340
L76740 73370
L76710 73340
L76740 73320
L76740 73370
" />
<path d="M76990 73340
L77040 73370
L77160 73370
L77210 73340
L77240 73290
L77240 73260
L77210 73200
L77160 73180
L77070 73180
L77020 73150
L76990 73090
L76990 73060
L77020 73010
L77070 72980
L77160 72980
L77210 73010
" />
<path d="M77750 73340
L77690 73370
L77580 73370
L77520 73340
L77490 73320
L77470 73260
L77470 73090
L77490 73030
L77520 73010
L77580 72980
L77690 72980
L77750 73010
" />
<path d="M78000 73370
L78000 72780
" />
<path d="M78250 73370
L78250 73060
L78220 73010
L78170 72980
L78080 72980
L78030 73010
L78000 73030
" />
</g>
<g style="fill:#840000; fill-opacity:0.0; 
stroke:#840000; stroke-width:100; stroke-opacity:1; 
stroke-linecap:round; stroke-linejoin:round;">
</g>
<g style="fill:#840000; fill-opacity:0.0; 
stroke:#840000; stroke-width:60; stroke-opacity:1; 
stroke-linecap:round; stroke-linejoin:round;">
<path d="M69690 71460
L112210 71460
" />
</g>
<g style="fill:#840000; fill-opacity:0.0; 
stroke:#840000; stroke-width:100; stroke-opacity:1; 
stroke-linecap:round; stroke-linejoin:round;">
</g>
<g style="fill:#840000; fill-opacity:0.0; 
stroke:#840000; stroke-width:60; stroke-opacity:1; 
stroke-linecap:round; stroke-linejoin:round;">
<text x="70080" y="72340"
textLength="12700" font-size="780" lengthAdjust="spacingAndGlyphs"
text-anchor="start" opacity="0">Sheet: /Power/PLL_POWER/</text>
<path d="M70220 72280
L70300 72310
L70440 72310
L70500 72280
L70530 72260
L70550 72200
L70550 72140
L70530 72090
L70500 72060
L70440 72030
L70330 72000
L70270 71970
L70250 71950
L70220 71890
L70220 71830
L70250 71780
L70270 71750
L70330 71720
L70470 71720
L70550 71750
" />
<path d="M70810 72310
L70810 71720
" />
<path d="M71060 72310
L71060 72000
L71030 71950
L70980 71920
L70890 71920
L70840 71950
L70810 71970
" />
<path d="M71570 72280
L71510 72310
L71400 72310
L71340 72280
L71310 72230
L71310 72000
L71340 71950
L71400 71920
L71510 71920
L71570 71950
L71590 72000
L71590 72060
L71310 72120
" />
<path d="M72070 72280
L72020 72310
L71900 72310
L71850 72280
L71820 72230
L71820 72000
L71850 71950
L71900 71920
L72020 71920
L72070 71950
L72100 72000
L72100 72060
L71820 72120
" />
<path d="M72270 71920
L72490 71920
" />
<path d="M72350 71720
L72350 72230
L72380 72280
L72440 72310
L72490 72310
" />
<path d="M72690 72260
L72720 72280
L72690 72310
L72660 72280
L72690 72260
L72690 72310
" />
<path d="M72690 71950
L72720 71970
L72690 72000
L72660 71970
L72690 71950
L72690 72000
" />
<path d="M73840 71690
L73340 72450
" />
<path d="M74040 72310
L74040 71720
L74260 71720
L74320 71750
L74350 71780
L74380 71830
L74380 71920
L74350 71970
L74320 72000
L74260 72030
L74040 72030
" />
<path d="M74710 72310
L74660 72280
L74630 72260
L74600 72200
L74600 72030
L74630 71970
L74660 71950
L74710 71920
L74800 71920
L74850 71950
L74880 71970
L74910 72030
L74910 72200
L74880 72260
L74850 72280
L74800 72310
L74710 72310
" />
<path d="M75110 71920
L75220 72310
L75330 72030
L75440 72310
L75560 71920
" />
<path d="M76010 72280
L75950 72310
L75840 72310
L75780 72280
L75750 72230
L75750 72000
L75780 71950
L75840 71920
L75950 71920
L76010 71950
L76030 72000
L76030 72060
L75750 72120
" />
<path d="M76290 72310
L76290 71920
" />
<path d="M76290 72030
L76310 71970
L76340 71950
L76400 71920
L76450 71920
" />
<path d="M77070 71690
L76570 72450
" />
<path d="M77270 72310
L77270 71720
L77490 71720
L77550 71750
L77580 71780
L77610 71830
L77610 71920
L77580 71970
L77550 72000
L77490 72030
L77270 72030
" />
<path d="M78140 72310
L77860 72310
L77860 71720
" />
<path d="M78620 72310
L78340 72310
L78340 71720
" />
<path d="M78670 72370
L79120 72370
" />
<path d="M79260 72310
L79260 71720
L79490 71720
L79550 71750
L79570 71780
L79600 71830
L79600 71920
L79570 71970
L79550 72000
L79490 72030
L79260 72030
" />
<path d="M79970 71720
L80080 71720
L80140 71750
L80190 71810
L80220 71920
L80220 72120
L80190 72230
L80140 72280
L80080 72310
L79970 72310
L79910 72280
L79850 72230
L79830 72120
L79830 71920
L79850 71810
L79910 71750
L79970 71720
" />
<path d="M80420 71720
L80560 72310
L80670 71890
L80780 72310
L80920 71720
" />
<path d="M81150 72000
L81340 72000
" />
<path d="M81430 72310
L81150 72310
L81150 71720
L81430 71720
" />
<path d="M82020 72310
L81820 72030
" />
<path d="M81680 72310
L81680 71720
L81910 71720
L81960 71750
L81990 71780
L82020 71830
L82020 71920
L81990 71970
L81960 72000
L81910 72030
L81680 72030
" />
<path d="M82690 71690
L82190 72450
" />
</g>
<g style="fill:#840000; fill-opacity:0.0; 
stroke:#840000; stroke-width:100; stroke-opacity:1; 
stroke-linecap:round; stroke-linejoin:round;">
</g>
<g style="fill:#840000; fill-opacity:0.0; 
stroke:#840000; stroke-width:60; stroke-opacity:1; 
stroke-linecap:round; stroke-linejoin:round;">
<path d="M77560 75400
L77560 76580
" />
</g>
<g style="fill:#840000; fill-opacity:0.0; 
stroke:#840000; stroke-width:100; stroke-opacity:1; 
stroke-linecap:round; stroke-linejoin:round;">
</g>
<g style="fill:#840000; fill-opacity:0.0; 
stroke:#840000; stroke-width:60; stroke-opacity:1; 
stroke-linecap:round; stroke-linejoin:round;">
<path d="M102760 75400
L102760 77960
" />
</g>
<g style="fill:#840000; fill-opacity:0.0; 
stroke:#840000; stroke-width:0; stroke-opacity:1; 
stroke-linecap:round; stroke-linejoin:round;">
<g >
</g>
<g style="fill:#840000; fill-opacity:0.0; 
stroke:#840000; stroke-width:200; stroke-opacity:1; 
stroke-linecap:round; stroke-linejoin:round;">
<path style="fill:#840000; fill-opacity:0.0; 
stroke:#840000; stroke-width:200; stroke-opacity:1; 
stroke-linecap:round; stroke-linejoin:round;fill:none"
d="M 66950,44050
68550,44050
" /> 
<path style="fill:#840000; fill-opacity:0.0; 
stroke:#840000; stroke-width:200; stroke-opacity:1; 
stroke-linecap:round; stroke-linejoin:round;fill:none"
d="M 66950,43450
68550,43450
" /> 
</g>
<g style="fill:#840000; fill-opacity:0.0; 
stroke:#840000; stroke-width:60; stroke-opacity:1; 
stroke-linecap:round; stroke-linejoin:round;">
<path d="M67750 43350
L67750 42250
" />
<path d="M67750 44150
L67750 45250
" />
</g>
<g style="fill:#008484; fill-opacity:0.0; 
stroke:#008484; stroke-width:60; stroke-opacity:1; 
stroke-linecap:round; stroke-linejoin:round;">
<text x="69650" y="43560"
textLength="1510" font-size="660" lengthAdjust="spacingAndGlyphs"
text-anchor="middle" opacity="0">C40</text>
<path d="M69320 43480
L69300 43510
L69230 43530
L69180 43530
L69110 43510
L69060 43460
L69040 43410
L69010 43320
L69010 43250
L69040 43150
L69060 43100
L69110 43060
L69180 43030
L69230 43030
L69300 43060
L69320 43080
" />
<path d="M69750 43200
L69750 43530
" />
<path d="M69630 43010
L69510 43360
L69820 43360
" />
<path d="M70110 43030
L70160 43030
L70200 43060
L70230 43080
L70250 43130
L70280 43220
L70280 43340
L70250 43440
L70230 43480
L70200 43510
L70160 43530
L70110 43530
L70060 43510
L70040 43480
L70010 43440
L69990 43340
L69990 43220
L70010 43130
L70040 43080
L70060 43060
L70110 43030
" />
<text x="71270" y="44470"
textLength="4750" font-size="660" lengthAdjust="spacingAndGlyphs"
text-anchor="middle" opacity="0">100nF 6,3 V</text>
<path d="M69300 44440
L69020 44440
" />
<path d="M69160 44440
L69160 43940
L69110 44010
L69060 44060
L69020 44080
" />
<path d="M69610 43940
L69660 43940
L69710 43970
L69730 43990
L69750 44040
L69780 44130
L69780 44250
L69750 44350
L69730 44390
L69710 44420
L69660 44440
L69610 44440
L69560 44420
L69540 44390
L69520 44350
L69490 44250
L69490 44130
L69520 44040
L69540 43990
L69560 43970
L69610 43940
" />
<path d="M70090 43940
L70130 43940
L70180 43970
L70210 43990
L70230 44040
L70250 44130
L70250 44250
L70230 44350
L70210 44390
L70180 44420
L70130 44440
L70090 44440
L70040 44420
L70020 44390
L69990 44350
L69970 44250
L69970 44130
L69990 44040
L70020 43990
L70040 43970
L70090 43940
" />
<path d="M70470 44110
L70470 44440
" />
<path d="M70470 44160
L70490 44130
L70540 44110
L70610 44110
L70660 44130
L70680 44180
L70680 44440
" />
<path d="M71090 44180
L70920 44180
" />
<path d="M70920 44440
L70920 43940
L71160 43940
" />
<path d="M71940 43940
L71850 43940
L71800 43970
L71780 43990
L71730 44060
L71710 44160
L71710 44350
L71730 44390
L71750 44420
L71800 44440
L71900 44440
L71940 44420
L71970 44390
L71990 44350
L71990 44230
L71970 44180
L71940 44160
L71900 44130
L71800 44130
L71750 44160
L71730 44180
L71710 44230
" />
<path d="M72230 44420
L72230 44440
L72210 44490
L72180 44510
" />
<path d="M72400 43940
L72710 43940
L72540 44130
L72610 44130
L72660 44160
L72680 44180
L72710 44230
L72710 44350
L72680 44390
L72660 44420
L72610 44440
L72470 44440
L72420 44420
L72400 44390
" />
<path d="M73230 43940
L73400 44440
L73560 43940
" />
</g>
</g>
<g style="fill:#008484; fill-opacity:0.0; 
stroke:#008484; stroke-width:0; stroke-opacity:1; 
stroke-linecap:round; stroke-linejoin:round;">
<g >
</g>
<g style="fill:#840000; fill-opacity:0.0; 
stroke:#840000; stroke-width:0; stroke-opacity:1; 
stroke-linecap:round; stroke-linejoin:round;">
</g>
<g style="fill:#840000; fill-opacity:0.0; 
stroke:#840000; stroke-width:100; stroke-opacity:1; 
stroke-linecap:round; stroke-linejoin:round;">
<rect x="59850" y="38750" width="800" height="2000" rx="0" />
</g>
<g style="fill:#840000; fill-opacity:0.0; 
stroke:#840000; stroke-width:60; stroke-opacity:1; 
stroke-linecap:round; stroke-linejoin:round;">
<path d="M60250 38750
L60250 38250
" />
<path d="M60250 40750
L60250 41250
" />
</g>
<g style="fill:#008484; fill-opacity:0.0; 
stroke:#008484; stroke-width:60; stroke-opacity:1; 
stroke-linecap:round; stroke-linejoin:round;">
<text x="61700" y="39560"
textLength="1510" font-size="660" lengthAdjust="spacingAndGlyphs"
text-anchor="middle" opacity="0">R16</text>
<path d="M61370 39530
L61210 39290
" />
<path d="M61090 39530
L61090 39030
L61280 39030
L61330 39060
L61350 39080
L61370 39130
L61370 39200
L61350 39250
L61330 39270
L61280 39290
L61090 39290
" />
<path d="M61850 39530
L61560 39530
" />
<path d="M61710 39530
L61710 39030
L61660 39100
L61610 39150
L61560 39170
" />
<path d="M62280 39030
L62180 39030
L62140 39060
L62110 39080
L62060 39150
L62040 39250
L62040 39440
L62060 39480
L62090 39510
L62140 39530
L62230 39530
L62280 39510
L62300 39480
L62330 39440
L62330 39320
L62300 39270
L62280 39250
L62230 39220
L62140 39220
L62090 39250
L62060 39270
L62040 39320
" />
<text x="61690" y="40470"
textLength="1490" font-size="660" lengthAdjust="spacingAndGlyphs"
text-anchor="middle" opacity="0">100</text>
<path d="M61350 40440
L61070 40440
" />
<path d="M61210 40440
L61210 39940
L61160 40010
L61110 40060
L61070 40080
" />
<path d="M61660 39940
L61710 39940
L61760 39970
L61780 39990
L61800 40040
L61830 40130
L61830 40250
L61800 40350
L61780 40390
L61760 40420
L61710 40440
L61660 40440
L61610 40420
L61590 40390
L61570 40350
L61540 40250
L61540 40130
L61570 40040
L61590 39990
L61610 39970
L61660 39940
" />
<path d="M62140 39940
L62190 39940
L62230 39970
L62260 39990
L62280 40040
L62300 40130
L62300 40250
L62280 40350
L62260 40390
L62230 40420
L62190 40440
L62140 40440
L62090 40420
L62070 40390
L62040 40350
L62020 40250
L62020 40130
L62040 40040
L62070 39990
L62090 39970
L62140 39940
" />
</g>
</g>
<g style="fill:#008484; fill-opacity:0.0; 
stroke:#008484; stroke-width:0; stroke-opacity:1; 
stroke-linecap:round; stroke-linejoin:round;">
<g >
</g>
<g style="fill:#840000; fill-opacity:0.0; 
stroke:#840000; stroke-width:0; stroke-opacity:1; 
stroke-linecap:round; stroke-linejoin:round;">
</g>
<g style="fill:#840000; fill-opacity:0.0; 
stroke:#840000; stroke-width:100; stroke-opacity:1; 
stroke-linecap:round; stroke-linejoin:round;">
<rect x="46850" y="38750" width="800" height="2000" rx="0" />
</g>
<g style="fill:#840000; fill-opacity:0.0; 
stroke:#840000; stroke-width:60; stroke-opacity:1; 
stroke-linecap:round; stroke-linejoin:round;">
<path d="M47250 38750
L47250 38250
" />
<path d="M47250 40750
L47250 41250
" />
</g>
<g style="fill:#008484; fill-opacity:0.0; 
stroke:#008484; stroke-width:60; stroke-opacity:1; 
stroke-linecap:round; stroke-linejoin:round;">
<text x="48700" y="39560"
textLength="1510" font-size="660" lengthAdjust="spacingAndGlyphs"
text-anchor="middle" opacity="0">R15</text>
<path d="M48370 39530
L48210 39290
" />
<path d="M48090 39530
L48090 39030
L48280 39030
L48330 39060
L48350 39080
L48370 39130
L48370 39200
L48350 39250
L48330 39270
L48280 39290
L48090 39290
" />
<path d="M48850 39530
L48560 39530
" />
<path d="M48710 39530
L48710 39030
L48660 39100
L48610 39150
L48560 39170
" />
<path d="M49300 39030
L49060 39030
L49040 39270
L49060 39250
L49110 39220
L49230 39220
L49280 39250
L49300 39270
L49330 39320
L49330 39440
L49300 39480
L49280 39510
L49230 39530
L49110 39530
L49060 39510
L49040 39480
" />
<text x="48690" y="40470"
textLength="1490" font-size="660" lengthAdjust="spacingAndGlyphs"
text-anchor="middle" opacity="0">100</text>
<path d="M48350 40440
L48070 40440
" />
<path d="M48210 40440
L48210 39940
L48160 40010
L48110 40060
L48070 40080
" />
<path d="M48660 39940
L48710 39940
L48760 39970
L48780 39990
L48800 40040
L48830 40130
L48830 40250
L48800 40350
L48780 40390
L48760 40420
L48710 40440
L48660 40440
L48610 40420
L48590 40390
L48570 40350
L48540 40250
L48540 40130
L48570 40040
L48590 39990
L48610 39970
L48660 39940
" />
<path d="M49140 39940
L49190 39940
L49230 39970
L49260 39990
L49280 40040
L49300 40130
L49300 40250
L49280 40350
L49260 40390
L49230 40420
L49190 40440
L49140 40440
L49090 40420
L49070 40390
L49040 40350
L49020 40250
L49020 40130
L49040 40040
L49070 39990
L49090 39970
L49140 39940
" />
</g>
</g>
<g style="fill:#008484; fill-opacity:0.0; 
stroke:#008484; stroke-width:0; stroke-opacity:1; 
stroke-linecap:round; stroke-linejoin:round;">
<g >
</g>
<g style="fill:#840000; fill-opacity:0.0; 
stroke:#840000; stroke-width:0; stroke-opacity:1; 
stroke-linecap:round; stroke-linejoin:round;">
</g>
<g style="fill:#840000; fill-opacity:0.0; 
stroke:#840000; stroke-width:200; stroke-opacity:1; 
stroke-linecap:round; stroke-linejoin:round;">
<path style="fill:#840000; fill-opacity:0.0; 
stroke:#840000; stroke-width:200; stroke-opacity:1; 
stroke-linecap:round; stroke-linejoin:round;fill:none"
d="M 46450,44050
48050,44050
" /> 
<path style="fill:#840000; fill-opacity:0.0; 
stroke:#840000; stroke-width:200; stroke-opacity:1; 
stroke-linecap:round; stroke-linejoin:round;fill:none"
d="M 46450,43450
48050,43450
" /> 
</g>
<g style="fill:#840000; fill-opacity:0.0; 
stroke:#840000; stroke-width:60; stroke-opacity:1; 
stroke-linecap:round; stroke-linejoin:round;">
<path d="M47250 43350
L47250 42250
" />
<path d="M47250 44150
L47250 45250
" />
</g>
<g style="fill:#008484; fill-opacity:0.0; 
stroke:#008484; stroke-width:60; stroke-opacity:1; 
stroke-linecap:round; stroke-linejoin:round;">
<text x="49150" y="43560"
textLength="1510" font-size="660" lengthAdjust="spacingAndGlyphs"
text-anchor="middle" opacity="0">C37</text>
<path d="M48820 43480
L48800 43510
L48730 43530
L48680 43530
L48610 43510
L48560 43460
L48540 43410
L48510 43320
L48510 43250
L48540 43150
L48560 43100
L48610 43060
L48680 43030
L48730 43030
L48800 43060
L48820 43080
" />
<path d="M48990 43030
L49300 43030
L49130 43220
L49200 43220
L49250 43250
L49280 43270
L49300 43320
L49300 43440
L49280 43480
L49250 43510
L49200 43530
L49060 43530
L49010 43510
L48990 43480
" />
<path d="M49470 43030
L49800 43030
L49590 43530
" />
<text x="50730" y="44470"
textLength="4660" font-size="660" lengthAdjust="spacingAndGlyphs"
text-anchor="middle" opacity="0">10 uF 6,3 V</text>
<path d="M48810 44440
L48520 44440
" />
<path d="M48670 44440
L48670 43940
L48620 44010
L48570 44060
L48520 44080
" />
<path d="M49120 43940
L49170 43940
L49210 43970
L49240 43990
L49260 44040
L49280 44130
L49280 44250
L49260 44350
L49240 44390
L49210 44420
L49170 44440
L49120 44440
L49070 44420
L49050 44390
L49020 44350
L49000 44250
L49000 44130
L49020 44040
L49050 43990
L49070 43970
L49120 43940
" />
<path d="M50090 44110
L50090 44440
" />
<path d="M49880 44110
L49880 44370
L49900 44420
L49950 44440
L50020 44440
L50070 44420
L50090 44390
" />
<path d="M50500 44180
L50330 44180
" />
<path d="M50330 44440
L50330 43940
L50570 43940
" />
<path d="M51360 43940
L51260 43940
L51210 43970
L51190 43990
L51140 44060
L51120 44160
L51120 44350
L51140 44390
L51170 44420
L51210 44440
L51310 44440
L51360 44420
L51380 44390
L51400 44350
L51400 44230
L51380 44180
L51360 44160
L51310 44130
L51210 44130
L51170 44160
L51140 44180
L51120 44230
" />
<path d="M51640 44420
L51640 44440
L51620 44490
L51590 44510
" />
<path d="M51810 43940
L52120 43940
L51950 44130
L52020 44130
L52070 44160
L52090 44180
L52120 44230
L52120 44350
L52090 44390
L52070 44420
L52020 44440
L51880 44440
L51830 44420
L51810 44390
" />
<path d="M52640 43940
L52810 44440
L52980 43940
" />
</g>
</g>
<g style="fill:#008484; fill-opacity:0.0; 
stroke:#008484; stroke-width:0; stroke-opacity:1; 
stroke-linecap:round; stroke-linejoin:round;">
<g >
</g>
<g style="fill:#840000; fill-opacity:0.0; 
stroke:#840000; stroke-width:0; stroke-opacity:1; 
stroke-linecap:round; stroke-linejoin:round;">
</g>
<g style="fill:#840000; fill-opacity:0.0; 
stroke:#840000; stroke-width:200; stroke-opacity:1; 
stroke-linecap:round; stroke-linejoin:round;">
<path style="fill:#840000; fill-opacity:0.0; 
stroke:#840000; stroke-width:200; stroke-opacity:1; 
stroke-linecap:round; stroke-linejoin:round;fill:none"
d="M 53950,44050
55550,44050
" /> 
<path style="fill:#840000; fill-opacity:0.0; 
stroke:#840000; stroke-width:200; stroke-opacity:1; 
stroke-linecap:round; stroke-linejoin:round;fill:none"
d="M 53950,43450
55550,43450
" /> 
</g>
<g style="fill:#840000; fill-opacity:0.0; 
stroke:#840000; stroke-width:60; stroke-opacity:1; 
stroke-linecap:round; stroke-linejoin:round;">
<path d="M54750 43350
L54750 42250
" />
<path d="M54750 44150
L54750 45250
" />
</g>
<g style="fill:#008484; fill-opacity:0.0; 
stroke:#008484; stroke-width:60; stroke-opacity:1; 
stroke-linecap:round; stroke-linejoin:round;">
<text x="56650" y="43560"
textLength="1510" font-size="660" lengthAdjust="spacingAndGlyphs"
text-anchor="middle" opacity="0">C38</text>
<path d="M56320 43480
L56300 43510
L56230 43530
L56180 43530
L56110 43510
L56060 43460
L56040 43410
L56010 43320
L56010 43250
L56040 43150
L56060 43100
L56110 43060
L56180 43030
L56230 43030
L56300 43060
L56320 43080
" />
<path d="M56490 43030
L56800 43030
L56630 43220
L56700 43220
L56750 43250
L56780 43270
L56800 43320
L56800 43440
L56780 43480
L56750 43510
L56700 43530
L56560 43530
L56510 43510
L56490 43480
" />
<path d="M57090 43250
L57040 43220
L57010 43200
L56990 43150
L56990 43130
L57010 43080
L57040 43060
L57090 43030
L57180 43030
L57230 43060
L57250 43080
L57280 43130
L57280 43150
L57250 43200
L57230 43220
L57180 43250
L57090 43250
L57040 43270
L57010 43290
L56990 43340
L56990 43440
L57010 43480
L57040 43510
L57090 43530
L57180 43530
L57230 43510
L57250 43480
L57280 43440
L57280 43340
L57250 43290
L57230 43270
L57180 43250
" />
<text x="58270" y="44470"
textLength="4750" font-size="660" lengthAdjust="spacingAndGlyphs"
text-anchor="middle" opacity="0">100nF 6,3 V</text>
<path d="M56300 44440
L56020 44440
" />
<path d="M56160 44440
L56160 43940
L56110 44010
L56060 44060
L56020 44080
" />
<path d="M56610 43940
L56660 43940
L56710 43970
L56730 43990
L56750 44040
L56780 44130
L56780 44250
L56750 44350
L56730 44390
L56710 44420
L56660 44440
L56610 44440
L56560 44420
L56540 44390
L56520 44350
L56490 44250
L56490 44130
L56520 44040
L56540 43990
L56560 43970
L56610 43940
" />
<path d="M57090 43940
L57130 43940
L57180 43970
L57210 43990
L57230 44040
L57250 44130
L57250 44250
L57230 44350
L57210 44390
L57180 44420
L57130 44440
L57090 44440
L57040 44420
L57020 44390
L56990 44350
L56970 44250
L56970 44130
L56990 44040
L57020 43990
L57040 43970
L57090 43940
" />
<path d="M57470 44110
L57470 44440
" />
<path d="M57470 44160
L57490 44130
L57540 44110
L57610 44110
L57660 44130
L57680 44180
L57680 44440
" />
<path d="M58090 44180
L57920 44180
" />
<path d="M57920 44440
L57920 43940
L58160 43940
" />
<path d="M58940 43940
L58850 43940
L58800 43970
L58780 43990
L58730 44060
L58710 44160
L58710 44350
L58730 44390
L58750 44420
L58800 44440
L58900 44440
L58940 44420
L58970 44390
L58990 44350
L58990 44230
L58970 44180
L58940 44160
L58900 44130
L58800 44130
L58750 44160
L58730 44180
L58710 44230
" />
<path d="M59230 44420
L59230 44440
L59210 44490
L59180 44510
" />
<path d="M59400 43940
L59710 43940
L59540 44130
L59610 44130
L59660 44160
L59680 44180
L59710 44230
L59710 44350
L59680 44390
L59660 44420
L59610 44440
L59470 44440
L59420 44420
L59400 44390
" />
<path d="M60230 43940
L60400 44440
L60560 43940
" />
</g>
</g>
<g style="fill:#008484; fill-opacity:0.0; 
stroke:#008484; stroke-width:0; stroke-opacity:1; 
stroke-linecap:round; stroke-linejoin:round;">
<g >
</g>
<g style="fill:#840000; fill-opacity:0.0; 
stroke:#840000; stroke-width:0; stroke-opacity:1; 
stroke-linecap:round; stroke-linejoin:round;">
</g>
<g style="fill:#840000; fill-opacity:0.0; 
stroke:#840000; stroke-width:200; stroke-opacity:1; 
stroke-linecap:round; stroke-linejoin:round;">
<path style="fill:#840000; fill-opacity:0.0; 
stroke:#840000; stroke-width:200; stroke-opacity:1; 
stroke-linecap:round; stroke-linejoin:round;fill:none"
d="M 59450,44050
61050,44050
" /> 
<path style="fill:#840000; fill-opacity:0.0; 
stroke:#840000; stroke-width:200; stroke-opacity:1; 
stroke-linecap:round; stroke-linejoin:round;fill:none"
d="M 59450,43450
61050,43450
" /> 
</g>
<g style="fill:#840000; fill-opacity:0.0; 
stroke:#840000; stroke-width:60; stroke-opacity:1; 
stroke-linecap:round; stroke-linejoin:round;">
<path d="M60250 43350
L60250 42250
" />
<path d="M60250 44150
L60250 45250
" />
</g>
<g style="fill:#008484; fill-opacity:0.0; 
stroke:#008484; stroke-width:60; stroke-opacity:1; 
stroke-linecap:round; stroke-linejoin:round;">
<text x="62150" y="43560"
textLength="1510" font-size="660" lengthAdjust="spacingAndGlyphs"
text-anchor="middle" opacity="0">C39</text>
<path d="M61820 43480
L61800 43510
L61730 43530
L61680 43530
L61610 43510
L61560 43460
L61540 43410
L61510 43320
L61510 43250
L61540 43150
L61560 43100
L61610 43060
L61680 43030
L61730 43030
L61800 43060
L61820 43080
" />
<path d="M61990 43030
L62300 43030
L62130 43220
L62200 43220
L62250 43250
L62280 43270
L62300 43320
L62300 43440
L62280 43480
L62250 43510
L62200 43530
L62060 43530
L62010 43510
L61990 43480
" />
<path d="M62540 43530
L62630 43530
L62680 43510
L62700 43480
L62750 43410
L62780 43320
L62780 43130
L62750 43080
L62730 43060
L62680 43030
L62590 43030
L62540 43060
L62510 43080
L62490 43130
L62490 43250
L62510 43290
L62540 43320
L62590 43340
L62680 43340
L62730 43320
L62750 43290
L62780 43250
" />
<text x="63730" y="44470"
textLength="4660" font-size="660" lengthAdjust="spacingAndGlyphs"
text-anchor="middle" opacity="0">10 uF 6,3 V</text>
<path d="M61810 44440
L61520 44440
" />
<path d="M61670 44440
L61670 43940
L61620 44010
L61570 44060
L61520 44080
" />
<path d="M62120 43940
L62170 43940
L62210 43970
L62240 43990
L62260 44040
L62280 44130
L62280 44250
L62260 44350
L62240 44390
L62210 44420
L62170 44440
L62120 44440
L62070 44420
L62050 44390
L62020 44350
L62000 44250
L62000 44130
L62020 44040
L62050 43990
L62070 43970
L62120 43940
" />
<path d="M63090 44110
L63090 44440
" />
<path d="M62880 44110
L62880 44370
L62900 44420
L62950 44440
L63020 44440
L63070 44420
L63090 44390
" />
<path d="M63500 44180
L63330 44180
" />
<path d="M63330 44440
L63330 43940
L63570 43940
" />
<path d="M64360 43940
L64260 43940
L64210 43970
L64190 43990
L64140 44060
L64120 44160
L64120 44350
L64140 44390
L64170 44420
L64210 44440
L64310 44440
L64360 44420
L64380 44390
L64400 44350
L64400 44230
L64380 44180
L64360 44160
L64310 44130
L64210 44130
L64170 44160
L64140 44180
L64120 44230
" />
<path d="M64640 44420
L64640 44440
L64620 44490
L64590 44510
" />
<path d="M64810 43940
L65120 43940
L64950 44130
L65020 44130
L65070 44160
L65090 44180
L65120 44230
L65120 44350
L65090 44390
L65070 44420
L65020 44440
L64880 44440
L64830 44420
L64810 44390
" />
<path d="M65640 43940
L65810 44440
L65980 43940
" />
</g>
</g>
<g style="fill:#008484; fill-opacity:0.0; 
stroke:#008484; stroke-width:60; stroke-opacity:1; 
stroke-linecap:round; stroke-linejoin:round;">
</g>
<g style="fill:#0000C2; fill-opacity:0.0; 
stroke:#0000C2; stroke-width:60; stroke-opacity:1; 
stroke-linecap:round; stroke-linejoin:round;">
</g>
<g style="fill:#0000C2; fill-opacity:0.0; 
stroke:#0000C2; stroke-width:60; stroke-opacity:1; 
stroke-linecap:round; stroke-linejoin:round;stroke-dasharray:150,150;">
<path d="M44000 47000
L44000 30500
" />
</g>
<g style="fill:#0000C2; fill-opacity:0.0; 
stroke:#0000C2; stroke-width:60; stroke-opacity:1; 
stroke-linecap:round; stroke-linejoin:round;">
</g>
<g style="fill:#0000C2; fill-opacity:0.0; 
stroke:#0000C2; stroke-width:60; stroke-opacity:1; 
stroke-linecap:round; stroke-linejoin:round;stroke-dasharray:150,150;">
<path d="M71500 47000
L44000 47000
" />
</g>
<g style="fill:#0000C2; fill-opacity:0.0; 
stroke:#0000C2; stroke-width:60; stroke-opacity:1; 
stroke-linecap:round; stroke-linejoin:round;">
</g>
<g style="fill:#0000C2; fill-opacity:0.0; 
stroke:#0000C2; stroke-width:60; stroke-opacity:1; 
stroke-linecap:round; stroke-linejoin:round;stroke-dasharray:150,150;">
<path d="M71500 30500
L71500 47000
" />
</g>
<g style="fill:#0000C2; fill-opacity:0.0; 
stroke:#0000C2; stroke-width:60; stroke-opacity:1; 
stroke-linecap:round; stroke-linejoin:round;">
</g>
<g style="fill:#0000C2; fill-opacity:0.0; 
stroke:#0000C2; stroke-width:60; stroke-opacity:1; 
stroke-linecap:round; stroke-linejoin:round;stroke-dasharray:150,150;">
<path d="M44250 30500
L71500 30500
" />
</g>
<g style="fill:#0000C2; fill-opacity:0.0; 
stroke:#0000C2; stroke-width:60; stroke-opacity:1; 
stroke-linecap:round; stroke-linejoin:round;">
</g>
<g style="fill:#008400; fill-opacity:0.0; 
stroke:#008400; stroke-width:60; stroke-opacity:1; 
stroke-linecap:round; stroke-linejoin:round;">
<path d="M47250 41750
L47250 42250
" />
<path d="M47250 37750
L47250 38250
" />
<path d="M47250 41250
L47250 41750
" />
<path d="M54750 42250
L54750 41750
" />
<path d="M47250 41750
L54750 41750
" />
<path d="M54750 45250
L54750 45500
" />
<path d="M47250 45500
L47250 45250
" />
<path d="M60250 45500
L60250 45250
" />
<path d="M60250 45500
L67750 45500
" />
<path d="M67750 45250
L67750 45500
" />
<path d="M60250 41750
L60250 42250
" />
<path d="M60250 41750
L67750 41750
" />
<path d="M67750 42250
L67750 41750
" />
<path d="M60250 41250
L60250 41750
" />
<path d="M60250 37750
L60250 38250
" />
<path d="M47250 45500
L54750 45500
" />
</g>
<g style="fill:#848400; fill-opacity:0.0; 
stroke:#848400; stroke-width:60; stroke-opacity:1; 
stroke-linecap:round; stroke-linejoin:round;">
<text x="55350" y="45750"
textLength="3750" font-size="660" lengthAdjust="spacingAndGlyphs"
text-anchor="start" opacity="0">GNDPLL_0</text>
<path d="M55760 45250
L55710 45220
L55640 45220
L55570 45250
L55520 45290
L55490 45340
L55470 45440
L55470 45510
L55490 45600
L55520 45650
L55570 45700
L55640 45720
L55680 45720
L55760 45700
L55780 45670
L55780 45510
L55680 45510
" />
<path d="M55990 45720
L55990 45220
L56280 45720
L56280 45220
" />
<path d="M56520 45720
L56520 45220
L56640 45220
L56710 45250
L56760 45290
L56780 45340
L56800 45440
L56800 45510
L56780 45600
L56760 45650
L56710 45700
L56640 45720
L56520 45720
" />
<path d="M57020 45720
L57020 45220
L57210 45220
L57260 45250
L57280 45270
L57300 45320
L57300 45390
L57280 45440
L57260 45460
L57210 45480
L57020 45480
" />
<path d="M57760 45720
L57520 45720
L57520 45220
" />
<path d="M58160 45720
L57920 45720
L57920 45220
" />
<path d="M58210 45770
L58590 45770
" />
<path d="M58800 45220
L58850 45220
L58900 45250
L58920 45270
L58950 45320
L58970 45410
L58970 45530
L58950 45630
L58920 45670
L58900 45700
L58850 45720
L58800 45720
L58760 45700
L58730 45670
L58710 45630
L58680 45530
L58680 45410
L58710 45320
L58730 45270
L58760 45250
L58800 45220
" />
</g>
<g style="fill:#848400; fill-opacity:0.0; 
stroke:#848400; stroke-width:100; stroke-opacity:1; 
stroke-linecap:round; stroke-linejoin:round;">
<path style="fill:#848400; fill-opacity:0.0; 
stroke:#848400; stroke-width:100; stroke-opacity:1; 
stroke-linecap:round; stroke-linejoin:round;fill:none"
d="M 55250,45500
55000,45250
54750,45250
54750,45750
55000,45750
Z" /> 
</g>
<g style="fill:#848400; fill-opacity:0.0; 
stroke:#848400; stroke-width:60; stroke-opacity:1; 
stroke-linecap:round; stroke-linejoin:round;">
<text x="55350" y="42000"
textLength="3660" font-size="660" lengthAdjust="spacingAndGlyphs"
text-anchor="start" opacity="0">VCCPLL_0</text>
<path d="M55420 41470
L55590 41970
L55760 41470
" />
<path d="M56210 41920
L56180 41950
L56110 41970
L56070 41970
L55990 41950
L55950 41900
L55920 41850
L55900 41760
L55900 41690
L55920 41590
L55950 41540
L55990 41500
L56070 41470
L56110 41470
L56180 41500
L56210 41520
" />
<path d="M56710 41920
L56680 41950
L56610 41970
L56570 41970
L56490 41950
L56450 41900
L56420 41850
L56400 41760
L56400 41690
L56420 41590
L56450 41540
L56490 41500
L56570 41470
L56610 41470
L56680 41500
L56710 41520
" />
<path d="M56920 41970
L56920 41470
L57110 41470
L57160 41500
L57180 41520
L57210 41570
L57210 41640
L57180 41690
L57160 41710
L57110 41730
L56920 41730
" />
<path d="M57660 41970
L57420 41970
L57420 41470
" />
<path d="M58070 41970
L57830 41970
L57830 41470
" />
<path d="M58110 42020
L58490 42020
" />
<path d="M58710 41470
L58760 41470
L58800 41500
L58830 41520
L58850 41570
L58880 41660
L58880 41780
L58850 41880
L58830 41920
L58800 41950
L58760 41970
L58710 41970
L58660 41950
L58640 41920
L58610 41880
L58590 41780
L58590 41660
L58610 41570
L58640 41520
L58660 41500
L58710 41470
" />
</g>
<g style="fill:#848400; fill-opacity:0.0; 
stroke:#848400; stroke-width:100; stroke-opacity:1; 
stroke-linecap:round; stroke-linejoin:round;">
<path style="fill:#848400; fill-opacity:0.0; 
stroke:#848400; stroke-width:100; stroke-opacity:1; 
stroke-linecap:round; stroke-linejoin:round;fill:none"
d="M 55250,41750
55000,41500
54750,41500
54750,42000
55000,42000
Z" /> 
</g>
<g style="fill:#848400; fill-opacity:0.0; 
stroke:#848400; stroke-width:60; stroke-opacity:1; 
stroke-linecap:round; stroke-linejoin:round;">
<text x="68350" y="42000"
textLength="3660" font-size="660" lengthAdjust="spacingAndGlyphs"
text-anchor="start" opacity="0">VCCPLL_1</text>
<path d="M68420 41470
L68590 41970
L68760 41470
" />
<path d="M69210 41920
L69180 41950
L69110 41970
L69070 41970
L68990 41950
L68950 41900
L68920 41850
L68900 41760
L68900 41690
L68920 41590
L68950 41540
L68990 41500
L69070 41470
L69110 41470
L69180 41500
L69210 41520
" />
<path d="M69710 41920
L69680 41950
L69610 41970
L69570 41970
L69490 41950
L69450 41900
L69420 41850
L69400 41760
L69400 41690
L69420 41590
L69450 41540
L69490 41500
L69570 41470
L69610 41470
L69680 41500
L69710 41520
" />
<path d="M69920 41970
L69920 41470
L70110 41470
L70160 41500
L70180 41520
L70210 41570
L70210 41640
L70180 41690
L70160 41710
L70110 41730
L69920 41730
" />
<path d="M70660 41970
L70420 41970
L70420 41470
" />
<path d="M71070 41970
L70830 41970
L70830 41470
" />
<path d="M71110 42020
L71490 42020
" />
<path d="M71880 41970
L71590 41970
" />
<path d="M71730 41970
L71730 41470
L71680 41540
L71640 41590
L71590 41610
" />
</g>
<g style="fill:#848400; fill-opacity:0.0; 
stroke:#848400; stroke-width:100; stroke-opacity:1; 
stroke-linecap:round; stroke-linejoin:round;">
<path style="fill:#848400; fill-opacity:0.0; 
stroke:#848400; stroke-width:100; stroke-opacity:1; 
stroke-linecap:round; stroke-linejoin:round;fill:none"
d="M 68250,41750
68000,41500
67750,41500
67750,42000
68000,42000
Z" /> 
</g>
<g style="fill:#848400; fill-opacity:0.0; 
stroke:#848400; stroke-width:60; stroke-opacity:1; 
stroke-linecap:round; stroke-linejoin:round;">
<text x="68350" y="45750"
textLength="3750" font-size="660" lengthAdjust="spacingAndGlyphs"
text-anchor="start" opacity="0">GNDPLL_1</text>
<path d="M68760 45250
L68710 45220
L68640 45220
L68570 45250
L68520 45290
L68490 45340
L68470 45440
L68470 45510
L68490 45600
L68520 45650
L68570 45700
L68640 45720
L68680 45720
L68760 45700
L68780 45670
L68780 45510
L68680 45510
" />
<path d="M68990 45720
L68990 45220
L69280 45720
L69280 45220
" />
<path d="M69520 45720
L69520 45220
L69640 45220
L69710 45250
L69760 45290
L69780 45340
L69800 45440
L69800 45510
L69780 45600
L69760 45650
L69710 45700
L69640 45720
L69520 45720
" />
<path d="M70020 45720
L70020 45220
L70210 45220
L70260 45250
L70280 45270
L70300 45320
L70300 45390
L70280 45440
L70260 45460
L70210 45480
L70020 45480
" />
<path d="M70760 45720
L70520 45720
L70520 45220
" />
<path d="M71160 45720
L70920 45720
L70920 45220
" />
<path d="M71210 45770
L71590 45770
" />
<path d="M71970 45720
L71680 45720
" />
<path d="M71830 45720
L71830 45220
L71780 45290
L71730 45340
L71680 45360
" />
</g>
<g style="fill:#848400; fill-opacity:0.0; 
stroke:#848400; stroke-width:100; stroke-opacity:1; 
stroke-linecap:round; stroke-linejoin:round;">
<path style="fill:#848400; fill-opacity:0.0; 
stroke:#848400; stroke-width:100; stroke-opacity:1; 
stroke-linecap:round; stroke-linejoin:round;fill:none"
d="M 68250,45500
68000,45250
67750,45250
67750,45750
68000,45750
Z" /> 
</g>
<g style="fill:#848400; fill-opacity:0.0; 
stroke:#848400; stroke-width:60; stroke-opacity:1; 
stroke-linecap:round; stroke-linejoin:round;">
<g transform="rotate(-90 47250 37150)">
<text x="47250" y="37400"
textLength="2580" font-size="660" lengthAdjust="spacingAndGlyphs"
text-anchor="start" opacity="0">1V2_IN</text>
</g>
<path d="M47470 36730
L47470 37020
" />
<path d="M47470 36880
L46970 36880
L47040 36920
L47090 36970
L47110 37020
" />
<path d="M46970 36590
L47470 36420
L46970 36260
" />
<path d="M47020 36120
L47000 36090
L46970 36040
L46970 35920
L47000 35880
L47020 35850
L47070 35830
L47110 35830
L47190 35850
L47470 36140
L47470 35830
" />
<path d="M47520 35730
L47520 35350
" />
<path d="M47470 35230
L46970 35230
" />
<path d="M47470 35000
L46970 35000
L47470 34710
L46970 34710
" />
</g>
<g style="fill:#848400; fill-opacity:0.0; 
stroke:#848400; stroke-width:100; stroke-opacity:1; 
stroke-linecap:round; stroke-linejoin:round;">
<path style="fill:#848400; fill-opacity:0.0; 
stroke:#848400; stroke-width:100; stroke-opacity:1; 
stroke-linecap:round; stroke-linejoin:round;fill:none"
d="M 47250,37750
47500,37500
47500,37250
47000,37250
47000,37500
Z" /> 
</g>
<g style="fill:#848400; fill-opacity:0.0; 
stroke:#848400; stroke-width:60; stroke-opacity:1; 
stroke-linecap:round; stroke-linejoin:round;">
<g transform="rotate(-90 60250 37150)">
<text x="60250" y="37400"
textLength="2580" font-size="660" lengthAdjust="spacingAndGlyphs"
text-anchor="start" opacity="0">1V2_IN</text>
</g>
<path d="M60470 36730
L60470 37020
" />
<path d="M60470 36880
L59970 36880
L60040 36920
L60090 36970
L60110 37020
" />
<path d="M59970 36590
L60470 36420
L59970 36260
" />
<path d="M60020 36120
L60000 36090
L59970 36040
L59970 35920
L60000 35880
L60020 35850
L60070 35830
L60110 35830
L60190 35850
L60470 36140
L60470 35830
" />
<path d="M60520 35730
L60520 35350
" />
<path d="M60470 35230
L59970 35230
" />
<path d="M60470 35000
L59970 35000
L60470 34710
L59970 34710
" />
</g>
<g style="fill:#848400; fill-opacity:0.0; 
stroke:#848400; stroke-width:100; stroke-opacity:1; 
stroke-linecap:round; stroke-linejoin:round;">
<path style="fill:#848400; fill-opacity:0.0; 
stroke:#848400; stroke-width:100; stroke-opacity:1; 
stroke-linecap:round; stroke-linejoin:round;fill:none"
d="M 60250,37750
60500,37500
60500,37250
60000,37250
60000,37500
Z" /> 
</g>
<g style="fill:#848400; fill-opacity:0.0; 
stroke:#848400; stroke-width:60; stroke-opacity:1; 
stroke-linecap:round; stroke-linejoin:round;">
</g>
<g style="fill:#0000C2; fill-opacity:0.0; 
stroke:#0000C2; stroke-width:60; stroke-opacity:1; 
stroke-linecap:round; stroke-linejoin:round;">
<text x="51250" y="32280"
textLength="5800" font-size="660" lengthAdjust="spacingAndGlyphs"
text-anchor="start" opacity="0">Power for PLLs</text>
<path d="M51390 32250
L51390 31750
L51580 31750
L51630 31780
L51660 31800
L51680 31850
L51680 31920
L51660 31970
L51630 31990
L51580 32010
L51390 32010
" />
<path d="M51970 32250
L51920 32230
L51890 32200
L51870 32160
L51870 32010
L51890 31970
L51920 31940
L51970 31920
L52040 31920
L52080 31940
L52110 31970
L52130 32010
L52130 32160
L52110 32200
L52080 32230
L52040 32250
L51970 32250
" />
<path d="M52300 31920
L52390 32250
L52490 32010
L52580 32250
L52680 31920
" />
<path d="M53060 32230
L53010 32250
L52920 32250
L52870 32230
L52850 32180
L52850 31990
L52870 31940
L52920 31920
L53010 31920
L53060 31940
L53080 31990
L53080 32040
L52850 32080
" />
<path d="M53300 32250
L53300 31920
" />
<path d="M53300 32010
L53320 31970
L53350 31940
L53390 31920
L53440 31920
" />
<path d="M53920 31920
L54110 31920
" />
<path d="M53990 32250
L53990 31820
L54010 31780
L54060 31750
L54110 31750
" />
<path d="M54350 32250
L54300 32230
L54280 32200
L54250 32160
L54250 32010
L54280 31970
L54300 31940
L54350 31920
L54420 31920
L54470 31940
L54490 31970
L54510 32010
L54510 32160
L54490 32200
L54470 32230
L54420 32250
L54350 32250
" />
<path d="M54730 32250
L54730 31920
" />
<path d="M54730 32010
L54750 31970
L54780 31940
L54820 31920
L54870 31920
" />
<path d="M55420 32250
L55420 31750
L55610 31750
L55660 31780
L55680 31800
L55700 31850
L55700 31920
L55680 31970
L55660 31990
L55610 32010
L55420 32010
" />
<path d="M56160 32250
L55920 32250
L55920 31750
" />
<path d="M56560 32250
L56320 32250
L56320 31750
" />
<path d="M56700 32230
L56750 32250
L56850 32250
L56890 32230
L56920 32180
L56920 32160
L56890 32110
L56850 32080
L56780 32080
L56730 32060
L56700 32010
L56700 31990
L56730 31940
L56780 31920
L56850 31920
L56890 31940
" />
<text x="51250" y="33090"
textLength="10800" font-size="660" lengthAdjust="spacingAndGlyphs"
text-anchor="start" opacity="0">GND must not be connected</text>
<path d="M51660 32590
L51610 32560
L51540 32560
L51470 32590
L51420 32630
L51390 32680
L51370 32780
L51370 32850
L51390 32940
L51420 32990
L51470 33040
L51540 33060
L51580 33060
L51660 33040
L51680 33010
L51680 32850
L51580 32850
" />
<path d="M51890 33060
L51890 32560
L52180 33060
L52180 32560
" />
<path d="M52420 33060
L52420 32560
L52540 32560
L52610 32590
L52660 32630
L52680 32680
L52700 32780
L52700 32850
L52680 32940
L52660 32990
L52610 33040
L52540 33060
L52420 33060
" />
<path d="M53300 33060
L53300 32730
" />
<path d="M53300 32780
L53320 32750
L53370 32730
L53440 32730
L53490 32750
L53510 32800
L53510 33060
" />
<path d="M53510 32800
L53540 32750
L53580 32730
L53660 32730
L53700 32750
L53730 32800
L53730 33060
" />
<path d="M54180 32730
L54180 33060
" />
<path d="M53970 32730
L53970 32990
L53990 33040
L54040 33060
L54110 33060
L54160 33040
L54180 33010
" />
<path d="M54390 33040
L54440 33060
L54540 33060
L54580 33040
L54610 32990
L54610 32970
L54580 32920
L54540 32890
L54470 32890
L54420 32870
L54390 32820
L54390 32800
L54420 32750
L54470 32730
L54540 32730
L54580 32750
" />
<path d="M54750 32730
L54940 32730
" />
<path d="M54820 32560
L54820 32990
L54850 33040
L54890 33060
L54940 33060
" />
<path d="M55490 32730
L55490 33060
" />
<path d="M55490 32780
L55510 32750
L55560 32730
L55630 32730
L55680 32750
L55700 32800
L55700 33060
" />
<path d="M56010 33060
L55970 33040
L55940 33010
L55920 32970
L55920 32820
L55940 32780
L55970 32750
L56010 32730
L56080 32730
L56130 32750
L56160 32780
L56180 32820
L56180 32970
L56160 33010
L56130 33040
L56080 33060
L56010 33060
" />
<path d="M56320 32730
L56510 32730
" />
<path d="M56390 32560
L56390 32990
L56420 33040
L56470 33060
L56510 33060
" />
<path d="M57060 33060
L57060 32560
" />
<path d="M57060 32750
L57110 32730
L57200 32730
L57250 32750
L57280 32780
L57300 32820
L57300 32970
L57280 33010
L57250 33040
L57200 33060
L57110 33060
L57060 33040
" />
<path d="M57700 33040
L57660 33060
L57560 33060
L57510 33040
L57490 32990
L57490 32800
L57510 32750
L57560 32730
L57660 32730
L57700 32750
L57730 32800
L57730 32850
L57490 32890
" />
<path d="M58540 33040
L58490 33060
L58390 33060
L58350 33040
L58320 33010
L58300 32970
L58300 32820
L58320 32780
L58350 32750
L58390 32730
L58490 32730
L58540 32750
" />
<path d="M58820 33060
L58780 33040
L58750 33010
L58730 32970
L58730 32820
L58750 32780
L58780 32750
L58820 32730
L58890 32730
L58940 32750
L58970 32780
L58990 32820
L58990 32970
L58970 33010
L58940 33040
L58890 33060
L58820 33060
" />
<path d="M59200 32730
L59200 33060
" />
<path d="M59200 32780
L59230 32750
L59280 32730
L59350 32730
L59390 32750
L59420 32800
L59420 33060
" />
<path d="M59660 32730
L59660 33060
" />
<path d="M59660 32780
L59680 32750
L59730 32730
L59800 32730
L59850 32750
L59870 32800
L59870 33060
" />
<path d="M60300 33040
L60250 33060
L60160 33060
L60110 33040
L60080 32990
L60080 32800
L60110 32750
L60160 32730
L60250 32730
L60300 32750
L60320 32800
L60320 32850
L60080 32890
" />
<path d="M60750 33040
L60700 33060
L60610 33060
L60560 33040
L60540 33010
L60510 32970
L60510 32820
L60540 32780
L60560 32750
L60610 32730
L60700 32730
L60750 32750
" />
<path d="M60890 32730
L61080 32730
" />
<path d="M60970 32560
L60970 32990
L60990 33040
L61040 33060
L61080 33060
" />
<path d="M61440 33040
L61390 33060
L61300 33060
L61250 33040
L61230 32990
L61230 32800
L61250 32750
L61300 32730
L61390 32730
L61440 32750
L61470 32800
L61470 32850
L61230 32890
" />
<path d="M61890 33060
L61890 32560
" />
<path d="M61890 33040
L61850 33060
L61750 33060
L61700 33040
L61680 33010
L61660 32970
L61660 32820
L61680 32780
L61700 32750
L61750 32730
L61850 32730
L61890 32750
" />
<text x="51250" y="33900"
textLength="6350" font-size="660" lengthAdjust="spacingAndGlyphs"
text-anchor="start" opacity="0">to Board Ground</text>
<path d="M51320 33540
L51510 33540
" />
<path d="M51390 33370
L51390 33800
L51420 33850
L51470 33870
L51510 33870
" />
<path d="M51750 33870
L51700 33850
L51680 33820
L51660 33780
L51660 33630
L51680 33590
L51700 33560
L51750 33540
L51820 33540
L51870 33560
L51890 33590
L51920 33630
L51920 33780
L51890 33820
L51870 33850
L51820 33870
L51750 33870
" />
<path d="M52680 33610
L52750 33630
L52780 33660
L52800 33700
L52800 33780
L52780 33820
L52750 33850
L52700 33870
L52510 33870
L52510 33370
L52680 33370
L52730 33400
L52750 33420
L52780 33470
L52780 33510
L52750 33560
L52730 33590
L52680 33610
L52510 33610
" />
<path d="M53080 33870
L53040 33850
L53010 33820
L52990 33780
L52990 33630
L53010 33590
L53040 33560
L53080 33540
L53160 33540
L53200 33560
L53230 33590
L53250 33630
L53250 33780
L53230 33820
L53200 33850
L53160 33870
L53080 33870
" />
<path d="M53680 33870
L53680 33610
L53660 33560
L53610 33540
L53510 33540
L53470 33560
" />
<path d="M53680 33850
L53630 33870
L53510 33870
L53470 33850
L53440 33800
L53440 33750
L53470 33700
L53510 33680
L53630 33680
L53680 33660
" />
<path d="M53920 33870
L53920 33540
" />
<path d="M53920 33630
L53940 33590
L53970 33560
L54010 33540
L54060 33540
" />
<path d="M54440 33870
L54440 33370
" />
<path d="M54440 33850
L54390 33870
L54300 33870
L54250 33850
L54230 33820
L54200 33780
L54200 33630
L54230 33590
L54250 33560
L54300 33540
L54390 33540
L54440 33560
" />
<path d="M55320 33400
L55280 33370
L55200 33370
L55130 33400
L55080 33440
L55060 33490
L55040 33590
L55040 33660
L55060 33750
L55080 33800
L55130 33850
L55200 33870
L55250 33870
L55320 33850
L55350 33820
L55350 33660
L55250 33660
" />
<path d="M55560 33870
L55560 33540
" />
<path d="M55560 33630
L55580 33590
L55610 33560
L55660 33540
L55700 33540
" />
<path d="M55940 33870
L55890 33850
L55870 33820
L55850 33780
L55850 33630
L55870 33590
L55890 33560
L55940 33540
L56010 33540
L56060 33560
L56080 33590
L56110 33630
L56110 33780
L56080 33820
L56060 33850
L56010 33870
L55940 33870
" />
<path d="M56540 33540
L56540 33870
" />
<path d="M56320 33540
L56320 33800
L56350 33850
L56390 33870
L56470 33870
L56510 33850
L56540 33820
" />
<path d="M56780 33540
L56780 33870
" />
<path d="M56780 33590
L56800 33560
L56850 33540
L56920 33540
L56970 33560
L56990 33610
L56990 33870
" />
<path d="M57440 33870
L57440 33370
" />
<path d="M57440 33850
L57390 33870
L57300 33870
L57250 33850
L57230 33820
L57200 33780
L57200 33630
L57230 33590
L57250 33560
L57300 33540
L57390 33540
L57440 33560
" />
</g>
<g style="fill:#0000C2; fill-opacity:0.0; 
stroke:#0000C2; stroke-width:0; stroke-opacity:1; 
stroke-linecap:round; stroke-linejoin:round;">
</g>
<g style="fill:#008400; fill-opacity:0.0; 
stroke:#008400; stroke-width:0; stroke-opacity:1; 
stroke-linecap:round; stroke-linejoin:round;">
</g>
<g style="fill:#008400; fill-opacity:1.0; 
stroke:#008400; stroke-width:100; stroke-opacity:1; 
stroke-linecap:round; stroke-linejoin:round;">
<circle cx="47250" cy="41750" r="200" /> 
</g>
<g style="fill:#008400; fill-opacity:1.0; 
stroke:#008400; stroke-width:0; stroke-opacity:1; 
stroke-linecap:round; stroke-linejoin:round;">
</g>
<g style="fill:#008400; fill-opacity:1.0; 
stroke:#008400; stroke-width:100; stroke-opacity:1; 
stroke-linecap:round; stroke-linejoin:round;">
<circle cx="60250" cy="41750" r="200" /> 
</g> 
</svg>
